<svg xmlns="http://www.w3.org/2000/svg" viewBox="0 0 520 360" role="img" aria-label="An envelope follower tracing a burst">
<title>An envelope follower tracing a burst</title>
<desc>The rectified samples of a quiet-loud-quiet tone, and the one-pole envelope that follows them: it rises with the burst in about 5 ms (attack) and decays after it in about 50 ms (release). Linear amplitude, not dB.</desc>
<g stroke="#888780" stroke-opacity="0.25" stroke-width="1">
<line x1="46.0" y1="326" x2="46.0" y2="14"/>
<line x1="177.4" y1="326" x2="177.4" y2="14"/>
<line x1="308.9" y1="326" x2="308.9" y2="14"/>
<line x1="440.3" y1="326" x2="440.3" y2="14"/>
<line x1="46" y1="326.0" x2="506" y2="326.0"/>
<line x1="46" y1="274.0" x2="506" y2="274.0"/>
<line x1="46" y1="222.0" x2="506" y2="222.0"/>
<line x1="46" y1="170.0" x2="506" y2="170.0"/>
<line x1="46" y1="118.0" x2="506" y2="118.0"/>
<line x1="46" y1="66.0" x2="506" y2="66.0"/>
<line x1="46" y1="14.0" x2="506" y2="14.0"/>
</g>
<g fill="#888780" font-size="11" font-family="system-ui, sans-serif">
<text x="46.0" y="342" text-anchor="middle">0.0</text>
<text x="177.4" y="342" text-anchor="middle">0.1</text>
<text x="308.9" y="342" text-anchor="middle">0.2</text>
<text x="440.3" y="342" text-anchor="middle">0.3</text>
<text x="40" y="329.0" text-anchor="end">0.0</text>
<text x="40" y="277.0" text-anchor="end">0.1</text>
<text x="40" y="225.0" text-anchor="end">0.2</text>
<text x="40" y="173.0" text-anchor="end">0.3</text>
<text x="40" y="121.0" text-anchor="end">0.4</text>
<text x="40" y="69.0" text-anchor="end">0.5</text>
<text x="40" y="17.0" text-anchor="end">0.6</text>
<text x="276.0" y="356" text-anchor="middle">time (s)</text>
<text x="13" y="170.0" text-anchor="middle" transform="rotate(-90 13 170.0)">amplitude (linear)</text>
</g>
<polyline points="46.0,326.0 46.3,308.4 46.7,292.9 47.0,281.2 47.3,274.9 47.6,274.6 48.0,280.4 48.3,291.6 48.6,306.9 49.0,324.4 49.3,309.9 49.6,294.1 49.9,282.1 50.3,275.3 50.6,274.4 50.9,279.7 51.3,290.4 51.6,305.3 51.9,322.7 52.2,311.5 52.6,295.4 52.9,283.0 53.2,275.6 53.6,274.2 53.9,278.9 54.2,289.2 54.5,303.9 54.9,321.1 55.2,313.1 55.5,296.8 55.9,283.9 56.2,276.1 56.5,274.1 56.8,278.3 57.2,288.1 57.5,302.4 57.8,319.5 58.2,314.7 58.5,298.1 58.8,284.9 59.1,276.5 59.5,274.0 59.8,277.7 60.1,287.0 60.5,300.9 60.8,317.9 61.1,316.3 61.4,299.5 61.8,285.9 62.1,277.1 62.4,274.0 62.8,277.1 63.1,285.9 63.4,299.5 63.7,316.3 64.1,317.9 64.4,300.9 64.7,287.0 65.1,277.7 65.4,274.0 65.7,276.5 66.0,284.9 66.4,298.1 66.7,314.7 67.0,319.5 67.4,302.4 67.7,288.1 68.0,278.3 68.3,274.1 68.7,276.1 69.0,283.9 69.3,296.8 69.7,313.1 70.0,321.1 70.3,303.9 70.6,289.2 71.0,278.9 71.3,274.2 71.6,275.6 72.0,283.0 72.3,295.4 72.6,311.5 72.9,322.7 73.3,305.3 73.6,290.4 73.9,279.7 74.3,274.4 74.6,275.3 74.9,282.1 75.2,294.1 75.6,309.9 75.9,324.4 76.2,306.9 76.6,291.6 76.9,280.4 77.2,274.6 77.5,274.9 77.9,281.2 78.2,292.9 78.5,308.4 78.9,326.0 79.2,308.4 79.5,292.9 79.8,281.2 80.2,274.9 80.5,274.6 80.8,280.4 81.2,291.6 81.5,306.9 81.8,324.4 82.1,309.9 82.5,294.1 82.8,282.1 83.1,275.3 83.5,274.4 83.8,279.7 84.1,290.4 84.4,305.3 84.8,322.7 85.1,311.5 85.4,295.4 85.8,283.0 86.1,275.6 86.4,274.2 86.7,278.9 87.1,289.2 87.4,303.9 87.7,321.1 88.1,313.1 88.4,296.8 88.7,283.9 89.0,276.1 89.4,274.1 89.7,278.3 90.0,288.1 90.4,302.4 90.7,319.5 91.0,314.7 91.3,298.1 91.7,284.9 92.0,276.5 92.3,274.0 92.7,277.7 93.0,287.0 93.3,300.9 93.6,317.9 94.0,316.3 94.3,299.5 94.6,285.9 95.0,277.1 95.3,274.0 95.6,277.1 95.9,285.9 96.3,299.5 96.6,316.3 96.9,317.9 97.3,300.9 97.6,287.0 97.9,277.7 98.2,274.0 98.6,276.5 98.9,284.9 99.2,298.1 99.6,314.7 99.9,319.5 100.2,302.4 100.5,288.1 100.9,278.3 101.2,274.1 101.5,276.1 101.9,283.9 102.2,296.8 102.5,313.1 102.8,321.1 103.2,303.9 103.5,289.2 103.8,278.9 104.2,274.2 104.5,275.6 104.8,283.0 105.1,295.4 105.5,311.5 105.8,322.7 106.1,305.3 106.5,290.4 106.8,279.7 107.1,274.4 107.4,275.3 107.8,282.1 108.1,294.1 108.4,309.9 108.8,324.4 109.1,306.9 109.4,291.6 109.7,280.4 110.1,274.6 110.4,274.9 110.7,281.2 111.1,292.9 111.4,308.4 111.7,326.0 112.0,308.4 112.4,292.9 112.7,281.2 113.0,274.9 113.4,274.6 113.7,280.4 114.0,291.6 114.3,306.9 114.7,324.4 115.0,309.9 115.3,294.1 115.7,282.1 116.0,275.3 116.3,274.4 116.6,279.7 117.0,290.4 117.3,305.3 117.6,322.7 118.0,311.5 118.3,295.4 118.6,283.0 118.9,275.6 119.3,274.2 119.6,278.9 119.9,289.2 120.3,303.9 120.6,321.1 120.9,313.1 121.2,296.8 121.6,283.9 121.9,276.1 122.2,274.1 122.6,278.3 122.9,288.1 123.2,302.4 123.5,319.5 123.9,314.7 124.2,298.1 124.5,284.9 124.9,276.5 125.2,274.0 125.5,277.7 125.8,287.0 126.2,300.9 126.5,317.9 126.8,316.3 127.2,299.5 127.5,285.9 127.8,277.1 128.1,274.0 128.5,277.1 128.8,285.9 129.1,299.5 129.5,316.3 129.8,317.9 130.1,300.9 130.4,287.0 130.8,277.7 131.1,274.0 131.4,276.5 131.8,284.9 132.1,298.1 132.4,314.7 132.7,319.5 133.1,302.4 133.4,288.1 133.7,278.3 134.1,274.1 134.4,276.1 134.7,283.9 135.0,296.8 135.4,313.1 135.7,321.1 136.0,303.9 136.4,289.2 136.7,278.9 137.0,274.2 137.3,275.6 137.7,283.0 138.0,295.4 138.3,311.5 138.7,322.7 139.0,305.3 139.3,290.4 139.6,279.7 140.0,274.4 140.3,275.3 140.6,282.1 141.0,294.1 141.3,309.9 141.6,324.4 141.9,306.9 142.3,291.6 142.6,280.4 142.9,274.6 143.3,274.9 143.6,281.2 143.9,292.9 144.2,308.4 144.6,326.0 144.9,308.4 145.2,292.9 145.6,281.2 145.9,274.9 146.2,274.6 146.5,280.4 146.9,291.6 147.2,306.9 147.5,324.4 147.9,309.9 148.2,294.1 148.5,282.1 148.8,275.3 149.2,274.4 149.5,279.7 149.8,290.4 150.2,305.3 150.5,322.7 150.8,311.5 151.1,173.2 151.5,111.0 151.8,74.2 152.1,67.2 152.5,90.7 152.8,142.2 153.1,215.3 153.4,301.5 153.8,261.3 154.1,179.9 154.4,115.7 154.8,76.3 155.1,66.5 155.4,87.4 155.7,136.5 156.1,208.0 156.4,293.4 156.7,269.3 157.1,186.7 157.4,120.6 157.7,78.7 158.0,66.1 158.4,84.3 158.7,131.0 159.0,200.7 159.4,285.3 159.7,277.3 160.0,193.6 160.3,125.7 160.7,81.4 161.0,66.0 161.3,81.4 161.7,125.7 162.0,193.6 162.3,277.3 162.6,285.3 163.0,200.7 163.3,131.0 163.6,84.3 164.0,66.1 164.3,78.7 164.6,120.6 164.9,186.7 165.3,269.3 165.6,293.4 165.9,208.0 166.3,136.5 166.6,87.4 166.9,66.5 167.2,76.3 167.6,115.7 167.9,179.9 168.2,261.3 168.6,301.5 168.9,215.3 169.2,142.2 169.5,90.7 169.9,67.2 170.2,74.2 170.5,111.0 170.9,173.2 171.2,253.5 171.5,309.7 171.8,222.7 172.2,148.0 172.5,94.3 172.8,68.1 173.2,72.3 173.5,106.5 173.8,166.6 174.1,245.7 174.5,317.8 174.8,230.3 175.1,154.1 175.5,98.2 175.8,69.2 176.1,70.6 176.4,102.2 176.8,160.3 177.1,237.9 177.4,326.0 177.8,237.9 178.1,160.3 178.4,102.2 178.7,70.6 179.1,69.2 179.4,98.2 179.7,154.1 180.1,230.3 180.4,317.8 180.7,245.7 181.0,166.6 181.4,106.5 181.7,72.3 182.0,68.1 182.4,94.3 182.7,148.0 183.0,222.7 183.3,309.7 183.7,253.5 184.0,173.2 184.3,111.0 184.7,74.2 185.0,67.2 185.3,90.7 185.6,142.2 186.0,215.3 186.3,301.5 186.6,261.3 187.0,179.9 187.3,115.7 187.6,76.3 187.9,66.5 188.3,87.4 188.6,136.5 188.9,208.0 189.3,293.4 189.6,269.3 189.9,186.7 190.2,120.6 190.6,78.7 190.9,66.1 191.2,84.3 191.6,131.0 191.9,200.7 192.2,285.3 192.5,277.3 192.9,193.6 193.2,125.7 193.5,81.4 193.9,66.0 194.2,81.4 194.5,125.7 194.8,193.6 195.2,277.3 195.5,285.3 195.8,200.7 196.2,131.0 196.5,84.3 196.8,66.1 197.1,78.7 197.5,120.6 197.8,186.7 198.1,269.3 198.5,293.4 198.8,208.0 199.1,136.5 199.4,87.4 199.8,66.5 200.1,76.3 200.4,115.7 200.8,179.9 201.1,261.3 201.4,301.5 201.7,215.3 202.1,142.2 202.4,90.7 202.7,67.2 203.1,74.2 203.4,111.0 203.7,173.2 204.0,253.5 204.4,309.7 204.7,222.7 205.0,148.0 205.4,94.3 205.7,68.1 206.0,72.3 206.3,106.5 206.7,166.6 207.0,245.7 207.3,317.8 207.7,230.3 208.0,154.1 208.3,98.2 208.6,69.2 209.0,70.6 209.3,102.2 209.6,160.3 210.0,237.9 210.3,326.0 210.6,237.9 210.9,160.3 211.3,102.2 211.6,70.6 211.9,69.2 212.3,98.2 212.6,154.1 212.9,230.3 213.2,317.8 213.6,245.7 213.9,166.6 214.2,106.5 214.6,72.3 214.9,68.1 215.2,94.3 215.5,148.0 215.9,222.7 216.2,309.7 216.5,253.5 216.9,173.2 217.2,111.0 217.5,74.2 217.8,67.2 218.2,90.7 218.5,142.2 218.8,215.3 219.2,301.5 219.5,261.3 219.8,179.9 220.1,115.7 220.5,76.3 220.8,66.5 221.1,87.4 221.5,136.5 221.8,208.0 222.1,293.4 222.4,269.3 222.8,186.7 223.1,120.6 223.4,78.7 223.8,66.1 224.1,84.3 224.4,131.0 224.7,200.7 225.1,285.3 225.4,277.3 225.7,193.6 226.1,125.7 226.4,81.4 226.7,66.0 227.0,81.4 227.4,125.7 227.7,193.6 228.0,277.3 228.4,285.3 228.7,200.7 229.0,131.0 229.3,84.3 229.7,66.1 230.0,78.7 230.3,120.6 230.7,186.7 231.0,269.3 231.3,293.4 231.6,208.0 232.0,136.5 232.3,87.4 232.6,66.5 233.0,76.3 233.3,115.7 233.6,179.9 233.9,261.3 234.3,301.5 234.6,215.3 234.9,142.2 235.3,90.7 235.6,67.2 235.9,74.2 236.2,111.0 236.6,173.2 236.9,253.5 237.2,309.7 237.6,222.7 237.9,148.0 238.2,94.3 238.5,68.1 238.9,72.3 239.2,106.5 239.5,166.6 239.9,245.7 240.2,317.8 240.5,230.3 240.8,154.1 241.2,98.2 241.5,69.2 241.8,70.6 242.2,102.2 242.5,160.3 242.8,237.9 243.1,326.0 243.5,237.9 243.8,160.3 244.1,102.2 244.5,70.6 244.8,69.2 245.1,98.2 245.4,154.1 245.8,230.3 246.1,317.8 246.4,245.7 246.8,166.6 247.1,106.5 247.4,72.3 247.7,68.1 248.1,94.3 248.4,148.0 248.7,222.7 249.1,309.7 249.4,253.5 249.7,173.2 250.0,111.0 250.4,74.2 250.7,67.2 251.0,90.7 251.4,142.2 251.7,215.3 252.0,301.5 252.3,261.3 252.7,179.9 253.0,115.7 253.3,76.3 253.7,66.5 254.0,87.4 254.3,136.5 254.6,208.0 255.0,293.4 255.3,269.3 255.6,186.7 256.0,120.6 256.3,78.7 256.6,66.1 256.9,84.3 257.3,131.0 257.6,200.7 257.9,285.3 258.3,277.3 258.6,193.6 258.9,125.7 259.2,81.4 259.6,66.0 259.9,81.4 260.2,125.7 260.6,193.6 260.9,277.3 261.2,285.3 261.5,200.7 261.9,131.0 262.2,84.3 262.5,66.1 262.9,78.7 263.2,120.6 263.5,186.7 263.8,269.3 264.2,293.4 264.5,208.0 264.8,136.5 265.2,87.4 265.5,66.5 265.8,76.3 266.1,115.7 266.5,179.9 266.8,261.3 267.1,301.5 267.5,215.3 267.8,142.2 268.1,90.7 268.4,67.2 268.8,74.2 269.1,111.0 269.4,173.2 269.8,253.5 270.1,309.7 270.4,222.7 270.7,148.0 271.1,94.3 271.4,68.1 271.7,72.3 272.1,106.5 272.4,166.6 272.7,245.7 273.0,317.8 273.4,230.3 273.7,154.1 274.0,98.2 274.4,69.2 274.7,70.6 275.0,102.2 275.3,160.3 275.7,237.9 276.0,326.0 276.3,237.9 276.7,160.3 277.0,102.2 277.3,70.6 277.6,69.2 278.0,98.2 278.3,154.1 278.6,230.3 279.0,317.8 279.3,245.7 279.6,166.6 279.9,106.5 280.3,72.3 280.6,68.1 280.9,94.3 281.3,148.0 281.6,222.7 281.9,309.7 282.2,253.5 282.6,295.4 282.9,283.0 283.2,275.6 283.6,274.2 283.9,278.9 284.2,289.2 284.5,303.9 284.9,321.1 285.2,313.1 285.5,296.8 285.9,283.9 286.2,276.1 286.5,274.1 286.8,278.3 287.2,288.1 287.5,302.4 287.8,319.5 288.2,314.7 288.5,298.1 288.8,284.9 289.1,276.5 289.5,274.0 289.8,277.7 290.1,287.0 290.5,300.9 290.8,317.9 291.1,316.3 291.4,299.5 291.8,285.9 292.1,277.1 292.4,274.0 292.8,277.1 293.1,285.9 293.4,299.5 293.7,316.3 294.1,317.9 294.4,300.9 294.7,287.0 295.1,277.7 295.4,274.0 295.7,276.5 296.0,284.9 296.4,298.1 296.7,314.7 297.0,319.5 297.4,302.4 297.7,288.1 298.0,278.3 298.3,274.1 298.7,276.1 299.0,283.9 299.3,296.8 299.7,313.1 300.0,321.1 300.3,303.9 300.6,289.2 301.0,278.9 301.3,274.2 301.6,275.6 302.0,283.0 302.3,295.4 302.6,311.5 302.9,322.7 303.3,305.3 303.6,290.4 303.9,279.7 304.3,274.4 304.6,275.3 304.9,282.1 305.2,294.1 305.6,309.9 305.9,324.4 306.2,306.9 306.6,291.6 306.9,280.4 307.2,274.6 307.5,274.9 307.9,281.2 308.2,292.9 308.5,308.4 308.9,326.0 309.2,308.4 309.5,292.9 309.8,281.2 310.2,274.9 310.5,274.6 310.8,280.4 311.2,291.6 311.5,306.9 311.8,324.4 312.1,309.9 312.5,294.1 312.8,282.1 313.1,275.3 313.5,274.4 313.8,279.7 314.1,290.4 314.4,305.3 314.8,322.7 315.1,311.5 315.4,295.4 315.8,283.0 316.1,275.6 316.4,274.2 316.7,278.9 317.1,289.2 317.4,303.9 317.7,321.1 318.1,313.1 318.4,296.8 318.7,283.9 319.0,276.1 319.4,274.1 319.7,278.3 320.0,288.1 320.4,302.4 320.7,319.5 321.0,314.7 321.3,298.1 321.7,284.9 322.0,276.5 322.3,274.0 322.7,277.7 323.0,287.0 323.3,300.9 323.6,317.9 324.0,316.3 324.3,299.5 324.6,285.9 325.0,277.1 325.3,274.0 325.6,277.1 325.9,285.9 326.3,299.5 326.6,316.3 326.9,317.9 327.3,300.9 327.6,287.0 327.9,277.7 328.2,274.0 328.6,276.5 328.9,284.9 329.2,298.1 329.6,314.7 329.9,319.5 330.2,302.4 330.5,288.1 330.9,278.3 331.2,274.1 331.5,276.1 331.9,283.9 332.2,296.8 332.5,313.1 332.8,321.1 333.2,303.9 333.5,289.2 333.8,278.9 334.2,274.2 334.5,275.6 334.8,283.0 335.1,295.4 335.5,311.5 335.8,322.7 336.1,305.3 336.5,290.4 336.8,279.7 337.1,274.4 337.4,275.3 337.8,282.1 338.1,294.1 338.4,309.9 338.8,324.4 339.1,306.9 339.4,291.6 339.7,280.4 340.1,274.6 340.4,274.9 340.7,281.2 341.1,292.9 341.4,308.4 341.7,326.0 342.0,308.4 342.4,292.9 342.7,281.2 343.0,274.9 343.4,274.6 343.7,280.4 344.0,291.6 344.3,306.9 344.7,324.4 345.0,309.9 345.3,294.1 345.7,282.1 346.0,275.3 346.3,274.4 346.6,279.7 347.0,290.4 347.3,305.3 347.6,322.7 348.0,311.5 348.3,295.4 348.6,283.0 348.9,275.6 349.3,274.2 349.6,278.9 349.9,289.2 350.3,303.9 350.6,321.1 350.9,313.1 351.2,296.8 351.6,283.9 351.9,276.1 352.2,274.1 352.6,278.3 352.9,288.1 353.2,302.4 353.5,319.5 353.9,314.7 354.2,298.1 354.5,284.9 354.9,276.5 355.2,274.0 355.5,277.7 355.8,287.0 356.2,300.9 356.5,317.9 356.8,316.3 357.2,299.5 357.5,285.9 357.8,277.1 358.1,274.0 358.5,277.1 358.8,285.9 359.1,299.5 359.5,316.3 359.8,317.9 360.1,300.9 360.4,287.0 360.8,277.7 361.1,274.0 361.4,276.5 361.8,284.9 362.1,298.1 362.4,314.7 362.7,319.5 363.1,302.4 363.4,288.1 363.7,278.3 364.1,274.1 364.4,276.1 364.7,283.9 365.0,296.8 365.4,313.1 365.7,321.1 366.0,303.9 366.4,289.2 366.7,278.9 367.0,274.2 367.3,275.6 367.7,283.0 368.0,295.4 368.3,311.5 368.7,322.7 369.0,305.3 369.3,290.4 369.6,279.7 370.0,274.4 370.3,275.3 370.6,282.1 371.0,294.1 371.3,309.9 371.6,324.4 371.9,306.9 372.3,291.6 372.6,280.4 372.9,274.6 373.3,274.9 373.6,281.2 373.9,292.9 374.2,308.4 374.6,326.0 374.9,308.4 375.2,292.9 375.6,281.2 375.9,274.9 376.2,274.6 376.5,280.4 376.9,291.6 377.2,306.9 377.5,324.4 377.9,309.9 378.2,294.1 378.5,282.1 378.8,275.3 379.2,274.4 379.5,279.7 379.8,290.4 380.2,305.3 380.5,322.7 380.8,311.5 381.1,295.4 381.5,283.0 381.8,275.6 382.1,274.2 382.5,278.9 382.8,289.2 383.1,303.9 383.4,321.1 383.8,313.1 384.1,296.8 384.4,283.9 384.8,276.1 385.1,274.1 385.4,278.3 385.7,288.1 386.1,302.4 386.4,319.5 386.7,314.7 387.1,298.1 387.4,284.9 387.7,276.5 388.0,274.0 388.4,277.7 388.7,287.0 389.0,300.9 389.4,317.9 389.7,316.3 390.0,299.5 390.3,285.9 390.7,277.1 391.0,274.0 391.3,277.1 391.7,285.9 392.0,299.5 392.3,316.3 392.6,317.9 393.0,300.9 393.3,287.0 393.6,277.7 394.0,274.0 394.3,276.5 394.6,284.9 394.9,298.1 395.3,314.7 395.6,319.5 395.9,302.4 396.3,288.1 396.6,278.3 396.9,274.1 397.2,276.1 397.6,283.9 397.9,296.8 398.2,313.1 398.6,321.1 398.9,303.9 399.2,289.2 399.5,278.9 399.9,274.2 400.2,275.6 400.5,283.0 400.9,295.4 401.2,311.5 401.5,322.7 401.8,305.3 402.2,290.4 402.5,279.7 402.8,274.4 403.2,275.3 403.5,282.1 403.8,294.1 404.1,309.9 404.5,324.4 404.8,306.9 405.1,291.6 405.5,280.4 405.8,274.6 406.1,274.9 406.4,281.2 406.8,292.9 407.1,308.4 407.4,326.0 407.8,308.4 408.1,292.9 408.4,281.2 408.7,274.9 409.1,274.6 409.4,280.4 409.7,291.6 410.1,306.9 410.4,324.4 410.7,309.9 411.0,294.1 411.4,282.1 411.7,275.3 412.0,274.4 412.4,279.7 412.7,290.4 413.0,305.3 413.3,322.7 413.7,311.5 414.0,295.4 414.3,283.0 414.7,275.6 415.0,274.2 415.3,278.9 415.6,289.2 416.0,303.9 416.3,321.1 416.6,313.1 417.0,296.8 417.3,283.9 417.6,276.1 417.9,274.1 418.3,278.3 418.6,288.1 418.9,302.4 419.3,319.5 419.6,314.7 419.9,298.1 420.2,284.9 420.6,276.5 420.9,274.0 421.2,277.7 421.6,287.0 421.9,300.9 422.2,317.9 422.5,316.3 422.9,299.5 423.2,285.9 423.5,277.1 423.9,274.0 424.2,277.1 424.5,285.9 424.8,299.5 425.2,316.3 425.5,317.9 425.8,300.9 426.2,287.0 426.5,277.7 426.8,274.0 427.1,276.5 427.5,284.9 427.8,298.1 428.1,314.7 428.5,319.5 428.8,302.4 429.1,288.1 429.4,278.3 429.8,274.1 430.1,276.1 430.4,283.9 430.8,296.8 431.1,313.1 431.4,321.1 431.7,303.9 432.1,289.2 432.4,278.9 432.7,274.2 433.1,275.6 433.4,283.0 433.7,295.4 434.0,311.5 434.4,322.7 434.7,305.3 435.0,290.4 435.4,279.7 435.7,274.4 436.0,275.3 436.3,282.1 436.7,294.1 437.0,309.9 437.3,324.4 437.7,306.9 438.0,291.6 438.3,280.4 438.6,274.6 439.0,274.9 439.3,281.2 439.6,292.9 440.0,308.4 440.3,326.0 440.6,308.4 440.9,292.9 441.3,281.2 441.6,274.9 441.9,274.6 442.3,280.4 442.6,291.6 442.9,306.9 443.2,324.4 443.6,309.9 443.9,294.1 444.2,282.1 444.6,275.3 444.9,274.4 445.2,279.7 445.5,290.4 445.9,305.3 446.2,322.7 446.5,311.5 446.9,295.4 447.2,283.0 447.5,275.6 447.8,274.2 448.2,278.9 448.5,289.2 448.8,303.9 449.2,321.1 449.5,313.1 449.8,296.8 450.1,283.9 450.5,276.1 450.8,274.1 451.1,278.3 451.5,288.1 451.8,302.4 452.1,319.5 452.4,314.7 452.8,298.1 453.1,284.9 453.4,276.5 453.8,274.0 454.1,277.7 454.4,287.0 454.7,300.9 455.1,317.9 455.4,316.3 455.7,299.5 456.1,285.9 456.4,277.1 456.7,274.0 457.0,277.1 457.4,285.9 457.7,299.5 458.0,316.3 458.4,317.9 458.7,300.9 459.0,287.0 459.3,277.7 459.7,274.0 460.0,276.5 460.3,284.9 460.7,298.1 461.0,314.7 461.3,319.5 461.6,302.4 462.0,288.1 462.3,278.3 462.6,274.1 463.0,276.1 463.3,283.9 463.6,296.8 463.9,313.1 464.3,321.1 464.6,303.9 464.9,289.2 465.3,278.9 465.6,274.2 465.9,275.6 466.2,283.0 466.6,295.4 466.9,311.5 467.2,322.7 467.6,305.3 467.9,290.4 468.2,279.7 468.5,274.4 468.9,275.3 469.2,282.1 469.5,294.1 469.9,309.9 470.2,324.4 470.5,306.9 470.8,291.6 471.2,280.4 471.5,274.6 471.8,274.9 472.2,281.2 472.5,292.9 472.8,308.4 473.1,326.0 473.5,308.4 473.8,292.9 474.1,281.2 474.5,274.9 474.8,274.6 475.1,280.4 475.4,291.6 475.8,306.9 476.1,324.4 476.4,309.9 476.8,294.1 477.1,282.1 477.4,275.3 477.7,274.4 478.1,279.7 478.4,290.4 478.7,305.3 479.1,322.7 479.4,311.5 479.7,295.4 480.0,283.0 480.4,275.6 480.7,274.2 481.0,278.9 481.4,289.2 481.7,303.9 482.0,321.1 482.3,313.1 482.7,296.8 483.0,283.9 483.3,276.1 483.7,274.1 484.0,278.3 484.3,288.1 484.6,302.4 485.0,319.5 485.3,314.7 485.6,298.1 486.0,284.9 486.3,276.5 486.6,274.0 486.9,277.7 487.3,287.0 487.6,300.9 487.9,317.9 488.3,316.3 488.6,299.5 488.9,285.9 489.2,277.1 489.6,274.0 489.9,277.1 490.2,285.9 490.6,299.5 490.9,316.3 491.2,317.9 491.5,300.9 491.9,287.0 492.2,277.7 492.5,274.0 492.9,276.5 493.2,284.9 493.5,298.1 493.8,314.7 494.2,319.5 494.5,302.4 494.8,288.1 495.2,278.3 495.5,274.1 495.8,276.1 496.1,283.9 496.5,296.8 496.8,313.1 497.1,321.1 497.5,303.9 497.8,289.2 498.1,278.9 498.4,274.2 498.8,275.6 499.1,283.0 499.4,295.4 499.8,311.5 500.1,322.7 500.4,305.3 500.7,290.4 501.1,279.7 501.4,274.4 501.7,275.3 502.1,282.1 502.4,294.1 502.7,309.9 503.0,324.4 503.4,306.9 503.7,291.6 504.0,280.4 504.4,274.6 504.7,274.9 505.0,281.2 505.3,292.9 505.7,308.4" fill="none" stroke="#888780" stroke-width="1.0" stroke-opacity="0.5"/>
<polyline points="46.0,326.0 46.3,325.3 46.7,323.9 47.0,322.0 47.3,319.7 47.6,317.5 48.0,315.6 48.3,314.3 48.6,313.8 49.0,313.8 49.3,313.7 49.6,312.9 49.9,311.6 50.3,309.9 50.6,308.1 50.9,306.6 51.3,305.7 51.6,305.5 51.9,305.6 52.2,305.6 52.6,305.3 52.9,304.4 53.2,303.0 53.6,301.6 53.9,300.4 54.2,299.8 54.5,299.7 54.9,299.8 55.2,299.8 55.5,299.8 55.9,299.2 56.2,298.1 56.5,296.9 56.8,296.0 57.2,295.4 57.5,295.4 57.8,295.5 58.2,295.7 58.5,295.7 58.8,295.3 59.1,294.5 59.5,293.5 59.8,292.7 60.1,292.3 60.5,292.3 60.8,292.4 61.1,292.5 61.4,292.6 61.8,292.4 62.1,291.8 62.4,290.9 62.8,290.2 63.1,289.8 63.4,289.9 63.7,290.0 64.1,290.1 64.4,290.2 64.7,290.1 65.1,289.6 65.4,288.9 65.7,288.2 66.0,288.0 66.4,288.0 66.7,288.1 67.0,288.3 67.4,288.4 67.7,288.4 68.0,288.0 68.3,287.3 68.7,286.8 69.0,286.5 69.3,286.5 69.7,286.6 70.0,286.8 70.3,286.9 70.6,287.0 71.0,286.7 71.3,286.1 71.6,285.6 72.0,285.3 72.3,285.4 72.6,285.5 72.9,285.7 73.3,285.8 73.6,285.8 73.9,285.6 74.3,285.1 74.6,284.6 74.9,284.4 75.2,284.4 75.6,284.5 75.9,284.7 76.2,284.8 76.6,284.9 76.9,284.8 77.2,284.3 77.5,283.9 77.9,283.6 78.2,283.7 78.5,283.8 78.9,284.0 79.2,284.1 79.5,284.2 79.8,284.1 80.2,283.7 80.5,283.3 80.8,283.0 81.2,283.1 81.5,283.2 81.8,283.3 82.1,283.5 82.5,283.6 82.8,283.5 83.1,283.2 83.5,282.8 83.8,282.5 84.1,282.6 84.4,282.7 84.8,282.8 85.1,283.0 85.4,283.1 85.8,283.1 86.1,282.8 86.4,282.4 86.7,282.1 87.1,282.2 87.4,282.2 87.7,282.4 88.1,282.6 88.4,282.7 88.7,282.7 89.0,282.5 89.4,282.1 89.7,281.8 90.0,281.8 90.4,281.9 90.7,282.1 91.0,282.3 91.3,282.4 91.7,282.4 92.0,282.2 92.3,281.8 92.7,281.5 93.0,281.5 93.3,281.6 93.6,281.8 94.0,282.0 94.3,282.1 94.6,282.1 95.0,282.0 95.3,281.6 95.6,281.3 95.9,281.3 96.3,281.4 96.6,281.5 96.9,281.7 97.3,281.9 97.6,281.9 97.9,281.8 98.2,281.4 98.6,281.1 98.9,281.1 99.2,281.2 99.6,281.3 99.9,281.5 100.2,281.7 100.5,281.7 100.9,281.6 101.2,281.3 101.5,281.0 101.9,281.0 102.2,281.0 102.5,281.2 102.8,281.4 103.2,281.5 103.5,281.6 103.8,281.5 104.2,281.2 104.5,280.9 104.8,280.8 105.1,280.9 105.5,281.0 105.8,281.2 106.1,281.4 106.5,281.4 106.8,281.4 107.1,281.1 107.4,280.8 107.8,280.7 108.1,280.8 108.4,280.9 108.8,281.1 109.1,281.2 109.4,281.3 109.7,281.3 110.1,281.0 110.4,280.7 110.7,280.6 111.1,280.7 111.4,280.8 111.7,281.0 112.0,281.1 112.4,281.2 112.7,281.2 113.0,281.0 113.4,280.7 113.7,280.6 114.0,280.6 114.3,280.7 114.7,280.9 115.0,281.1 115.3,281.2 115.7,281.2 116.0,281.0 116.3,280.6 116.6,280.5 117.0,280.5 117.3,280.6 117.6,280.8 118.0,281.0 118.3,281.1 118.6,281.1 118.9,280.9 119.3,280.6 119.6,280.4 119.9,280.5 120.3,280.6 120.6,280.7 120.9,280.9 121.2,281.0 121.6,281.1 121.9,280.9 122.2,280.6 122.6,280.4 122.9,280.4 123.2,280.5 123.5,280.7 123.9,280.9 124.2,281.0 124.5,281.0 124.9,280.9 125.2,280.5 125.5,280.3 125.8,280.4 126.2,280.4 126.5,280.6 126.8,280.8 127.2,280.9 127.5,281.0 127.8,280.9 128.1,280.6 128.5,280.3 128.8,280.3 129.1,280.4 129.5,280.6 129.8,280.8 130.1,280.9 130.4,280.9 130.8,280.9 131.1,280.6 131.4,280.3 131.8,280.3 132.1,280.4 132.4,280.5 132.7,280.7 133.1,280.9 133.4,280.9 133.7,280.9 134.1,280.6 134.4,280.3 134.7,280.3 135.0,280.4 135.4,280.5 135.7,280.7 136.0,280.8 136.4,280.9 136.7,280.9 137.0,280.6 137.3,280.3 137.7,280.3 138.0,280.3 138.3,280.5 138.7,280.7 139.0,280.8 139.3,280.9 139.6,280.8 140.0,280.6 140.3,280.3 140.6,280.2 141.0,280.3 141.3,280.4 141.6,280.6 141.9,280.8 142.3,280.8 142.6,280.8 142.9,280.6 143.3,280.3 143.6,280.2 143.9,280.3 144.2,280.4 144.6,280.6 144.9,280.8 145.2,280.8 145.6,280.9 145.9,280.6 146.2,280.3 146.5,280.2 146.9,280.3 147.2,280.4 147.5,280.6 147.9,280.7 148.2,280.8 148.5,280.9 148.8,280.6 149.2,280.3 149.5,280.2 149.8,280.3 150.2,280.4 150.5,280.6 150.8,280.7 151.1,278.1 151.5,270.7 151.8,261.4 152.1,251.9 152.5,243.7 152.8,238.1 153.1,236.0 153.4,236.2 153.8,236.5 154.1,234.7 154.4,229.6 154.8,222.5 155.1,214.9 155.4,208.3 155.7,204.2 156.1,203.3 156.4,203.7 156.7,204.1 157.1,203.7 157.4,200.4 157.7,194.9 158.0,188.7 158.4,183.3 158.7,180.1 159.0,179.7 159.4,180.1 159.7,180.7 160.0,180.9 160.3,179.0 160.7,174.7 161.0,169.4 161.3,164.9 161.7,162.3 162.0,162.3 162.3,162.8 162.6,163.5 163.0,163.8 163.3,162.9 163.6,159.6 164.0,155.2 164.3,151.2 164.6,149.1 164.9,149.2 165.3,149.7 165.6,150.5 165.9,150.9 166.3,150.5 166.6,148.0 166.9,144.2 167.2,140.6 167.6,138.9 167.9,139.0 168.2,139.5 168.6,140.3 168.9,140.8 169.2,140.9 169.5,139.0 169.9,135.7 170.2,132.5 170.5,130.9 170.9,131.0 171.2,131.5 171.5,132.4 171.8,133.0 172.2,133.1 172.5,131.8 172.8,128.9 173.2,126.0 173.5,124.6 173.8,124.7 174.1,125.2 174.5,126.1 174.8,126.7 175.1,126.9 175.5,126.1 175.8,123.6 176.1,120.9 176.4,119.5 176.8,119.7 177.1,120.2 177.4,121.1 177.8,121.8 178.1,122.0 178.4,121.6 178.7,119.4 179.1,116.9 179.4,115.5 179.7,115.6 180.1,116.1 180.4,117.0 180.7,117.7 181.0,118.1 181.4,117.8 181.7,115.9 182.0,113.6 182.4,112.2 182.7,112.3 183.0,112.8 183.3,113.6 183.7,114.4 184.0,114.8 184.3,114.8 184.7,113.2 185.0,110.9 185.3,109.6 185.6,109.7 186.0,110.1 186.3,110.9 186.6,111.8 187.0,112.2 187.3,112.3 187.6,111.0 187.9,108.8 188.3,107.4 188.6,107.5 188.9,107.9 189.3,108.7 189.6,109.6 189.9,110.1 190.2,110.2 190.6,109.1 190.9,107.1 191.2,105.7 191.6,105.7 191.9,106.1 192.2,106.9 192.5,107.8 192.9,108.4 193.2,108.5 193.5,107.6 193.9,105.7 194.2,104.2 194.5,104.2 194.8,104.6 195.2,105.3 195.5,106.3 195.8,106.9 196.2,107.1 196.5,106.4 196.8,104.6 197.1,103.1 197.5,103.0 197.8,103.3 198.1,104.0 198.5,105.0 198.8,105.6 199.1,105.9 199.4,105.4 199.8,103.7 200.1,102.1 200.4,101.9 200.8,102.2 201.1,102.9 201.4,103.9 201.7,104.6 202.1,104.9 202.4,104.5 202.7,102.9 203.1,101.3 203.4,101.0 203.7,101.3 204.0,102.0 204.4,103.0 204.7,103.7 205.0,104.0 205.4,103.8 205.7,102.3 206.0,100.7 206.3,100.3 206.7,100.6 207.0,101.2 207.3,102.2 207.7,102.9 208.0,103.3 208.3,103.2 208.6,101.8 209.0,100.2 209.3,99.8 209.6,100.0 210.0,100.6 210.3,101.6 210.6,102.4 210.9,102.7 211.3,102.8 211.6,101.5 211.9,99.9 212.3,99.3 212.6,99.5 212.9,100.1 213.2,101.1 213.6,101.9 213.9,102.3 214.2,102.4 214.6,101.3 214.9,99.6 215.2,98.9 215.5,99.1 215.9,99.6 216.2,100.6 216.5,101.4 216.9,101.9 217.2,102.0 217.5,101.0 217.8,99.3 218.2,98.5 218.5,98.7 218.8,99.2 219.2,100.1 219.5,101.0 219.8,101.5 220.1,101.6 220.5,100.8 220.8,99.1 221.1,98.2 221.5,98.3 221.8,98.8 222.1,99.7 222.4,100.6 222.8,101.1 223.1,101.3 223.4,100.6 223.8,99.0 224.1,98.0 224.4,98.1 224.7,98.5 225.1,99.3 225.4,100.3 225.7,100.9 226.1,101.1 226.4,100.6 226.7,99.0 227.0,97.9 227.4,97.9 227.7,98.3 228.0,99.1 228.4,100.1 228.7,100.7 229.0,101.0 229.3,100.5 229.7,99.0 230.0,97.8 230.3,97.8 230.7,98.1 231.0,98.9 231.3,99.9 231.6,100.5 232.0,100.8 232.3,100.5 232.6,99.0 233.0,97.7 233.3,97.6 233.6,97.9 233.9,98.6 234.3,99.7 234.6,100.3 234.9,100.6 235.3,100.4 235.6,99.0 235.9,97.6 236.2,97.4 236.6,97.7 236.9,98.4 237.2,99.4 237.6,100.1 237.9,100.5 238.2,100.4 238.5,99.0 238.9,97.6 239.2,97.3 239.5,97.6 239.9,98.2 240.2,99.2 240.5,100.0 240.8,100.3 241.2,100.3 241.5,99.1 241.8,97.6 242.2,97.2 242.5,97.5 242.8,98.1 243.1,99.1 243.5,99.9 243.8,100.3 244.1,100.4 244.5,99.2 244.8,97.7 245.1,97.2 245.4,97.4 245.8,98.0 246.1,99.0 246.4,99.8 246.8,100.2 247.1,100.3 247.4,99.3 247.7,97.7 248.1,97.2 248.4,97.3 248.7,97.9 249.1,98.8 249.4,99.7 249.7,100.2 250.0,100.3 250.4,99.4 250.7,97.8 251.0,97.1 251.4,97.2 251.7,97.7 252.0,98.6 252.3,99.5 252.7,100.0 253.0,100.2 253.3,99.4 253.7,97.8 254.0,97.0 254.3,97.1 254.6,97.6 255.0,98.4 255.3,99.4 255.6,99.9 256.0,100.1 256.3,99.5 256.6,97.9 256.9,97.0 257.3,97.1 257.6,97.5 257.9,98.3 258.3,99.3 258.6,99.9 258.9,100.1 259.2,99.6 259.6,98.1 259.9,97.0 260.2,97.1 260.6,97.5 260.9,98.2 261.2,99.3 261.5,99.9 261.9,100.1 262.2,99.7 262.5,98.2 262.9,97.0 263.2,97.1 263.5,97.4 263.8,98.2 264.2,99.2 264.5,99.8 264.8,100.1 265.2,99.8 265.5,98.4 265.8,97.1 266.1,97.0 266.5,97.3 266.8,98.0 267.1,99.1 267.5,99.8 267.8,100.0 268.1,99.9 268.4,98.5 268.8,97.1 269.1,96.9 269.4,97.2 269.8,97.9 270.1,98.9 270.4,99.6 270.7,100.0 271.1,99.9 271.4,98.6 271.7,97.1 272.1,96.9 272.4,97.1 272.7,97.8 273.0,98.8 273.4,99.6 273.7,99.9 274.0,99.9 274.4,98.7 274.7,97.2 275.0,96.9 275.3,97.1 275.7,97.7 276.0,98.7 276.3,99.5 276.7,99.9 277.0,100.0 277.3,98.9 277.6,97.4 278.0,96.9 278.3,97.1 278.6,97.7 279.0,98.7 279.3,99.5 279.6,100.0 279.9,100.1 280.3,99.0 280.6,97.5 280.9,96.9 281.3,97.1 281.6,97.6 281.9,98.6 282.2,99.5 282.6,100.2 282.9,101.1 283.2,102.0 283.6,102.9 283.9,103.8 284.2,104.7 284.5,105.6 284.9,106.7 285.2,107.7 285.5,108.7 285.9,109.6 286.2,110.4 286.5,111.2 286.8,112.1 287.2,112.9 287.5,113.9 287.8,114.9 288.2,115.9 288.5,116.8 288.8,117.7 289.1,118.5 289.5,119.2 289.8,120.0 290.1,120.9 290.5,121.7 290.8,122.7 291.1,123.7 291.4,124.6 291.8,125.4 292.1,126.2 292.4,126.9 292.8,127.6 293.1,128.4 293.4,129.3 293.7,130.2 294.1,131.1 294.4,132.0 294.7,132.8 295.1,133.5 295.4,134.2 295.7,134.9 296.0,135.7 296.4,136.4 296.7,137.3 297.0,138.2 297.4,139.1 297.7,139.8 298.0,140.5 298.3,141.2 298.7,141.9 299.0,142.6 299.3,143.3 299.7,144.1 300.0,145.0 300.3,145.8 300.6,146.6 301.0,147.2 301.3,147.9 301.6,148.5 302.0,149.2 302.3,149.9 302.6,150.7 302.9,151.5 303.3,152.3 303.6,153.0 303.9,153.7 304.3,154.3 304.6,154.9 304.9,155.5 305.2,156.2 305.6,156.9 305.9,157.7 306.2,158.5 306.6,159.2 306.9,159.8 307.2,160.4 307.5,160.9 307.9,161.5 308.2,162.2 308.5,162.9 308.9,163.7 309.2,164.4 309.5,165.1 309.8,165.7 310.2,166.2 310.5,166.8 310.8,167.3 311.2,167.9 311.5,168.6 311.8,169.4 312.1,170.1 312.5,170.7 312.8,171.3 313.1,171.8 313.5,172.3 313.8,172.8 314.1,173.4 314.4,174.1 314.8,174.8 315.1,175.5 315.4,176.1 315.8,176.6 316.1,177.1 316.4,177.6 316.7,178.1 317.1,178.7 317.4,179.3 317.7,180.0 318.1,180.6 318.4,181.2 318.7,181.8 319.0,182.2 319.4,182.7 319.7,183.2 320.0,183.7 320.4,184.3 320.7,184.9 321.0,185.6 321.3,186.2 321.7,186.7 322.0,187.1 322.3,187.6 322.7,188.0 323.0,188.5 323.3,189.0 323.6,189.6 324.0,190.3 324.3,190.9 324.6,191.4 325.0,191.8 325.3,192.2 325.6,192.6 325.9,193.1 326.3,193.6 326.6,194.2 326.9,194.8 327.3,195.4 327.6,195.8 327.9,196.3 328.2,196.6 328.6,197.0 328.9,197.5 329.2,197.9 329.6,198.5 329.9,199.1 330.2,199.7 330.5,200.1 330.9,200.5 331.2,200.9 331.5,201.3 331.9,201.7 332.2,202.1 332.5,202.6 332.8,203.2 333.2,203.8 333.5,204.2 333.8,204.6 334.2,204.9 334.5,205.3 334.8,205.7 335.1,206.1 335.5,206.6 335.8,207.2 336.1,207.7 336.5,208.1 336.8,208.5 337.1,208.8 337.4,209.1 337.8,209.5 338.1,209.9 338.4,210.4 338.8,210.9 339.1,211.4 339.4,211.9 339.7,212.2 340.1,212.5 340.4,212.8 340.7,213.2 341.1,213.5 341.4,214.0 341.7,214.5 342.0,215.0 342.4,215.4 342.7,215.8 343.0,216.1 343.4,216.4 343.7,216.7 344.0,217.0 344.3,217.5 344.7,218.0 345.0,218.5 345.3,218.9 345.7,219.2 346.0,219.5 346.3,219.7 346.6,220.0 347.0,220.4 347.3,220.8 347.6,221.3 348.0,221.7 348.3,222.1 348.6,222.4 348.9,222.7 349.3,223.0 349.6,223.2 349.9,223.5 350.3,223.9 350.6,224.4 350.9,224.9 351.2,225.2 351.6,225.5 351.9,225.8 352.2,226.0 352.6,226.3 352.9,226.6 353.2,227.0 353.5,227.4 353.9,227.8 354.2,228.2 354.5,228.5 354.9,228.8 355.2,229.0 355.5,229.2 355.8,229.5 356.2,229.8 356.5,230.3 356.8,230.7 357.2,231.1 357.5,231.4 357.8,231.6 358.1,231.8 358.5,232.0 358.8,232.3 359.1,232.6 359.5,233.0 359.8,233.4 360.1,233.8 360.4,234.1 360.8,234.3 361.1,234.5 361.4,234.7 361.8,235.0 362.1,235.3 362.4,235.6 362.7,236.1 363.1,236.4 363.4,236.7 363.7,236.9 364.1,237.1 364.4,237.3 364.7,237.5 365.0,237.8 365.4,238.1 365.7,238.5 366.0,238.9 366.4,239.2 366.7,239.4 367.0,239.5 367.3,239.7 367.7,239.9 368.0,240.2 368.3,240.5 368.7,240.9 369.0,241.3 369.3,241.5 369.6,241.7 370.0,241.9 370.3,242.1 370.6,242.3 371.0,242.5 371.3,242.8 371.6,243.2 371.9,243.5 372.3,243.8 372.6,244.0 372.9,244.2 373.3,244.3 373.6,244.5 373.9,244.7 374.2,245.0 374.6,245.4 374.9,245.7 375.2,246.0 375.6,246.2 375.9,246.3 376.2,246.5 376.5,246.6 376.9,246.8 377.2,247.1 377.5,247.5 377.9,247.8 378.2,248.0 378.5,248.2 378.8,248.4 379.2,248.5 379.5,248.7 379.8,248.8 380.2,249.1 380.5,249.5 380.8,249.8 381.1,250.0 381.5,250.2 381.8,250.3 382.1,250.5 382.5,250.6 382.8,250.8 383.1,251.0 383.4,251.3 383.8,251.7 384.1,251.9 384.4,252.1 384.8,252.2 385.1,252.3 385.4,252.5 385.7,252.6 386.1,252.8 386.4,253.2 386.7,253.5 387.1,253.7 387.4,253.9 387.7,254.0 388.0,254.1 388.4,254.2 388.7,254.4 389.0,254.6 389.4,254.9 389.7,255.2 390.0,255.5 390.3,255.6 390.7,255.7 391.0,255.8 391.3,255.9 391.7,256.1 392.0,256.3 392.3,256.6 392.6,256.9 393.0,257.1 393.3,257.3 393.6,257.4 394.0,257.5 394.3,257.6 394.6,257.7 394.9,257.9 395.3,258.1 395.6,258.5 395.9,258.7 396.3,258.9 396.6,259.0 396.9,259.0 397.2,259.1 397.6,259.2 397.9,259.4 398.2,259.7 398.6,260.0 398.9,260.2 399.2,260.4 399.5,260.5 399.9,260.5 400.2,260.6 400.5,260.7 400.9,260.9 401.2,261.1 401.5,261.4 401.8,261.6 402.2,261.8 402.5,261.9 402.8,262.0 403.2,262.0 403.5,262.1 403.8,262.3 404.1,262.5 404.5,262.8 404.8,263.0 405.1,263.2 405.5,263.3 405.8,263.3 406.1,263.4 406.4,263.5 406.8,263.6 407.1,263.8 407.4,264.1 407.8,264.3 408.1,264.5 408.4,264.6 408.7,264.7 409.1,264.7 409.4,264.8 409.7,264.9 410.1,265.1 410.4,265.4 410.7,265.6 411.0,265.8 411.4,265.9 411.7,265.9 412.0,265.9 412.4,266.0 412.7,266.1 413.0,266.3 413.3,266.6 413.7,266.8 414.0,267.0 414.3,267.1 414.7,267.1 415.0,267.1 415.3,267.2 415.6,267.3 416.0,267.4 416.3,267.7 416.6,267.9 417.0,268.1 417.3,268.2 417.6,268.2 417.9,268.3 418.3,268.3 418.6,268.4 418.9,268.6 419.3,268.8 419.6,269.0 419.9,269.2 420.2,269.3 420.6,269.3 420.9,269.4 421.2,269.4 421.6,269.5 421.9,269.6 422.2,269.8 422.5,270.1 422.9,270.3 423.2,270.3 423.5,270.4 423.9,270.4 424.2,270.4 424.5,270.5 424.8,270.6 425.2,270.8 425.5,271.1 425.8,271.3 426.2,271.4 426.5,271.4 426.8,271.4 427.1,271.4 427.5,271.5 427.8,271.6 428.1,271.8 428.5,272.0 428.8,272.2 429.1,272.3 429.4,272.3 429.8,272.4 430.1,272.4 430.4,272.4 430.8,272.5 431.1,272.7 431.4,272.9 431.7,273.1 432.1,273.2 432.4,273.3 432.7,273.3 433.1,273.3 433.4,273.3 433.7,273.4 434.0,273.6 434.4,273.8 434.7,274.0 435.0,274.1 435.4,274.1 435.7,274.1 436.0,274.1 436.3,274.2 436.7,274.3 437.0,274.4 437.3,274.6 437.7,274.8 438.0,274.9 438.3,275.0 438.6,275.0 439.0,274.9 439.3,275.0 439.6,275.0 440.0,275.2 440.3,275.4 440.6,275.6 440.9,275.7 441.3,275.7 441.6,275.7 441.9,275.7 442.3,275.7 442.6,275.7 442.9,275.9 443.2,276.1 443.6,276.3 443.9,276.4 444.2,276.4 444.6,276.4 444.9,276.3 445.2,276.3 445.5,276.4 445.9,276.5 446.2,276.7 446.5,276.9 446.9,277.0 447.2,277.1 447.5,277.0 447.8,276.9 448.2,276.9 448.5,276.9 448.8,277.0 449.2,277.2 449.5,277.4 449.8,277.5 450.1,277.6 450.5,277.6 450.8,277.4 451.1,277.3 451.5,277.4 451.8,277.5 452.1,277.7 452.4,277.9 452.8,278.0 453.1,278.1 453.4,278.0 453.8,277.8 454.1,277.8 454.4,277.8 454.7,277.9 455.1,278.1 455.4,278.3 455.7,278.4 456.1,278.5 456.4,278.4 456.7,278.2 457.0,278.1 457.4,278.2 457.7,278.2 458.0,278.4 458.4,278.6 458.7,278.8 459.0,278.8 459.3,278.8 459.7,278.6 460.0,278.4 460.3,278.5 460.7,278.5 461.0,278.7 461.3,278.9 461.6,279.0 462.0,279.1 462.3,279.1 462.6,278.9 463.0,278.7 463.3,278.7 463.6,278.8 463.9,278.9 464.3,279.2 464.6,279.3 464.9,279.4 465.3,279.4 465.6,279.2 465.9,278.9 466.2,278.9 466.6,279.0 466.9,279.2 467.2,279.4 467.6,279.5 467.9,279.6 468.2,279.6 468.5,279.4 468.9,279.2 469.2,279.1 469.5,279.2 469.9,279.3 470.2,279.5 470.5,279.7 470.8,279.8 471.2,279.8 471.5,279.6 471.8,279.3 472.2,279.3 472.5,279.4 472.8,279.5 473.1,279.7 473.5,279.9 473.8,279.9 474.1,280.0 474.5,279.8 474.8,279.5 475.1,279.4 475.4,279.5 475.8,279.6 476.1,279.8 476.4,280.0 476.8,280.1 477.1,280.1 477.4,279.9 477.7,279.6 478.1,279.6 478.4,279.6 478.7,279.7 479.1,279.9 479.4,280.1 479.7,280.2 480.0,280.2 480.4,280.0 480.7,279.8 481.0,279.6 481.4,279.7 481.7,279.8 482.0,280.0 482.3,280.2 482.7,280.3 483.0,280.3 483.3,280.2 483.7,279.9 484.0,279.7 484.3,279.8 484.6,279.8 485.0,280.0 485.3,280.2 485.6,280.3 486.0,280.4 486.3,280.3 486.6,280.0 486.9,279.8 487.3,279.8 487.6,279.9 487.9,280.1 488.3,280.3 488.6,280.4 488.9,280.4 489.2,280.4 489.6,280.1 489.9,279.9 490.2,279.9 490.6,280.0 490.9,280.1 491.2,280.3 491.5,280.4 491.9,280.5 492.2,280.4 492.5,280.1 492.9,279.9 493.2,279.9 493.5,280.0 493.8,280.2 494.2,280.4 494.5,280.5 494.8,280.5 495.2,280.5 495.5,280.2 495.8,280.0 496.1,280.0 496.5,280.0 496.8,280.2 497.1,280.4 497.5,280.5 497.8,280.6 498.1,280.5 498.4,280.3 498.8,280.0 499.1,280.0 499.4,280.0 499.8,280.2 500.1,280.4 500.4,280.5 500.7,280.6 501.1,280.6 501.4,280.3 501.7,280.1 502.1,280.0 502.4,280.1 502.7,280.2 503.0,280.4 503.4,280.6 503.7,280.6 504.0,280.6 504.4,280.4 504.7,280.1 505.0,280.0 505.3,280.1 505.7,280.2" fill="none" stroke="#378add" stroke-width="2.4"/>
<line x1="236" y1="30" x2="256" y2="30" stroke="#888780" stroke-width="1.0"/>
<text x="262" y="33.5" fill="#888780" font-size="11" font-family="system-ui, sans-serif">|x| — rectified samples</text>
<line x1="236" y1="45" x2="256" y2="45" stroke="#378add" stroke-width="2.4"/>
<text x="262" y="48.5" fill="#888780" font-size="11" font-family="system-ui, sans-serif">envelope — 5 ms attack, 50 ms release</text>
</svg>
