<svg xmlns="http://www.w3.org/2000/svg" viewBox="0 0 520 360" role="img" aria-label="Limiter overshoot with and without lookahead">
<title>Limiter overshoot with and without lookahead</title>
<desc>A quiet-loud-quiet tone through the book's limiter. Without lookahead the output overshoots the ceiling while the 2 ms attack catches up. With 6 ms of true lookahead the gain is pre-armed and the output never crosses the ceiling; the lookahead output is delayed by the lookahead time.</desc>
<g stroke="#888780" stroke-opacity="0.25" stroke-width="1">
<line x1="46.0" y1="326" x2="46.0" y2="14"/>
<line x1="199.3" y1="326" x2="199.3" y2="14"/>
<line x1="352.7" y1="326" x2="352.7" y2="14"/>
<line x1="506.0" y1="326" x2="506.0" y2="14"/>
<line x1="46" y1="326.0" x2="506" y2="326.0"/>
<line x1="46" y1="222.0" x2="506" y2="222.0"/>
<line x1="46" y1="118.0" x2="506" y2="118.0"/>
<line x1="46" y1="14.0" x2="506" y2="14.0"/>
</g>
<g fill="#888780" font-size="11" font-family="system-ui, sans-serif">
<text x="46.0" y="342" text-anchor="middle">0.0</text>
<text x="199.3" y="342" text-anchor="middle">0.1</text>
<text x="352.7" y="342" text-anchor="middle">0.2</text>
<text x="506.0" y="342" text-anchor="middle">0.3</text>
<text x="40" y="329.0" text-anchor="end">-30</text>
<text x="40" y="225.0" text-anchor="end">-20</text>
<text x="40" y="121.0" text-anchor="end">-10</text>
<text x="40" y="17.0" text-anchor="end">0</text>
<text x="276.0" y="356" text-anchor="middle">time (s)</text>
<text x="13" y="170.0" text-anchor="middle" transform="rotate(-90 13 170.0)">level dBFS (peak)</text>
</g>
<line x1="46" y1="118.0" x2="506" y2="118.0" stroke="#7f77dd" stroke-width="1.5" stroke-dasharray="5 4"/>
<text x="502" y="113.0" text-anchor="end" fill="#7f77dd" font-size="10" font-family="system-ui, sans-serif">ceiling (−10 dBFS)</text>
<polyline points="46.0,274.0 49.1,274.0 52.1,274.0 55.2,274.0 58.3,274.0 61.3,274.0 64.4,274.0 67.5,274.0 70.5,274.0 73.6,274.0 76.7,274.0 79.7,274.0 82.8,274.0 85.9,274.0 88.9,274.0 92.0,274.0 95.1,274.0 98.1,274.0 101.2,274.0 104.3,274.0 107.3,274.0 110.4,274.0 113.5,274.0 116.5,274.0 119.6,274.0 122.7,274.0 125.7,274.0 128.8,274.0 131.9,274.0 134.9,274.0 138.0,274.0 141.1,274.0 144.1,274.0 147.2,274.0 150.3,274.0 153.3,274.0 156.4,274.0 159.5,274.0 162.5,274.0 165.6,274.0 168.7,274.0 171.7,274.0 174.8,274.0 177.9,274.0 180.9,274.0 184.0,274.0 187.1,274.0 190.1,274.0 193.2,274.0 196.3,274.0 199.3,55.6 202.4,55.6 205.5,55.6 208.5,55.6 211.6,55.6 214.7,55.6 217.7,55.6 220.8,55.6 223.9,55.6 226.9,55.6 230.0,55.6 233.1,55.6 236.1,55.6 239.2,55.6 242.3,55.6 245.3,55.6 248.4,55.6 251.5,55.6 254.5,55.6 257.6,55.6 260.7,55.6 263.7,55.6 266.8,55.6 269.9,55.6 272.9,55.6 276.0,55.6 279.1,55.6 282.1,55.6 285.2,55.6 288.3,55.6 291.3,55.6 294.4,55.6 297.5,55.6 300.5,55.6 303.6,55.6 306.7,55.6 309.7,55.6 312.8,55.6 315.9,55.6 318.9,55.6 322.0,55.6 325.1,55.6 328.1,55.6 331.2,55.6 334.3,55.6 337.3,55.6 340.4,55.6 343.5,55.6 346.5,55.6 349.6,55.6 352.7,274.0 355.7,274.0 358.8,274.0 361.9,274.0 364.9,274.0 368.0,274.0 371.1,274.0 374.1,274.0 377.2,274.0 380.3,274.0 383.3,274.0 386.4,274.0 389.5,274.0 392.5,274.0 395.6,274.0 398.7,274.0 401.7,274.0 404.8,274.0 407.9,274.0 410.9,274.0 414.0,274.0 417.1,274.0 420.1,274.0 423.2,274.0 426.3,274.0 429.3,274.0 432.4,274.0 435.5,274.0 438.5,274.0 441.6,274.0 444.7,274.0 447.7,274.0 450.8,274.0 453.9,274.0 456.9,274.0 460.0,274.0 463.1,274.0 466.1,274.0 469.2,274.0 472.3,274.0 475.3,274.0 478.4,274.0 481.5,274.0 484.5,274.0 487.6,274.0 490.7,274.0 493.7,274.0 496.8,274.0 499.9,274.0 502.9,274.0" fill="none" stroke="#888780" stroke-width="2.0" stroke-dasharray="4 3"/>
<polyline points="46.0,274.0 49.1,274.0 52.1,274.0 55.2,274.0 58.3,274.0 61.3,274.0 64.4,274.0 67.5,274.0 70.5,274.0 73.6,274.0 76.7,274.0 79.7,274.0 82.8,274.0 85.9,274.0 88.9,274.0 92.0,274.0 95.1,274.0 98.1,274.0 101.2,274.0 104.3,274.0 107.3,274.0 110.4,274.0 113.5,274.0 116.5,274.0 119.6,274.0 122.7,274.0 125.7,274.0 128.8,274.0 131.9,274.0 134.9,274.0 138.0,274.0 141.1,274.0 144.1,274.0 147.2,274.0 150.3,274.0 153.3,274.0 156.4,274.0 159.5,274.0 162.5,274.0 165.6,274.0 168.7,274.0 171.7,274.0 174.8,274.0 177.9,274.0 180.9,274.0 184.0,274.0 187.1,274.0 190.1,274.0 193.2,274.0 196.3,274.0 199.3,64.2 202.4,82.0 205.5,91.6 208.5,97.8 211.6,101.9 214.7,104.6 217.7,106.4 220.8,107.6 223.9,108.4 226.9,108.9 230.0,109.3 233.1,109.5 236.1,109.7 239.2,109.8 242.3,109.9 245.3,109.9 248.4,110.0 251.5,110.0 254.5,110.0 257.6,110.0 260.7,110.0 263.7,110.0 266.8,110.0 269.9,110.0 272.9,110.0 276.0,110.0 279.1,110.0 282.1,110.0 285.2,110.0 288.3,110.0 291.3,110.0 294.4,110.0 297.5,110.0 300.5,110.0 303.6,110.0 306.7,110.0 309.7,110.0 312.8,110.0 315.9,110.0 318.9,110.0 322.0,110.0 325.1,110.0 328.1,110.0 331.2,110.0 334.3,110.0 337.3,110.0 340.4,110.0 343.5,110.0 346.5,110.0 349.6,110.0 352.7,326.1 355.7,323.5 358.8,321.1 361.9,318.8 364.9,316.6 368.0,314.6 371.1,312.6 374.1,310.7 377.2,308.9 380.3,307.2 383.3,305.6 386.4,304.0 389.5,302.6 392.5,301.2 395.6,299.9 398.7,298.6 401.7,297.4 404.8,296.3 407.9,295.2 410.9,294.1 414.0,293.2 417.1,292.2 420.1,291.3 423.2,290.5 426.3,289.7 429.3,288.9 432.4,288.2 435.5,287.5 438.5,286.8 441.6,286.2 444.7,285.6 447.7,285.1 450.8,284.5 453.9,284.0 456.9,283.5 460.0,283.0 463.1,282.6 466.1,282.2 469.2,281.8 472.3,281.4 475.3,281.0 478.4,280.7 481.5,280.4 484.5,280.1 487.6,279.8 490.7,279.5 493.7,279.2 496.8,279.0 499.9,278.7 502.9,278.5" fill="none" stroke="#d98a00" stroke-width="1.5" stroke-opacity="0.35"/>
<polyline points="199.3,64.2 202.4,82.0 205.5,91.6 208.5,97.8 211.6,101.9 214.7,104.6 217.7,106.4 220.8,107.6 223.9,108.4 226.9,108.9 230.0,109.3 233.1,109.5 236.1,109.7 239.2,109.8 242.3,109.9 245.3,109.9 248.4,110.0 251.5,110.0 254.5,110.0 257.6,110.0 260.7,110.0 263.7,110.0 266.8,110.0 269.9,110.0 272.9,110.0 276.0,110.0 279.1,110.0 282.1,110.0 285.2,110.0 288.3,110.0 291.3,110.0 294.4,110.0 297.5,110.0 300.5,110.0 303.6,110.0 306.7,110.0 309.7,110.0 312.8,110.0 315.9,110.0 318.9,110.0 322.0,110.0 325.1,110.0 328.1,110.0 331.2,110.0 334.3,110.0 337.3,110.0 340.4,110.0 343.5,110.0 346.5,110.0 349.6,110.0 352.7,326.1 355.7,323.5 358.8,321.1 361.9,318.8 364.9,316.6 368.0,314.6 371.1,312.6 374.1,310.7 377.2,308.9 380.3,307.2 383.3,305.6 386.4,304.0 389.5,302.6 392.5,301.2 395.6,299.9 398.7,298.6 401.7,297.4 404.8,296.3 407.9,295.2 410.9,294.1 414.0,293.2 417.1,292.2 420.1,291.3 423.2,290.5 426.3,289.7 429.3,288.9 432.4,288.2 435.5,287.5 438.5,286.8 441.6,286.2 444.7,285.6 447.7,285.1 450.8,284.5 453.9,284.0 456.9,283.5 460.0,283.0 463.1,282.6 466.1,282.2 469.2,281.8 472.3,281.4 475.3,281.0 478.4,280.7 481.5,280.4 484.5,280.1 487.6,279.8 490.7,279.5 493.7,279.2 496.8,279.0 499.9,278.7 502.9,278.5" fill="none" stroke="#d98a00" stroke-width="2.6"/>
<polyline points="46.0,1262.0 49.1,1262.0 52.1,1262.0 55.2,274.0 58.3,274.0 61.3,274.0 64.4,274.0 67.5,274.0 70.5,274.0 73.6,274.0 76.7,274.0 79.7,274.0 82.8,274.0 85.9,274.0 88.9,274.0 92.0,274.0 95.1,274.0 98.1,274.0 101.2,274.0 104.3,274.0 107.3,274.0 110.4,274.0 113.5,274.0 116.5,274.0 119.6,274.0 122.7,274.0 125.7,274.0 128.8,274.0 131.9,274.0 134.9,274.0 138.0,274.0 141.1,274.0 144.1,274.0 147.2,274.0 150.3,274.0 153.3,274.0 156.4,274.0 159.5,274.0 162.5,274.0 165.6,274.0 168.7,274.0 171.7,274.0 174.8,274.0 177.9,274.0 180.9,274.0 184.0,274.0 187.1,274.0 190.1,274.0 193.2,274.0 196.3,274.0 199.3,282.6 202.4,316.6 205.5,329.1 208.5,115.3 211.6,117.0 214.7,117.6 217.7,117.9 220.8,118.0 223.9,118.0 226.9,118.0 230.0,118.0 233.1,118.0 236.1,118.0 239.2,118.0 242.3,118.0 245.3,118.0 248.4,118.0 251.5,118.0 254.5,118.0 257.6,118.0 260.7,118.0 263.7,118.0 266.8,118.0 269.9,118.0 272.9,118.0 276.0,118.0 279.1,118.0 282.1,118.0 285.2,118.0 288.3,118.0 291.3,118.0 294.4,118.0 297.5,118.0 300.5,118.0 303.6,118.0 306.7,118.0 309.7,118.0 312.8,118.0 315.9,118.0 318.9,118.0 322.0,118.0 325.1,118.0 328.1,118.0 331.2,118.0 334.3,118.0 337.3,118.0 340.4,118.0 343.5,118.0 346.5,118.0 349.6,118.0 352.7,118.0 355.7,118.0 358.8,118.0 361.9,333.6 364.9,330.7 368.0,327.9 371.1,325.3 374.1,322.8 377.2,320.4 380.3,318.2 383.3,316.0 386.4,314.0 389.5,312.0 392.5,310.2 395.6,308.4 398.7,306.7 401.7,305.1 404.8,303.6 407.9,302.2 410.9,300.8 414.0,299.5 417.1,298.2 420.1,297.1 423.2,295.9 426.3,294.9 429.3,293.8 432.4,292.9 435.5,292.0 438.5,291.1 441.6,290.2 444.7,289.5 447.7,288.7 450.8,288.0 453.9,287.3 456.9,286.7 460.0,286.0 463.1,285.4 466.1,284.9 469.2,284.4 472.3,283.9 475.3,283.4 478.4,282.9 481.5,282.5 484.5,282.1 487.6,281.7 490.7,281.3 493.7,280.9 496.8,280.6 499.9,280.3 502.9,280.0" fill="none" stroke="#378add" stroke-width="1.5" stroke-opacity="0.35"/>
<polyline points="46.0,1262.0 49.1,1262.0 52.1,1262.0" fill="none" stroke="#378add" stroke-width="2.6"/>
<polyline points="199.3,282.6 202.4,316.6 205.5,329.1 208.5,115.3 211.6,117.0 214.7,117.6 217.7,117.9 220.8,118.0 223.9,118.0 226.9,118.0 230.0,118.0 233.1,118.0 236.1,118.0 239.2,118.0 242.3,118.0 245.3,118.0 248.4,118.0 251.5,118.0 254.5,118.0 257.6,118.0 260.7,118.0 263.7,118.0 266.8,118.0 269.9,118.0 272.9,118.0 276.0,118.0 279.1,118.0 282.1,118.0 285.2,118.0 288.3,118.0 291.3,118.0 294.4,118.0 297.5,118.0 300.5,118.0 303.6,118.0 306.7,118.0 309.7,118.0 312.8,118.0 315.9,118.0 318.9,118.0 322.0,118.0 325.1,118.0 328.1,118.0 331.2,118.0 334.3,118.0 337.3,118.0 340.4,118.0 343.5,118.0 346.5,118.0 349.6,118.0" fill="none" stroke="#378add" stroke-width="2.6"/>
<polyline points="361.9,333.6 364.9,330.7 368.0,327.9 371.1,325.3 374.1,322.8 377.2,320.4 380.3,318.2 383.3,316.0 386.4,314.0 389.5,312.0 392.5,310.2 395.6,308.4 398.7,306.7 401.7,305.1 404.8,303.6 407.9,302.2 410.9,300.8 414.0,299.5 417.1,298.2 420.1,297.1 423.2,295.9 426.3,294.9 429.3,293.8 432.4,292.9 435.5,292.0 438.5,291.1 441.6,290.2 444.7,289.5 447.7,288.7 450.8,288.0 453.9,287.3 456.9,286.7 460.0,286.0 463.1,285.4 466.1,284.9 469.2,284.4 472.3,283.9 475.3,283.4 478.4,282.9 481.5,282.5 484.5,282.1 487.6,281.7 490.7,281.3 493.7,280.9 496.8,280.6 499.9,280.3 502.9,280.0" fill="none" stroke="#378add" stroke-width="2.6"/>
<line x1="60" y1="232.4" x2="80" y2="232.4" stroke="#888780" stroke-width="2.0" stroke-dasharray="4 3"/>
<text x="86" y="235.9" fill="#888780" font-size="11" font-family="system-ui, sans-serif">input level</text>
<line x1="60" y1="247.4" x2="80" y2="247.4" stroke="#d98a00" stroke-width="2.6"/>
<text x="86" y="250.9" fill="#888780" font-size="11" font-family="system-ui, sans-serif">no lookahead — overshoots</text>
<line x1="60" y1="262.4" x2="80" y2="262.4" stroke="#378add" stroke-width="2.6"/>
<text x="86" y="265.9" fill="#888780" font-size="11" font-family="system-ui, sans-serif">true lookahead 6 ms — delayed, no overshoot</text>
<line x1="60" y1="277.4" x2="80" y2="277.4" stroke="#7f77dd" stroke-width="1.5" stroke-dasharray="5 4"/>
<text x="86" y="280.9" fill="#888780" font-size="11" font-family="system-ui, sans-serif">ceiling</text>
</svg>
