<svg xmlns="http://www.w3.org/2000/svg" viewBox="0 0 520 360" role="img" aria-label="Limiter transfer curve">
<title>Limiter transfer curve</title>
<desc>Steady-state output versus input. Below the -10 dBFS ceiling the limiter follows the unity line; above it the output is held flat at the ceiling. A 4:1 compressor at the same corner is shown for contrast: it leans where the limiter walls.</desc>
<g stroke="#888780" stroke-opacity="0.25" stroke-width="1">
<line x1="46.0" y1="326" x2="46.0" y2="14"/>
<line x1="122.7" y1="326" x2="122.7" y2="14"/>
<line x1="199.3" y1="326" x2="199.3" y2="14"/>
<line x1="276.0" y1="326" x2="276.0" y2="14"/>
<line x1="352.7" y1="326" x2="352.7" y2="14"/>
<line x1="429.3" y1="326" x2="429.3" y2="14"/>
<line x1="506.0" y1="326" x2="506.0" y2="14"/>
<line x1="46" y1="326.0" x2="506" y2="326.0"/>
<line x1="46" y1="274.0" x2="506" y2="274.0"/>
<line x1="46" y1="222.0" x2="506" y2="222.0"/>
<line x1="46" y1="170.0" x2="506" y2="170.0"/>
<line x1="46" y1="118.0" x2="506" y2="118.0"/>
<line x1="46" y1="66.0" x2="506" y2="66.0"/>
<line x1="46" y1="14.0" x2="506" y2="14.0"/>
</g>
<g fill="#888780" font-size="11" font-family="system-ui, sans-serif">
<text x="46.0" y="342" text-anchor="middle">-60</text>
<text x="122.7" y="342" text-anchor="middle">-50</text>
<text x="199.3" y="342" text-anchor="middle">-40</text>
<text x="276.0" y="342" text-anchor="middle">-30</text>
<text x="352.7" y="342" text-anchor="middle">-20</text>
<text x="429.3" y="342" text-anchor="middle">-10</text>
<text x="506.0" y="342" text-anchor="middle">0</text>
<text x="40" y="329.0" text-anchor="end">-60</text>
<text x="40" y="277.0" text-anchor="end">-50</text>
<text x="40" y="225.0" text-anchor="end">-40</text>
<text x="40" y="173.0" text-anchor="end">-30</text>
<text x="40" y="121.0" text-anchor="end">-20</text>
<text x="40" y="69.0" text-anchor="end">-10</text>
<text x="40" y="17.0" text-anchor="end">0</text>
<text x="276.0" y="356" text-anchor="middle">input dBFS (peak)</text>
<text x="13" y="170.0" text-anchor="middle" transform="rotate(-90 13 170.0)">output dBFS (peak)</text>
</g>
<line x1="46" y1="66.0" x2="506" y2="66.0" stroke="#7f77dd" stroke-width="1.5" stroke-dasharray="5 4"/>
<text x="502" y="61.0" text-anchor="end" fill="#7f77dd" font-size="10" font-family="system-ui, sans-serif">ceiling (−10 dBFS)</text>
<polyline points="46.0,326.0 49.8,323.4 53.7,320.8 57.5,318.2 61.3,315.6 65.2,313.0 69.0,310.4 72.8,307.8 76.7,305.2 80.5,302.6 84.3,300.0 88.2,297.4 92.0,294.8 95.8,292.2 99.7,289.6 103.5,287.0 107.3,284.4 111.2,281.8 115.0,279.2 118.8,276.6 122.7,274.0 126.5,271.4 130.3,268.8 134.2,266.2 138.0,263.6 141.8,261.0 145.7,258.4 149.5,255.8 153.3,253.2 157.2,250.6 161.0,248.0 164.8,245.4 168.7,242.8 172.5,240.2 176.3,237.6 180.2,235.0 184.0,232.4 187.8,229.8 191.7,227.2 195.5,224.6 199.3,222.0 203.2,219.4 207.0,216.8 210.8,214.2 214.7,211.6 218.5,209.0 222.3,206.4 226.2,203.8 230.0,201.2 233.8,198.6 237.7,196.0 241.5,193.4 245.3,190.8 249.2,188.2 253.0,185.6 256.8,183.0 260.7,180.4 264.5,177.8 268.3,175.2 272.2,172.6 276.0,170.0 279.8,167.4 283.7,164.8 287.5,162.2 291.3,159.6 295.2,157.0 299.0,154.4 302.8,151.8 306.7,149.2 310.5,146.6 314.3,144.0 318.2,141.4 322.0,138.8 325.8,136.2 329.7,133.6 333.5,131.0 337.3,128.4 341.2,125.8 345.0,123.2 348.8,120.6 352.7,118.0 356.5,115.4 360.3,112.8 364.2,110.2 368.0,107.6 371.8,105.0 375.7,102.4 379.5,99.8 383.3,97.2 387.2,94.6 391.0,92.0 394.8,89.4 398.7,86.8 402.5,84.2 406.3,81.6 410.2,79.0 414.0,76.4 417.8,73.8 421.7,71.2 425.5,68.6 429.3,66.0 433.2,63.4 437.0,60.8 440.8,58.2 444.7,55.6 448.5,53.0 452.3,50.4 456.2,47.8 460.0,45.2 463.8,42.6 467.7,40.0 471.5,37.4 475.3,34.8 479.2,32.2 483.0,29.6 486.8,27.0 490.7,24.4 494.5,21.8 498.3,19.2 502.2,16.6 506.0,14.0" fill="none" stroke="#888780" stroke-width="1.6" stroke-dasharray="5 4"/>
<polyline points="46.0,326.0 49.8,323.4 53.7,320.8 57.5,318.2 61.3,315.6 65.2,313.0 69.0,310.4 72.8,307.8 76.7,305.2 80.5,302.6 84.3,300.0 88.2,297.4 92.0,294.8 95.8,292.2 99.7,289.6 103.5,287.0 107.3,284.4 111.2,281.8 115.0,279.2 118.8,276.6 122.7,274.0 126.5,271.4 130.3,268.8 134.2,266.2 138.0,263.6 141.8,261.0 145.7,258.4 149.5,255.8 153.3,253.2 157.2,250.6 161.0,248.0 164.8,245.4 168.7,242.8 172.5,240.2 176.3,237.6 180.2,235.0 184.0,232.4 187.8,229.8 191.7,227.2 195.5,224.6 199.3,222.0 203.2,219.4 207.0,216.8 210.8,214.2 214.7,211.6 218.5,209.0 222.3,206.4 226.2,203.8 230.0,201.2 233.8,198.6 237.7,196.0 241.5,193.4 245.3,190.8 249.2,188.2 253.0,185.6 256.8,183.0 260.7,180.4 264.5,177.8 268.3,175.2 272.2,172.6 276.0,170.0 279.8,167.4 283.7,164.8 287.5,162.2 291.3,159.6 295.2,157.0 299.0,154.4 302.8,151.8 306.7,149.2 310.5,146.6 314.3,144.0 318.2,141.4 322.0,138.8 325.8,136.2 329.7,133.6 333.5,131.0 337.3,128.4 341.2,125.8 345.0,123.2 348.8,120.6 352.7,118.0 356.5,115.4 360.3,112.8 364.2,110.2 368.0,107.6 371.8,105.0 375.7,102.4 379.5,99.8 383.3,97.2 387.2,94.6 391.0,92.0 394.8,89.4 398.7,86.8 402.5,84.2 406.3,81.6 410.2,79.0 414.0,76.4 417.8,73.8 421.7,71.2 425.5,68.6 429.3,66.0 433.2,65.3 437.0,64.7 440.8,64.1 444.7,63.4 448.5,62.8 452.3,62.1 456.2,61.4 460.0,60.8 463.8,60.2 467.7,59.5 471.5,58.9 475.3,58.2 479.2,57.6 483.0,56.9 486.8,56.2 490.7,55.6 494.5,54.9 498.3,54.3 502.2,53.6 506.0,53.0" fill="none" stroke="#378add" stroke-width="2.2"/>
<polyline points="46.0,326.0 49.8,323.4 53.7,320.8 57.5,318.2 61.3,315.6 65.2,313.0 69.0,310.4 72.8,307.8 76.7,305.2 80.5,302.6 84.3,300.0 88.2,297.4 92.0,294.8 95.8,292.2 99.7,289.6 103.5,287.0 107.3,284.4 111.2,281.8 115.0,279.2 118.8,276.6 122.7,274.0 126.5,271.4 130.3,268.8 134.2,266.2 138.0,263.6 141.8,261.0 145.7,258.4 149.5,255.8 153.3,253.2 157.2,250.6 161.0,248.0 164.8,245.4 168.7,242.8 172.5,240.2 176.3,237.6 180.2,235.0 184.0,232.4 187.8,229.8 191.7,227.2 195.5,224.6 199.3,222.0 203.2,219.4 207.0,216.8 210.8,214.2 214.7,211.6 218.5,209.0 222.3,206.4 226.2,203.8 230.0,201.2 233.8,198.6 237.7,196.0 241.5,193.4 245.3,190.8 249.2,188.2 253.0,185.6 256.8,183.0 260.7,180.4 264.5,177.8 268.3,175.2 272.2,172.6 276.0,170.0 279.8,167.4 283.7,164.8 287.5,162.2 291.3,159.6 295.2,157.0 299.0,154.4 302.8,151.8 306.7,149.2 310.5,146.6 314.3,144.0 318.2,141.4 322.0,138.8 325.8,136.2 329.7,133.6 333.5,131.0 337.3,128.4 341.2,125.8 345.0,123.2 348.8,120.6 352.7,118.0 356.5,115.4 360.3,112.8 364.2,110.2 368.0,107.6 371.8,105.0 375.7,102.4 379.5,99.8 383.3,97.2 387.2,94.6 391.0,92.0 394.8,89.4 398.7,86.8 402.5,84.2 406.3,81.6 410.2,79.0 414.0,76.4 417.8,73.8 421.7,71.2 425.5,68.6 429.3,66.0 433.2,66.0 437.0,66.0 440.8,66.0 444.7,66.0 448.5,66.0 452.3,66.0 456.2,66.0 460.0,66.0 463.8,66.0 467.7,66.0 471.5,66.0 475.3,66.0 479.2,66.0 483.0,66.0 486.8,66.0 490.7,66.0 494.5,66.0 498.3,66.0 502.2,66.0 506.0,66.0" fill="none" stroke="#e05252" stroke-width="2.6"/>
<line x1="60" y1="30" x2="80" y2="30" stroke="#888780" stroke-width="1.6" stroke-dasharray="5 4"/>
<text x="86" y="33.5" fill="#888780" font-size="11" font-family="system-ui, sans-serif">unity (no processing)</text>
<line x1="60" y1="45" x2="80" y2="45" stroke="#378add" stroke-width="2.2"/>
<text x="86" y="48.5" fill="#888780" font-size="11" font-family="system-ui, sans-serif">compression 4:1, same threshold</text>
<line x1="60" y1="60" x2="80" y2="60" stroke="#e05252" stroke-width="2.6"/>
<text x="86" y="63.5" fill="#888780" font-size="11" font-family="system-ui, sans-serif">limiter (∞:1)</text>
</svg>
