<svg xmlns="http://www.w3.org/2000/svg" viewBox="0 0 520 360" role="img" aria-label="Mu-law transfer curves">
<title>Mu-law transfer curves</title>
<desc>The mu-law compression curve is steep near zero, spending most of its output range on quiet samples; the expansion curve is its exact inverse. Mu is 255, the G.711 telephony value.</desc>
<g stroke="#888780" stroke-opacity="0.25" stroke-width="1">
<line x1="46.0" y1="326" x2="46.0" y2="14"/>
<line x1="161.0" y1="326" x2="161.0" y2="14"/>
<line x1="276.0" y1="326" x2="276.0" y2="14"/>
<line x1="391.0" y1="326" x2="391.0" y2="14"/>
<line x1="506.0" y1="326" x2="506.0" y2="14"/>
<line x1="46" y1="326.0" x2="506" y2="326.0"/>
<line x1="46" y1="248.0" x2="506" y2="248.0"/>
<line x1="46" y1="170.0" x2="506" y2="170.0"/>
<line x1="46" y1="92.0" x2="506" y2="92.0"/>
<line x1="46" y1="14.0" x2="506" y2="14.0"/>
</g>
<g fill="#888780" font-size="11" font-family="system-ui, sans-serif">
<text x="46.0" y="342" text-anchor="middle">-1.0</text>
<text x="161.0" y="342" text-anchor="middle">-0.5</text>
<text x="276.0" y="342" text-anchor="middle">0.0</text>
<text x="391.0" y="342" text-anchor="middle">0.5</text>
<text x="506.0" y="342" text-anchor="middle">1.0</text>
<text x="40" y="329.0" text-anchor="end">-1.0</text>
<text x="40" y="251.0" text-anchor="end">-0.5</text>
<text x="40" y="173.0" text-anchor="end">0.0</text>
<text x="40" y="95.0" text-anchor="end">0.5</text>
<text x="40" y="17.0" text-anchor="end">1.0</text>
<text x="276.0" y="356" text-anchor="middle">input sample</text>
<text x="13" y="170.0" text-anchor="middle" transform="rotate(-90 13 170.0)">output sample</text>
</g>
<polyline points="46.0,326.0 47.1,325.2 48.3,324.4 49.5,323.7 50.6,322.9 51.8,322.1 52.9,321.3 54.1,320.5 55.2,319.8 56.4,319.0 57.5,318.2 58.7,317.4 59.8,316.6 60.9,315.9 62.1,315.1 63.2,314.3 64.4,313.5 65.5,312.7 66.7,312.0 67.8,311.2 69.0,310.4 70.1,309.6 71.3,308.8 72.5,308.1 73.6,307.3 74.8,306.5 75.9,305.7 77.0,304.9 78.2,304.2 79.3,303.4 80.5,302.6 81.7,301.8 82.8,301.0 84.0,300.3 85.1,299.5 86.2,298.7 87.4,297.9 88.6,297.1 89.7,296.4 90.8,295.6 92.0,294.8 93.1,294.0 94.3,293.2 95.4,292.5 96.6,291.7 97.8,290.9 98.9,290.1 100.0,289.3 101.2,288.6 102.3,287.8 103.5,287.0 104.7,286.2 105.8,285.4 107.0,284.7 108.1,283.9 109.2,283.1 110.4,282.3 111.6,281.5 112.7,280.8 113.9,280.0 115.0,279.2 116.2,278.4 117.3,277.6 118.4,276.9 119.6,276.1 120.7,275.3 121.9,274.5 123.0,273.7 124.2,273.0 125.3,272.2 126.5,271.4 127.6,270.6 128.8,269.8 129.9,269.1 131.1,268.3 132.2,267.5 133.4,266.7 134.6,265.9 135.7,265.2 136.9,264.4 138.0,263.6 139.2,262.8 140.3,262.0 141.4,261.3 142.6,260.5 143.8,259.7 144.9,258.9 146.1,258.1 147.2,257.4 148.3,256.6 149.5,255.8 150.6,255.0 151.8,254.2 152.9,253.5 154.1,252.7 155.2,251.9 156.4,251.1 157.6,250.3 158.7,249.6 159.8,248.8 161.0,248.0 162.2,247.2 163.3,246.4 164.4,245.7 165.6,244.9 166.8,244.1 167.9,243.3 169.0,242.5 170.2,241.8 171.3,241.0 172.5,240.2 173.6,239.4 174.8,238.6 175.9,237.9 177.1,237.1 178.2,236.3 179.4,235.5 180.5,234.7 181.7,234.0 182.8,233.2 184.0,232.4 185.2,231.6 186.3,230.8 187.4,230.1 188.6,229.3 189.8,228.5 190.9,227.7 192.1,226.9 193.2,226.2 194.3,225.4 195.5,224.6 196.7,223.8 197.8,223.0 199.0,222.3 200.1,221.5 201.2,220.7 202.4,219.9 203.6,219.1 204.7,218.4 205.9,217.6 207.0,216.8 208.2,216.0 209.3,215.2 210.5,214.5 211.6,213.7 212.8,212.9 213.9,212.1 215.0,211.3 216.2,210.6 217.3,209.8 218.5,209.0 219.7,208.2 220.8,207.4 222.0,206.7 223.1,205.9 224.2,205.1 225.4,204.3 226.6,203.5 227.7,202.8 228.9,202.0 230.0,201.2 231.1,200.4 232.3,199.6 233.4,198.9 234.6,198.1 235.8,197.3 236.9,196.5 238.0,195.7 239.2,195.0 240.3,194.2 241.5,193.4 242.7,192.6 243.8,191.8 244.9,191.1 246.1,190.3 247.2,189.5 248.4,188.7 249.6,187.9 250.7,187.2 251.8,186.4 253.0,185.6 254.2,184.8 255.3,184.0 256.5,183.3 257.6,182.5 258.8,181.7 259.9,180.9 261.1,180.1 262.2,179.4 263.4,178.6 264.5,177.8 265.6,177.0 266.8,176.2 267.9,175.5 269.1,174.7 270.2,173.9 271.4,173.1 272.5,172.3 273.7,171.6 274.9,170.8 276.0,170.0 277.1,169.2 278.3,168.4 279.4,167.7 280.6,166.9 281.8,166.1 282.9,165.3 284.0,164.5 285.2,163.8 286.4,163.0 287.5,162.2 288.6,161.4 289.8,160.6 290.9,159.9 292.1,159.1 293.2,158.3 294.4,157.5 295.5,156.7 296.7,156.0 297.9,155.2 299.0,154.4 300.1,153.6 301.3,152.8 302.4,152.1 303.6,151.3 304.8,150.5 305.9,149.7 307.1,148.9 308.2,148.2 309.4,147.4 310.5,146.6 311.7,145.8 312.8,145.0 313.9,144.3 315.1,143.5 316.2,142.7 317.4,141.9 318.6,141.1 319.7,140.4 320.9,139.6 322.0,138.8 323.2,138.0 324.3,137.2 325.5,136.5 326.6,135.7 327.8,134.9 328.9,134.1 330.0,133.3 331.2,132.6 332.4,131.8 333.5,131.0 334.6,130.2 335.8,129.4 337.0,128.7 338.1,127.9 339.2,127.1 340.4,126.3 341.5,125.5 342.7,124.8 343.8,124.0 345.0,123.2 346.1,122.4 347.3,121.6 348.4,120.9 349.6,120.1 350.8,119.3 351.9,118.5 353.1,117.7 354.2,117.0 355.3,116.2 356.5,115.4 357.6,114.6 358.8,113.8 359.9,113.1 361.1,112.3 362.2,111.5 363.4,110.7 364.6,109.9 365.7,109.2 366.9,108.4 368.0,107.6 369.2,106.8 370.3,106.0 371.4,105.3 372.6,104.5 373.8,103.7 374.9,102.9 376.1,102.1 377.2,101.4 378.4,100.6 379.5,99.8 380.7,99.0 381.8,98.2 383.0,97.5 384.1,96.7 385.2,95.9 386.4,95.1 387.5,94.3 388.7,93.6 389.9,92.8 391.0,92.0 392.1,91.2 393.3,90.4 394.5,89.7 395.6,88.9 396.8,88.1 397.9,87.3 399.1,86.5 400.2,85.8 401.3,85.0 402.5,84.2 403.7,83.4 404.8,82.6 405.9,81.9 407.1,81.1 408.2,80.3 409.4,79.5 410.6,78.7 411.7,78.0 412.8,77.2 414.0,76.4 415.1,75.6 416.3,74.8 417.4,74.1 418.6,73.3 419.8,72.5 420.9,71.7 422.1,70.9 423.2,70.2 424.4,69.4 425.5,68.6 426.7,67.8 427.8,67.0 428.9,66.3 430.1,65.5 431.2,64.7 432.4,63.9 433.6,63.1 434.7,62.4 435.8,61.6 437.0,60.8 438.2,60.0 439.3,59.2 440.4,58.5 441.6,57.7 442.8,56.9 443.9,56.1 445.0,55.3 446.2,54.6 447.4,53.8 448.5,53.0 449.6,52.2 450.8,51.4 452.0,50.7 453.1,49.9 454.2,49.1 455.4,48.3 456.6,47.5 457.7,46.8 458.8,46.0 460.0,45.2 461.2,44.4 462.3,43.6 463.4,42.9 464.6,42.1 465.8,41.3 466.9,40.5 468.1,39.7 469.2,39.0 470.3,38.2 471.5,37.4 472.6,36.6 473.8,35.8 474.9,35.1 476.1,34.3 477.2,33.5 478.4,32.7 479.6,31.9 480.7,31.2 481.9,30.4 483.0,29.6 484.2,28.8 485.3,28.0 486.4,27.3 487.6,26.5 488.8,25.7 489.9,24.9 491.1,24.1 492.2,23.4 493.3,22.6 494.5,21.8 495.7,21.0 496.8,20.2 497.9,19.5 499.1,18.7 500.2,17.9 501.4,17.1 502.5,16.3 503.7,15.6 504.9,14.8 506.0,14.0" fill="none" stroke="#888780" stroke-width="1.6" stroke-dasharray="5 4"/>
<polyline points="46.0,326.0 47.1,325.9 48.3,325.7 49.5,325.6 50.6,325.4 51.8,325.3 52.9,325.1 54.1,325.0 55.2,324.9 56.4,324.7 57.5,324.6 58.7,324.4 59.8,324.3 60.9,324.1 62.1,324.0 63.2,323.8 64.4,323.7 65.5,323.5 66.7,323.4 67.8,323.2 69.0,323.0 70.1,322.9 71.3,322.7 72.5,322.6 73.6,322.4 74.8,322.3 75.9,322.1 77.0,321.9 78.2,321.8 79.3,321.6 80.5,321.4 81.7,321.3 82.8,321.1 84.0,320.9 85.1,320.8 86.2,320.6 87.4,320.4 88.6,320.3 89.7,320.1 90.8,319.9 92.0,319.7 93.1,319.6 94.3,319.4 95.4,319.2 96.6,319.0 97.8,318.9 98.9,318.7 100.0,318.5 101.2,318.3 102.3,318.1 103.5,317.9 104.7,317.8 105.8,317.6 107.0,317.4 108.1,317.2 109.2,317.0 110.4,316.8 111.6,316.6 112.7,316.4 113.9,316.2 115.0,316.0 116.2,315.8 117.3,315.6 118.4,315.4 119.6,315.2 120.7,315.0 121.9,314.8 123.0,314.6 124.2,314.4 125.3,314.2 126.5,313.9 127.6,313.7 128.8,313.5 129.9,313.3 131.1,313.1 132.2,312.8 133.4,312.6 134.6,312.4 135.7,312.2 136.9,311.9 138.0,311.7 139.2,311.5 140.3,311.2 141.4,311.0 142.6,310.8 143.8,310.5 144.9,310.3 146.1,310.0 147.2,309.8 148.3,309.5 149.5,309.3 150.6,309.0 151.8,308.8 152.9,308.5 154.1,308.2 155.2,308.0 156.4,307.7 157.6,307.4 158.7,307.2 159.8,306.9 161.0,306.6 162.2,306.3 163.3,306.0 164.4,305.8 165.6,305.5 166.8,305.2 167.9,304.9 169.0,304.6 170.2,304.3 171.3,304.0 172.5,303.7 173.6,303.4 174.8,303.0 175.9,302.7 177.1,302.4 178.2,302.1 179.4,301.7 180.5,301.4 181.7,301.1 182.8,300.7 184.0,300.4 185.2,300.0 186.3,299.7 187.4,299.3 188.6,299.0 189.8,298.6 190.9,298.2 192.1,297.8 193.2,297.5 194.3,297.1 195.5,296.7 196.7,296.3 197.8,295.9 199.0,295.5 200.1,295.0 201.2,294.6 202.4,294.2 203.6,293.7 204.7,293.3 205.9,292.8 207.0,292.4 208.2,291.9 209.3,291.4 210.5,291.0 211.6,290.5 212.8,290.0 213.9,289.5 215.0,288.9 216.2,288.4 217.3,287.9 218.5,287.3 219.7,286.8 220.8,286.2 222.0,285.6 223.1,285.0 224.2,284.4 225.4,283.8 226.6,283.2 227.7,282.5 228.9,281.8 230.0,281.2 231.1,280.5 232.3,279.7 233.4,279.0 234.6,278.3 235.8,277.5 236.9,276.7 238.0,275.9 239.2,275.0 240.3,274.1 241.5,273.2 242.7,272.3 243.8,271.4 244.9,270.4 246.1,269.3 247.2,268.3 248.4,267.1 249.6,266.0 250.7,264.8 251.8,263.5 253.0,262.2 254.2,260.8 255.3,259.3 256.5,257.8 257.6,256.2 258.8,254.5 259.9,252.6 261.1,250.6 262.2,248.5 263.4,246.2 264.5,243.7 265.6,241.0 266.8,238.0 267.9,234.6 269.1,230.7 270.2,226.2 271.4,220.9 272.5,214.3 273.7,205.6 274.9,193.1 276.0,170.0 277.1,146.9 278.3,134.4 279.4,125.7 280.6,119.1 281.8,113.8 282.9,109.3 284.0,105.4 285.2,102.0 286.4,99.0 287.5,96.3 288.6,93.8 289.8,91.5 290.9,89.4 292.1,87.4 293.2,85.5 294.4,83.8 295.5,82.2 296.7,80.7 297.9,79.2 299.0,77.8 300.1,76.5 301.3,75.2 302.4,74.0 303.6,72.9 304.8,71.7 305.9,70.7 307.1,69.6 308.2,68.6 309.4,67.7 310.5,66.8 311.7,65.9 312.8,65.0 313.9,64.1 315.1,63.3 316.2,62.5 317.4,61.7 318.6,61.0 319.7,60.3 320.9,59.5 322.0,58.8 323.2,58.2 324.3,57.5 325.5,56.8 326.6,56.2 327.8,55.6 328.9,55.0 330.0,54.4 331.2,53.8 332.4,53.2 333.5,52.7 334.6,52.1 335.8,51.6 337.0,51.1 338.1,50.5 339.2,50.0 340.4,49.5 341.5,49.0 342.7,48.6 343.8,48.1 345.0,47.6 346.1,47.2 347.3,46.7 348.4,46.3 349.6,45.8 350.8,45.4 351.9,45.0 353.1,44.5 354.2,44.1 355.3,43.7 356.5,43.3 357.6,42.9 358.8,42.5 359.9,42.2 361.1,41.8 362.2,41.4 363.4,41.0 364.6,40.7 365.7,40.3 366.9,40.0 368.0,39.6 369.2,39.3 370.3,38.9 371.4,38.6 372.6,38.3 373.8,37.9 374.9,37.6 376.1,37.3 377.2,37.0 378.4,36.6 379.5,36.3 380.7,36.0 381.8,35.7 383.0,35.4 384.1,35.1 385.2,34.8 386.4,34.5 387.5,34.2 388.7,34.0 389.9,33.7 391.0,33.4 392.1,33.1 393.3,32.8 394.5,32.6 395.6,32.3 396.8,32.0 397.9,31.8 399.1,31.5 400.2,31.2 401.3,31.0 402.5,30.7 403.7,30.5 404.8,30.2 405.9,30.0 407.1,29.7 408.2,29.5 409.4,29.2 410.6,29.0 411.7,28.8 412.8,28.5 414.0,28.3 415.1,28.1 416.3,27.8 417.4,27.6 418.6,27.4 419.8,27.2 420.9,26.9 422.1,26.7 423.2,26.5 424.4,26.3 425.5,26.1 426.7,25.8 427.8,25.6 428.9,25.4 430.1,25.2 431.2,25.0 432.4,24.8 433.6,24.6 434.7,24.4 435.8,24.2 437.0,24.0 438.2,23.8 439.3,23.6 440.4,23.4 441.6,23.2 442.8,23.0 443.9,22.8 445.0,22.6 446.2,22.4 447.4,22.2 448.5,22.1 449.6,21.9 450.8,21.7 452.0,21.5 453.1,21.3 454.2,21.1 455.4,21.0 456.6,20.8 457.7,20.6 458.8,20.4 460.0,20.3 461.2,20.1 462.3,19.9 463.4,19.7 464.6,19.6 465.8,19.4 466.9,19.2 468.1,19.1 469.2,18.9 470.3,18.7 471.5,18.6 472.6,18.4 473.8,18.2 474.9,18.1 476.1,17.9 477.2,17.7 478.4,17.6 479.6,17.4 480.7,17.3 481.9,17.1 483.0,17.0 484.2,16.8 485.3,16.6 486.4,16.5 487.6,16.3 488.8,16.2 489.9,16.0 491.1,15.9 492.2,15.7 493.3,15.6 494.5,15.4 495.7,15.3 496.8,15.1 497.9,15.0 499.1,14.9 500.2,14.7 501.4,14.6 502.5,14.4 503.7,14.3 504.9,14.1 506.0,14.0" fill="none" stroke="#378add" stroke-width="2.6"/>
<polyline points="46.0,326.0 47.1,321.7 48.3,317.6 49.5,313.5 50.6,309.6 51.8,305.7 52.9,302.0 54.1,298.4 55.2,294.8 56.4,291.4 57.5,288.1 58.7,284.8 59.8,281.7 60.9,278.6 62.1,275.6 63.2,272.7 64.4,269.9 65.5,267.1 66.7,264.5 67.8,261.9 69.0,259.3 70.1,256.9 71.3,254.5 72.5,252.2 73.6,249.9 74.8,247.7 75.9,245.6 77.0,243.5 78.2,241.4 79.3,239.5 80.5,237.6 81.7,235.7 82.8,233.9 84.0,232.1 85.1,230.4 86.2,228.7 87.4,227.1 88.6,225.5 89.7,224.0 90.8,222.5 92.0,221.1 93.1,219.6 94.3,218.3 95.4,216.9 96.6,215.6 97.8,214.4 98.9,213.1 100.0,211.9 101.2,210.8 102.3,209.6 103.5,208.5 104.7,207.5 105.8,206.4 107.0,205.4 108.1,204.4 109.2,203.5 110.4,202.5 111.6,201.6 112.7,200.8 113.9,199.9 115.0,199.1 116.2,198.2 117.3,197.5 118.4,196.7 119.6,195.9 120.7,195.2 121.9,194.5 123.0,193.8 124.2,193.2 125.3,192.5 126.5,191.9 127.6,191.3 128.8,190.7 129.9,190.1 131.1,189.5 132.2,189.0 133.4,188.4 134.6,187.9 135.7,187.4 136.9,186.9 138.0,186.4 139.2,186.0 140.3,185.5 141.4,185.1 142.6,184.6 143.8,184.2 144.9,183.8 146.1,183.4 147.2,183.0 148.3,182.7 149.5,182.3 150.6,182.0 151.8,181.6 152.9,181.3 154.1,180.9 155.2,180.6 156.4,180.3 157.6,180.0 158.7,179.7 159.8,179.5 161.0,179.2 162.2,178.9 163.3,178.6 164.4,178.4 165.6,178.1 166.8,177.9 167.9,177.7 169.0,177.4 170.2,177.2 171.3,177.0 172.5,176.8 173.6,176.6 174.8,176.4 175.9,176.2 177.1,176.0 178.2,175.8 179.4,175.7 180.5,175.5 181.7,175.3 182.8,175.2 184.0,175.0 185.2,174.9 186.3,174.7 187.4,174.6 188.6,174.4 189.8,174.3 190.9,174.1 192.1,174.0 193.2,173.9 194.3,173.8 195.5,173.6 196.7,173.5 197.8,173.4 199.0,173.3 200.1,173.2 201.2,173.1 202.4,173.0 203.6,172.9 204.7,172.8 205.9,172.7 207.0,172.6 208.2,172.5 209.3,172.4 210.5,172.4 211.6,172.3 212.8,172.2 213.9,172.1 215.0,172.0 216.2,172.0 217.3,171.9 218.5,171.8 219.7,171.8 220.8,171.7 222.0,171.6 223.1,171.6 224.2,171.5 225.4,171.5 226.6,171.4 227.7,171.3 228.9,171.3 230.0,171.2 231.1,171.2 232.3,171.1 233.4,171.1 234.6,171.0 235.8,171.0 236.9,171.0 238.0,170.9 239.2,170.9 240.3,170.8 241.5,170.8 242.7,170.8 243.8,170.7 244.9,170.7 246.1,170.6 247.2,170.6 248.4,170.6 249.6,170.5 250.7,170.5 251.8,170.5 253.0,170.5 254.2,170.4 255.3,170.4 256.5,170.4 257.6,170.3 258.8,170.3 259.9,170.3 261.1,170.3 262.2,170.2 263.4,170.2 264.5,170.2 265.6,170.2 266.8,170.2 267.9,170.1 269.1,170.1 270.2,170.1 271.4,170.1 272.5,170.1 273.7,170.0 274.9,170.0 276.0,170.0 277.1,170.0 278.3,170.0 279.4,169.9 280.6,169.9 281.8,169.9 282.9,169.9 284.0,169.9 285.2,169.8 286.4,169.8 287.5,169.8 288.6,169.8 289.8,169.8 290.9,169.7 292.1,169.7 293.2,169.7 294.4,169.7 295.5,169.6 296.7,169.6 297.9,169.6 299.0,169.5 300.1,169.5 301.3,169.5 302.4,169.5 303.6,169.4 304.8,169.4 305.9,169.4 307.1,169.3 308.2,169.3 309.4,169.2 310.5,169.2 311.7,169.2 312.8,169.1 313.9,169.1 315.1,169.0 316.2,169.0 317.4,169.0 318.6,168.9 319.7,168.9 320.9,168.8 322.0,168.8 323.2,168.7 324.3,168.7 325.5,168.6 326.6,168.5 327.8,168.5 328.9,168.4 330.0,168.4 331.2,168.3 332.4,168.2 333.5,168.2 334.6,168.1 335.8,168.0 337.0,168.0 338.1,167.9 339.2,167.8 340.4,167.7 341.5,167.6 342.7,167.6 343.8,167.5 345.0,167.4 346.1,167.3 347.3,167.2 348.4,167.1 349.6,167.0 350.8,166.9 351.9,166.8 353.1,166.7 354.2,166.6 355.3,166.5 356.5,166.4 357.6,166.2 358.8,166.1 359.9,166.0 361.1,165.9 362.2,165.7 363.4,165.6 364.6,165.4 365.7,165.3 366.9,165.1 368.0,165.0 369.2,164.8 370.3,164.7 371.4,164.5 372.6,164.3 373.8,164.2 374.9,164.0 376.1,163.8 377.2,163.6 378.4,163.4 379.5,163.2 380.7,163.0 381.8,162.8 383.0,162.6 384.1,162.3 385.2,162.1 386.4,161.9 387.5,161.6 388.7,161.4 389.9,161.1 391.0,160.8 392.1,160.5 393.3,160.3 394.5,160.0 395.6,159.7 396.8,159.4 397.9,159.1 399.1,158.7 400.2,158.4 401.3,158.0 402.5,157.7 403.7,157.3 404.8,157.0 405.9,156.6 407.1,156.2 408.2,155.8 409.4,155.4 410.6,154.9 411.7,154.5 412.8,154.0 414.0,153.6 415.1,153.1 416.3,152.6 417.4,152.1 418.6,151.6 419.8,151.0 420.9,150.5 422.1,149.9 423.2,149.3 424.4,148.7 425.5,148.1 426.7,147.5 427.8,146.8 428.9,146.2 430.1,145.5 431.2,144.8 432.4,144.1 433.6,143.3 434.7,142.5 435.8,141.8 437.0,140.9 438.2,140.1 439.3,139.2 440.4,138.4 441.6,137.5 442.8,136.5 443.9,135.6 445.0,134.6 446.2,133.6 447.4,132.5 448.5,131.5 449.6,130.4 450.8,129.2 452.0,128.1 453.1,126.9 454.2,125.6 455.4,124.4 456.6,123.1 457.7,121.7 458.8,120.4 460.0,118.9 461.2,117.5 462.3,116.0 463.4,114.5 464.6,112.9 465.8,111.3 466.9,109.6 468.1,107.9 469.2,106.1 470.3,104.3 471.5,102.4 472.6,100.5 473.8,98.6 474.9,96.5 476.1,94.4 477.2,92.3 478.4,90.1 479.6,87.8 480.7,85.5 481.9,83.1 483.0,80.7 484.2,78.1 485.3,75.5 486.4,72.9 487.6,70.1 488.8,67.3 489.9,64.4 491.1,61.4 492.2,58.3 493.3,55.2 494.5,51.9 495.7,48.6 496.8,45.2 497.9,41.6 499.1,38.0 500.2,34.3 501.4,30.4 502.5,26.5 503.7,22.4 504.9,18.3 506.0,14.0" fill="none" stroke="#1baf7a" stroke-width="2.6"/>
<line x1="60" y1="30" x2="80" y2="30" stroke="#888780" stroke-width="1.6" stroke-dasharray="5 4"/>
<text x="86" y="33.5" fill="#888780" font-size="11" font-family="system-ui, sans-serif">unity</text>
<line x1="60" y1="45" x2="80" y2="45" stroke="#378add" stroke-width="2.6"/>
<text x="86" y="48.5" fill="#888780" font-size="11" font-family="system-ui, sans-serif">compress (before quantizing)</text>
<line x1="60" y1="60" x2="80" y2="60" stroke="#1baf7a" stroke-width="2.6"/>
<text x="86" y="63.5" fill="#888780" font-size="11" font-family="system-ui, sans-serif">expand (after: the inverse)</text>
</svg>
