<svg xmlns="http://www.w3.org/2000/svg" viewBox="0 0 520 300" role="img" aria-label="Reverb: the comb bank alone">
<title>Reverb: the comb bank alone</title>
<desc>The impulse response of the four parallel combs before the allpass stages. The echoes decay, but they stay sparse and countable, and the sparseness is audible as discrete flutter rather than a wash.</desc>
<g stroke="#888780" stroke-opacity="0.25" stroke-width="1">
<line x1="46.0" y1="266" x2="46.0" y2="14"/>
<line x1="161.0" y1="266" x2="161.0" y2="14"/>
<line x1="276.0" y1="266" x2="276.0" y2="14"/>
<line x1="391.0" y1="266" x2="391.0" y2="14"/>
<line x1="506.0" y1="266" x2="506.0" y2="14"/>
<line x1="46" y1="266.0" x2="506" y2="266.0"/>
<line x1="46" y1="203.0" x2="506" y2="203.0"/>
<line x1="46" y1="140.0" x2="506" y2="140.0"/>
<line x1="46" y1="77.0" x2="506" y2="77.0"/>
<line x1="46" y1="14.0" x2="506" y2="14.0"/>
</g>
<g fill="#888780" font-size="11" font-family="system-ui, sans-serif">
<text x="46.0" y="282" text-anchor="middle">0.0</text>
<text x="161.0" y="282" text-anchor="middle">0.1</text>
<text x="276.0" y="282" text-anchor="middle">0.2</text>
<text x="391.0" y="282" text-anchor="middle">0.3</text>
<text x="506.0" y="282" text-anchor="middle">0.4</text>
<text x="40" y="269.0" text-anchor="end">-1.0</text>
<text x="40" y="206.0" text-anchor="end">-0.5</text>
<text x="40" y="143.0" text-anchor="end">0.0</text>
<text x="40" y="80.0" text-anchor="end">0.5</text>
<text x="40" y="17.0" text-anchor="end">1.0</text>
<text x="276.0" y="296" text-anchor="middle">time (s)</text>
<text x="13" y="140.0" text-anchor="middle" transform="rotate(-90 13 140.0)">amplitude (linear)</text>
</g>
<polyline points="46.0,14.0 46.1,140.0 46.3,140.0 46.4,140.0 46.6,140.0 46.7,140.0 46.9,140.0 47.0,140.0 47.1,140.0 47.3,140.0 47.4,140.0 47.6,140.0 47.7,140.0 47.9,140.0 48.0,140.0 48.2,140.0 48.3,140.0 48.4,140.0 48.6,140.0 48.7,140.0 48.9,140.0 49.0,140.0 49.2,140.0 49.3,140.0 49.5,140.0 49.6,140.0 49.7,140.0 49.9,140.0 50.0,140.0 50.2,140.0 50.3,140.0 50.5,140.0 50.6,140.0 50.7,140.0 50.9,140.0 51.0,140.0 51.2,140.0 51.3,140.0 51.5,140.0 51.6,140.0 51.8,140.0 51.9,140.0 52.0,140.0 52.2,140.0 52.3,140.0 52.5,140.0 52.6,140.0 52.8,140.0 52.9,140.0 53.0,140.0 53.2,140.0 53.3,140.0 53.5,140.0 53.6,140.0 53.8,140.0 53.9,140.0 54.0,140.0 54.2,140.0 54.3,140.0 54.5,140.0 54.6,140.0 54.8,140.0 54.9,140.0 55.1,140.0 55.2,140.0 55.3,140.0 55.5,140.0 55.6,140.0 55.8,140.0 55.9,140.0 56.1,140.0 56.2,140.0 56.3,140.0 56.5,140.0 56.6,140.0 56.8,140.0 56.9,140.0 57.1,140.0 57.2,140.0 57.4,140.0 57.5,140.0 57.6,140.0 57.8,140.0 57.9,140.0 58.1,140.0 58.2,140.0 58.4,140.0 58.5,140.0 58.6,140.0 58.8,140.0 58.9,140.0 59.1,140.0 59.2,140.0 59.4,140.0 59.5,140.0 59.7,140.0 59.8,140.0 59.9,140.0 60.1,140.0 60.2,140.0 60.4,140.0 60.5,140.0 60.7,140.0 60.8,140.0 60.9,140.0 61.1,140.0 61.2,140.0 61.4,140.0 61.5,140.0 61.7,140.0 61.8,140.0 62.0,140.0 62.1,140.0 62.2,140.0 62.4,140.0 62.5,140.0 62.7,140.0 62.8,140.0 63.0,140.0 63.1,140.0 63.2,140.0 63.4,140.0 63.5,140.0 63.7,140.0 63.8,140.0 64.0,140.0 64.1,140.0 64.3,140.0 64.4,140.0 64.5,140.0 64.7,140.0 64.8,140.0 65.0,140.0 65.1,140.0 65.3,140.0 65.4,140.0 65.5,140.0 65.7,140.0 65.8,140.0 66.0,140.0 66.1,140.0 66.3,140.0 66.4,140.0 66.6,140.0 66.7,140.0 66.8,140.0 67.0,140.0 67.1,140.0 67.3,140.0 67.4,140.0 67.6,140.0 67.7,140.0 67.8,140.0 68.0,140.0 68.1,140.0 68.3,140.0 68.4,140.0 68.6,140.0 68.7,140.0 68.9,140.0 69.0,140.0 69.1,140.0 69.3,140.0 69.4,140.0 69.6,140.0 69.7,140.0 69.9,140.0 70.0,140.0 70.2,140.0 70.3,140.0 70.4,140.0 70.6,140.0 70.7,140.0 70.9,140.0 71.0,140.0 71.2,140.0 71.3,140.0 71.4,140.0 71.6,140.0 71.7,140.0 71.9,140.0 72.0,140.0 72.2,140.0 72.3,140.0 72.5,140.0 72.6,140.0 72.7,140.0 72.9,140.0 73.0,140.0 73.2,140.0 73.3,140.0 73.5,140.0 73.6,140.0 73.7,140.0 73.9,140.0 74.0,140.0 74.2,140.0 74.3,140.0 74.5,140.0 74.6,140.0 74.8,140.0 74.9,140.0 75.0,140.0 75.2,140.0 75.3,140.0 75.5,140.0 75.6,140.0 75.8,140.0 75.9,140.0 76.0,140.0 76.2,140.0 76.3,140.0 76.5,140.0 76.6,140.0 76.8,140.0 76.9,140.0 77.0,140.0 77.2,140.0 77.3,140.0 77.5,140.0 77.6,140.0 77.8,140.0 77.9,140.0 78.1,140.0 78.2,140.0 78.3,140.0 78.5,140.0 78.6,140.0 78.8,140.0 78.9,140.0 79.1,140.0 79.2,140.0 79.3,140.0 79.5,140.0 79.6,140.0 79.8,140.0 79.9,140.0 80.1,113.5 80.2,140.0 80.4,140.0 80.5,140.0 80.6,140.0 80.8,140.0 80.9,140.0 81.1,140.0 81.2,140.0 81.4,140.0 81.5,140.0 81.7,140.0 81.8,140.0 81.9,140.0 82.1,140.0 82.2,140.0 82.4,140.0 82.5,140.0 82.7,140.0 82.8,140.0 82.9,140.0 83.1,140.0 83.2,140.0 83.4,140.0 83.5,140.0 83.7,140.0 83.8,140.0 84.0,140.0 84.1,140.0 84.2,140.0 84.4,140.0 84.5,140.0 84.7,140.0 84.8,140.0 85.0,140.0 85.1,140.0 85.2,140.0 85.4,140.0 85.5,140.0 85.7,140.0 85.8,140.0 86.0,140.0 86.1,140.0 86.2,140.0 86.4,140.0 86.5,140.0 86.7,140.0 86.8,140.0 87.0,140.0 87.1,140.0 87.3,140.0 87.4,140.0 87.5,140.0 87.7,140.0 87.8,140.0 88.0,140.0 88.1,140.0 88.3,140.0 88.4,140.0 88.5,113.5 88.7,140.0 88.8,140.0 89.0,140.0 89.1,140.0 89.3,140.0 89.4,140.0 89.6,140.0 89.7,140.0 89.8,140.0 90.0,140.0 90.1,140.0 90.3,140.0 90.4,140.0 90.6,140.0 90.7,140.0 90.8,140.0 91.0,140.0 91.1,140.0 91.3,140.0 91.4,140.0 91.6,140.0 91.7,140.0 91.9,140.0 92.0,140.0 92.1,140.0 92.3,140.0 92.4,140.0 92.6,140.0 92.7,140.0 92.9,140.0 93.0,140.0 93.2,113.5 93.3,140.0 93.4,140.0 93.6,140.0 93.7,140.0 93.9,140.0 94.0,140.0 94.2,140.0 94.3,140.0 94.4,140.0 94.6,140.0 94.7,140.0 94.9,140.0 95.0,140.0 95.2,140.0 95.3,140.0 95.4,140.0 95.6,140.0 95.7,140.0 95.9,140.0 96.0,140.0 96.2,113.5 96.3,140.0 96.5,140.0 96.6,140.0 96.7,140.0 96.9,140.0 97.0,140.0 97.2,140.0 97.3,140.0 97.5,140.0 97.6,140.0 97.8,140.0 97.9,140.0 98.0,140.0 98.2,140.0 98.3,140.0 98.5,140.0 98.6,140.0 98.8,140.0 98.9,140.0 99.0,140.0 99.2,140.0 99.3,140.0 99.5,140.0 99.6,140.0 99.8,140.0 99.9,140.0 100.0,140.0 100.2,140.0 100.3,140.0 100.5,140.0 100.6,140.0 100.8,140.0 100.9,140.0 101.1,140.0 101.2,140.0 101.3,140.0 101.5,140.0 101.6,140.0 101.8,140.0 101.9,140.0 102.1,140.0 102.2,140.0 102.3,140.0 102.5,140.0 102.6,140.0 102.8,140.0 102.9,140.0 103.1,140.0 103.2,140.0 103.4,140.0 103.5,140.0 103.6,140.0 103.8,140.0 103.9,140.0 104.1,140.0 104.2,140.0 104.4,140.0 104.5,140.0 104.6,140.0 104.8,140.0 104.9,140.0 105.1,140.0 105.2,140.0 105.4,140.0 105.5,140.0 105.7,140.0 105.8,140.0 105.9,140.0 106.1,140.0 106.2,140.0 106.4,140.0 106.5,140.0 106.7,140.0 106.8,140.0 106.9,140.0 107.1,140.0 107.2,140.0 107.4,140.0 107.5,140.0 107.7,140.0 107.8,140.0 108.0,140.0 108.1,140.0 108.2,140.0 108.4,140.0 108.5,140.0 108.7,140.0 108.8,140.0 109.0,140.0 109.1,140.0 109.2,140.0 109.4,140.0 109.5,140.0 109.7,140.0 109.8,140.0 110.0,140.0 110.1,140.0 110.3,140.0 110.4,140.0 110.5,140.0 110.7,140.0 110.8,140.0 111.0,140.0 111.1,140.0 111.3,140.0 111.4,140.0 111.5,140.0 111.7,140.0 111.8,140.0 112.0,140.0 112.1,140.0 112.3,140.0 112.4,140.0 112.6,140.0 112.7,140.0 112.8,140.0 113.0,140.0 113.1,140.0 113.3,140.0 113.4,140.0 113.6,140.0 113.7,140.0 113.8,140.0 114.0,140.0 114.1,117.8 114.3,140.0 114.4,140.0 114.6,140.0 114.7,140.0 114.9,140.0 115.0,140.0 115.1,140.0 115.3,140.0 115.4,140.0 115.6,140.0 115.7,140.0 115.9,140.0 116.0,140.0 116.1,140.0 116.3,140.0 116.4,140.0 116.6,140.0 116.7,140.0 116.9,140.0 117.0,140.0 117.2,140.0 117.3,140.0 117.4,140.0 117.6,140.0 117.7,140.0 117.9,140.0 118.0,140.0 118.2,140.0 118.3,140.0 118.5,140.0 118.6,140.0 118.7,140.0 118.9,140.0 119.0,140.0 119.2,140.0 119.3,140.0 119.5,140.0 119.6,140.0 119.7,140.0 119.9,140.0 120.0,140.0 120.2,140.0 120.3,140.0 120.5,140.0 120.6,140.0 120.8,140.0 120.9,140.0 121.0,140.0 121.2,140.0 121.3,140.0 121.5,140.0 121.6,140.0 121.8,140.0 121.9,140.0 122.0,140.0 122.2,140.0 122.3,140.0 122.5,140.0 122.6,140.0 122.8,140.0 122.9,140.0 123.1,140.0 123.2,140.0 123.3,140.0 123.5,140.0 123.6,140.0 123.8,140.0 123.9,140.0 124.1,140.0 124.2,140.0 124.3,140.0 124.5,140.0 124.6,140.0 124.8,140.0 124.9,140.0 125.1,140.0 125.2,140.0 125.4,140.0 125.5,140.0 125.6,140.0 125.8,140.0 125.9,140.0 126.1,140.0 126.2,140.0 126.4,140.0 126.5,140.0 126.6,140.0 126.8,140.0 126.9,140.0 127.1,140.0 127.2,140.0 127.4,140.0 127.5,140.0 127.6,140.0 127.8,140.0 127.9,140.0 128.1,140.0 128.2,140.0 128.4,140.0 128.5,140.0 128.7,140.0 128.8,140.0 128.9,140.0 129.1,140.0 129.2,140.0 129.4,140.0 129.5,140.0 129.7,140.0 129.8,140.0 129.9,140.0 130.1,140.0 130.2,140.0 130.4,140.0 130.5,140.0 130.7,140.0 130.8,140.0 131.0,140.0 131.1,117.8 131.2,140.0 131.4,140.0 131.5,140.0 131.7,140.0 131.8,140.0 132.0,140.0 132.1,140.0 132.2,140.0 132.4,140.0 132.5,140.0 132.7,140.0 132.8,140.0 133.0,140.0 133.1,140.0 133.3,140.0 133.4,140.0 133.5,140.0 133.7,140.0 133.8,140.0 134.0,140.0 134.1,140.0 134.3,140.0 134.4,140.0 134.5,140.0 134.7,140.0 134.8,140.0 135.0,140.0 135.1,140.0 135.3,140.0 135.4,140.0 135.6,140.0 135.7,140.0 135.8,140.0 136.0,140.0 136.1,140.0 136.3,140.0 136.4,140.0 136.6,140.0 136.7,140.0 136.8,140.0 137.0,140.0 137.1,140.0 137.3,140.0 137.4,140.0 137.6,140.0 137.7,140.0 137.9,140.0 138.0,140.0 138.1,140.0 138.3,140.0 138.4,140.0 138.6,140.0 138.7,140.0 138.9,140.0 139.0,140.0 139.1,140.0 139.3,140.0 139.4,140.0 139.6,140.0 139.7,140.0 139.9,140.0 140.0,140.0 140.2,140.0 140.3,117.8 140.4,140.0 140.6,140.0 140.7,140.0 140.9,140.0 141.0,140.0 141.2,140.0 141.3,140.0 141.4,140.0 141.6,140.0 141.7,140.0 141.9,140.0 142.0,140.0 142.2,140.0 142.3,140.0 142.5,140.0 142.6,140.0 142.7,140.0 142.9,140.0 143.0,140.0 143.2,140.0 143.3,140.0 143.5,140.0 143.6,140.0 143.8,140.0 143.9,140.0 144.0,140.0 144.2,140.0 144.3,140.0 144.5,140.0 144.6,140.0 144.8,140.0 144.9,140.0 145.0,140.0 145.2,140.0 145.3,140.0 145.5,140.0 145.6,140.0 145.8,140.0 145.9,140.0 146.0,140.0 146.2,140.0 146.3,117.8 146.5,140.0 146.6,140.0 146.8,140.0 146.9,140.0 147.1,140.0 147.2,140.0 147.3,140.0 147.5,140.0 147.6,140.0 147.8,140.0 147.9,140.0 148.1,140.0 148.2,121.3 148.3,140.0 148.5,140.0 148.6,140.0 148.8,140.0 148.9,140.0 149.1,140.0 149.2,140.0 149.4,140.0 149.5,140.0 149.6,140.0 149.8,140.0 149.9,140.0 150.1,140.0 150.2,140.0 150.4,140.0 150.5,140.0 150.6,140.0 150.8,140.0 150.9,140.0 151.1,140.0 151.2,140.0 151.4,140.0 151.5,140.0 151.7,140.0 151.8,140.0 151.9,140.0 152.1,140.0 152.2,140.0 152.4,140.0 152.5,140.0 152.7,140.0 152.8,140.0 152.9,140.0 153.1,140.0 153.2,140.0 153.4,140.0 153.5,140.0 153.7,140.0 153.8,140.0 154.0,140.0 154.1,140.0 154.2,140.0 154.4,140.0 154.5,140.0 154.7,140.0 154.8,140.0 155.0,140.0 155.1,140.0 155.2,140.0 155.4,140.0 155.5,140.0 155.7,140.0 155.8,140.0 156.0,140.0 156.1,140.0 156.3,140.0 156.4,140.0 156.5,140.0 156.7,140.0 156.8,140.0 157.0,140.0 157.1,140.0 157.3,140.0 157.4,140.0 157.6,140.0 157.7,140.0 157.8,140.0 158.0,140.0 158.1,140.0 158.3,140.0 158.4,140.0 158.6,140.0 158.7,140.0 158.8,140.0 159.0,140.0 159.1,140.0 159.3,140.0 159.4,140.0 159.6,140.0 159.7,140.0 159.8,140.0 160.0,140.0 160.1,140.0 160.3,140.0 160.4,140.0 160.6,140.0 160.7,140.0 160.9,140.0 161.0,140.0 161.1,140.0 161.3,140.0 161.4,140.0 161.6,140.0 161.7,140.0 161.9,140.0 162.0,140.0 162.2,140.0 162.3,140.0 162.4,140.0 162.6,140.0 162.7,140.0 162.9,140.0 163.0,140.0 163.2,140.0 163.3,140.0 163.4,140.0 163.6,140.0 163.7,140.0 163.9,140.0 164.0,140.0 164.2,140.0 164.3,140.0 164.4,140.0 164.6,140.0 164.7,140.0 164.9,140.0 165.0,140.0 165.2,140.0 165.3,140.0 165.5,140.0 165.6,140.0 165.7,140.0 165.9,140.0 166.0,140.0 166.2,140.0 166.3,140.0 166.5,140.0 166.6,140.0 166.8,140.0 166.9,140.0 167.0,140.0 167.2,140.0 167.3,140.0 167.5,140.0 167.6,140.0 167.8,140.0 167.9,140.0 168.0,140.0 168.2,140.0 168.3,140.0 168.5,140.0 168.6,140.0 168.8,140.0 168.9,140.0 169.0,140.0 169.2,140.0 169.3,140.0 169.5,140.0 169.6,140.0 169.8,140.0 169.9,140.0 170.1,140.0 170.2,140.0 170.3,140.0 170.5,140.0 170.6,140.0 170.8,140.0 170.9,140.0 171.1,140.0 171.2,140.0 171.3,140.0 171.5,140.0 171.6,140.0 171.8,140.0 171.9,140.0 172.1,140.0 172.2,140.0 172.4,140.0 172.5,140.0 172.6,140.0 172.8,140.0 172.9,140.0 173.1,140.0 173.2,140.0 173.4,140.0 173.5,140.0 173.6,121.3 173.8,140.0 173.9,140.0 174.1,140.0 174.2,140.0 174.4,140.0 174.5,140.0 174.7,140.0 174.8,140.0 174.9,140.0 175.1,140.0 175.2,140.0 175.4,140.0 175.5,140.0 175.7,140.0 175.8,140.0 175.9,140.0 176.1,140.0 176.2,140.0 176.4,140.0 176.5,140.0 176.7,140.0 176.8,140.0 177.0,140.0 177.1,140.0 177.2,140.0 177.4,140.0 177.5,140.0 177.7,140.0 177.8,140.0 178.0,140.0 178.1,140.0 178.2,140.0 178.4,140.0 178.5,140.0 178.7,140.0 178.8,140.0 179.0,140.0 179.1,140.0 179.3,140.0 179.4,140.0 179.5,140.0 179.7,140.0 179.8,140.0 180.0,140.0 180.1,140.0 180.3,140.0 180.4,140.0 180.5,140.0 180.7,140.0 180.8,140.0 181.0,140.0 181.1,140.0 181.3,140.0 181.4,140.0 181.6,140.0 181.7,140.0 181.8,140.0 182.0,140.0 182.1,140.0 182.3,124.3 182.4,140.0 182.6,140.0 182.7,140.0 182.8,140.0 183.0,140.0 183.1,140.0 183.3,140.0 183.4,140.0 183.6,140.0 183.7,140.0 183.9,140.0 184.0,140.0 184.1,140.0 184.3,140.0 184.4,140.0 184.6,140.0 184.7,140.0 184.9,140.0 185.0,140.0 185.2,140.0 185.3,140.0 185.4,140.0 185.6,140.0 185.7,140.0 185.9,140.0 186.0,140.0 186.2,140.0 186.3,140.0 186.4,140.0 186.6,140.0 186.7,140.0 186.9,140.0 187.0,140.0 187.2,140.0 187.3,140.0 187.4,121.3 187.6,140.0 187.7,140.0 187.9,140.0 188.0,140.0 188.2,140.0 188.3,140.0 188.5,140.0 188.6,140.0 188.7,140.0 188.9,140.0 189.0,140.0 189.2,140.0 189.3,140.0 189.5,140.0 189.6,140.0 189.8,140.0 189.9,140.0 190.0,140.0 190.2,140.0 190.3,140.0 190.5,140.0 190.6,140.0 190.8,140.0 190.9,140.0 191.0,140.0 191.2,140.0 191.3,140.0 191.5,140.0 191.6,140.0 191.8,140.0 191.9,140.0 192.1,140.0 192.2,140.0 192.3,140.0 192.5,140.0 192.6,140.0 192.8,140.0 192.9,140.0 193.1,140.0 193.2,140.0 193.3,140.0 193.5,140.0 193.6,140.0 193.8,140.0 193.9,140.0 194.1,140.0 194.2,140.0 194.3,140.0 194.5,140.0 194.6,140.0 194.8,140.0 194.9,140.0 195.1,140.0 195.2,140.0 195.4,140.0 195.5,140.0 195.6,140.0 195.8,140.0 195.9,140.0 196.1,140.0 196.2,140.0 196.4,140.0 196.5,121.3 196.7,140.0 196.8,140.0 196.9,140.0 197.1,140.0 197.2,140.0 197.4,140.0 197.5,140.0 197.7,140.0 197.8,140.0 197.9,140.0 198.1,140.0 198.2,140.0 198.4,140.0 198.5,140.0 198.7,140.0 198.8,140.0 199.0,140.0 199.1,140.0 199.2,140.0 199.4,140.0 199.5,140.0 199.7,140.0 199.8,140.0 200.0,140.0 200.1,140.0 200.2,140.0 200.4,140.0 200.5,140.0 200.7,140.0 200.8,140.0 201.0,140.0 201.1,140.0 201.2,140.0 201.4,140.0 201.5,140.0 201.7,140.0 201.8,140.0 202.0,140.0 202.1,140.0 202.3,140.0 202.4,140.0 202.5,140.0 202.7,140.0 202.8,140.0 203.0,140.0 203.1,140.0 203.3,140.0 203.4,140.0 203.6,140.0 203.7,140.0 203.8,140.0 204.0,140.0 204.1,140.0 204.3,140.0 204.4,140.0 204.6,140.0 204.7,140.0 204.8,140.0 205.0,140.0 205.1,140.0 205.3,140.0 205.4,140.0 205.6,140.0 205.7,140.0 205.9,140.0 206.0,140.0 206.1,140.0 206.3,140.0 206.4,140.0 206.6,140.0 206.7,140.0 206.9,140.0 207.0,140.0 207.1,140.0 207.3,140.0 207.4,140.0 207.6,140.0 207.7,140.0 207.9,140.0 208.0,140.0 208.1,140.0 208.3,140.0 208.4,140.0 208.6,140.0 208.7,140.0 208.9,140.0 209.0,140.0 209.2,140.0 209.3,140.0 209.4,140.0 209.6,140.0 209.7,140.0 209.9,140.0 210.0,140.0 210.2,140.0 210.3,140.0 210.4,140.0 210.6,140.0 210.7,140.0 210.9,140.0 211.0,140.0 211.2,140.0 211.3,140.0 211.5,140.0 211.6,140.0 211.7,140.0 211.9,140.0 212.0,140.0 212.2,140.0 212.3,140.0 212.5,140.0 212.6,140.0 212.7,140.0 212.9,140.0 213.0,140.0 213.2,140.0 213.3,140.0 213.5,140.0 213.6,140.0 213.8,140.0 213.9,140.0 214.0,140.0 214.2,140.0 214.3,140.0 214.5,140.0 214.6,140.0 214.8,140.0 214.9,140.0 215.0,140.0 215.2,140.0 215.3,140.0 215.5,140.0 215.6,140.0 215.8,140.0 215.9,140.0 216.1,140.0 216.2,124.3 216.3,126.8 216.5,140.0 216.6,140.0 216.8,140.0 216.9,140.0 217.1,140.0 217.2,140.0 217.3,140.0 217.5,140.0 217.6,140.0 217.8,140.0 217.9,140.0 218.1,140.0 218.2,140.0 218.4,140.0 218.5,140.0 218.6,140.0 218.8,140.0 218.9,140.0 219.1,140.0 219.2,140.0 219.4,140.0 219.5,140.0 219.6,140.0 219.8,140.0 219.9,140.0 220.1,140.0 220.2,140.0 220.4,140.0 220.5,140.0 220.7,140.0 220.8,140.0 220.9,140.0 221.1,140.0 221.2,140.0 221.4,140.0 221.5,140.0 221.7,140.0 221.8,140.0 221.9,140.0 222.1,140.0 222.2,140.0 222.4,140.0 222.5,140.0 222.7,140.0 222.8,140.0 223.0,140.0 223.1,140.0 223.2,140.0 223.4,140.0 223.5,140.0 223.7,140.0 223.8,140.0 224.0,140.0 224.1,140.0 224.2,140.0 224.4,140.0 224.5,140.0 224.7,140.0 224.8,140.0 225.0,140.0 225.1,140.0 225.3,140.0 225.4,140.0 225.5,140.0 225.7,140.0 225.8,140.0 226.0,140.0 226.1,140.0 226.3,140.0 226.4,140.0 226.5,140.0 226.7,140.0 226.8,140.0 227.0,140.0 227.1,140.0 227.3,140.0 227.4,140.0 227.6,140.0 227.7,140.0 227.8,140.0 228.0,140.0 228.1,140.0 228.3,140.0 228.4,140.0 228.6,140.0 228.7,140.0 228.8,140.0 229.0,140.0 229.1,140.0 229.3,140.0 229.4,140.0 229.6,140.0 229.7,140.0 229.9,140.0 230.0,140.0 230.1,140.0 230.3,140.0 230.4,140.0 230.6,140.0 230.7,140.0 230.9,140.0 231.0,140.0 231.1,140.0 231.3,140.0 231.4,140.0 231.6,140.0 231.7,140.0 231.9,140.0 232.0,140.0 232.2,140.0 232.3,140.0 232.4,140.0 232.6,140.0 232.7,140.0 232.9,140.0 233.0,140.0 233.2,140.0 233.3,140.0 233.4,140.0 233.6,140.0 233.7,140.0 233.9,140.0 234.0,140.0 234.2,140.0 234.3,140.0 234.5,140.0 234.6,124.3 234.7,140.0 234.9,140.0 235.0,140.0 235.2,140.0 235.3,140.0 235.5,140.0 235.6,140.0 235.8,140.0 235.9,140.0 236.0,140.0 236.2,140.0 236.3,140.0 236.5,140.0 236.6,140.0 236.8,140.0 236.9,140.0 237.0,140.0 237.2,140.0 237.3,140.0 237.5,140.0 237.6,140.0 237.8,140.0 237.9,140.0 238.0,140.0 238.2,140.0 238.3,140.0 238.5,140.0 238.6,140.0 238.8,140.0 238.9,140.0 239.1,140.0 239.2,140.0 239.3,140.0 239.5,140.0 239.6,140.0 239.8,140.0 239.9,140.0 240.1,140.0 240.2,140.0 240.3,140.0 240.5,140.0 240.6,140.0 240.8,140.0 240.9,140.0 241.1,140.0 241.2,140.0 241.4,140.0 241.5,140.0 241.6,140.0 241.8,140.0 241.9,140.0 242.1,140.0 242.2,140.0 242.4,140.0 242.5,140.0 242.7,140.0 242.8,140.0 242.9,140.0 243.1,140.0 243.2,140.0 243.4,140.0 243.5,140.0 243.7,140.0 243.8,140.0 243.9,140.0 244.1,140.0 244.2,140.0 244.4,140.0 244.5,140.0 244.7,140.0 244.8,140.0 244.9,140.0 245.1,140.0 245.2,140.0 245.4,140.0 245.5,140.0 245.7,140.0 245.8,140.0 246.0,140.0 246.1,140.0 246.2,140.0 246.4,140.0 246.5,140.0 246.7,124.3 246.8,140.0 247.0,140.0 247.1,140.0 247.2,140.0 247.4,140.0 247.5,140.0 247.7,140.0 247.8,140.0 248.0,140.0 248.1,140.0 248.3,140.0 248.4,140.0 248.5,140.0 248.7,140.0 248.8,140.0 249.0,140.0 249.1,140.0 249.3,140.0 249.4,140.0 249.5,140.0 249.7,140.0 249.8,140.0 250.0,140.0 250.1,140.0 250.3,140.0 250.4,128.9 250.6,140.0 250.7,140.0 250.8,140.0 251.0,140.0 251.1,140.0 251.3,140.0 251.4,140.0 251.6,140.0 251.7,140.0 251.8,140.0 252.0,140.0 252.1,140.0 252.3,140.0 252.4,140.0 252.6,140.0 252.7,140.0 252.9,140.0 253.0,140.0 253.1,140.0 253.3,140.0 253.4,140.0 253.6,140.0 253.7,140.0 253.9,140.0 254.0,140.0 254.1,140.0 254.3,140.0 254.4,140.0 254.6,140.0 254.7,140.0 254.9,140.0 255.0,140.0 255.2,140.0 255.3,140.0 255.4,140.0 255.6,140.0 255.7,140.0 255.9,140.0 256.0,140.0 256.2,140.0 256.3,140.0 256.4,140.0 256.6,140.0 256.7,140.0 256.9,140.0 257.0,140.0 257.2,140.0 257.3,140.0 257.5,140.0 257.6,140.0 257.7,140.0 257.9,140.0 258.0,140.0 258.2,140.0 258.3,140.0 258.5,140.0 258.6,140.0 258.8,126.8 258.9,140.0 259.0,140.0 259.2,140.0 259.3,140.0 259.5,140.0 259.6,140.0 259.8,140.0 259.9,140.0 260.0,140.0 260.2,140.0 260.3,140.0 260.5,140.0 260.6,140.0 260.8,140.0 260.9,140.0 261.0,140.0 261.2,140.0 261.3,140.0 261.5,140.0 261.6,140.0 261.8,140.0 261.9,140.0 262.1,140.0 262.2,140.0 262.3,140.0 262.5,140.0 262.6,140.0 262.8,140.0 262.9,140.0 263.1,140.0 263.2,140.0 263.4,140.0 263.5,140.0 263.6,140.0 263.8,140.0 263.9,140.0 264.1,140.0 264.2,140.0 264.4,140.0 264.5,140.0 264.6,140.0 264.8,140.0 264.9,140.0 265.1,140.0 265.2,140.0 265.4,140.0 265.5,140.0 265.6,140.0 265.8,140.0 265.9,140.0 266.1,140.0 266.2,140.0 266.4,140.0 266.5,140.0 266.7,140.0 266.8,140.0 266.9,140.0 267.1,140.0 267.2,140.0 267.4,140.0 267.5,140.0 267.7,140.0 267.8,140.0 267.9,140.0 268.1,140.0 268.2,140.0 268.4,140.0 268.5,140.0 268.7,140.0 268.8,140.0 269.0,140.0 269.1,140.0 269.2,140.0 269.4,140.0 269.5,140.0 269.7,140.0 269.8,140.0 270.0,140.0 270.1,140.0 270.2,140.0 270.4,140.0 270.5,140.0 270.7,140.0 270.8,140.0 271.0,140.0 271.1,140.0 271.3,140.0 271.4,140.0 271.5,140.0 271.7,140.0 271.8,140.0 272.0,140.0 272.1,140.0 272.3,140.0 272.4,140.0 272.5,140.0 272.7,140.0 272.8,140.0 273.0,140.0 273.1,140.0 273.3,140.0 273.4,140.0 273.6,140.0 273.7,140.0 273.8,140.0 274.0,140.0 274.1,140.0 274.3,140.0 274.4,140.0 274.6,140.0 274.7,140.0 274.9,140.0 275.0,140.0 275.1,140.0 275.3,140.0 275.4,140.0 275.6,140.0 275.7,140.0 275.9,140.0 276.0,140.0 276.1,140.0 276.3,140.0 276.4,140.0 276.6,140.0 276.7,140.0 276.9,140.0 277.0,140.0 277.1,140.0 277.3,140.0 277.4,140.0 277.6,140.0 277.7,140.0 277.9,140.0 278.0,140.0 278.2,140.0 278.3,140.0 278.4,140.0 278.6,140.0 278.7,140.0 278.9,140.0 279.0,140.0 279.2,140.0 279.3,140.0 279.4,140.0 279.6,140.0 279.7,140.0 279.9,140.0 280.0,140.0 280.2,140.0 280.3,140.0 280.5,140.0 280.6,140.0 280.7,140.0 280.9,140.0 281.0,140.0 281.2,140.0 281.3,140.0 281.5,140.0 281.6,140.0 281.8,126.8 281.9,140.0 282.0,140.0 282.2,140.0 282.3,140.0 282.5,140.0 282.6,140.0 282.8,140.0 282.9,140.0 283.0,140.0 283.2,140.0 283.3,140.0 283.5,140.0 283.6,140.0 283.8,140.0 283.9,140.0 284.0,140.0 284.2,140.0 284.3,140.0 284.5,130.7 284.6,140.0 284.8,140.0 284.9,140.0 285.1,140.0 285.2,140.0 285.3,140.0 285.5,140.0 285.6,140.0 285.8,140.0 285.9,140.0 286.1,140.0 286.2,140.0 286.4,140.0 286.5,140.0 286.6,140.0 286.8,140.0 286.9,140.0 287.1,140.0 287.2,140.0 287.4,140.0 287.5,140.0 287.6,140.0 287.8,140.0 287.9,140.0 288.1,140.0 288.2,140.0 288.4,140.0 288.5,140.0 288.6,140.0 288.8,140.0 288.9,140.0 289.1,140.0 289.2,140.0 289.4,140.0 289.5,140.0 289.7,140.0 289.8,140.0 289.9,140.0 290.1,140.0 290.2,140.0 290.4,140.0 290.5,140.0 290.7,140.0 290.8,140.0 290.9,140.0 291.1,140.0 291.2,140.0 291.4,140.0 291.5,140.0 291.7,140.0 291.8,140.0 292.0,140.0 292.1,140.0 292.2,140.0 292.4,140.0 292.5,140.0 292.7,140.0 292.8,140.0 293.0,140.0 293.1,140.0 293.2,140.0 293.4,140.0 293.5,140.0 293.7,140.0 293.8,140.0 294.0,140.0 294.1,140.0 294.3,140.0 294.4,140.0 294.5,140.0 294.7,140.0 294.8,140.0 295.0,140.0 295.1,140.0 295.3,140.0 295.4,140.0 295.5,140.0 295.7,140.0 295.8,140.0 296.0,140.0 296.1,140.0 296.3,140.0 296.4,140.0 296.6,140.0 296.7,140.0 296.8,126.8 297.0,140.0 297.1,140.0 297.3,140.0 297.4,140.0 297.6,140.0 297.7,140.0 297.9,140.0 298.0,140.0 298.1,140.0 298.3,140.0 298.4,140.0 298.6,140.0 298.7,140.0 298.9,140.0 299.0,140.0 299.1,140.0 299.3,140.0 299.4,140.0 299.6,140.0 299.7,140.0 299.9,140.0 300.0,140.0 300.1,140.0 300.3,140.0 300.4,140.0 300.6,140.0 300.7,140.0 300.9,140.0 301.0,140.0 301.2,140.0 301.3,128.9 301.4,140.0 301.6,140.0 301.7,140.0 301.9,140.0 302.0,140.0 302.2,140.0 302.3,140.0 302.4,140.0 302.6,140.0 302.7,140.0 302.9,140.0 303.0,140.0 303.2,140.0 303.3,140.0 303.5,140.0 303.6,140.0 303.7,140.0 303.9,140.0 304.0,140.0 304.2,140.0 304.3,140.0 304.5,140.0 304.6,140.0 304.8,140.0 304.9,140.0 305.0,140.0 305.2,140.0 305.3,140.0 305.5,140.0 305.6,140.0 305.8,140.0 305.9,140.0 306.0,140.0 306.2,140.0 306.3,140.0 306.5,140.0 306.6,140.0 306.8,140.0 306.9,140.0 307.1,140.0 307.2,140.0 307.3,140.0 307.5,140.0 307.6,140.0 307.8,140.0 307.9,140.0 308.1,140.0 308.2,140.0 308.3,140.0 308.5,140.0 308.6,140.0 308.8,140.0 308.9,140.0 309.1,140.0 309.2,140.0 309.4,140.0 309.5,140.0 309.6,140.0 309.8,140.0 309.9,140.0 310.1,140.0 310.2,140.0 310.4,140.0 310.5,140.0 310.6,140.0 310.8,140.0 310.9,140.0 311.1,140.0 311.2,140.0 311.4,140.0 311.5,140.0 311.7,140.0 311.8,140.0 311.9,140.0 312.1,140.0 312.2,140.0 312.4,140.0 312.5,140.0 312.7,140.0 312.8,140.0 312.9,140.0 313.1,140.0 313.2,140.0 313.4,140.0 313.5,140.0 313.7,140.0 313.8,140.0 313.9,140.0 314.1,140.0 314.2,140.0 314.4,140.0 314.5,140.0 314.7,140.0 314.8,140.0 315.0,140.0 315.1,140.0 315.2,140.0 315.4,140.0 315.5,140.0 315.7,140.0 315.8,140.0 316.0,140.0 316.1,140.0 316.2,140.0 316.4,140.0 316.5,140.0 316.7,140.0 316.8,140.0 317.0,140.0 317.1,140.0 317.3,140.0 317.4,140.0 317.5,140.0 317.7,140.0 317.8,140.0 318.0,140.0 318.1,140.0 318.3,140.0 318.4,140.0 318.5,132.2 318.7,140.0 318.8,140.0 319.0,140.0 319.1,140.0 319.3,140.0 319.4,140.0 319.6,140.0 319.7,140.0 319.8,140.0 320.0,140.0 320.1,140.0 320.3,140.0 320.4,140.0 320.6,140.0 320.7,140.0 320.8,140.0 321.0,140.0 321.1,140.0 321.3,140.0 321.4,140.0 321.6,140.0 321.7,140.0 321.9,140.0 322.0,140.0 322.1,140.0 322.3,140.0 322.4,140.0 322.6,140.0 322.7,140.0 322.9,140.0 323.0,140.0 323.1,140.0 323.3,140.0 323.4,140.0 323.6,140.0 323.7,140.0 323.9,140.0 324.0,140.0 324.2,140.0 324.3,140.0 324.4,140.0 324.6,140.0 324.7,140.0 324.9,140.0 325.0,140.0 325.2,140.0 325.3,140.0 325.4,140.0 325.6,140.0 325.7,140.0 325.9,140.0 326.0,140.0 326.2,140.0 326.3,140.0 326.5,140.0 326.6,140.0 326.7,140.0 326.9,140.0 327.0,140.0 327.2,140.0 327.3,140.0 327.5,140.0 327.6,140.0 327.7,140.0 327.9,140.0 328.0,140.0 328.2,140.0 328.3,140.0 328.5,140.0 328.6,140.0 328.8,140.0 328.9,128.9 329.0,140.0 329.2,140.0 329.3,140.0 329.5,140.0 329.6,140.0 329.8,140.0 329.9,140.0 330.0,140.0 330.2,140.0 330.3,140.0 330.5,140.0 330.6,140.0 330.8,140.0 330.9,140.0 331.1,140.0 331.2,140.0 331.3,140.0 331.5,140.0 331.6,140.0 331.8,140.0 331.9,140.0 332.1,140.0 332.2,140.0 332.3,140.0 332.5,140.0 332.6,140.0 332.8,140.0 332.9,140.0 333.1,140.0 333.2,140.0 333.4,140.0 333.5,140.0 333.6,140.0 333.8,140.0 333.9,140.0 334.1,140.0 334.2,140.0 334.4,140.0 334.5,140.0 334.6,140.0 334.8,140.0 334.9,140.0 335.1,140.0 335.2,140.0 335.4,140.0 335.5,140.0 335.7,140.0 335.8,140.0 335.9,140.0 336.1,140.0 336.2,140.0 336.4,140.0 336.5,140.0 336.7,140.0 336.8,140.0 336.9,140.0 337.1,140.0 337.2,140.0 337.4,140.0 337.5,140.0 337.7,140.0 337.8,140.0 338.0,140.0 338.1,140.0 338.2,140.0 338.4,140.0 338.5,140.0 338.7,140.0 338.8,140.0 339.0,140.0 339.1,140.0 339.2,140.0 339.4,140.0 339.5,140.0 339.7,140.0 339.8,140.0 340.0,140.0 340.1,140.0 340.3,140.0 340.4,140.0 340.5,140.0 340.7,140.0 340.8,140.0 341.0,140.0 341.1,140.0 341.3,140.0 341.4,140.0 341.5,140.0 341.7,140.0 341.8,140.0 342.0,140.0 342.1,140.0 342.3,140.0 342.4,140.0 342.6,140.0 342.7,140.0 342.8,140.0 343.0,140.0 343.1,140.0 343.3,140.0 343.4,140.0 343.6,140.0 343.7,140.0 343.8,130.7 344.0,140.0 344.1,140.0 344.3,140.0 344.4,140.0 344.6,140.0 344.7,140.0 344.9,140.0 345.0,140.0 345.1,140.0 345.3,140.0 345.4,140.0 345.6,140.0 345.7,140.0 345.9,140.0 346.0,140.0 346.1,140.0 346.3,140.0 346.4,140.0 346.6,140.0 346.7,140.0 346.9,140.0 347.0,128.9 347.2,140.0 347.3,140.0 347.4,140.0 347.6,140.0 347.7,140.0 347.9,140.0 348.0,140.0 348.2,140.0 348.3,140.0 348.4,140.0 348.6,140.0 348.7,140.0 348.9,140.0 349.0,140.0 349.2,140.0 349.3,140.0 349.5,140.0 349.6,140.0 349.7,140.0 349.9,140.0 350.0,140.0 350.2,140.0 350.3,140.0 350.5,140.0 350.6,140.0 350.8,140.0 350.9,140.0 351.0,140.0 351.2,140.0 351.3,140.0 351.5,140.0 351.6,140.0 351.8,140.0 351.9,140.0 352.0,140.0 352.2,140.0 352.3,140.0 352.5,140.0 352.6,133.4 352.8,140.0 352.9,140.0 353.1,140.0 353.2,140.0 353.3,140.0 353.5,140.0 353.6,140.0 353.8,140.0 353.9,140.0 354.1,140.0 354.2,140.0 354.3,140.0 354.5,140.0 354.6,140.0 354.8,140.0 354.9,140.0 355.1,140.0 355.2,140.0 355.3,140.0 355.5,140.0 355.6,140.0 355.8,140.0 355.9,140.0 356.1,140.0 356.2,140.0 356.4,140.0 356.5,140.0 356.6,140.0 356.8,140.0 356.9,140.0 357.1,140.0 357.2,140.0 357.4,140.0 357.5,140.0 357.6,140.0 357.8,140.0 357.9,140.0 358.1,140.0 358.2,140.0 358.4,140.0 358.5,140.0 358.7,140.0 358.8,140.0 358.9,140.0 359.1,140.0 359.2,140.0 359.4,140.0 359.5,140.0 359.7,140.0 359.8,140.0 359.9,140.0 360.1,140.0 360.2,140.0 360.4,140.0 360.5,140.0 360.7,140.0 360.8,140.0 361.0,140.0 361.1,140.0 361.2,140.0 361.4,140.0 361.5,140.0 361.7,140.0 361.8,140.0 362.0,140.0 362.1,140.0 362.2,140.0 362.4,140.0 362.5,140.0 362.7,140.0 362.8,140.0 363.0,140.0 363.1,140.0 363.3,140.0 363.4,140.0 363.5,140.0 363.7,140.0 363.8,140.0 364.0,140.0 364.1,140.0 364.3,140.0 364.4,140.0 364.6,140.0 364.7,140.0 364.8,140.0 365.0,140.0 365.1,140.0 365.3,140.0 365.4,140.0 365.6,140.0 365.7,140.0 365.8,140.0 366.0,140.0 366.1,140.0 366.3,140.0 366.4,140.0 366.6,140.0 366.7,140.0 366.9,140.0 367.0,140.0 367.1,140.0 367.3,140.0 367.4,140.0 367.6,140.0 367.7,140.0 367.9,140.0 368.0,140.0 368.1,140.0 368.3,140.0 368.4,140.0 368.6,140.0 368.7,140.0 368.9,140.0 369.0,140.0 369.2,140.0 369.3,140.0 369.4,140.0 369.6,140.0 369.7,140.0 369.9,140.0 370.0,140.0 370.2,140.0 370.3,140.0 370.4,140.0 370.6,140.0 370.7,140.0 370.9,140.0 371.0,140.0 371.2,140.0 371.3,140.0 371.4,140.0 371.6,140.0 371.7,140.0 371.9,140.0 372.0,140.0 372.2,140.0 372.3,140.0 372.5,140.0 372.6,140.0 372.7,140.0 372.9,140.0 373.0,140.0 373.2,140.0 373.3,140.0 373.5,140.0 373.6,140.0 373.7,140.0 373.9,140.0 374.0,140.0 374.2,140.0 374.3,140.0 374.5,140.0 374.6,140.0 374.8,140.0 374.9,140.0 375.0,140.0 375.2,140.0 375.3,140.0 375.5,140.0 375.6,140.0 375.8,140.0 375.9,140.0 376.0,130.7 376.2,140.0 376.3,140.0 376.5,140.0 376.6,140.0 376.8,140.0 376.9,140.0 377.1,140.0 377.2,140.0 377.3,140.0 377.5,140.0 377.6,140.0 377.8,140.0 377.9,140.0 378.1,140.0 378.2,140.0 378.3,140.0 378.5,140.0 378.6,140.0 378.8,140.0 378.9,140.0 379.1,140.0 379.2,140.0 379.4,140.0 379.5,140.0 379.6,140.0 379.8,140.0 379.9,140.0 380.1,140.0 380.2,140.0 380.4,140.0 380.5,140.0 380.6,140.0 380.8,140.0 380.9,140.0 381.1,140.0 381.2,140.0 381.4,140.0 381.5,140.0 381.7,140.0 381.8,140.0 381.9,140.0 382.1,140.0 382.2,140.0 382.4,140.0 382.5,140.0 382.7,140.0 382.8,140.0 382.9,140.0 383.1,140.0 383.2,140.0 383.4,140.0 383.5,140.0 383.7,140.0 383.8,140.0 384.0,140.0 384.1,140.0 384.2,140.0 384.4,140.0 384.5,140.0 384.7,140.0 384.8,140.0 385.0,140.0 385.1,140.0 385.2,140.0 385.4,140.0 385.5,140.0 385.7,140.0 385.8,140.0 386.0,140.0 386.1,140.0 386.3,140.0 386.4,132.2 386.5,140.0 386.7,134.5 386.8,140.0 387.0,140.0 387.1,140.0 387.3,140.0 387.4,140.0 387.5,140.0 387.7,140.0 387.8,140.0 388.0,140.0 388.1,140.0 388.3,140.0 388.4,140.0 388.6,140.0 388.7,140.0 388.8,140.0 389.0,140.0 389.1,140.0 389.3,140.0 389.4,140.0 389.6,140.0 389.7,140.0 389.8,140.0 390.0,140.0 390.1,140.0 390.3,140.0 390.4,140.0 390.6,140.0 390.7,140.0 390.9,140.0 391.0,140.0 391.1,140.0 391.3,140.0 391.4,140.0 391.6,140.0 391.7,140.0 391.9,140.0 392.0,140.0 392.1,140.0 392.3,140.0 392.4,140.0 392.6,140.0 392.7,140.0 392.9,140.0 393.0,140.0 393.2,140.0 393.3,140.0 393.4,140.0 393.6,140.0 393.7,140.0 393.9,140.0 394.0,140.0 394.2,140.0 394.3,140.0 394.4,140.0 394.6,140.0 394.7,140.0 394.9,140.0 395.0,140.0 395.2,140.0 395.3,140.0 395.5,140.0 395.6,140.0 395.7,140.0 395.9,140.0 396.0,140.0 396.2,140.0 396.3,140.0 396.5,140.0 396.6,140.0 396.8,140.0 396.9,140.0 397.0,140.0 397.2,130.7 397.3,140.0 397.5,140.0 397.6,140.0 397.8,140.0 397.9,140.0 398.0,140.0 398.2,140.0 398.3,140.0 398.5,140.0 398.6,140.0 398.8,140.0 398.9,140.0 399.0,140.0 399.2,140.0 399.3,140.0 399.5,140.0 399.6,140.0 399.8,140.0 399.9,140.0 400.1,140.0 400.2,140.0 400.3,140.0 400.5,140.0 400.6,140.0 400.8,140.0 400.9,140.0 401.1,140.0 401.2,140.0 401.3,140.0 401.5,140.0 401.6,140.0 401.8,140.0 401.9,140.0 402.1,140.0 402.2,140.0 402.4,140.0 402.5,140.0 402.6,140.0 402.8,140.0 402.9,140.0 403.1,140.0 403.2,140.0 403.4,140.0 403.5,140.0 403.6,140.0 403.8,140.0 403.9,140.0 404.1,140.0 404.2,140.0 404.4,140.0 404.5,140.0 404.7,140.0 404.8,140.0 404.9,140.0 405.1,140.0 405.2,140.0 405.4,140.0 405.5,140.0 405.7,140.0 405.8,140.0 405.9,140.0 406.1,140.0 406.2,140.0 406.4,140.0 406.5,140.0 406.7,140.0 406.8,140.0 407.0,140.0 407.1,140.0 407.2,140.0 407.4,140.0 407.5,140.0 407.7,140.0 407.8,140.0 408.0,140.0 408.1,140.0 408.2,140.0 408.4,140.0 408.5,140.0 408.7,140.0 408.8,140.0 409.0,140.0 409.1,140.0 409.3,140.0 409.4,140.0 409.5,140.0 409.7,140.0 409.8,140.0 410.0,140.0 410.1,140.0 410.3,140.0 410.4,140.0 410.6,140.0 410.7,140.0 410.8,140.0 411.0,140.0 411.1,140.0 411.3,140.0 411.4,140.0 411.6,140.0 411.7,140.0 411.8,140.0 412.0,140.0 412.1,140.0 412.3,140.0 412.4,140.0 412.6,140.0 412.7,140.0 412.8,140.0 413.0,140.0 413.1,140.0 413.3,140.0 413.4,140.0 413.6,140.0 413.7,140.0 413.9,140.0 414.0,140.0 414.1,140.0 414.3,140.0 414.4,140.0 414.6,140.0 414.7,140.0 414.9,140.0 415.0,140.0 415.1,140.0 415.3,140.0 415.4,140.0 415.6,140.0 415.7,140.0 415.9,140.0 416.0,140.0 416.2,140.0 416.3,140.0 416.4,140.0 416.6,140.0 416.7,140.0 416.9,140.0 417.0,140.0 417.2,140.0 417.3,140.0 417.4,140.0 417.6,140.0 417.7,140.0 417.9,140.0 418.0,140.0 418.2,140.0 418.3,140.0 418.5,140.0 418.6,140.0 418.7,140.0 418.9,140.0 419.0,140.0 419.2,140.0 419.3,140.0 419.5,140.0 419.6,140.0 419.8,140.0 419.9,140.0 420.0,140.0 420.2,140.0 420.3,140.0 420.5,140.0 420.6,140.0 420.8,135.4 420.9,140.0 421.0,140.0 421.2,140.0 421.3,140.0 421.5,140.0 421.6,140.0 421.8,140.0 421.9,140.0 422.1,140.0 422.2,140.0 422.3,140.0 422.5,140.0 422.6,140.0 422.8,140.0 422.9,140.0 423.1,140.0 423.2,132.2 423.3,140.0 423.5,140.0 423.6,140.0 423.8,140.0 423.9,140.0 424.1,140.0 424.2,140.0 424.4,140.0 424.5,140.0 424.6,140.0 424.8,140.0 424.9,140.0 425.1,140.0 425.2,140.0 425.4,140.0 425.5,140.0 425.6,140.0 425.8,140.0 425.9,140.0 426.1,140.0 426.2,140.0 426.4,140.0 426.5,140.0 426.7,140.0 426.8,140.0 426.9,140.0 427.1,140.0 427.2,140.0 427.4,140.0 427.5,140.0 427.7,140.0 427.8,140.0 427.9,140.0 428.1,140.0 428.2,140.0 428.4,140.0 428.5,140.0 428.7,140.0 428.8,140.0 428.9,133.4 429.1,140.0 429.2,140.0 429.4,140.0 429.5,140.0 429.7,140.0 429.8,140.0 430.0,140.0 430.1,140.0 430.2,140.0 430.4,140.0 430.5,140.0 430.7,140.0 430.8,140.0 431.0,140.0 431.1,140.0 431.2,140.0 431.4,140.0 431.5,140.0 431.7,140.0 431.8,140.0 432.0,140.0 432.1,140.0 432.3,140.0 432.4,140.0 432.5,140.0 432.7,140.0 432.8,140.0 433.0,140.0 433.1,140.0 433.3,140.0 433.4,140.0 433.6,140.0 433.7,140.0 433.8,140.0 434.0,140.0 434.1,140.0 434.3,140.0 434.4,140.0 434.6,140.0 434.7,140.0 434.8,140.0 435.0,140.0 435.1,140.0 435.3,140.0 435.4,140.0 435.6,140.0 435.7,140.0 435.9,140.0 436.0,140.0 436.1,140.0 436.3,140.0 436.4,140.0 436.6,140.0 436.7,140.0 436.9,140.0 437.0,140.0 437.1,140.0 437.3,140.0 437.4,140.0 437.6,140.0 437.7,140.0 437.9,140.0 438.0,140.0 438.2,140.0 438.3,140.0 438.4,140.0 438.6,140.0 438.7,140.0 438.9,140.0 439.0,140.0 439.2,140.0 439.3,140.0 439.4,140.0 439.6,140.0 439.7,140.0 439.9,140.0 440.0,140.0 440.2,140.0 440.3,140.0 440.5,140.0 440.6,140.0 440.7,140.0 440.9,140.0 441.0,140.0 441.2,140.0 441.3,140.0 441.5,140.0 441.6,140.0 441.7,140.0 441.9,140.0 442.0,140.0 442.2,140.0 442.3,140.0 442.5,140.0 442.6,140.0 442.7,140.0 442.9,140.0 443.0,140.0 443.2,140.0 443.3,140.0 443.5,140.0 443.6,140.0 443.8,140.0 443.9,140.0 444.0,140.0 444.2,140.0 444.3,140.0 444.5,140.0 444.6,140.0 444.8,140.0 444.9,140.0 445.0,140.0 445.2,140.0 445.3,140.0 445.5,140.0 445.6,140.0 445.8,140.0 445.9,140.0 446.1,140.0 446.2,140.0 446.3,140.0 446.5,140.0 446.6,140.0 446.8,140.0 446.9,140.0 447.1,140.0 447.2,140.0 447.3,132.2 447.5,140.0 447.6,140.0 447.8,140.0 447.9,140.0 448.1,140.0 448.2,140.0 448.4,140.0 448.5,140.0 448.6,140.0 448.8,140.0 448.9,140.0 449.1,140.0 449.2,140.0 449.4,140.0 449.5,140.0 449.6,140.0 449.8,140.0 449.9,140.0 450.1,140.0 450.2,140.0 450.4,140.0 450.5,140.0 450.7,140.0 450.8,140.0 450.9,140.0 451.1,140.0 451.2,140.0 451.4,140.0 451.5,140.0 451.7,140.0 451.8,140.0 451.9,140.0 452.1,140.0 452.2,140.0 452.4,140.0 452.5,140.0 452.7,140.0 452.8,140.0 453.0,140.0 453.1,140.0 453.2,140.0 453.4,140.0 453.5,140.0 453.7,140.0 453.8,140.0 454.0,140.0 454.1,140.0 454.2,140.0 454.4,140.0 454.5,140.0 454.7,140.0 454.8,136.1 455.0,140.0 455.1,140.0 455.3,140.0 455.4,140.0 455.5,140.0 455.7,140.0 455.8,140.0 456.0,140.0 456.1,140.0 456.3,140.0 456.4,140.0 456.5,140.0 456.7,140.0 456.8,140.0 457.0,140.0 457.1,140.0 457.3,140.0 457.4,140.0 457.6,140.0 457.7,140.0 457.8,140.0 458.0,140.0 458.1,140.0 458.3,140.0 458.4,140.0 458.6,140.0 458.7,140.0 458.8,140.0 459.0,140.0 459.1,140.0 459.3,140.0 459.4,140.0 459.6,140.0 459.7,140.0 459.9,140.0 460.0,140.0 460.1,140.0 460.3,140.0 460.4,140.0 460.6,140.0 460.7,140.0 460.9,140.0 461.0,140.0 461.1,140.0 461.3,140.0 461.4,140.0 461.6,140.0 461.7,140.0 461.9,140.0 462.0,140.0 462.2,140.0 462.3,140.0 462.4,140.0 462.6,140.0 462.7,140.0 462.9,140.0 463.0,140.0 463.2,140.0 463.3,140.0 463.4,140.0 463.6,140.0 463.7,140.0 463.9,140.0 464.0,140.0 464.2,140.0 464.3,140.0 464.5,140.0 464.6,140.0 464.7,140.0 464.9,140.0 465.0,140.0 465.2,140.0 465.3,140.0 465.5,140.0 465.6,140.0 465.8,140.0 465.9,140.0 466.0,140.0 466.2,140.0 466.3,140.0 466.5,140.0 466.6,140.0 466.8,140.0 466.9,140.0 467.0,140.0 467.2,140.0 467.3,140.0 467.5,140.0 467.6,140.0 467.8,140.0 467.9,140.0 468.1,140.0 468.2,140.0 468.3,140.0 468.5,140.0 468.6,140.0 468.8,140.0 468.9,140.0 469.1,140.0 469.2,140.0 469.3,140.0 469.5,140.0 469.6,140.0 469.8,140.0 469.9,140.0 470.1,140.0 470.2,140.0 470.3,133.4 470.5,140.0 470.6,140.0 470.8,140.0 470.9,140.0 471.1,140.0 471.2,140.0 471.4,140.0 471.5,134.5 471.6,140.0 471.8,140.0 471.9,140.0 472.1,140.0 472.2,140.0 472.4,140.0 472.5,140.0 472.6,140.0 472.8,140.0 472.9,140.0 473.1,140.0 473.2,140.0 473.4,140.0 473.5,140.0 473.7,140.0 473.8,140.0 473.9,140.0 474.1,140.0 474.2,140.0 474.4,140.0 474.5,140.0 474.7,140.0 474.8,140.0 474.9,140.0 475.1,140.0 475.2,140.0 475.4,140.0 475.5,140.0 475.7,140.0 475.8,140.0 476.0,140.0 476.1,140.0 476.2,140.0 476.4,140.0 476.5,140.0 476.7,140.0 476.8,140.0 477.0,140.0 477.1,140.0 477.2,140.0 477.4,140.0 477.5,140.0 477.7,140.0 477.8,140.0 478.0,140.0 478.1,140.0 478.3,140.0 478.4,140.0 478.5,140.0 478.7,140.0 478.8,140.0 479.0,140.0 479.1,140.0 479.3,140.0 479.4,140.0 479.6,140.0 479.7,140.0 479.8,140.0 480.0,140.0 480.1,140.0 480.3,140.0 480.4,140.0 480.6,140.0 480.7,140.0 480.8,140.0 481.0,140.0 481.1,140.0 481.3,140.0 481.4,140.0 481.6,140.0 481.7,140.0 481.9,140.0 482.0,140.0 482.1,140.0 482.3,140.0 482.4,140.0 482.6,140.0 482.7,140.0 482.9,140.0 483.0,140.0 483.1,140.0 483.3,140.0 483.4,140.0 483.6,140.0 483.7,140.0 483.9,140.0 484.0,140.0 484.2,140.0 484.3,140.0 484.4,140.0 484.6,140.0 484.7,140.0 484.9,140.0 485.0,140.0 485.2,140.0 485.3,140.0 485.4,140.0 485.6,140.0 485.7,140.0 485.9,140.0 486.0,140.0 486.2,140.0 486.3,140.0 486.4,140.0 486.6,140.0 486.7,140.0 486.9,140.0 487.0,140.0 487.2,140.0 487.3,140.0 487.5,140.0 487.6,140.0 487.7,140.0 487.9,140.0 488.0,140.0 488.2,140.0 488.3,140.0 488.5,140.0 488.6,140.0 488.8,140.0 488.9,136.7 489.0,140.0 489.2,140.0 489.3,140.0 489.5,140.0 489.6,140.0 489.8,140.0 489.9,140.0 490.0,140.0 490.2,140.0 490.3,140.0 490.5,140.0 490.6,140.0 490.8,140.0 490.9,140.0 491.1,140.0 491.2,140.0 491.3,140.0 491.5,140.0 491.6,140.0 491.8,140.0 491.9,140.0 492.1,140.0 492.2,140.0 492.3,140.0 492.5,140.0 492.6,140.0 492.8,140.0 492.9,140.0 493.1,140.0 493.2,140.0 493.4,140.0 493.5,140.0 493.6,140.0 493.8,140.0 493.9,140.0 494.1,140.0 494.2,140.0 494.4,140.0 494.5,140.0 494.6,140.0 494.8,140.0 494.9,140.0 495.1,140.0 495.2,140.0 495.4,140.0 495.5,140.0 495.7,140.0 495.8,140.0 495.9,140.0 496.1,140.0 496.2,140.0 496.4,140.0 496.5,140.0 496.7,140.0 496.8,140.0 496.9,140.0 497.1,140.0 497.2,140.0 497.4,140.0 497.5,133.4 497.7,140.0 497.8,140.0 498.0,140.0 498.1,140.0 498.2,140.0 498.4,140.0 498.5,140.0 498.7,140.0 498.8,140.0 499.0,140.0 499.1,140.0 499.2,140.0 499.4,140.0 499.5,140.0 499.7,140.0 499.8,140.0 500.0,140.0 500.1,140.0 500.2,140.0 500.4,140.0 500.5,140.0 500.7,140.0 500.8,140.0 501.0,140.0 501.1,140.0 501.3,140.0 501.4,140.0 501.5,140.0 501.7,140.0 501.8,140.0 502.0,140.0 502.1,140.0 502.3,140.0 502.4,140.0 502.6,140.0 502.7,140.0 502.8,140.0 503.0,140.0 503.1,140.0 503.3,140.0 503.4,140.0 503.6,140.0 503.7,140.0 503.8,140.0 504.0,140.0 504.1,140.0 504.3,140.0 504.4,140.0 504.6,140.0 504.7,140.0 504.9,140.0 505.0,140.0 505.1,140.0 505.3,140.0 505.4,140.0 505.6,140.0 505.7,140.0 505.9,140.0" fill="none" stroke="#1baf7a" stroke-width="1.0"/>
<line x1="366" y1="30" x2="386" y2="30" stroke="#1baf7a" stroke-width="1.0"/>
<text x="392" y="33.5" fill="#888780" font-size="11" font-family="system-ui, sans-serif">four combs, summed</text>
</svg>
