<svg xmlns="http://www.w3.org/2000/svg" viewBox="0 0 520 360" role="img" aria-label="Bit crush transfer curve">
<title>Bit crush transfer curve</title>
<desc>Quantization to four levels per side of zero: every input sample is rounded to the nearest level, turning the unity line into a staircase. The gap between staircase and unity is the quantization error.</desc>
<g stroke="#888780" stroke-opacity="0.25" stroke-width="1">
<line x1="46.0" y1="326" x2="46.0" y2="14"/>
<line x1="161.0" y1="326" x2="161.0" y2="14"/>
<line x1="276.0" y1="326" x2="276.0" y2="14"/>
<line x1="391.0" y1="326" x2="391.0" y2="14"/>
<line x1="506.0" y1="326" x2="506.0" y2="14"/>
<line x1="46" y1="326.0" x2="506" y2="326.0"/>
<line x1="46" y1="248.0" x2="506" y2="248.0"/>
<line x1="46" y1="170.0" x2="506" y2="170.0"/>
<line x1="46" y1="92.0" x2="506" y2="92.0"/>
<line x1="46" y1="14.0" x2="506" y2="14.0"/>
</g>
<g fill="#888780" font-size="11" font-family="system-ui, sans-serif">
<text x="46.0" y="342" text-anchor="middle">-1.0</text>
<text x="161.0" y="342" text-anchor="middle">-0.5</text>
<text x="276.0" y="342" text-anchor="middle">0.0</text>
<text x="391.0" y="342" text-anchor="middle">0.5</text>
<text x="506.0" y="342" text-anchor="middle">1.0</text>
<text x="40" y="329.0" text-anchor="end">-1.0</text>
<text x="40" y="251.0" text-anchor="end">-0.5</text>
<text x="40" y="173.0" text-anchor="end">0.0</text>
<text x="40" y="95.0" text-anchor="end">0.5</text>
<text x="40" y="17.0" text-anchor="end">1.0</text>
<text x="276.0" y="356" text-anchor="middle">input sample</text>
<text x="13" y="170.0" text-anchor="middle" transform="rotate(-90 13 170.0)">output sample</text>
</g>
<polyline points="46.0,326.0 47.1,325.2 48.3,324.4 49.5,323.7 50.6,322.9 51.8,322.1 52.9,321.3 54.1,320.5 55.2,319.8 56.4,319.0 57.5,318.2 58.7,317.4 59.8,316.6 60.9,315.9 62.1,315.1 63.2,314.3 64.4,313.5 65.5,312.7 66.7,312.0 67.8,311.2 69.0,310.4 70.1,309.6 71.3,308.8 72.5,308.1 73.6,307.3 74.8,306.5 75.9,305.7 77.0,304.9 78.2,304.2 79.3,303.4 80.5,302.6 81.7,301.8 82.8,301.0 84.0,300.3 85.1,299.5 86.2,298.7 87.4,297.9 88.6,297.1 89.7,296.4 90.8,295.6 92.0,294.8 93.1,294.0 94.3,293.2 95.4,292.5 96.6,291.7 97.8,290.9 98.9,290.1 100.0,289.3 101.2,288.6 102.3,287.8 103.5,287.0 104.7,286.2 105.8,285.4 107.0,284.7 108.1,283.9 109.2,283.1 110.4,282.3 111.6,281.5 112.7,280.8 113.9,280.0 115.0,279.2 116.2,278.4 117.3,277.6 118.4,276.9 119.6,276.1 120.7,275.3 121.9,274.5 123.0,273.7 124.2,273.0 125.3,272.2 126.5,271.4 127.6,270.6 128.8,269.8 129.9,269.1 131.1,268.3 132.2,267.5 133.4,266.7 134.6,265.9 135.7,265.2 136.9,264.4 138.0,263.6 139.2,262.8 140.3,262.0 141.4,261.3 142.6,260.5 143.8,259.7 144.9,258.9 146.1,258.1 147.2,257.4 148.3,256.6 149.5,255.8 150.6,255.0 151.8,254.2 152.9,253.5 154.1,252.7 155.2,251.9 156.4,251.1 157.6,250.3 158.7,249.6 159.8,248.8 161.0,248.0 162.2,247.2 163.3,246.4 164.4,245.7 165.6,244.9 166.8,244.1 167.9,243.3 169.0,242.5 170.2,241.8 171.3,241.0 172.5,240.2 173.6,239.4 174.8,238.6 175.9,237.9 177.1,237.1 178.2,236.3 179.4,235.5 180.5,234.7 181.7,234.0 182.8,233.2 184.0,232.4 185.2,231.6 186.3,230.8 187.4,230.1 188.6,229.3 189.8,228.5 190.9,227.7 192.1,226.9 193.2,226.2 194.3,225.4 195.5,224.6 196.7,223.8 197.8,223.0 199.0,222.3 200.1,221.5 201.2,220.7 202.4,219.9 203.6,219.1 204.7,218.4 205.9,217.6 207.0,216.8 208.2,216.0 209.3,215.2 210.5,214.5 211.6,213.7 212.8,212.9 213.9,212.1 215.0,211.3 216.2,210.6 217.3,209.8 218.5,209.0 219.7,208.2 220.8,207.4 222.0,206.7 223.1,205.9 224.2,205.1 225.4,204.3 226.6,203.5 227.7,202.8 228.9,202.0 230.0,201.2 231.1,200.4 232.3,199.6 233.4,198.9 234.6,198.1 235.8,197.3 236.9,196.5 238.0,195.7 239.2,195.0 240.3,194.2 241.5,193.4 242.7,192.6 243.8,191.8 244.9,191.1 246.1,190.3 247.2,189.5 248.4,188.7 249.6,187.9 250.7,187.2 251.8,186.4 253.0,185.6 254.2,184.8 255.3,184.0 256.5,183.3 257.6,182.5 258.8,181.7 259.9,180.9 261.1,180.1 262.2,179.4 263.4,178.6 264.5,177.8 265.6,177.0 266.8,176.2 267.9,175.5 269.1,174.7 270.2,173.9 271.4,173.1 272.5,172.3 273.7,171.6 274.9,170.8 276.0,170.0 277.1,169.2 278.3,168.4 279.4,167.7 280.6,166.9 281.8,166.1 282.9,165.3 284.0,164.5 285.2,163.8 286.4,163.0 287.5,162.2 288.6,161.4 289.8,160.6 290.9,159.9 292.1,159.1 293.2,158.3 294.4,157.5 295.5,156.7 296.7,156.0 297.9,155.2 299.0,154.4 300.1,153.6 301.3,152.8 302.4,152.1 303.6,151.3 304.8,150.5 305.9,149.7 307.1,148.9 308.2,148.2 309.4,147.4 310.5,146.6 311.7,145.8 312.8,145.0 313.9,144.3 315.1,143.5 316.2,142.7 317.4,141.9 318.6,141.1 319.7,140.4 320.9,139.6 322.0,138.8 323.2,138.0 324.3,137.2 325.5,136.5 326.6,135.7 327.8,134.9 328.9,134.1 330.0,133.3 331.2,132.6 332.4,131.8 333.5,131.0 334.6,130.2 335.8,129.4 337.0,128.7 338.1,127.9 339.2,127.1 340.4,126.3 341.5,125.5 342.7,124.8 343.8,124.0 345.0,123.2 346.1,122.4 347.3,121.6 348.4,120.9 349.6,120.1 350.8,119.3 351.9,118.5 353.1,117.7 354.2,117.0 355.3,116.2 356.5,115.4 357.6,114.6 358.8,113.8 359.9,113.1 361.1,112.3 362.2,111.5 363.4,110.7 364.6,109.9 365.7,109.2 366.9,108.4 368.0,107.6 369.2,106.8 370.3,106.0 371.4,105.3 372.6,104.5 373.8,103.7 374.9,102.9 376.1,102.1 377.2,101.4 378.4,100.6 379.5,99.8 380.7,99.0 381.8,98.2 383.0,97.5 384.1,96.7 385.2,95.9 386.4,95.1 387.5,94.3 388.7,93.6 389.9,92.8 391.0,92.0 392.1,91.2 393.3,90.4 394.5,89.7 395.6,88.9 396.8,88.1 397.9,87.3 399.1,86.5 400.2,85.8 401.3,85.0 402.5,84.2 403.7,83.4 404.8,82.6 405.9,81.9 407.1,81.1 408.2,80.3 409.4,79.5 410.6,78.7 411.7,78.0 412.8,77.2 414.0,76.4 415.1,75.6 416.3,74.8 417.4,74.1 418.6,73.3 419.8,72.5 420.9,71.7 422.1,70.9 423.2,70.2 424.4,69.4 425.5,68.6 426.7,67.8 427.8,67.0 428.9,66.3 430.1,65.5 431.2,64.7 432.4,63.9 433.6,63.1 434.7,62.4 435.8,61.6 437.0,60.8 438.2,60.0 439.3,59.2 440.4,58.5 441.6,57.7 442.8,56.9 443.9,56.1 445.0,55.3 446.2,54.6 447.4,53.8 448.5,53.0 449.6,52.2 450.8,51.4 452.0,50.7 453.1,49.9 454.2,49.1 455.4,48.3 456.6,47.5 457.7,46.8 458.8,46.0 460.0,45.2 461.2,44.4 462.3,43.6 463.4,42.9 464.6,42.1 465.8,41.3 466.9,40.5 468.1,39.7 469.2,39.0 470.3,38.2 471.5,37.4 472.6,36.6 473.8,35.8 474.9,35.1 476.1,34.3 477.2,33.5 478.4,32.7 479.6,31.9 480.7,31.2 481.9,30.4 483.0,29.6 484.2,28.8 485.3,28.0 486.4,27.3 487.6,26.5 488.8,25.7 489.9,24.9 491.1,24.1 492.2,23.4 493.3,22.6 494.5,21.8 495.7,21.0 496.8,20.2 497.9,19.5 499.1,18.7 500.2,17.9 501.4,17.1 502.5,16.3 503.7,15.6 504.9,14.8 506.0,14.0" fill="none" stroke="#888780" stroke-width="1.6" stroke-dasharray="5 4"/>
<polyline points="46.0,326.0 47.1,326.0 48.3,326.0 49.5,326.0 50.6,326.0 51.8,326.0 52.9,326.0 54.1,326.0 55.2,326.0 56.4,326.0 57.5,326.0 58.7,326.0 59.8,326.0 60.9,326.0 62.1,326.0 63.2,326.0 64.4,326.0 65.5,326.0 66.7,326.0 67.8,326.0 69.0,326.0 70.1,326.0 71.3,326.0 72.5,326.0 73.6,326.0 74.8,326.0 75.9,287.0 77.0,287.0 78.2,287.0 79.3,287.0 80.5,287.0 81.7,287.0 82.8,287.0 84.0,287.0 85.1,287.0 86.2,287.0 87.4,287.0 88.6,287.0 89.7,287.0 90.8,287.0 92.0,287.0 93.1,287.0 94.3,287.0 95.4,287.0 96.6,287.0 97.8,287.0 98.9,287.0 100.0,287.0 101.2,287.0 102.3,287.0 103.5,287.0 104.7,287.0 105.8,287.0 107.0,287.0 108.1,287.0 109.2,287.0 110.4,287.0 111.6,287.0 112.7,287.0 113.9,287.0 115.0,287.0 116.2,287.0 117.3,287.0 118.4,287.0 119.6,287.0 120.7,287.0 121.9,287.0 123.0,287.0 124.2,287.0 125.3,287.0 126.5,287.0 127.6,287.0 128.8,287.0 129.9,287.0 131.1,287.0 132.2,248.0 133.4,248.0 134.6,248.0 135.7,248.0 136.9,248.0 138.0,248.0 139.2,248.0 140.3,248.0 141.4,248.0 142.6,248.0 143.8,248.0 144.9,248.0 146.1,248.0 147.2,248.0 148.3,248.0 149.5,248.0 150.6,248.0 151.8,248.0 152.9,248.0 154.1,248.0 155.2,248.0 156.4,248.0 157.6,248.0 158.7,248.0 159.8,248.0 161.0,248.0 162.2,248.0 163.3,248.0 164.4,248.0 165.6,248.0 166.8,248.0 167.9,248.0 169.0,248.0 170.2,248.0 171.3,248.0 172.5,248.0 173.6,248.0 174.8,248.0 175.9,248.0 177.1,248.0 178.2,248.0 179.4,248.0 180.5,248.0 181.7,248.0 182.8,248.0 184.0,248.0 185.2,248.0 186.3,248.0 187.4,248.0 188.6,248.0 189.8,248.0 190.9,209.0 192.1,209.0 193.2,209.0 194.3,209.0 195.5,209.0 196.7,209.0 197.8,209.0 199.0,209.0 200.1,209.0 201.2,209.0 202.4,209.0 203.6,209.0 204.7,209.0 205.9,209.0 207.0,209.0 208.2,209.0 209.3,209.0 210.5,209.0 211.6,209.0 212.8,209.0 213.9,209.0 215.0,209.0 216.2,209.0 217.3,209.0 218.5,209.0 219.7,209.0 220.8,209.0 222.0,209.0 223.1,209.0 224.2,209.0 225.4,209.0 226.6,209.0 227.7,209.0 228.9,209.0 230.0,209.0 231.1,209.0 232.3,209.0 233.4,209.0 234.6,209.0 235.8,209.0 236.9,209.0 238.0,209.0 239.2,209.0 240.3,209.0 241.5,209.0 242.7,209.0 243.8,209.0 244.9,209.0 246.1,209.0 247.2,170.0 248.4,170.0 249.6,170.0 250.7,170.0 251.8,170.0 253.0,170.0 254.2,170.0 255.3,170.0 256.5,170.0 257.6,170.0 258.8,170.0 259.9,170.0 261.1,170.0 262.2,170.0 263.4,170.0 264.5,170.0 265.6,170.0 266.8,170.0 267.9,170.0 269.1,170.0 270.2,170.0 271.4,170.0 272.5,170.0 273.7,170.0 274.9,170.0 276.0,170.0 277.1,170.0 278.3,170.0 279.4,170.0 280.6,170.0 281.8,170.0 282.9,170.0 284.0,170.0 285.2,170.0 286.4,170.0 287.5,170.0 288.6,170.0 289.8,170.0 290.9,170.0 292.1,170.0 293.2,170.0 294.4,170.0 295.5,170.0 296.7,170.0 297.9,170.0 299.0,170.0 300.1,170.0 301.3,170.0 302.4,170.0 303.6,170.0 304.8,170.0 305.9,131.0 307.1,131.0 308.2,131.0 309.4,131.0 310.5,131.0 311.7,131.0 312.8,131.0 313.9,131.0 315.1,131.0 316.2,131.0 317.4,131.0 318.6,131.0 319.7,131.0 320.9,131.0 322.0,131.0 323.2,131.0 324.3,131.0 325.5,131.0 326.6,131.0 327.8,131.0 328.9,131.0 330.0,131.0 331.2,131.0 332.4,131.0 333.5,131.0 334.6,131.0 335.8,131.0 337.0,131.0 338.1,131.0 339.2,131.0 340.4,131.0 341.5,131.0 342.7,131.0 343.8,131.0 345.0,131.0 346.1,131.0 347.3,131.0 348.4,131.0 349.6,131.0 350.8,131.0 351.9,131.0 353.1,131.0 354.2,131.0 355.3,131.0 356.5,131.0 357.6,131.0 358.8,131.0 359.9,131.0 361.1,131.0 362.2,92.0 363.4,92.0 364.6,92.0 365.7,92.0 366.9,92.0 368.0,92.0 369.2,92.0 370.3,92.0 371.4,92.0 372.6,92.0 373.8,92.0 374.9,92.0 376.1,92.0 377.2,92.0 378.4,92.0 379.5,92.0 380.7,92.0 381.8,92.0 383.0,92.0 384.1,92.0 385.2,92.0 386.4,92.0 387.5,92.0 388.7,92.0 389.9,92.0 391.0,92.0 392.1,92.0 393.3,92.0 394.5,92.0 395.6,92.0 396.8,92.0 397.9,92.0 399.1,92.0 400.2,92.0 401.3,92.0 402.5,92.0 403.7,92.0 404.8,92.0 405.9,92.0 407.1,92.0 408.2,92.0 409.4,92.0 410.6,92.0 411.7,92.0 412.8,92.0 414.0,92.0 415.1,92.0 416.3,92.0 417.4,92.0 418.6,92.0 419.8,92.0 420.9,53.0 422.1,53.0 423.2,53.0 424.4,53.0 425.5,53.0 426.7,53.0 427.8,53.0 428.9,53.0 430.1,53.0 431.2,53.0 432.4,53.0 433.6,53.0 434.7,53.0 435.8,53.0 437.0,53.0 438.2,53.0 439.3,53.0 440.4,53.0 441.6,53.0 442.8,53.0 443.9,53.0 445.0,53.0 446.2,53.0 447.4,53.0 448.5,53.0 449.6,53.0 450.8,53.0 452.0,53.0 453.1,53.0 454.2,53.0 455.4,53.0 456.6,53.0 457.7,53.0 458.8,53.0 460.0,53.0 461.2,53.0 462.3,53.0 463.4,53.0 464.6,53.0 465.8,53.0 466.9,53.0 468.1,53.0 469.2,53.0 470.3,53.0 471.5,53.0 472.6,53.0 473.8,53.0 474.9,53.0 476.1,53.0 477.2,14.0 478.4,14.0 479.6,14.0 480.7,14.0 481.9,14.0 483.0,14.0 484.2,14.0 485.3,14.0 486.4,14.0 487.6,14.0 488.8,14.0 489.9,14.0 491.1,14.0 492.2,14.0 493.3,14.0 494.5,14.0 495.7,14.0 496.8,14.0 497.9,14.0 499.1,14.0 500.2,14.0 501.4,14.0 502.5,14.0 503.7,14.0 504.9,14.0 506.0,14.0" fill="none" stroke="#378add" stroke-width="2.6"/>
<line x1="60" y1="30" x2="80" y2="30" stroke="#888780" stroke-width="1.6" stroke-dasharray="5 4"/>
<text x="86" y="33.5" fill="#888780" font-size="11" font-family="system-ui, sans-serif">unity (full precision)</text>
<line x1="60" y1="45" x2="80" y2="45" stroke="#378add" stroke-width="2.6"/>
<text x="86" y="48.5" fill="#888780" font-size="11" font-family="system-ui, sans-serif">4 steps per side (a 3-bit grid)</text>
</svg>
