<svg xmlns="http://www.w3.org/2000/svg" viewBox="0 0 520 360" role="img" aria-label="Compression gain reduction over time">
<title>Compression gain reduction over time</title>
<desc>A quiet-loud-quiet tone through the book's compressor at 4:1 with a -20 dBFS threshold. The gain reduction trace dives when the loud section starts (5 ms attack) and recovers after it ends (50 ms release). The output is drawn bold only while gain reduction is active; elsewhere it equals the input.</desc>
<g stroke="#888780" stroke-opacity="0.25" stroke-width="1">
<line x1="46.0" y1="326" x2="46.0" y2="14"/>
<line x1="199.3" y1="326" x2="199.3" y2="14"/>
<line x1="352.7" y1="326" x2="352.7" y2="14"/>
<line x1="506.0" y1="326" x2="506.0" y2="14"/>
<line x1="46" y1="326.0" x2="506" y2="326.0"/>
<line x1="46" y1="248.0" x2="506" y2="248.0"/>
<line x1="46" y1="170.0" x2="506" y2="170.0"/>
<line x1="46" y1="92.0" x2="506" y2="92.0"/>
<line x1="46" y1="14.0" x2="506" y2="14.0"/>
</g>
<g fill="#888780" font-size="11" font-family="system-ui, sans-serif">
<text x="46.0" y="342" text-anchor="middle">0.00</text>
<text x="199.3" y="342" text-anchor="middle">0.25</text>
<text x="352.7" y="342" text-anchor="middle">0.50</text>
<text x="506.0" y="342" text-anchor="middle">0.75</text>
<text x="40" y="329.0" text-anchor="end">-40</text>
<text x="40" y="251.0" text-anchor="end">-30</text>
<text x="40" y="173.0" text-anchor="end">-20</text>
<text x="40" y="95.0" text-anchor="end">-10</text>
<text x="40" y="17.0" text-anchor="end">0</text>
<text x="276.0" y="356" text-anchor="middle">time (s)</text>
<text x="13" y="170.0" text-anchor="middle" transform="rotate(-90 13 170.0)">level dBFS (peak)</text>
</g>
<line x1="46" y1="170.0" x2="506" y2="170.0" stroke="#7f77dd" stroke-width="1.5" stroke-dasharray="5 4"/>
<text x="502" y="165.0" text-anchor="end" fill="#7f77dd" font-size="10" font-family="system-ui, sans-serif">threshold (−20 dBFS)</text>
<polyline points="46.0,201.2 49.1,201.3 52.1,201.2 55.2,201.3 58.3,201.2 61.3,201.2 64.4,201.3 67.5,201.2 70.5,201.3 73.6,201.2 76.7,201.2 79.7,201.3 82.8,201.2 85.9,201.3 88.9,201.2 92.0,201.2 95.1,201.3 98.1,201.2 101.2,201.3 104.3,201.2 107.3,201.2 110.4,201.3 113.5,201.2 116.5,201.3 119.6,201.2 122.7,201.2 125.7,201.3 128.8,201.2 131.9,201.3 134.9,201.2 138.0,201.2 141.1,201.3 144.1,201.2 147.2,201.3 150.3,201.2 153.3,201.2 156.4,201.3 159.5,201.2 162.5,201.3 165.6,201.2 168.7,201.2 171.7,201.3 174.8,201.2 177.9,201.3 180.9,201.2 184.0,201.2 187.1,201.3 190.1,201.2 193.2,201.3 196.3,201.2 199.3,60.8 202.4,60.9 205.5,60.8 208.5,60.9 211.6,60.8 214.7,60.8 217.7,60.9 220.8,60.8 223.9,60.9 226.9,60.8 230.0,60.8 233.1,60.9 236.1,60.8 239.2,60.9 242.3,60.8 245.3,60.8 248.4,60.9 251.5,60.8 254.5,60.9 257.6,60.8 260.7,60.8 263.7,60.9 266.8,60.8 269.9,60.9 272.9,60.8 276.0,60.8 279.1,60.9 282.1,60.8 285.2,60.9 288.3,60.8 291.3,60.8 294.4,60.9 297.5,60.8 300.5,60.9 303.6,60.8 306.7,60.8 309.7,60.9 312.8,60.8 315.9,60.9 318.9,60.8 322.0,60.8 325.1,60.9 328.1,60.8 331.2,60.9 334.3,60.8 337.3,60.8 340.4,60.9 343.5,60.8 346.5,60.9 349.6,60.8 352.7,201.2 355.7,201.3 358.8,201.2 361.9,201.3 364.9,201.2 368.0,201.2 371.1,201.3 374.1,201.2 377.2,201.3 380.3,201.2 383.3,201.2 386.4,201.3 389.5,201.2 392.5,201.3 395.6,201.2 398.7,201.2 401.7,201.3 404.8,201.2 407.9,201.3 410.9,201.2 414.0,201.2 417.1,201.3 420.1,201.2 423.2,201.3 426.3,201.2 429.3,201.2 432.4,201.3 435.5,201.2 438.5,201.3 441.6,201.2 444.7,201.2 447.7,201.3 450.8,201.2 453.9,201.3 456.9,201.2 460.0,201.2 463.1,201.3 466.1,201.2 469.2,201.3 472.3,201.2 475.3,201.2 478.4,201.3 481.5,201.2 484.5,201.3 487.6,201.2 490.7,201.2 493.7,201.3 496.8,201.2 499.9,201.3 502.9,201.2" fill="none" stroke="#888780" stroke-width="2.0" stroke-dasharray="4 3"/>
<polyline points="46.0,201.2 49.1,201.3 52.1,201.2 55.2,201.3 58.3,201.2 61.3,201.2 64.4,201.3 67.5,201.2 70.5,201.3 73.6,201.2 76.7,201.2 79.7,201.3 82.8,201.2 85.9,201.3 88.9,201.2 92.0,201.2 95.1,201.3 98.1,201.2 101.2,201.3 104.3,201.2 107.3,201.2 110.4,201.3 113.5,201.2 116.5,201.3 119.6,201.2 122.7,201.2 125.7,201.3 128.8,201.2 131.9,201.3 134.9,201.2 138.0,201.2 141.1,201.3 144.1,201.2 147.2,201.3 150.3,201.2 153.3,201.2 156.4,201.3 159.5,201.2 162.5,201.3 165.6,201.2 168.7,201.2 171.7,201.3 174.8,201.2 177.9,201.3 180.9,201.2 184.0,201.2 187.1,201.3 190.1,201.2 193.2,201.3 196.3,201.2 199.3,72.1 202.4,100.0 205.5,114.3 208.5,124.2 211.6,127.9 214.7,129.8 217.7,131.3 220.8,132.2 223.9,133.0 226.9,133.4 230.0,133.5 233.1,133.7 236.1,133.7 239.2,133.8 242.3,133.9 245.3,133.8 248.4,134.0 251.5,133.9 254.5,133.9 257.6,133.9 260.7,133.9 263.7,134.0 266.8,133.9 269.9,134.0 272.9,133.9 276.0,133.9 279.1,134.0 282.1,133.9 285.2,134.0 288.3,133.9 291.3,133.9 294.4,134.0 297.5,133.9 300.5,134.0 303.6,133.9 306.7,133.9 309.7,134.0 312.8,133.9 315.9,134.0 318.9,133.9 322.0,133.9 325.1,134.0 328.1,133.9 331.2,134.0 334.3,133.9 337.3,133.9 340.4,134.0 343.5,133.9 346.5,134.0 349.6,133.9 352.7,269.4 355.7,263.4 358.8,255.5 361.9,250.9 364.9,246.4 368.0,242.6 371.1,239.0 374.1,234.1 377.2,231.4 380.3,228.6 383.3,226.3 386.4,224.2 389.5,221.2 392.5,219.6 395.6,217.8 398.7,216.5 401.7,215.2 404.8,213.3 407.9,212.4 410.9,211.3 414.0,210.5 417.1,209.7 420.1,208.6 423.2,208.1 426.3,207.3 429.3,206.9 432.4,206.4 435.5,205.7 438.5,205.5 441.6,204.9 444.7,204.7 447.7,204.4 450.8,203.9 453.9,203.9 456.9,203.5 460.0,203.3 463.1,203.2 466.1,202.9 469.2,202.9 472.3,202.6 475.3,202.5 478.4,202.5 481.5,202.2 484.5,202.3 487.6,202.0 490.7,202.0 493.7,202.0 496.8,201.8 499.9,201.9 502.9,201.7" fill="none" stroke="#378add" stroke-width="1.5" stroke-opacity="0.35"/>
<polyline points="199.3,72.1 202.4,100.0 205.5,114.3 208.5,124.2 211.6,127.9 214.7,129.8 217.7,131.3 220.8,132.2 223.9,133.0 226.9,133.4 230.0,133.5 233.1,133.7 236.1,133.7 239.2,133.8 242.3,133.9 245.3,133.8 248.4,134.0 251.5,133.9 254.5,133.9 257.6,133.9 260.7,133.9 263.7,134.0 266.8,133.9 269.9,134.0 272.9,133.9 276.0,133.9 279.1,134.0 282.1,133.9 285.2,134.0 288.3,133.9 291.3,133.9 294.4,134.0 297.5,133.9 300.5,134.0 303.6,133.9 306.7,133.9 309.7,134.0 312.8,133.9 315.9,134.0 318.9,133.9 322.0,133.9 325.1,134.0 328.1,133.9 331.2,134.0 334.3,133.9 337.3,133.9 340.4,134.0 343.5,133.9 346.5,134.0 349.6,133.9 352.7,269.4 355.7,263.4 358.8,255.5 361.9,250.9 364.9,246.4 368.0,242.6 371.1,239.0 374.1,234.1 377.2,231.4 380.3,228.6 383.3,226.3 386.4,224.2 389.5,221.2 392.5,219.6 395.6,217.8 398.7,216.5 401.7,215.2 404.8,213.3 407.9,212.4 410.9,211.3 414.0,210.5 417.1,209.7 420.1,208.6 423.2,208.1 426.3,207.3 429.3,206.9 432.4,206.4 435.5,205.7 438.5,205.5 441.6,204.9 444.7,204.7 447.7,204.4 450.8,203.9 453.9,203.9 456.9,203.5 460.0,203.3 463.1,203.2 466.1,202.9 469.2,202.9 472.3,202.6 475.3,202.5 478.4,202.5 481.5,202.2 484.5,202.3 487.6,202.0 490.7,202.0" fill="none" stroke="#378add" stroke-width="2.6"/>
<polyline points="46.0,14.0 49.1,14.0 52.1,14.0 55.2,14.0 58.3,14.0 61.3,14.0 64.4,14.0 67.5,14.0 70.5,14.0 73.6,14.0 76.7,14.0 79.7,14.0 82.8,14.0 85.9,14.0 88.9,14.0 92.0,14.0 95.1,14.0 98.1,14.0 101.2,14.0 104.3,14.0 107.3,14.0 110.4,14.0 113.5,14.0 116.5,14.0 119.6,14.0 122.7,14.0 125.7,14.0 128.8,14.0 131.9,14.0 134.9,14.0 138.0,14.0 141.1,14.0 144.1,14.0 147.2,14.0 150.3,14.0 153.3,14.0 156.4,14.0 159.5,14.0 162.5,14.0 165.6,14.0 168.7,14.0 171.7,14.0 174.8,14.0 177.9,14.0 180.9,14.0 184.0,14.0 187.1,14.0 190.1,14.0 193.2,14.0 196.3,14.0 199.3,25.3 202.4,53.1 205.5,67.5 208.5,77.3 211.6,81.1 214.7,83.0 217.7,84.4 220.8,85.4 223.9,86.1 226.9,86.6 230.0,86.6 233.1,86.8 236.1,86.9 239.2,86.9 242.3,87.1 245.3,87.0 248.4,87.0 251.5,87.1 254.5,87.0 257.6,87.1 260.7,87.1 263.7,87.1 266.8,87.1 269.9,87.0 272.9,87.1 276.0,87.1 279.1,87.1 282.1,87.1 285.2,87.0 288.3,87.1 291.3,87.1 294.4,87.1 297.5,87.1 300.5,87.0 303.6,87.1 306.7,87.1 309.7,87.1 312.8,87.1 315.9,87.0 318.9,87.1 322.0,87.1 325.1,87.1 328.1,87.1 331.2,87.0 334.3,87.1 337.3,87.1 340.4,87.1 343.5,87.1 346.5,87.0 349.6,87.1 352.7,82.2 355.7,76.1 358.8,68.3 361.9,63.5 364.9,59.2 368.0,55.4 371.1,51.7 374.1,46.9 377.2,44.1 380.3,41.4 383.3,39.1 386.4,36.8 389.5,34.0 392.5,32.3 395.6,30.6 398.7,29.3 401.7,27.9 404.8,26.1 407.9,25.1 410.9,24.1 414.0,23.3 417.1,22.4 420.1,21.4 423.2,20.8 426.3,20.1 429.3,19.7 432.4,19.1 435.5,18.5 438.5,18.1 441.6,17.7 444.7,17.5 447.7,17.1 450.8,16.7 453.9,16.5 456.9,16.3 460.0,16.1 463.1,15.9 466.1,15.7 469.2,15.6 472.3,15.4 475.3,15.3 478.4,15.1 481.5,15.0 484.5,15.0 487.6,14.8 490.7,14.8 493.7,14.7 496.8,14.6 499.9,14.6 502.9,14.5" fill="none" stroke="#d98a00" stroke-width="2.2"/>
<line x1="60" y1="224.6" x2="80" y2="224.6" stroke="#888780" stroke-width="2.0" stroke-dasharray="4 3"/>
<text x="86" y="228.1" fill="#888780" font-size="11" font-family="system-ui, sans-serif">input level</text>
<line x1="60" y1="239.6" x2="80" y2="239.6" stroke="#378add" stroke-width="2.6"/>
<text x="86" y="243.1" fill="#888780" font-size="11" font-family="system-ui, sans-serif">output — bold where compressing</text>
<line x1="60" y1="254.6" x2="80" y2="254.6" stroke="#d98a00" stroke-width="2.2"/>
<text x="86" y="258.1" fill="#888780" font-size="11" font-family="system-ui, sans-serif">gain reduction (dB)</text>
<line x1="60" y1="269.6" x2="80" y2="269.6" stroke="#7f77dd" stroke-width="1.5" stroke-dasharray="5 4"/>
<text x="86" y="273.1" fill="#888780" font-size="11" font-family="system-ui, sans-serif">threshold</text>
</svg>
