<svg xmlns="http://www.w3.org/2000/svg" viewBox="0 0 520 360" role="img" aria-label="Distortion transfer curves">
<title>Distortion transfer curves</title>
<desc>Hard clipping flattens everything past the limit into a plateau with sharp corners; tanh soft clipping bends toward the same limits gradually; asymmetric clipping cuts the negative half-wave at a shallower limit, which adds even harmonics. All at a drive of 3. The asymmetric curve coincides with the hard clip on the positive half and is drawn dashed.</desc>
<g stroke="#888780" stroke-opacity="0.25" stroke-width="1">
<line x1="46.0" y1="326" x2="46.0" y2="14"/>
<line x1="161.0" y1="326" x2="161.0" y2="14"/>
<line x1="276.0" y1="326" x2="276.0" y2="14"/>
<line x1="391.0" y1="326" x2="391.0" y2="14"/>
<line x1="506.0" y1="326" x2="506.0" y2="14"/>
<line x1="46" y1="326.0" x2="506" y2="326.0"/>
<line x1="46" y1="248.0" x2="506" y2="248.0"/>
<line x1="46" y1="170.0" x2="506" y2="170.0"/>
<line x1="46" y1="92.0" x2="506" y2="92.0"/>
<line x1="46" y1="14.0" x2="506" y2="14.0"/>
</g>
<g fill="#888780" font-size="11" font-family="system-ui, sans-serif">
<text x="46.0" y="342" text-anchor="middle">-1.0</text>
<text x="161.0" y="342" text-anchor="middle">-0.5</text>
<text x="276.0" y="342" text-anchor="middle">0.0</text>
<text x="391.0" y="342" text-anchor="middle">0.5</text>
<text x="506.0" y="342" text-anchor="middle">1.0</text>
<text x="40" y="329.0" text-anchor="end">-1.0</text>
<text x="40" y="251.0" text-anchor="end">-0.5</text>
<text x="40" y="173.0" text-anchor="end">0.0</text>
<text x="40" y="95.0" text-anchor="end">0.5</text>
<text x="40" y="17.0" text-anchor="end">1.0</text>
<text x="276.0" y="356" text-anchor="middle">input sample</text>
<text x="13" y="170.0" text-anchor="middle" transform="rotate(-90 13 170.0)">output sample</text>
</g>
<polyline points="46.0,326.0 47.1,325.2 48.3,324.4 49.5,323.7 50.6,322.9 51.8,322.1 52.9,321.3 54.1,320.5 55.2,319.8 56.4,319.0 57.5,318.2 58.7,317.4 59.8,316.6 60.9,315.9 62.1,315.1 63.2,314.3 64.4,313.5 65.5,312.7 66.7,312.0 67.8,311.2 69.0,310.4 70.1,309.6 71.3,308.8 72.5,308.1 73.6,307.3 74.8,306.5 75.9,305.7 77.0,304.9 78.2,304.2 79.3,303.4 80.5,302.6 81.7,301.8 82.8,301.0 84.0,300.3 85.1,299.5 86.2,298.7 87.4,297.9 88.6,297.1 89.7,296.4 90.8,295.6 92.0,294.8 93.1,294.0 94.3,293.2 95.4,292.5 96.6,291.7 97.8,290.9 98.9,290.1 100.0,289.3 101.2,288.6 102.3,287.8 103.5,287.0 104.7,286.2 105.8,285.4 107.0,284.7 108.1,283.9 109.2,283.1 110.4,282.3 111.6,281.5 112.7,280.8 113.9,280.0 115.0,279.2 116.2,278.4 117.3,277.6 118.4,276.9 119.6,276.1 120.7,275.3 121.9,274.5 123.0,273.7 124.2,273.0 125.3,272.2 126.5,271.4 127.6,270.6 128.8,269.8 129.9,269.1 131.1,268.3 132.2,267.5 133.4,266.7 134.6,265.9 135.7,265.2 136.9,264.4 138.0,263.6 139.2,262.8 140.3,262.0 141.4,261.3 142.6,260.5 143.8,259.7 144.9,258.9 146.1,258.1 147.2,257.4 148.3,256.6 149.5,255.8 150.6,255.0 151.8,254.2 152.9,253.5 154.1,252.7 155.2,251.9 156.4,251.1 157.6,250.3 158.7,249.6 159.8,248.8 161.0,248.0 162.2,247.2 163.3,246.4 164.4,245.7 165.6,244.9 166.8,244.1 167.9,243.3 169.0,242.5 170.2,241.8 171.3,241.0 172.5,240.2 173.6,239.4 174.8,238.6 175.9,237.9 177.1,237.1 178.2,236.3 179.4,235.5 180.5,234.7 181.7,234.0 182.8,233.2 184.0,232.4 185.2,231.6 186.3,230.8 187.4,230.1 188.6,229.3 189.8,228.5 190.9,227.7 192.1,226.9 193.2,226.2 194.3,225.4 195.5,224.6 196.7,223.8 197.8,223.0 199.0,222.3 200.1,221.5 201.2,220.7 202.4,219.9 203.6,219.1 204.7,218.4 205.9,217.6 207.0,216.8 208.2,216.0 209.3,215.2 210.5,214.5 211.6,213.7 212.8,212.9 213.9,212.1 215.0,211.3 216.2,210.6 217.3,209.8 218.5,209.0 219.7,208.2 220.8,207.4 222.0,206.7 223.1,205.9 224.2,205.1 225.4,204.3 226.6,203.5 227.7,202.8 228.9,202.0 230.0,201.2 231.1,200.4 232.3,199.6 233.4,198.9 234.6,198.1 235.8,197.3 236.9,196.5 238.0,195.7 239.2,195.0 240.3,194.2 241.5,193.4 242.7,192.6 243.8,191.8 244.9,191.1 246.1,190.3 247.2,189.5 248.4,188.7 249.6,187.9 250.7,187.2 251.8,186.4 253.0,185.6 254.2,184.8 255.3,184.0 256.5,183.3 257.6,182.5 258.8,181.7 259.9,180.9 261.1,180.1 262.2,179.4 263.4,178.6 264.5,177.8 265.6,177.0 266.8,176.2 267.9,175.5 269.1,174.7 270.2,173.9 271.4,173.1 272.5,172.3 273.7,171.6 274.9,170.8 276.0,170.0 277.1,169.2 278.3,168.4 279.4,167.7 280.6,166.9 281.8,166.1 282.9,165.3 284.0,164.5 285.2,163.8 286.4,163.0 287.5,162.2 288.6,161.4 289.8,160.6 290.9,159.9 292.1,159.1 293.2,158.3 294.4,157.5 295.5,156.7 296.7,156.0 297.9,155.2 299.0,154.4 300.1,153.6 301.3,152.8 302.4,152.1 303.6,151.3 304.8,150.5 305.9,149.7 307.1,148.9 308.2,148.2 309.4,147.4 310.5,146.6 311.7,145.8 312.8,145.0 313.9,144.3 315.1,143.5 316.2,142.7 317.4,141.9 318.6,141.1 319.7,140.4 320.9,139.6 322.0,138.8 323.2,138.0 324.3,137.2 325.5,136.5 326.6,135.7 327.8,134.9 328.9,134.1 330.0,133.3 331.2,132.6 332.4,131.8 333.5,131.0 334.6,130.2 335.8,129.4 337.0,128.7 338.1,127.9 339.2,127.1 340.4,126.3 341.5,125.5 342.7,124.8 343.8,124.0 345.0,123.2 346.1,122.4 347.3,121.6 348.4,120.9 349.6,120.1 350.8,119.3 351.9,118.5 353.1,117.7 354.2,117.0 355.3,116.2 356.5,115.4 357.6,114.6 358.8,113.8 359.9,113.1 361.1,112.3 362.2,111.5 363.4,110.7 364.6,109.9 365.7,109.2 366.9,108.4 368.0,107.6 369.2,106.8 370.3,106.0 371.4,105.3 372.6,104.5 373.8,103.7 374.9,102.9 376.1,102.1 377.2,101.4 378.4,100.6 379.5,99.8 380.7,99.0 381.8,98.2 383.0,97.5 384.1,96.7 385.2,95.9 386.4,95.1 387.5,94.3 388.7,93.6 389.9,92.8 391.0,92.0 392.1,91.2 393.3,90.4 394.5,89.7 395.6,88.9 396.8,88.1 397.9,87.3 399.1,86.5 400.2,85.8 401.3,85.0 402.5,84.2 403.7,83.4 404.8,82.6 405.9,81.9 407.1,81.1 408.2,80.3 409.4,79.5 410.6,78.7 411.7,78.0 412.8,77.2 414.0,76.4 415.1,75.6 416.3,74.8 417.4,74.1 418.6,73.3 419.8,72.5 420.9,71.7 422.1,70.9 423.2,70.2 424.4,69.4 425.5,68.6 426.7,67.8 427.8,67.0 428.9,66.3 430.1,65.5 431.2,64.7 432.4,63.9 433.6,63.1 434.7,62.4 435.8,61.6 437.0,60.8 438.2,60.0 439.3,59.2 440.4,58.5 441.6,57.7 442.8,56.9 443.9,56.1 445.0,55.3 446.2,54.6 447.4,53.8 448.5,53.0 449.6,52.2 450.8,51.4 452.0,50.7 453.1,49.9 454.2,49.1 455.4,48.3 456.6,47.5 457.7,46.8 458.8,46.0 460.0,45.2 461.2,44.4 462.3,43.6 463.4,42.9 464.6,42.1 465.8,41.3 466.9,40.5 468.1,39.7 469.2,39.0 470.3,38.2 471.5,37.4 472.6,36.6 473.8,35.8 474.9,35.1 476.1,34.3 477.2,33.5 478.4,32.7 479.6,31.9 480.7,31.2 481.9,30.4 483.0,29.6 484.2,28.8 485.3,28.0 486.4,27.3 487.6,26.5 488.8,25.7 489.9,24.9 491.1,24.1 492.2,23.4 493.3,22.6 494.5,21.8 495.7,21.0 496.8,20.2 497.9,19.5 499.1,18.7 500.2,17.9 501.4,17.1 502.5,16.3 503.7,15.6 504.9,14.8 506.0,14.0" fill="none" stroke="#888780" stroke-width="1.6" stroke-dasharray="5 4"/>
<polyline points="46.0,326.0 47.1,326.0 48.3,326.0 49.5,326.0 50.6,326.0 51.8,326.0 52.9,326.0 54.1,326.0 55.2,326.0 56.4,326.0 57.5,326.0 58.7,326.0 59.8,326.0 60.9,326.0 62.1,326.0 63.2,326.0 64.4,326.0 65.5,326.0 66.7,326.0 67.8,326.0 69.0,326.0 70.1,326.0 71.3,326.0 72.5,326.0 73.6,326.0 74.8,326.0 75.9,326.0 77.0,326.0 78.2,326.0 79.3,326.0 80.5,326.0 81.7,326.0 82.8,326.0 84.0,326.0 85.1,326.0 86.2,326.0 87.4,326.0 88.6,326.0 89.7,326.0 90.8,326.0 92.0,326.0 93.1,326.0 94.3,326.0 95.4,326.0 96.6,326.0 97.8,326.0 98.9,326.0 100.0,326.0 101.2,326.0 102.3,326.0 103.5,326.0 104.7,326.0 105.8,326.0 107.0,326.0 108.1,326.0 109.2,326.0 110.4,326.0 111.6,326.0 112.7,326.0 113.9,326.0 115.0,326.0 116.2,326.0 117.3,326.0 118.4,326.0 119.6,326.0 120.7,326.0 121.9,326.0 123.0,326.0 124.2,326.0 125.3,326.0 126.5,326.0 127.6,326.0 128.8,326.0 129.9,326.0 131.1,326.0 132.2,326.0 133.4,326.0 134.6,326.0 135.7,326.0 136.9,326.0 138.0,326.0 139.2,326.0 140.3,326.0 141.4,326.0 142.6,326.0 143.8,326.0 144.9,326.0 146.1,326.0 147.2,326.0 148.3,326.0 149.5,326.0 150.6,326.0 151.8,326.0 152.9,326.0 154.1,326.0 155.2,326.0 156.4,326.0 157.6,326.0 158.7,326.0 159.8,326.0 161.0,326.0 162.2,326.0 163.3,326.0 164.4,326.0 165.6,326.0 166.8,326.0 167.9,326.0 169.0,326.0 170.2,326.0 171.3,326.0 172.5,326.0 173.6,326.0 174.8,326.0 175.9,326.0 177.1,326.0 178.2,326.0 179.4,326.0 180.5,326.0 181.7,326.0 182.8,326.0 184.0,326.0 185.2,326.0 186.3,326.0 187.4,326.0 188.6,326.0 189.8,326.0 190.9,326.0 192.1,326.0 193.2,326.0 194.3,326.0 195.5,326.0 196.7,326.0 197.8,326.0 199.0,326.0 200.1,324.4 201.2,322.1 202.4,319.8 203.6,317.4 204.7,315.1 205.9,312.7 207.0,310.4 208.2,308.1 209.3,305.7 210.5,303.4 211.6,301.0 212.8,298.7 213.9,296.4 215.0,294.0 216.2,291.7 217.3,289.3 218.5,287.0 219.7,284.7 220.8,282.3 222.0,280.0 223.1,277.6 224.2,275.3 225.4,273.0 226.6,270.6 227.7,268.3 228.9,265.9 230.0,263.6 231.1,261.3 232.3,258.9 233.4,256.6 234.6,254.2 235.8,251.9 236.9,249.6 238.0,247.2 239.2,244.9 240.3,242.5 241.5,240.2 242.7,237.9 243.8,235.5 244.9,233.2 246.1,230.8 247.2,228.5 248.4,226.2 249.6,223.8 250.7,221.5 251.8,219.1 253.0,216.8 254.2,214.5 255.3,212.1 256.5,209.8 257.6,207.4 258.8,205.1 259.9,202.8 261.1,200.4 262.2,198.1 263.4,195.7 264.5,193.4 265.6,191.1 266.8,188.7 267.9,186.4 269.1,184.0 270.2,181.7 271.4,179.4 272.5,177.0 273.7,174.7 274.9,172.3 276.0,170.0 277.1,167.7 278.3,165.3 279.4,163.0 280.6,160.6 281.8,158.3 282.9,156.0 284.0,153.6 285.2,151.3 286.4,148.9 287.5,146.6 288.6,144.3 289.8,141.9 290.9,139.6 292.1,137.2 293.2,134.9 294.4,132.6 295.5,130.2 296.7,127.9 297.9,125.5 299.0,123.2 300.1,120.9 301.3,118.5 302.4,116.2 303.6,113.8 304.8,111.5 305.9,109.2 307.1,106.8 308.2,104.5 309.4,102.1 310.5,99.8 311.7,97.5 312.8,95.1 313.9,92.8 315.1,90.4 316.2,88.1 317.4,85.8 318.6,83.4 319.7,81.1 320.9,78.7 322.0,76.4 323.2,74.1 324.3,71.7 325.5,69.4 326.6,67.0 327.8,64.7 328.9,62.4 330.0,60.0 331.2,57.7 332.4,55.3 333.5,53.0 334.6,50.7 335.8,48.3 337.0,46.0 338.1,43.6 339.2,41.3 340.4,39.0 341.5,36.6 342.7,34.3 343.8,31.9 345.0,29.6 346.1,27.3 347.3,24.9 348.4,22.6 349.6,20.2 350.8,17.9 351.9,15.6 353.1,14.0 354.2,14.0 355.3,14.0 356.5,14.0 357.6,14.0 358.8,14.0 359.9,14.0 361.1,14.0 362.2,14.0 363.4,14.0 364.6,14.0 365.7,14.0 366.9,14.0 368.0,14.0 369.2,14.0 370.3,14.0 371.4,14.0 372.6,14.0 373.8,14.0 374.9,14.0 376.1,14.0 377.2,14.0 378.4,14.0 379.5,14.0 380.7,14.0 381.8,14.0 383.0,14.0 384.1,14.0 385.2,14.0 386.4,14.0 387.5,14.0 388.7,14.0 389.9,14.0 391.0,14.0 392.1,14.0 393.3,14.0 394.5,14.0 395.6,14.0 396.8,14.0 397.9,14.0 399.1,14.0 400.2,14.0 401.3,14.0 402.5,14.0 403.7,14.0 404.8,14.0 405.9,14.0 407.1,14.0 408.2,14.0 409.4,14.0 410.6,14.0 411.7,14.0 412.8,14.0 414.0,14.0 415.1,14.0 416.3,14.0 417.4,14.0 418.6,14.0 419.8,14.0 420.9,14.0 422.1,14.0 423.2,14.0 424.4,14.0 425.5,14.0 426.7,14.0 427.8,14.0 428.9,14.0 430.1,14.0 431.2,14.0 432.4,14.0 433.6,14.0 434.7,14.0 435.8,14.0 437.0,14.0 438.2,14.0 439.3,14.0 440.4,14.0 441.6,14.0 442.8,14.0 443.9,14.0 445.0,14.0 446.2,14.0 447.4,14.0 448.5,14.0 449.6,14.0 450.8,14.0 452.0,14.0 453.1,14.0 454.2,14.0 455.4,14.0 456.6,14.0 457.7,14.0 458.8,14.0 460.0,14.0 461.2,14.0 462.3,14.0 463.4,14.0 464.6,14.0 465.8,14.0 466.9,14.0 468.1,14.0 469.2,14.0 470.3,14.0 471.5,14.0 472.6,14.0 473.8,14.0 474.9,14.0 476.1,14.0 477.2,14.0 478.4,14.0 479.6,14.0 480.7,14.0 481.9,14.0 483.0,14.0 484.2,14.0 485.3,14.0 486.4,14.0 487.6,14.0 488.8,14.0 489.9,14.0 491.1,14.0 492.2,14.0 493.3,14.0 494.5,14.0 495.7,14.0 496.8,14.0 497.9,14.0 499.1,14.0 500.2,14.0 501.4,14.0 502.5,14.0 503.7,14.0 504.9,14.0 506.0,14.0" fill="none" stroke="#e05252" stroke-width="2.6"/>
<polyline points="46.0,325.2 47.1,325.2 48.3,325.2 49.5,325.2 50.6,325.1 51.8,325.1 52.9,325.1 54.1,325.0 55.2,325.0 56.4,325.0 57.5,325.0 58.7,324.9 59.8,324.9 60.9,324.9 62.1,324.8 63.2,324.8 64.4,324.8 65.5,324.7 66.7,324.7 67.8,324.6 69.0,324.6 70.1,324.6 71.3,324.5 72.5,324.5 73.6,324.4 74.8,324.4 75.9,324.3 77.0,324.3 78.2,324.2 79.3,324.2 80.5,324.1 81.7,324.1 82.8,324.0 84.0,323.9 85.1,323.9 86.2,323.8 87.4,323.7 88.6,323.7 89.7,323.6 90.8,323.5 92.0,323.5 93.1,323.4 94.3,323.3 95.4,323.2 96.6,323.1 97.8,323.0 98.9,323.0 100.0,322.9 101.2,322.8 102.3,322.7 103.5,322.6 104.7,322.5 105.8,322.4 107.0,322.3 108.1,322.1 109.2,322.0 110.4,321.9 111.6,321.8 112.7,321.7 113.9,321.5 115.0,321.4 116.2,321.3 117.3,321.1 118.4,321.0 119.6,320.8 120.7,320.7 121.9,320.5 123.0,320.3 124.2,320.2 125.3,320.0 126.5,319.8 127.6,319.6 128.8,319.4 129.9,319.2 131.1,319.0 132.2,318.8 133.4,318.6 134.6,318.4 135.7,318.2 136.9,317.9 138.0,317.7 139.2,317.5 140.3,317.2 141.4,316.9 142.6,316.7 143.8,316.4 144.9,316.1 146.1,315.8 147.2,315.5 148.3,315.2 149.5,314.9 150.6,314.6 151.8,314.2 152.9,313.9 154.1,313.5 155.2,313.2 156.4,312.8 157.6,312.4 158.7,312.0 159.8,311.6 161.0,311.2 162.2,310.8 163.3,310.3 164.4,309.9 165.6,309.4 166.8,308.9 167.9,308.4 169.0,307.9 170.2,307.4 171.3,306.9 172.5,306.4 173.6,305.8 174.8,305.2 175.9,304.6 177.1,304.0 178.2,303.4 179.4,302.8 180.5,302.1 181.7,301.4 182.8,300.8 184.0,300.1 185.2,299.3 186.3,298.6 187.4,297.8 188.6,297.0 189.8,296.3 190.9,295.4 192.1,294.6 193.2,293.7 194.3,292.9 195.5,292.0 196.7,291.0 197.8,290.1 199.0,289.1 200.1,288.1 201.2,287.1 202.4,286.1 203.6,285.1 204.7,284.0 205.9,282.9 207.0,281.7 208.2,280.6 209.3,279.4 210.5,278.2 211.6,277.0 212.8,275.7 213.9,274.5 215.0,273.2 216.2,271.8 217.3,270.5 218.5,269.1 219.7,267.7 220.8,266.2 222.0,264.8 223.1,263.3 224.2,261.8 225.4,260.2 226.6,258.7 227.7,257.1 228.9,255.4 230.0,253.8 231.1,252.1 232.3,250.4 233.4,248.7 234.6,246.9 235.8,245.1 236.9,243.3 238.0,241.5 239.2,239.6 240.3,237.7 241.5,235.8 242.7,233.9 243.8,231.9 244.9,229.9 246.1,227.9 247.2,225.9 248.4,223.9 249.6,221.8 250.7,219.7 251.8,217.6 253.0,215.4 254.2,213.3 255.3,211.1 256.5,208.9 257.6,206.7 258.8,204.5 259.9,202.3 261.1,200.0 262.2,197.8 263.4,195.5 264.5,193.2 265.6,190.9 266.8,188.6 267.9,186.3 269.1,184.0 270.2,181.7 271.4,179.3 272.5,177.0 273.7,174.7 274.9,172.3 276.0,170.0 277.1,167.7 278.3,165.3 279.4,163.0 280.6,160.7 281.8,158.3 282.9,156.0 284.0,153.7 285.2,151.4 286.4,149.1 287.5,146.8 288.6,144.5 289.8,142.2 290.9,140.0 292.1,137.7 293.2,135.5 294.4,133.3 295.5,131.1 296.7,128.9 297.9,126.7 299.0,124.6 300.1,122.4 301.3,120.3 302.4,118.2 303.6,116.1 304.8,114.1 305.9,112.1 307.1,110.1 308.2,108.1 309.4,106.1 310.5,104.2 311.7,102.3 312.8,100.4 313.9,98.5 315.1,96.7 316.2,94.9 317.4,93.1 318.6,91.3 319.7,89.6 320.9,87.9 322.0,86.2 323.2,84.6 324.3,82.9 325.5,81.3 326.6,79.8 327.8,78.2 328.9,76.7 330.0,75.2 331.2,73.8 332.4,72.3 333.5,70.9 334.6,69.5 335.8,68.2 337.0,66.8 338.1,65.5 339.2,64.3 340.4,63.0 341.5,61.8 342.7,60.6 343.8,59.4 345.0,58.3 346.1,57.1 347.3,56.0 348.4,54.9 349.6,53.9 350.8,52.9 351.9,51.9 353.1,50.9 354.2,49.9 355.3,49.0 356.5,48.0 357.6,47.1 358.8,46.3 359.9,45.4 361.1,44.6 362.2,43.7 363.4,43.0 364.6,42.2 365.7,41.4 366.9,40.7 368.0,39.9 369.2,39.2 370.3,38.6 371.4,37.9 372.6,37.2 373.8,36.6 374.9,36.0 376.1,35.4 377.2,34.8 378.4,34.2 379.5,33.6 380.7,33.1 381.8,32.6 383.0,32.1 384.1,31.6 385.2,31.1 386.4,30.6 387.5,30.1 388.7,29.7 389.9,29.2 391.0,28.8 392.1,28.4 393.3,28.0 394.5,27.6 395.6,27.2 396.8,26.8 397.9,26.5 399.1,26.1 400.2,25.8 401.3,25.4 402.5,25.1 403.7,24.8 404.8,24.5 405.9,24.2 407.1,23.9 408.2,23.6 409.4,23.3 410.6,23.1 411.7,22.8 412.8,22.5 414.0,22.3 415.1,22.1 416.3,21.8 417.4,21.6 418.6,21.4 419.8,21.2 420.9,21.0 422.1,20.8 423.2,20.6 424.4,20.4 425.5,20.2 426.7,20.0 427.8,19.8 428.9,19.7 430.1,19.5 431.2,19.3 432.4,19.2 433.6,19.0 434.7,18.9 435.8,18.7 437.0,18.6 438.2,18.5 439.3,18.3 440.4,18.2 441.6,18.1 442.8,18.0 443.9,17.9 445.0,17.7 446.2,17.6 447.4,17.5 448.5,17.4 449.6,17.3 450.8,17.2 452.0,17.1 453.1,17.0 454.2,17.0 455.4,16.9 456.6,16.8 457.7,16.7 458.8,16.6 460.0,16.5 461.2,16.5 462.3,16.4 463.4,16.3 464.6,16.3 465.8,16.2 466.9,16.1 468.1,16.1 469.2,16.0 470.3,15.9 471.5,15.9 472.6,15.8 473.8,15.8 474.9,15.7 476.1,15.7 477.2,15.6 478.4,15.6 479.6,15.5 480.7,15.5 481.9,15.4 483.0,15.4 484.2,15.4 485.3,15.3 486.4,15.3 487.6,15.2 488.8,15.2 489.9,15.2 491.1,15.1 492.2,15.1 493.3,15.1 494.5,15.0 495.7,15.0 496.8,15.0 497.9,15.0 499.1,14.9 500.2,14.9 501.4,14.9 502.5,14.8 503.7,14.8 504.9,14.8 506.0,14.8" fill="none" stroke="#378add" stroke-width="2.6"/>
<polyline points="46.0,248.0 47.1,248.0 48.3,248.0 49.5,248.0 50.6,248.0 51.8,248.0 52.9,248.0 54.1,248.0 55.2,248.0 56.4,248.0 57.5,248.0 58.7,248.0 59.8,248.0 60.9,248.0 62.1,248.0 63.2,248.0 64.4,248.0 65.5,248.0 66.7,248.0 67.8,248.0 69.0,248.0 70.1,248.0 71.3,248.0 72.5,248.0 73.6,248.0 74.8,248.0 75.9,248.0 77.0,248.0 78.2,248.0 79.3,248.0 80.5,248.0 81.7,248.0 82.8,248.0 84.0,248.0 85.1,248.0 86.2,248.0 87.4,248.0 88.6,248.0 89.7,248.0 90.8,248.0 92.0,248.0 93.1,248.0 94.3,248.0 95.4,248.0 96.6,248.0 97.8,248.0 98.9,248.0 100.0,248.0 101.2,248.0 102.3,248.0 103.5,248.0 104.7,248.0 105.8,248.0 107.0,248.0 108.1,248.0 109.2,248.0 110.4,248.0 111.6,248.0 112.7,248.0 113.9,248.0 115.0,248.0 116.2,248.0 117.3,248.0 118.4,248.0 119.6,248.0 120.7,248.0 121.9,248.0 123.0,248.0 124.2,248.0 125.3,248.0 126.5,248.0 127.6,248.0 128.8,248.0 129.9,248.0 131.1,248.0 132.2,248.0 133.4,248.0 134.6,248.0 135.7,248.0 136.9,248.0 138.0,248.0 139.2,248.0 140.3,248.0 141.4,248.0 142.6,248.0 143.8,248.0 144.9,248.0 146.1,248.0 147.2,248.0 148.3,248.0 149.5,248.0 150.6,248.0 151.8,248.0 152.9,248.0 154.1,248.0 155.2,248.0 156.4,248.0 157.6,248.0 158.7,248.0 159.8,248.0 161.0,248.0 162.2,248.0 163.3,248.0 164.4,248.0 165.6,248.0 166.8,248.0 167.9,248.0 169.0,248.0 170.2,248.0 171.3,248.0 172.5,248.0 173.6,248.0 174.8,248.0 175.9,248.0 177.1,248.0 178.2,248.0 179.4,248.0 180.5,248.0 181.7,248.0 182.8,248.0 184.0,248.0 185.2,248.0 186.3,248.0 187.4,248.0 188.6,248.0 189.8,248.0 190.9,248.0 192.1,248.0 193.2,248.0 194.3,248.0 195.5,248.0 196.7,248.0 197.8,248.0 199.0,248.0 200.1,248.0 201.2,248.0 202.4,248.0 203.6,248.0 204.7,248.0 205.9,248.0 207.0,248.0 208.2,248.0 209.3,248.0 210.5,248.0 211.6,248.0 212.8,248.0 213.9,248.0 215.0,248.0 216.2,248.0 217.3,248.0 218.5,248.0 219.7,248.0 220.8,248.0 222.0,248.0 223.1,248.0 224.2,248.0 225.4,248.0 226.6,248.0 227.7,248.0 228.9,248.0 230.0,248.0 231.1,248.0 232.3,248.0 233.4,248.0 234.6,248.0 235.8,248.0 236.9,248.0 238.0,247.2 239.2,244.9 240.3,242.5 241.5,240.2 242.7,237.9 243.8,235.5 244.9,233.2 246.1,230.8 247.2,228.5 248.4,226.2 249.6,223.8 250.7,221.5 251.8,219.1 253.0,216.8 254.2,214.5 255.3,212.1 256.5,209.8 257.6,207.4 258.8,205.1 259.9,202.8 261.1,200.4 262.2,198.1 263.4,195.7 264.5,193.4 265.6,191.1 266.8,188.7 267.9,186.4 269.1,184.0 270.2,181.7 271.4,179.4 272.5,177.0 273.7,174.7 274.9,172.3 276.0,170.0 277.1,167.7 278.3,165.3 279.4,163.0 280.6,160.6 281.8,158.3 282.9,156.0 284.0,153.6 285.2,151.3 286.4,148.9 287.5,146.6 288.6,144.3 289.8,141.9 290.9,139.6 292.1,137.2 293.2,134.9 294.4,132.6 295.5,130.2 296.7,127.9 297.9,125.5 299.0,123.2 300.1,120.9 301.3,118.5 302.4,116.2 303.6,113.8 304.8,111.5 305.9,109.2 307.1,106.8 308.2,104.5 309.4,102.1 310.5,99.8 311.7,97.5 312.8,95.1 313.9,92.8 315.1,90.4 316.2,88.1 317.4,85.8 318.6,83.4 319.7,81.1 320.9,78.7 322.0,76.4 323.2,74.1 324.3,71.7 325.5,69.4 326.6,67.0 327.8,64.7 328.9,62.4 330.0,60.0 331.2,57.7 332.4,55.3 333.5,53.0 334.6,50.7 335.8,48.3 337.0,46.0 338.1,43.6 339.2,41.3 340.4,39.0 341.5,36.6 342.7,34.3 343.8,31.9 345.0,29.6 346.1,27.3 347.3,24.9 348.4,22.6 349.6,20.2 350.8,17.9 351.9,15.6 353.1,14.0 354.2,14.0 355.3,14.0 356.5,14.0 357.6,14.0 358.8,14.0 359.9,14.0 361.1,14.0 362.2,14.0 363.4,14.0 364.6,14.0 365.7,14.0 366.9,14.0 368.0,14.0 369.2,14.0 370.3,14.0 371.4,14.0 372.6,14.0 373.8,14.0 374.9,14.0 376.1,14.0 377.2,14.0 378.4,14.0 379.5,14.0 380.7,14.0 381.8,14.0 383.0,14.0 384.1,14.0 385.2,14.0 386.4,14.0 387.5,14.0 388.7,14.0 389.9,14.0 391.0,14.0 392.1,14.0 393.3,14.0 394.5,14.0 395.6,14.0 396.8,14.0 397.9,14.0 399.1,14.0 400.2,14.0 401.3,14.0 402.5,14.0 403.7,14.0 404.8,14.0 405.9,14.0 407.1,14.0 408.2,14.0 409.4,14.0 410.6,14.0 411.7,14.0 412.8,14.0 414.0,14.0 415.1,14.0 416.3,14.0 417.4,14.0 418.6,14.0 419.8,14.0 420.9,14.0 422.1,14.0 423.2,14.0 424.4,14.0 425.5,14.0 426.7,14.0 427.8,14.0 428.9,14.0 430.1,14.0 431.2,14.0 432.4,14.0 433.6,14.0 434.7,14.0 435.8,14.0 437.0,14.0 438.2,14.0 439.3,14.0 440.4,14.0 441.6,14.0 442.8,14.0 443.9,14.0 445.0,14.0 446.2,14.0 447.4,14.0 448.5,14.0 449.6,14.0 450.8,14.0 452.0,14.0 453.1,14.0 454.2,14.0 455.4,14.0 456.6,14.0 457.7,14.0 458.8,14.0 460.0,14.0 461.2,14.0 462.3,14.0 463.4,14.0 464.6,14.0 465.8,14.0 466.9,14.0 468.1,14.0 469.2,14.0 470.3,14.0 471.5,14.0 472.6,14.0 473.8,14.0 474.9,14.0 476.1,14.0 477.2,14.0 478.4,14.0 479.6,14.0 480.7,14.0 481.9,14.0 483.0,14.0 484.2,14.0 485.3,14.0 486.4,14.0 487.6,14.0 488.8,14.0 489.9,14.0 491.1,14.0 492.2,14.0 493.3,14.0 494.5,14.0 495.7,14.0 496.8,14.0 497.9,14.0 499.1,14.0 500.2,14.0 501.4,14.0 502.5,14.0 503.7,14.0 504.9,14.0 506.0,14.0" fill="none" stroke="#1baf7a" stroke-width="2.4" stroke-dasharray="4 3"/>
<line x1="60" y1="30" x2="80" y2="30" stroke="#888780" stroke-width="1.6" stroke-dasharray="5 4"/>
<text x="86" y="33.5" fill="#888780" font-size="11" font-family="system-ui, sans-serif">unity (no distortion)</text>
<line x1="60" y1="45" x2="80" y2="45" stroke="#e05252" stroke-width="2.6"/>
<text x="86" y="48.5" fill="#888780" font-size="11" font-family="system-ui, sans-serif">hard clip, drive 3</text>
<line x1="60" y1="60" x2="80" y2="60" stroke="#378add" stroke-width="2.6"/>
<text x="86" y="63.5" fill="#888780" font-size="11" font-family="system-ui, sans-serif">soft clip (tanh), drive 3</text>
<line x1="60" y1="75" x2="80" y2="75" stroke="#1baf7a" stroke-width="2.4" stroke-dasharray="4 3"/>
<text x="86" y="78.5" fill="#888780" font-size="11" font-family="system-ui, sans-serif">asymmetric: floor −0.5, drive 3</text>
</svg>
