<svg xmlns="http://www.w3.org/2000/svg" viewBox="0 0 520 360" role="img" aria-label="An envelope follower tracing a burst">
<title>An envelope follower tracing a burst</title>
<desc>The magnitude of a quiet-loud-quiet tone, drawn as a filled region, and the one-pole envelope that follows it: the envelope rises with the burst in about 5 ms (attack) and decays after it in about 50 ms (release). It rides below the crests, because each crest lasts an instant while the attack spans several. Linear amplitude, not dB.</desc>
<g stroke="#888780" stroke-opacity="0.25" stroke-width="1">
<line x1="46.0" y1="326" x2="46.0" y2="14"/>
<line x1="177.4" y1="326" x2="177.4" y2="14"/>
<line x1="308.9" y1="326" x2="308.9" y2="14"/>
<line x1="440.3" y1="326" x2="440.3" y2="14"/>
<line x1="46" y1="326.0" x2="506" y2="326.0"/>
<line x1="46" y1="274.0" x2="506" y2="274.0"/>
<line x1="46" y1="222.0" x2="506" y2="222.0"/>
<line x1="46" y1="170.0" x2="506" y2="170.0"/>
<line x1="46" y1="118.0" x2="506" y2="118.0"/>
<line x1="46" y1="66.0" x2="506" y2="66.0"/>
<line x1="46" y1="14.0" x2="506" y2="14.0"/>
</g>
<g fill="#888780" font-size="11" font-family="system-ui, sans-serif">
<text x="46.0" y="342" text-anchor="middle">0.0</text>
<text x="177.4" y="342" text-anchor="middle">0.1</text>
<text x="308.9" y="342" text-anchor="middle">0.2</text>
<text x="440.3" y="342" text-anchor="middle">0.3</text>
<text x="40" y="329.0" text-anchor="end">0.0</text>
<text x="40" y="277.0" text-anchor="end">0.1</text>
<text x="40" y="225.0" text-anchor="end">0.2</text>
<text x="40" y="173.0" text-anchor="end">0.3</text>
<text x="40" y="121.0" text-anchor="end">0.4</text>
<text x="40" y="69.0" text-anchor="end">0.5</text>
<text x="40" y="17.0" text-anchor="end">0.6</text>
<text x="276.0" y="356" text-anchor="middle">time (s)</text>
<text x="13" y="170.0" text-anchor="middle" transform="rotate(-90 13 170.0)">amplitude (linear)</text>
</g>
<polygon points="46.0,326.0 46.0,326.0 46.2,317.1 46.3,308.4 46.5,300.2 46.7,292.9 46.8,286.5 47.0,281.2 47.1,277.4 47.3,274.9 47.5,274.0 47.6,274.6 47.8,276.8 48.0,280.4 48.1,285.4 48.3,291.6 48.5,298.8 48.6,306.9 48.8,315.5 49.0,324.4 49.1,318.7 49.3,309.9 49.5,301.7 49.6,294.1 49.8,287.5 49.9,282.1 50.1,278.0 50.3,275.3 50.4,274.1 50.6,274.4 50.8,276.3 50.9,279.7 51.1,284.4 51.3,290.4 51.4,297.5 51.6,305.3 51.8,313.9 51.9,322.7 52.1,320.3 52.2,311.5 52.4,303.1 52.6,295.4 52.7,288.7 52.9,283.0 53.1,278.6 53.2,275.6 53.4,274.2 53.6,274.2 53.7,275.8 53.9,278.9 54.0,283.5 54.2,289.2 54.4,296.1 54.5,303.9 54.7,312.3 54.9,321.1 55.0,321.9 55.2,313.1 55.4,304.6 55.5,296.8 55.7,289.8 55.9,283.9 56.0,279.3 56.2,276.1 56.4,274.3 56.5,274.1 56.7,275.4 56.8,278.3 57.0,282.5 57.2,288.1 57.3,294.8 57.5,302.4 57.7,310.7 57.8,319.5 58.0,323.6 58.2,314.7 58.3,306.1 58.5,298.1 58.6,291.0 58.8,284.9 59.0,280.0 59.1,276.5 59.3,274.5 59.5,274.0 59.6,275.1 59.8,277.7 60.0,281.7 60.1,287.0 60.3,293.5 60.5,300.9 60.6,309.2 60.8,317.9 61.0,325.2 61.1,316.3 61.3,307.6 61.4,299.5 61.6,292.2 61.8,285.9 61.9,280.8 62.1,277.1 62.3,274.8 62.4,274.0 62.6,274.8 62.8,277.1 62.9,280.8 63.1,285.9 63.2,292.2 63.4,299.5 63.6,307.6 63.7,316.3 63.9,325.2 64.1,317.9 64.2,309.2 64.4,300.9 64.6,293.5 64.7,287.0 64.9,281.7 65.1,277.7 65.2,275.1 65.4,274.0 65.5,274.5 65.7,276.5 65.9,280.0 66.0,284.9 66.2,291.0 66.4,298.1 66.5,306.1 66.7,314.7 66.9,323.6 67.0,319.5 67.2,310.7 67.4,302.4 67.5,294.8 67.7,288.1 67.9,282.5 68.0,278.3 68.2,275.4 68.3,274.1 68.5,274.3 68.7,276.1 68.8,279.3 69.0,283.9 69.2,289.8 69.3,296.8 69.5,304.6 69.7,313.1 69.8,321.9 70.0,321.1 70.2,312.3 70.3,303.9 70.5,296.1 70.6,289.2 70.8,283.5 71.0,278.9 71.1,275.8 71.3,274.2 71.5,274.2 71.6,275.6 71.8,278.6 72.0,283.0 72.1,288.7 72.3,295.4 72.5,303.1 72.6,311.5 72.8,320.3 72.9,322.7 73.1,313.9 73.3,305.3 73.4,297.5 73.6,290.4 73.8,284.4 73.9,279.7 74.1,276.3 74.3,274.4 74.4,274.1 74.6,275.3 74.8,278.0 74.9,282.1 75.1,287.5 75.2,294.1 75.4,301.7 75.6,309.9 75.7,318.7 75.9,324.4 76.1,315.5 76.2,306.9 76.4,298.8 76.6,291.6 76.7,285.4 76.9,280.4 77.0,276.8 77.2,274.6 77.4,274.0 77.5,274.9 77.7,277.4 77.9,281.2 78.0,286.5 78.2,292.9 78.4,300.2 78.5,308.4 78.7,317.1 78.9,326.0 79.0,317.1 79.2,308.4 79.3,300.2 79.5,292.9 79.7,286.5 79.8,281.2 80.0,277.4 80.2,274.9 80.3,274.0 80.5,274.6 80.7,276.8 80.8,280.4 81.0,285.4 81.2,291.6 81.3,298.8 81.5,306.9 81.7,315.5 81.8,324.4 82.0,318.7 82.1,309.9 82.3,301.7 82.5,294.1 82.6,287.5 82.8,282.1 83.0,278.0 83.1,275.3 83.3,274.1 83.5,274.4 83.6,276.3 83.8,279.7 84.0,284.4 84.1,290.4 84.3,297.5 84.4,305.3 84.6,313.9 84.8,322.7 84.9,320.3 85.1,311.5 85.3,303.1 85.4,295.4 85.6,288.7 85.8,283.0 85.9,278.6 86.1,275.6 86.2,274.2 86.4,274.2 86.6,275.8 86.7,278.9 86.9,283.5 87.1,289.2 87.2,296.1 87.4,303.9 87.6,312.3 87.7,321.1 87.9,321.9 88.1,313.1 88.2,304.6 88.4,296.8 88.6,289.8 88.7,283.9 88.9,279.3 89.0,276.1 89.2,274.3 89.4,274.1 89.5,275.4 89.7,278.3 89.9,282.5 90.0,288.1 90.2,294.8 90.4,302.4 90.5,310.7 90.7,319.5 90.9,323.6 91.0,314.7 91.2,306.1 91.3,298.1 91.5,291.0 91.7,284.9 91.8,280.0 92.0,276.5 92.2,274.5 92.3,274.0 92.5,275.1 92.7,277.7 92.8,281.7 93.0,287.0 93.2,293.5 93.3,300.9 93.5,309.2 93.6,317.9 93.8,325.2 94.0,316.3 94.1,307.6 94.3,299.5 94.5,292.2 94.6,285.9 94.8,280.8 95.0,277.1 95.1,274.8 95.3,274.0 95.4,274.8 95.6,277.1 95.8,280.8 95.9,285.9 96.1,292.2 96.3,299.5 96.4,307.6 96.6,316.3 96.8,325.2 96.9,317.9 97.1,309.2 97.3,300.9 97.4,293.5 97.6,287.0 97.8,281.7 97.9,277.7 98.1,275.1 98.2,274.0 98.4,274.5 98.6,276.5 98.7,280.0 98.9,284.9 99.1,291.0 99.2,298.1 99.4,306.1 99.6,314.7 99.7,323.6 99.9,319.5 100.1,310.7 100.2,302.4 100.4,294.8 100.5,288.1 100.7,282.5 100.9,278.3 101.0,275.4 101.2,274.1 101.4,274.3 101.5,276.1 101.7,279.3 101.9,283.9 102.0,289.8 102.2,296.8 102.4,304.6 102.5,313.1 102.7,321.9 102.8,321.1 103.0,312.3 103.2,303.9 103.3,296.1 103.5,289.2 103.7,283.5 103.8,278.9 104.0,275.8 104.2,274.2 104.3,274.2 104.5,275.6 104.7,278.6 104.8,283.0 105.0,288.7 105.1,295.4 105.3,303.1 105.5,311.5 105.6,320.3 105.8,322.7 106.0,313.9 106.1,305.3 106.3,297.5 106.5,290.4 106.6,284.4 106.8,279.7 107.0,276.3 107.1,274.4 107.3,274.1 107.4,275.3 107.6,278.0 107.8,282.1 107.9,287.5 108.1,294.1 108.3,301.7 108.4,309.9 108.6,318.7 108.8,324.4 108.9,315.5 109.1,306.9 109.2,298.8 109.4,291.6 109.6,285.4 109.7,280.4 109.9,276.8 110.1,274.6 110.2,274.0 110.4,274.9 110.6,277.4 110.7,281.2 110.9,286.5 111.1,292.9 111.2,300.2 111.4,308.4 111.6,317.1 111.7,326.0 111.9,317.1 112.0,308.4 112.2,300.2 112.4,292.9 112.5,286.5 112.7,281.2 112.9,277.4 113.0,274.9 113.2,274.0 113.4,274.6 113.5,276.8 113.7,280.4 113.8,285.4 114.0,291.6 114.2,298.8 114.3,306.9 114.5,315.5 114.7,324.4 114.8,318.7 115.0,309.9 115.2,301.7 115.3,294.1 115.5,287.5 115.7,282.1 115.8,278.0 116.0,275.3 116.1,274.1 116.3,274.4 116.5,276.3 116.6,279.7 116.8,284.4 117.0,290.4 117.1,297.5 117.3,305.3 117.5,313.9 117.6,322.7 117.8,320.3 118.0,311.5 118.1,303.1 118.3,295.4 118.5,288.7 118.6,283.0 118.8,278.6 118.9,275.6 119.1,274.2 119.3,274.2 119.4,275.8 119.6,278.9 119.8,283.5 119.9,289.2 120.1,296.1 120.3,303.9 120.4,312.3 120.6,321.1 120.8,321.9 120.9,313.1 121.1,304.6 121.2,296.8 121.4,289.8 121.6,283.9 121.7,279.3 121.9,276.1 122.1,274.3 122.2,274.1 122.4,275.4 122.6,278.3 122.7,282.5 122.9,288.1 123.1,294.8 123.2,302.4 123.4,310.7 123.5,319.5 123.7,323.6 123.9,314.7 124.0,306.1 124.2,298.1 124.4,291.0 124.5,284.9 124.7,280.0 124.9,276.5 125.0,274.5 125.2,274.0 125.4,275.1 125.5,277.7 125.7,281.7 125.8,287.0 126.0,293.5 126.2,300.9 126.3,309.2 126.5,317.9 126.7,325.2 126.8,316.3 127.0,307.6 127.2,299.5 127.3,292.2 127.5,285.9 127.7,280.8 127.8,277.1 128.0,274.8 128.1,274.0 128.3,274.8 128.5,277.1 128.6,280.8 128.8,285.9 129.0,292.2 129.1,299.5 129.3,307.6 129.5,316.3 129.6,325.2 129.8,317.9 130.0,309.2 130.1,300.9 130.3,293.5 130.4,287.0 130.6,281.7 130.8,277.7 130.9,275.1 131.1,274.0 131.3,274.5 131.4,276.5 131.6,280.0 131.8,284.9 131.9,291.0 132.1,298.1 132.2,306.1 132.4,314.7 132.6,323.6 132.7,319.5 132.9,310.7 133.1,302.4 133.2,294.8 133.4,288.1 133.6,282.5 133.7,278.3 133.9,275.4 134.1,274.1 134.2,274.3 134.4,276.1 134.6,279.3 134.7,283.9 134.9,289.8 135.0,296.8 135.2,304.6 135.4,313.1 135.5,321.9 135.7,321.1 135.9,312.3 136.0,303.9 136.2,296.1 136.4,289.2 136.5,283.5 136.7,278.9 136.9,275.8 137.0,274.2 137.2,274.2 137.3,275.6 137.5,278.6 137.7,283.0 137.8,288.7 138.0,295.4 138.2,303.1 138.3,311.5 138.5,320.3 138.7,322.7 138.8,313.9 139.0,305.3 139.1,297.5 139.3,290.4 139.5,284.4 139.6,279.7 139.8,276.3 140.0,274.4 140.1,274.1 140.3,275.3 140.5,278.0 140.6,282.1 140.8,287.5 141.0,294.1 141.1,301.7 141.3,309.9 141.4,318.7 141.6,324.4 141.8,315.5 141.9,306.9 142.1,298.8 142.3,291.6 142.4,285.4 142.6,280.4 142.8,276.8 142.9,274.6 143.1,274.0 143.3,274.9 143.4,277.4 143.6,281.2 143.8,286.5 143.9,292.9 144.1,300.2 144.2,308.4 144.4,317.1 144.6,326.0 144.7,317.1 144.9,308.4 145.1,300.2 145.2,292.9 145.4,286.5 145.6,281.2 145.7,277.4 145.9,274.9 146.1,274.0 146.2,274.6 146.4,276.8 146.5,280.4 146.7,285.4 146.9,291.6 147.0,298.8 147.2,306.9 147.4,315.5 147.5,324.4 147.7,318.7 147.9,309.9 148.0,301.7 148.2,294.1 148.4,287.5 148.5,282.1 148.7,278.0 148.8,275.3 149.0,274.1 149.2,274.4 149.3,276.3 149.5,279.7 149.7,284.4 149.8,290.4 150.0,297.5 150.2,305.3 150.3,313.9 150.5,322.7 150.7,320.3 150.8,311.5 151.0,303.1 151.1,173.2 151.3,139.3 151.5,111.0 151.6,89.0 151.8,74.2 152.0,66.8 152.1,67.2 152.3,75.2 152.5,90.7 152.6,113.3 152.8,142.2 152.9,176.5 153.1,215.3 153.3,257.4 153.4,301.5 153.6,305.6 153.8,261.3 153.9,219.0 154.1,179.9 154.3,145.1 154.4,115.7 154.6,92.5 154.8,76.3 154.9,67.6 155.1,66.5 155.2,73.2 155.4,87.4 155.6,108.7 155.7,136.5 155.9,169.9 156.1,208.0 156.2,249.5 156.4,293.4 156.6,313.8 156.7,269.3 156.9,226.5 157.1,186.7 157.2,151.0 157.4,120.6 157.6,96.2 157.7,78.7 157.9,68.6 158.0,66.1 158.2,71.4 158.4,84.3 158.5,104.3 158.7,131.0 158.9,163.4 159.0,200.7 159.2,241.8 159.4,285.3 159.5,321.9 159.7,277.3 159.8,234.1 160.0,193.6 160.2,157.1 160.3,125.7 160.5,100.2 160.7,81.4 160.8,69.9 161.0,66.0 161.2,69.9 161.3,81.4 161.5,100.2 161.7,125.7 161.8,157.1 162.0,193.6 162.2,234.1 162.3,277.3 162.5,321.9 162.6,285.3 162.8,241.8 163.0,200.7 163.1,163.4 163.3,131.0 163.5,104.3 163.6,84.3 163.8,71.4 164.0,66.1 164.1,68.6 164.3,78.7 164.4,96.2 164.6,120.6 164.8,151.0 164.9,186.7 165.1,226.5 165.3,269.3 165.4,313.8 165.6,293.4 165.8,249.5 165.9,208.0 166.1,169.9 166.3,136.5 166.4,108.7 166.6,87.4 166.8,73.2 166.9,66.5 167.1,67.6 167.2,76.3 167.4,92.5 167.6,115.7 167.7,145.1 167.9,179.9 168.1,219.0 168.2,261.3 168.4,305.6 168.6,301.5 168.7,257.4 168.9,215.3 169.1,176.5 169.2,142.2 169.4,113.3 169.5,90.7 169.7,75.2 169.9,67.2 170.0,66.8 170.2,74.2 170.4,89.0 170.5,111.0 170.7,139.3 170.9,173.2 171.0,211.6 171.2,253.5 171.4,297.5 171.5,309.7 171.7,265.3 171.8,222.7 172.0,183.3 172.2,148.0 172.3,118.1 172.5,94.3 172.7,77.5 172.8,68.1 173.0,66.3 173.2,72.3 173.3,85.8 173.5,106.5 173.7,133.7 173.8,166.6 174.0,204.3 174.1,245.7 174.3,289.4 174.5,317.8 174.6,273.3 174.8,230.3 175.0,190.2 175.1,154.1 175.3,123.1 175.5,98.2 175.6,80.0 175.8,69.2 176.0,66.0 176.1,70.6 176.3,82.8 176.4,102.2 176.6,128.3 176.8,160.3 176.9,197.2 177.1,237.9 177.3,281.3 177.4,326.0 177.6,281.3 177.8,237.9 177.9,197.2 178.1,160.3 178.3,128.3 178.4,102.2 178.6,82.8 178.7,70.6 178.9,66.0 179.1,69.2 179.2,80.0 179.4,98.2 179.6,123.1 179.7,154.1 179.9,190.2 180.1,230.3 180.2,273.3 180.4,317.8 180.5,289.4 180.7,245.7 180.9,204.3 181.0,166.6 181.2,133.7 181.4,106.5 181.5,85.8 181.7,72.3 181.9,66.3 182.0,68.1 182.2,77.5 182.4,94.3 182.5,118.1 182.7,148.0 182.8,183.3 183.0,222.7 183.2,265.3 183.3,309.7 183.5,297.5 183.7,253.5 183.8,211.6 184.0,173.2 184.2,139.3 184.3,111.0 184.5,89.0 184.7,74.2 184.8,66.8 185.0,67.2 185.2,75.2 185.3,90.7 185.5,113.3 185.6,142.2 185.8,176.5 186.0,215.3 186.1,257.4 186.3,301.5 186.5,305.6 186.6,261.3 186.8,219.0 187.0,179.9 187.1,145.1 187.3,115.7 187.4,92.5 187.6,76.3 187.8,67.6 187.9,66.5 188.1,73.2 188.3,87.4 188.4,108.7 188.6,136.5 188.8,169.9 188.9,208.0 189.1,249.5 189.3,293.4 189.4,313.8 189.6,269.3 189.8,226.5 189.9,186.7 190.1,151.0 190.2,120.6 190.4,96.2 190.6,78.7 190.7,68.6 190.9,66.1 191.1,71.4 191.2,84.3 191.4,104.3 191.6,131.0 191.7,163.4 191.9,200.7 192.1,241.8 192.2,285.3 192.4,321.9 192.5,277.3 192.7,234.1 192.9,193.6 193.0,157.1 193.2,125.7 193.4,100.2 193.5,81.4 193.7,69.9 193.9,66.0 194.0,69.9 194.2,81.4 194.3,100.2 194.5,125.7 194.7,157.1 194.8,193.6 195.0,234.1 195.2,277.3 195.3,321.9 195.5,285.3 195.7,241.8 195.8,200.7 196.0,163.4 196.2,131.0 196.3,104.3 196.5,84.3 196.7,71.4 196.8,66.1 197.0,68.6 197.1,78.7 197.3,96.2 197.5,120.6 197.6,151.0 197.8,186.7 198.0,226.5 198.1,269.3 198.3,313.8 198.5,293.4 198.6,249.5 198.8,208.0 199.0,169.9 199.1,136.5 199.3,108.7 199.4,87.4 199.6,73.2 199.8,66.5 199.9,67.6 200.1,76.3 200.3,92.5 200.4,115.7 200.6,145.1 200.8,179.9 200.9,219.0 201.1,261.3 201.2,305.6 201.4,301.5 201.6,257.4 201.7,215.3 201.9,176.5 202.1,142.2 202.2,113.3 202.4,90.7 202.6,75.2 202.7,67.2 202.9,66.8 203.1,74.2 203.2,89.0 203.4,111.0 203.6,139.3 203.7,173.2 203.9,211.6 204.0,253.5 204.2,297.5 204.4,309.7 204.5,265.3 204.7,222.7 204.9,183.3 205.0,148.0 205.2,118.1 205.4,94.3 205.5,77.5 205.7,68.1 205.9,66.3 206.0,72.3 206.2,85.8 206.3,106.5 206.5,133.7 206.7,166.6 206.8,204.3 207.0,245.7 207.2,289.4 207.3,317.8 207.5,273.3 207.7,230.3 207.8,190.2 208.0,154.1 208.2,123.1 208.3,98.2 208.5,80.0 208.6,69.2 208.8,66.0 209.0,70.6 209.1,82.8 209.3,102.2 209.5,128.3 209.6,160.3 209.8,197.2 210.0,237.9 210.1,281.3 210.3,326.0 210.4,281.3 210.6,237.9 210.8,197.2 210.9,160.3 211.1,128.3 211.3,102.2 211.4,82.8 211.6,70.6 211.8,66.0 211.9,69.2 212.1,80.0 212.3,98.2 212.4,123.1 212.6,154.1 212.8,190.2 212.9,230.3 213.1,273.3 213.2,317.8 213.4,289.4 213.6,245.7 213.7,204.3 213.9,166.6 214.1,133.7 214.2,106.5 214.4,85.8 214.6,72.3 214.7,66.3 214.9,68.1 215.0,77.5 215.2,94.3 215.4,118.1 215.5,148.0 215.7,183.3 215.9,222.7 216.0,265.3 216.2,309.7 216.4,297.5 216.5,253.5 216.7,211.6 216.9,173.2 217.0,139.3 217.2,111.0 217.3,89.0 217.5,74.2 217.7,66.8 217.8,67.2 218.0,75.2 218.2,90.7 218.3,113.3 218.5,142.2 218.7,176.5 218.8,215.3 219.0,257.4 219.2,301.5 219.3,305.6 219.5,261.3 219.7,219.0 219.8,179.9 220.0,145.1 220.1,115.7 220.3,92.5 220.5,76.3 220.6,67.6 220.8,66.5 221.0,73.2 221.1,87.4 221.3,108.7 221.5,136.5 221.6,169.9 221.8,208.0 222.0,249.5 222.1,293.4 222.3,313.8 222.4,269.3 222.6,226.5 222.8,186.7 222.9,151.0 223.1,120.6 223.3,96.2 223.4,78.7 223.6,68.6 223.8,66.1 223.9,71.4 224.1,84.3 224.2,104.3 224.4,131.0 224.6,163.4 224.7,200.7 224.9,241.8 225.1,285.3 225.2,321.9 225.4,277.3 225.6,234.1 225.7,193.6 225.9,157.1 226.1,125.7 226.2,100.2 226.4,81.4 226.6,69.9 226.7,66.0 226.9,69.9 227.0,81.4 227.2,100.2 227.4,125.7 227.5,157.1 227.7,193.6 227.9,234.1 228.0,277.3 228.2,321.9 228.4,285.3 228.5,241.8 228.7,200.7 228.9,163.4 229.0,131.0 229.2,104.3 229.3,84.3 229.5,71.4 229.7,66.1 229.8,68.6 230.0,78.7 230.2,96.2 230.3,120.6 230.5,151.0 230.7,186.7 230.8,226.5 231.0,269.3 231.2,313.8 231.3,293.4 231.5,249.5 231.6,208.0 231.8,169.9 232.0,136.5 232.1,108.7 232.3,87.4 232.5,73.2 232.6,66.5 232.8,67.6 233.0,76.3 233.1,92.5 233.3,115.7 233.5,145.1 233.6,179.9 233.8,219.0 233.9,261.3 234.1,305.6 234.3,301.5 234.4,257.4 234.6,215.3 234.8,176.5 234.9,142.2 235.1,113.3 235.3,90.7 235.4,75.2 235.6,67.2 235.8,66.8 235.9,74.2 236.1,89.0 236.2,111.0 236.4,139.3 236.6,173.2 236.7,211.6 236.9,253.5 237.1,297.5 237.2,309.7 237.4,265.3 237.6,222.7 237.7,183.3 237.9,148.0 238.1,118.1 238.2,94.3 238.4,77.5 238.5,68.1 238.7,66.3 238.9,72.3 239.0,85.8 239.2,106.5 239.4,133.7 239.5,166.6 239.7,204.3 239.9,245.7 240.0,289.4 240.2,317.8 240.4,273.3 240.5,230.3 240.7,190.2 240.8,154.1 241.0,123.1 241.2,98.2 241.3,80.0 241.5,69.2 241.7,66.0 241.8,70.6 242.0,82.8 242.2,102.2 242.3,128.3 242.5,160.3 242.7,197.2 242.8,237.9 243.0,281.3 243.1,326.0 243.3,281.3 243.5,237.9 243.6,197.2 243.8,160.3 244.0,128.3 244.1,102.2 244.3,82.8 244.5,70.6 244.6,66.0 244.8,69.2 245.0,80.0 245.1,98.2 245.3,123.1 245.4,154.1 245.6,190.2 245.8,230.3 245.9,273.3 246.1,317.8 246.3,289.4 246.4,245.7 246.6,204.3 246.8,166.6 246.9,133.7 247.1,106.5 247.3,85.8 247.4,72.3 247.6,66.3 247.7,68.1 247.9,77.5 248.1,94.3 248.2,118.1 248.4,148.0 248.6,183.3 248.7,222.7 248.9,265.3 249.1,309.7 249.2,297.5 249.4,253.5 249.6,211.6 249.7,173.2 249.9,139.3 250.0,111.0 250.2,89.0 250.4,74.2 250.5,66.8 250.7,67.2 250.9,75.2 251.0,90.7 251.2,113.3 251.4,142.2 251.5,176.5 251.7,215.3 251.8,257.4 252.0,301.5 252.2,305.6 252.3,261.3 252.5,219.0 252.7,179.9 252.8,145.1 253.0,115.7 253.2,92.5 253.3,76.3 253.5,67.6 253.7,66.5 253.8,73.2 254.0,87.4 254.2,108.7 254.3,136.5 254.5,169.9 254.6,208.0 254.8,249.5 255.0,293.4 255.1,313.8 255.3,269.3 255.5,226.5 255.6,186.7 255.8,151.0 256.0,120.6 256.1,96.2 256.3,78.7 256.5,68.6 256.6,66.1 256.8,71.4 256.9,84.3 257.1,104.3 257.3,131.0 257.4,163.4 257.6,200.7 257.8,241.8 257.9,285.3 258.1,321.9 258.3,277.3 258.4,234.1 258.6,193.6 258.8,157.1 258.9,125.7 259.1,100.2 259.2,81.4 259.4,69.9 259.6,66.0 259.7,69.9 259.9,81.4 260.1,100.2 260.2,125.7 260.4,157.1 260.6,193.6 260.7,234.1 260.9,277.3 261.1,321.9 261.2,285.3 261.4,241.8 261.5,200.7 261.7,163.4 261.9,131.0 262.0,104.3 262.2,84.3 262.4,71.4 262.5,66.1 262.7,68.6 262.9,78.7 263.0,96.2 263.2,120.6 263.4,151.0 263.5,186.7 263.7,226.5 263.8,269.3 264.0,313.8 264.2,293.4 264.3,249.5 264.5,208.0 264.7,169.9 264.8,136.5 265.0,108.7 265.2,87.4 265.3,73.2 265.5,66.5 265.6,67.6 265.8,76.3 266.0,92.5 266.1,115.7 266.3,145.1 266.5,179.9 266.6,219.0 266.8,261.3 267.0,305.6 267.1,301.5 267.3,257.4 267.5,215.3 267.6,176.5 267.8,142.2 268.0,113.3 268.1,90.7 268.3,75.2 268.4,67.2 268.6,66.8 268.8,74.2 268.9,89.0 269.1,111.0 269.3,139.3 269.4,173.2 269.6,211.6 269.8,253.5 269.9,297.5 270.1,309.7 270.2,265.3 270.4,222.7 270.6,183.3 270.7,148.0 270.9,118.1 271.1,94.3 271.2,77.5 271.4,68.1 271.6,66.3 271.7,72.3 271.9,85.8 272.1,106.5 272.2,133.7 272.4,166.6 272.6,204.3 272.7,245.7 272.9,289.4 273.0,317.8 273.2,273.3 273.4,230.3 273.5,190.2 273.7,154.1 273.9,123.1 274.0,98.2 274.2,80.0 274.4,69.2 274.5,66.0 274.7,70.6 274.9,82.8 275.0,102.2 275.2,128.3 275.3,160.3 275.5,197.2 275.7,237.9 275.8,281.3 276.0,326.0 276.2,281.3 276.3,237.9 276.5,197.2 276.7,160.3 276.8,128.3 277.0,102.2 277.2,82.8 277.3,70.6 277.5,66.0 277.6,69.2 277.8,80.0 278.0,98.2 278.1,123.1 278.3,154.1 278.5,190.2 278.6,230.3 278.8,273.3 279.0,317.8 279.1,289.4 279.3,245.7 279.5,204.3 279.6,166.6 279.8,133.7 279.9,106.5 280.1,85.8 280.3,72.3 280.4,66.3 280.6,68.1 280.8,77.5 280.9,94.3 281.1,118.1 281.3,148.0 281.4,183.3 281.6,222.7 281.8,265.3 281.9,309.7 282.1,297.5 282.2,253.5 282.4,211.6 282.6,295.4 282.7,288.7 282.9,283.0 283.1,278.6 283.2,275.6 283.4,274.2 283.6,274.2 283.7,275.8 283.9,278.9 284.1,283.5 284.2,289.2 284.4,296.1 284.5,303.9 284.7,312.3 284.9,321.1 285.0,321.9 285.2,313.1 285.4,304.6 285.5,296.8 285.7,289.8 285.9,283.9 286.0,279.3 286.2,276.1 286.4,274.3 286.5,274.1 286.7,275.4 286.8,278.3 287.0,282.5 287.2,288.1 287.3,294.8 287.5,302.4 287.7,310.7 287.8,319.5 288.0,323.6 288.2,314.7 288.3,306.1 288.5,298.1 288.7,291.0 288.8,284.9 289.0,280.0 289.1,276.5 289.3,274.5 289.5,274.0 289.6,275.1 289.8,277.7 290.0,281.7 290.1,287.0 290.3,293.5 290.5,300.9 290.6,309.2 290.8,317.9 291.0,325.2 291.1,316.3 291.3,307.6 291.4,299.5 291.6,292.2 291.8,285.9 291.9,280.8 292.1,277.1 292.3,274.8 292.4,274.0 292.6,274.8 292.8,277.1 292.9,280.8 293.1,285.9 293.2,292.2 293.4,299.5 293.6,307.6 293.7,316.3 293.9,325.2 294.1,317.9 294.2,309.2 294.4,300.9 294.6,293.5 294.7,287.0 294.9,281.7 295.1,277.7 295.2,275.1 295.4,274.0 295.5,274.5 295.7,276.5 295.9,280.0 296.0,284.9 296.2,291.0 296.4,298.1 296.5,306.1 296.7,314.7 296.9,323.6 297.0,319.5 297.2,310.7 297.4,302.4 297.5,294.8 297.7,288.1 297.9,282.5 298.0,278.3 298.2,275.4 298.3,274.1 298.5,274.3 298.7,276.1 298.8,279.3 299.0,283.9 299.2,289.8 299.3,296.8 299.5,304.6 299.7,313.1 299.8,321.9 300.0,321.1 300.1,312.3 300.3,303.9 300.5,296.1 300.6,289.2 300.8,283.5 301.0,278.9 301.1,275.8 301.3,274.2 301.5,274.2 301.6,275.6 301.8,278.6 302.0,283.0 302.1,288.7 302.3,295.4 302.4,303.1 302.6,311.5 302.8,320.3 302.9,322.7 303.1,313.9 303.3,305.3 303.4,297.5 303.6,290.4 303.8,284.4 303.9,279.7 304.1,276.3 304.3,274.4 304.4,274.1 304.6,275.3 304.8,278.0 304.9,282.1 305.1,287.5 305.2,294.1 305.4,301.7 305.6,309.9 305.7,318.7 305.9,324.4 306.1,315.5 306.2,306.9 306.4,298.8 306.6,291.6 306.7,285.4 306.9,280.4 307.1,276.8 307.2,274.6 307.4,274.0 307.5,274.9 307.7,277.4 307.9,281.2 308.0,286.5 308.2,292.9 308.4,300.2 308.5,308.4 308.7,317.1 308.9,326.0 309.0,317.1 309.2,308.4 309.4,300.2 309.5,292.9 309.7,286.5 309.8,281.2 310.0,277.4 310.2,274.9 310.3,274.0 310.5,274.6 310.7,276.8 310.8,280.4 311.0,285.4 311.2,291.6 311.3,298.8 311.5,306.9 311.7,315.5 311.8,324.4 312.0,318.7 312.1,309.9 312.3,301.7 312.5,294.1 312.6,287.5 312.8,282.1 313.0,278.0 313.1,275.3 313.3,274.1 313.5,274.4 313.6,276.3 313.8,279.7 313.9,284.4 314.1,290.4 314.3,297.5 314.4,305.3 314.6,313.9 314.8,322.7 314.9,320.3 315.1,311.5 315.3,303.1 315.4,295.4 315.6,288.7 315.8,283.0 315.9,278.6 316.1,275.6 316.2,274.2 316.4,274.2 316.6,275.8 316.7,278.9 316.9,283.5 317.1,289.2 317.2,296.1 317.4,303.9 317.6,312.3 317.7,321.1 317.9,321.9 318.1,313.1 318.2,304.6 318.4,296.8 318.6,289.8 318.7,283.9 318.9,279.3 319.0,276.1 319.2,274.3 319.4,274.1 319.5,275.4 319.7,278.3 319.9,282.5 320.0,288.1 320.2,294.8 320.4,302.4 320.5,310.7 320.7,319.5 320.9,323.6 321.0,314.7 321.2,306.1 321.3,298.1 321.5,291.0 321.7,284.9 321.8,280.0 322.0,276.5 322.2,274.5 322.3,274.0 322.5,275.1 322.7,277.7 322.8,281.7 323.0,287.0 323.2,293.5 323.3,300.9 323.5,309.2 323.6,317.9 323.8,325.2 324.0,316.3 324.1,307.6 324.3,299.5 324.5,292.2 324.6,285.9 324.8,280.8 325.0,277.1 325.1,274.8 325.3,274.0 325.5,274.8 325.6,277.1 325.8,280.8 325.9,285.9 326.1,292.2 326.3,299.5 326.4,307.6 326.6,316.3 326.8,325.2 326.9,317.9 327.1,309.2 327.3,300.9 327.4,293.5 327.6,287.0 327.8,281.7 327.9,277.7 328.1,275.1 328.2,274.0 328.4,274.5 328.6,276.5 328.7,280.0 328.9,284.9 329.1,291.0 329.2,298.1 329.4,306.1 329.6,314.7 329.7,323.6 329.9,319.5 330.1,310.7 330.2,302.4 330.4,294.8 330.5,288.1 330.7,282.5 330.9,278.3 331.0,275.4 331.2,274.1 331.4,274.3 331.5,276.1 331.7,279.3 331.9,283.9 332.0,289.8 332.2,296.8 332.4,304.6 332.5,313.1 332.7,321.9 332.8,321.1 333.0,312.3 333.2,303.9 333.3,296.1 333.5,289.2 333.7,283.5 333.8,278.9 334.0,275.8 334.2,274.2 334.3,274.2 334.5,275.6 334.7,278.6 334.8,283.0 335.0,288.7 335.1,295.4 335.3,303.1 335.5,311.5 335.6,320.3 335.8,322.7 336.0,313.9 336.1,305.3 336.3,297.5 336.5,290.4 336.6,284.4 336.8,279.7 337.0,276.3 337.1,274.4 337.3,274.1 337.4,275.3 337.6,278.0 337.8,282.1 337.9,287.5 338.1,294.1 338.3,301.7 338.4,309.9 338.6,318.7 338.8,324.4 338.9,315.5 339.1,306.9 339.3,298.8 339.4,291.6 339.6,285.4 339.7,280.4 339.9,276.8 340.1,274.6 340.2,274.0 340.4,274.9 340.6,277.4 340.7,281.2 340.9,286.5 341.1,292.9 341.2,300.2 341.4,308.4 341.6,317.1 341.7,326.0 341.9,317.1 342.0,308.4 342.2,300.2 342.4,292.9 342.5,286.5 342.7,281.2 342.9,277.4 343.0,274.9 343.2,274.0 343.4,274.6 343.5,276.8 343.7,280.4 343.9,285.4 344.0,291.6 344.2,298.8 344.3,306.9 344.5,315.5 344.7,324.4 344.8,318.7 345.0,309.9 345.2,301.7 345.3,294.1 345.5,287.5 345.7,282.1 345.8,278.0 346.0,275.3 346.2,274.1 346.3,274.4 346.5,276.3 346.6,279.7 346.8,284.4 347.0,290.4 347.1,297.5 347.3,305.3 347.5,313.9 347.6,322.7 347.8,320.3 348.0,311.5 348.1,303.1 348.3,295.4 348.5,288.7 348.6,283.0 348.8,278.6 348.9,275.6 349.1,274.2 349.3,274.2 349.4,275.8 349.6,278.9 349.8,283.5 349.9,289.2 350.1,296.1 350.3,303.9 350.4,312.3 350.6,321.1 350.8,321.9 350.9,313.1 351.1,304.6 351.2,296.8 351.4,289.8 351.6,283.9 351.7,279.3 351.9,276.1 352.1,274.3 352.2,274.1 352.4,275.4 352.6,278.3 352.7,282.5 352.9,288.1 353.1,294.8 353.2,302.4 353.4,310.7 353.5,319.5 353.7,323.6 353.9,314.7 354.0,306.1 354.2,298.1 354.4,291.0 354.5,284.9 354.7,280.0 354.9,276.5 355.0,274.5 355.2,274.0 355.4,275.1 355.5,277.7 355.7,281.7 355.8,287.0 356.0,293.5 356.2,300.9 356.3,309.2 356.5,317.9 356.7,325.2 356.8,316.3 357.0,307.6 357.2,299.5 357.3,292.2 357.5,285.9 357.7,280.8 357.8,277.1 358.0,274.8 358.1,274.0 358.3,274.8 358.5,277.1 358.6,280.8 358.8,285.9 359.0,292.2 359.1,299.5 359.3,307.6 359.5,316.3 359.6,325.2 359.8,317.9 360.0,309.2 360.1,300.9 360.3,293.5 360.4,287.0 360.6,281.7 360.8,277.7 360.9,275.1 361.1,274.0 361.3,274.5 361.4,276.5 361.6,280.0 361.8,284.9 361.9,291.0 362.1,298.1 362.3,306.1 362.4,314.7 362.6,323.6 362.7,319.5 362.9,310.7 363.1,302.4 363.2,294.8 363.4,288.1 363.6,282.5 363.7,278.3 363.9,275.4 364.1,274.1 364.2,274.3 364.4,276.1 364.6,279.3 364.7,283.9 364.9,289.8 365.0,296.8 365.2,304.6 365.4,313.1 365.5,321.9 365.7,321.1 365.9,312.3 366.0,303.9 366.2,296.1 366.4,289.2 366.5,283.5 366.7,278.9 366.9,275.8 367.0,274.2 367.2,274.2 367.3,275.6 367.5,278.6 367.7,283.0 367.8,288.7 368.0,295.4 368.2,303.1 368.3,311.5 368.5,320.3 368.7,322.7 368.8,313.9 369.0,305.3 369.2,297.5 369.3,290.4 369.5,284.4 369.6,279.7 369.8,276.3 370.0,274.4 370.1,274.1 370.3,275.3 370.5,278.0 370.6,282.1 370.8,287.5 371.0,294.1 371.1,301.7 371.3,309.9 371.5,318.7 371.6,324.4 371.8,315.5 371.9,306.9 372.1,298.8 372.3,291.6 372.4,285.4 372.6,280.4 372.8,276.8 372.9,274.6 373.1,274.0 373.3,274.9 373.4,277.4 373.6,281.2 373.8,286.5 373.9,292.9 374.1,300.2 374.2,308.4 374.4,317.1 374.6,326.0 374.7,317.1 374.9,308.4 375.1,300.2 375.2,292.9 375.4,286.5 375.6,281.2 375.7,277.4 375.9,274.9 376.1,274.0 376.2,274.6 376.4,276.8 376.5,280.4 376.7,285.4 376.9,291.6 377.0,298.8 377.2,306.9 377.4,315.5 377.5,324.4 377.7,318.7 377.9,309.9 378.0,301.7 378.2,294.1 378.4,287.5 378.5,282.1 378.7,278.0 378.8,275.3 379.0,274.1 379.2,274.4 379.3,276.3 379.5,279.7 379.7,284.4 379.8,290.4 380.0,297.5 380.2,305.3 380.3,313.9 380.5,322.7 380.7,320.3 380.8,311.5 381.0,303.1 381.1,295.4 381.3,288.7 381.5,283.0 381.6,278.6 381.8,275.6 382.0,274.2 382.1,274.2 382.3,275.8 382.5,278.9 382.6,283.5 382.8,289.2 383.0,296.1 383.1,303.9 383.3,312.3 383.4,321.1 383.6,321.9 383.8,313.1 383.9,304.6 384.1,296.8 384.3,289.8 384.4,283.9 384.6,279.3 384.8,276.1 384.9,274.3 385.1,274.1 385.2,275.4 385.4,278.3 385.6,282.5 385.7,288.1 385.9,294.8 386.1,302.4 386.2,310.7 386.4,319.5 386.6,323.6 386.7,314.7 386.9,306.1 387.1,298.1 387.2,291.0 387.4,284.9 387.6,280.0 387.7,276.5 387.9,274.5 388.0,274.0 388.2,275.1 388.4,277.7 388.5,281.7 388.7,287.0 388.9,293.5 389.0,300.9 389.2,309.2 389.4,317.9 389.5,325.2 389.7,316.3 389.9,307.6 390.0,299.5 390.2,292.2 390.3,285.9 390.5,280.8 390.7,277.1 390.8,274.8 391.0,274.0 391.2,274.8 391.3,277.1 391.5,280.8 391.7,285.9 391.8,292.2 392.0,299.5 392.2,307.6 392.3,316.3 392.5,325.2 392.6,317.9 392.8,309.2 393.0,300.9 393.1,293.5 393.3,287.0 393.5,281.7 393.6,277.7 393.8,275.1 394.0,274.0 394.1,274.5 394.3,276.5 394.5,280.0 394.6,284.9 394.8,291.0 394.9,298.1 395.1,306.1 395.3,314.7 395.4,323.6 395.6,319.5 395.8,310.7 395.9,302.4 396.1,294.8 396.3,288.1 396.4,282.5 396.6,278.3 396.8,275.4 396.9,274.1 397.1,274.3 397.2,276.1 397.4,279.3 397.6,283.9 397.7,289.8 397.9,296.8 398.1,304.6 398.2,313.1 398.4,321.9 398.6,321.1 398.7,312.3 398.9,303.9 399.1,296.1 399.2,289.2 399.4,283.5 399.5,278.9 399.7,275.8 399.9,274.2 400.0,274.2 400.2,275.6 400.4,278.6 400.5,283.0 400.7,288.7 400.9,295.4 401.0,303.1 401.2,311.5 401.3,320.3 401.5,322.7 401.7,313.9 401.8,305.3 402.0,297.5 402.2,290.4 402.3,284.4 402.5,279.7 402.7,276.3 402.8,274.4 403.0,274.1 403.2,275.3 403.3,278.0 403.5,282.1 403.7,287.5 403.8,294.1 404.0,301.7 404.1,309.9 404.3,318.7 404.5,324.4 404.6,315.5 404.8,306.9 405.0,298.8 405.1,291.6 405.3,285.4 405.5,280.4 405.6,276.8 405.8,274.6 405.9,274.0 406.1,274.9 406.3,277.4 406.4,281.2 406.6,286.5 406.8,292.9 406.9,300.2 407.1,308.4 407.3,317.1 407.4,326.0 407.6,317.1 407.8,308.4 407.9,300.2 408.1,292.9 408.3,286.5 408.4,281.2 408.6,277.4 408.7,274.9 408.9,274.0 409.1,274.6 409.2,276.8 409.4,280.4 409.6,285.4 409.7,291.6 409.9,298.8 410.1,306.9 410.2,315.5 410.4,324.4 410.6,318.7 410.7,309.9 410.9,301.7 411.0,294.1 411.2,287.5 411.4,282.1 411.5,278.0 411.7,275.3 411.9,274.1 412.0,274.4 412.2,276.3 412.4,279.7 412.5,284.4 412.7,290.4 412.9,297.5 413.0,305.3 413.2,313.9 413.3,322.7 413.5,320.3 413.7,311.5 413.8,303.1 414.0,295.4 414.2,288.7 414.3,283.0 414.5,278.6 414.7,275.6 414.8,274.2 415.0,274.2 415.1,275.8 415.3,278.9 415.5,283.5 415.6,289.2 415.8,296.1 416.0,303.9 416.1,312.3 416.3,321.1 416.5,321.9 416.6,313.1 416.8,304.6 417.0,296.8 417.1,289.8 417.3,283.9 417.5,279.3 417.6,276.1 417.8,274.3 417.9,274.1 418.1,275.4 418.3,278.3 418.4,282.5 418.6,288.1 418.8,294.8 418.9,302.4 419.1,310.7 419.3,319.5 419.4,323.6 419.6,314.7 419.8,306.1 419.9,298.1 420.1,291.0 420.2,284.9 420.4,280.0 420.6,276.5 420.7,274.5 420.9,274.0 421.1,275.1 421.2,277.7 421.4,281.7 421.6,287.0 421.7,293.5 421.9,300.9 422.1,309.2 422.2,317.9 422.4,325.2 422.5,316.3 422.7,307.6 422.9,299.5 423.0,292.2 423.2,285.9 423.4,280.8 423.5,277.1 423.7,274.8 423.9,274.0 424.0,274.8 424.2,277.1 424.4,280.8 424.5,285.9 424.7,292.2 424.8,299.5 425.0,307.6 425.2,316.3 425.3,325.2 425.5,317.9 425.7,309.2 425.8,300.9 426.0,293.5 426.2,287.0 426.3,281.7 426.5,277.7 426.7,275.1 426.8,274.0 427.0,274.5 427.1,276.5 427.3,280.0 427.5,284.9 427.6,291.0 427.8,298.1 428.0,306.1 428.1,314.7 428.3,323.6 428.5,319.5 428.6,310.7 428.8,302.4 428.9,294.8 429.1,288.1 429.3,282.5 429.4,278.3 429.6,275.4 429.8,274.1 429.9,274.3 430.1,276.1 430.3,279.3 430.4,283.9 430.6,289.8 430.8,296.8 430.9,304.6 431.1,313.1 431.3,321.9 431.4,321.1 431.6,312.3 431.7,303.9 431.9,296.1 432.1,289.2 432.2,283.5 432.4,278.9 432.6,275.8 432.7,274.2 432.9,274.2 433.1,275.6 433.2,278.6 433.4,283.0 433.6,288.7 433.7,295.4 433.9,303.1 434.0,311.5 434.2,320.3 434.4,322.7 434.5,313.9 434.7,305.3 434.9,297.5 435.0,290.4 435.2,284.4 435.4,279.7 435.5,276.3 435.7,274.4 435.9,274.1 436.0,275.3 436.2,278.0 436.3,282.1 436.5,287.5 436.7,294.1 436.8,301.7 437.0,309.9 437.2,318.7 437.3,324.4 437.5,315.5 437.7,306.9 437.8,298.8 438.0,291.6 438.2,285.4 438.3,280.4 438.5,276.8 438.6,274.6 438.8,274.0 439.0,274.9 439.1,277.4 439.3,281.2 439.5,286.5 439.6,292.9 439.8,300.2 440.0,308.4 440.1,317.1 440.3,326.0 440.4,317.1 440.6,308.4 440.8,300.2 440.9,292.9 441.1,286.5 441.3,281.2 441.4,277.4 441.6,274.9 441.8,274.0 441.9,274.6 442.1,276.8 442.3,280.4 442.4,285.4 442.6,291.6 442.8,298.8 442.9,306.9 443.1,315.5 443.2,324.4 443.4,318.7 443.6,309.9 443.7,301.7 443.9,294.1 444.1,287.5 444.2,282.1 444.4,278.0 444.6,275.3 444.7,274.1 444.9,274.4 445.0,276.3 445.2,279.7 445.4,284.4 445.5,290.4 445.7,297.5 445.9,305.3 446.0,313.9 446.2,322.7 446.4,320.3 446.5,311.5 446.7,303.1 446.9,295.4 447.0,288.7 447.2,283.0 447.4,278.6 447.5,275.6 447.7,274.2 447.8,274.2 448.0,275.8 448.2,278.9 448.3,283.5 448.5,289.2 448.7,296.1 448.8,303.9 449.0,312.3 449.2,321.1 449.3,321.9 449.5,313.1 449.7,304.6 449.8,296.8 450.0,289.8 450.1,283.9 450.3,279.3 450.5,276.1 450.6,274.3 450.8,274.1 451.0,275.4 451.1,278.3 451.3,282.5 451.5,288.1 451.6,294.8 451.8,302.4 452.0,310.7 452.1,319.5 452.3,323.6 452.4,314.7 452.6,306.1 452.8,298.1 452.9,291.0 453.1,284.9 453.3,280.0 453.4,276.5 453.6,274.5 453.8,274.0 453.9,275.1 454.1,277.7 454.3,281.7 454.4,287.0 454.6,293.5 454.7,300.9 454.9,309.2 455.1,317.9 455.2,325.2 455.4,316.3 455.6,307.6 455.7,299.5 455.9,292.2 456.1,285.9 456.2,280.8 456.4,277.1 456.6,274.8 456.7,274.0 456.9,274.8 457.0,277.1 457.2,280.8 457.4,285.9 457.5,292.2 457.7,299.5 457.9,307.6 458.0,316.3 458.2,325.2 458.4,317.9 458.5,309.2 458.7,300.9 458.9,293.5 459.0,287.0 459.2,281.7 459.3,277.7 459.5,275.1 459.7,274.0 459.8,274.5 460.0,276.5 460.2,280.0 460.3,284.9 460.5,291.0 460.7,298.1 460.8,306.1 461.0,314.7 461.2,323.6 461.3,319.5 461.5,310.7 461.6,302.4 461.8,294.8 462.0,288.1 462.1,282.5 462.3,278.3 462.5,275.4 462.6,274.1 462.8,274.3 463.0,276.1 463.1,279.3 463.3,283.9 463.5,289.8 463.6,296.8 463.8,304.6 463.9,313.1 464.1,321.9 464.3,321.1 464.4,312.3 464.6,303.9 464.8,296.1 464.9,289.2 465.1,283.5 465.3,278.9 465.4,275.8 465.6,274.2 465.8,274.2 465.9,275.6 466.1,278.6 466.2,283.0 466.4,288.7 466.6,295.4 466.7,303.1 466.9,311.5 467.1,320.3 467.2,322.7 467.4,313.9 467.6,305.3 467.7,297.5 467.9,290.4 468.1,284.4 468.2,279.7 468.4,276.3 468.5,274.4 468.7,274.1 468.9,275.3 469.0,278.0 469.2,282.1 469.4,287.5 469.5,294.1 469.7,301.7 469.9,309.9 470.0,318.7 470.2,324.4 470.4,315.5 470.5,306.9 470.7,298.8 470.8,291.6 471.0,285.4 471.2,280.4 471.3,276.8 471.5,274.6 471.7,274.0 471.8,274.9 472.0,277.4 472.2,281.2 472.3,286.5 472.5,292.9 472.7,300.2 472.8,308.4 473.0,317.1 473.1,326.0 473.3,317.1 473.5,308.4 473.6,300.2 473.8,292.9 474.0,286.5 474.1,281.2 474.3,277.4 474.5,274.9 474.6,274.0 474.8,274.6 475.0,276.8 475.1,280.4 475.3,285.4 475.4,291.6 475.6,298.8 475.8,306.9 475.9,315.5 476.1,324.4 476.3,318.7 476.4,309.9 476.6,301.7 476.8,294.1 476.9,287.5 477.1,282.1 477.3,278.0 477.4,275.3 477.6,274.1 477.7,274.4 477.9,276.3 478.1,279.7 478.2,284.4 478.4,290.4 478.6,297.5 478.7,305.3 478.9,313.9 479.1,322.7 479.2,320.3 479.4,311.5 479.6,303.1 479.7,295.4 479.9,288.7 480.0,283.0 480.2,278.6 480.4,275.6 480.5,274.2 480.7,274.2 480.9,275.8 481.0,278.9 481.2,283.5 481.4,289.2 481.5,296.1 481.7,303.9 481.9,312.3 482.0,321.1 482.2,321.9 482.3,313.1 482.5,304.6 482.7,296.8 482.8,289.8 483.0,283.9 483.2,279.3 483.3,276.1 483.5,274.3 483.7,274.1 483.8,275.4 484.0,278.3 484.2,282.5 484.3,288.1 484.5,294.8 484.6,302.4 484.8,310.7 485.0,319.5 485.1,323.6 485.3,314.7 485.5,306.1 485.6,298.1 485.8,291.0 486.0,284.9 486.1,280.0 486.3,276.5 486.5,274.5 486.6,274.0 486.8,275.1 486.9,277.7 487.1,281.7 487.3,287.0 487.4,293.5 487.6,300.9 487.8,309.2 487.9,317.9 488.1,325.2 488.3,316.3 488.4,307.6 488.6,299.5 488.8,292.2 488.9,285.9 489.1,280.8 489.2,277.1 489.4,274.8 489.6,274.0 489.7,274.8 489.9,277.1 490.1,280.8 490.2,285.9 490.4,292.2 490.6,299.5 490.7,307.6 490.9,316.3 491.1,325.2 491.2,317.9 491.4,309.2 491.5,300.9 491.7,293.5 491.9,287.0 492.0,281.7 492.2,277.7 492.4,275.1 492.5,274.0 492.7,274.5 492.9,276.5 493.0,280.0 493.2,284.9 493.4,291.0 493.5,298.1 493.7,306.1 493.8,314.7 494.0,323.6 494.2,319.5 494.3,310.7 494.5,302.4 494.7,294.8 494.8,288.1 495.0,282.5 495.2,278.3 495.3,275.4 495.5,274.1 495.7,274.3 495.8,276.1 496.0,279.3 496.1,283.9 496.3,289.8 496.5,296.8 496.6,304.6 496.8,313.1 497.0,321.9 497.1,321.1 497.3,312.3 497.5,303.9 497.6,296.1 497.8,289.2 498.0,283.5 498.1,278.9 498.3,275.8 498.4,274.2 498.6,274.2 498.8,275.6 498.9,278.6 499.1,283.0 499.3,288.7 499.4,295.4 499.6,303.1 499.8,311.5 499.9,320.3 500.1,322.7 500.3,313.9 500.4,305.3 500.6,297.5 500.7,290.4 500.9,284.4 501.1,279.7 501.2,276.3 501.4,274.4 501.6,274.1 501.7,275.3 501.9,278.0 502.1,282.1 502.2,287.5 502.4,294.1 502.6,301.7 502.7,309.9 502.9,318.7 503.0,324.4 503.2,315.5 503.4,306.9 503.5,298.8 503.7,291.6 503.9,285.4 504.0,280.4 504.2,276.8 504.4,274.6 504.5,274.0 504.7,274.9 504.9,277.4 505.0,281.2 505.2,286.5 505.3,292.9 505.5,300.2 505.7,308.4 505.8,317.1 505.8,326.0" fill="#888780" fill-opacity="0.35" stroke="none"/>
<polyline points="46.0,326.0 46.2,325.8 46.3,325.3 46.5,324.7 46.7,323.9 46.8,323.0 47.0,322.0 47.1,320.9 47.3,319.7 47.5,318.6 47.6,317.5 47.8,316.5 48.0,315.6 48.1,314.9 48.3,314.3 48.5,313.9 48.6,313.8 48.8,313.8 49.0,313.8 49.1,313.8 49.3,313.7 49.5,313.4 49.6,312.9 49.8,312.3 49.9,311.6 50.1,310.7 50.3,309.9 50.4,309.0 50.6,308.1 50.8,307.3 50.9,306.6 51.1,306.1 51.3,305.7 51.4,305.5 51.6,305.5 51.8,305.5 51.9,305.6 52.1,305.6 52.2,305.6 52.4,305.6 52.6,305.3 52.7,304.9 52.9,304.4 53.1,303.7 53.2,303.0 53.4,302.3 53.6,301.6 53.7,301.0 53.9,300.4 54.0,300.0 54.2,299.8 54.4,299.7 54.5,299.7 54.7,299.7 54.9,299.8 55.0,299.8 55.2,299.8 55.4,299.9 55.5,299.8 55.7,299.5 55.9,299.2 56.0,298.7 56.2,298.1 56.4,297.5 56.5,296.9 56.7,296.4 56.8,296.0 57.0,295.6 57.2,295.4 57.3,295.4 57.5,295.4 57.7,295.5 57.8,295.5 58.0,295.6 58.2,295.7 58.3,295.7 58.5,295.7 58.6,295.6 58.8,295.3 59.0,294.9 59.1,294.5 59.3,294.0 59.5,293.5 59.6,293.0 59.8,292.7 60.0,292.4 60.1,292.3 60.3,292.3 60.5,292.3 60.6,292.3 60.8,292.4 61.0,292.5 61.1,292.5 61.3,292.6 61.4,292.6 61.6,292.6 61.8,292.4 61.9,292.1 62.1,291.8 62.3,291.3 62.4,290.9 62.6,290.5 62.8,290.2 62.9,289.9 63.1,289.8 63.2,289.9 63.4,289.9 63.6,289.9 63.7,290.0 63.9,290.1 64.1,290.1 64.2,290.2 64.4,290.2 64.6,290.2 64.7,290.1 64.9,289.9 65.1,289.6 65.2,289.3 65.4,288.9 65.5,288.5 65.7,288.2 65.9,288.0 66.0,288.0 66.2,288.0 66.4,288.0 66.5,288.0 66.7,288.1 66.9,288.2 67.0,288.3 67.2,288.3 67.4,288.4 67.5,288.4 67.7,288.4 67.9,288.2 68.0,288.0 68.2,287.7 68.3,287.3 68.5,287.0 68.7,286.8 68.8,286.6 69.0,286.5 69.2,286.5 69.3,286.5 69.5,286.6 69.7,286.6 69.8,286.7 70.0,286.8 70.2,286.9 70.3,286.9 70.5,286.9 70.6,287.0 70.8,286.9 71.0,286.7 71.1,286.4 71.3,286.1 71.5,285.8 71.6,285.6 71.8,285.4 72.0,285.3 72.1,285.3 72.3,285.4 72.5,285.4 72.6,285.5 72.8,285.6 72.9,285.7 73.1,285.7 73.3,285.8 73.4,285.8 73.6,285.8 73.8,285.8 73.9,285.6 74.1,285.4 74.3,285.1 74.4,284.9 74.6,284.6 74.8,284.4 74.9,284.4 75.1,284.4 75.2,284.4 75.4,284.5 75.6,284.5 75.7,284.6 75.9,284.7 76.1,284.8 76.2,284.8 76.4,284.9 76.6,284.9 76.7,284.9 76.9,284.8 77.0,284.6 77.2,284.3 77.4,284.1 77.5,283.9 77.7,283.7 77.9,283.6 78.0,283.7 78.2,283.7 78.4,283.7 78.5,283.8 78.7,283.9 78.9,284.0 79.0,284.0 79.2,284.1 79.3,284.1 79.5,284.2 79.7,284.2 79.8,284.1 80.0,283.9 80.2,283.7 80.3,283.5 80.5,283.3 80.7,283.1 80.8,283.0 81.0,283.0 81.2,283.1 81.3,283.1 81.5,283.2 81.7,283.2 81.8,283.3 82.0,283.4 82.1,283.5 82.3,283.5 82.5,283.6 82.6,283.6 82.8,283.5 83.0,283.4 83.1,283.2 83.3,283.0 83.5,282.8 83.6,282.6 83.8,282.5 84.0,282.5 84.1,282.6 84.3,282.6 84.4,282.7 84.6,282.7 84.8,282.8 84.9,282.9 85.1,283.0 85.3,283.0 85.4,283.1 85.6,283.1 85.8,283.1 85.9,283.0 86.1,282.8 86.2,282.6 86.4,282.4 86.6,282.2 86.7,282.1 86.9,282.1 87.1,282.2 87.2,282.2 87.4,282.2 87.6,282.3 87.7,282.4 87.9,282.5 88.1,282.6 88.2,282.6 88.4,282.7 88.6,282.7 88.7,282.7 88.9,282.6 89.0,282.5 89.2,282.3 89.4,282.1 89.5,281.9 89.7,281.8 89.9,281.8 90.0,281.8 90.2,281.8 90.4,281.9 90.5,282.0 90.7,282.1 90.9,282.2 91.0,282.3 91.2,282.3 91.3,282.4 91.5,282.4 91.7,282.4 91.8,282.3 92.0,282.2 92.2,282.0 92.3,281.8 92.5,281.6 92.7,281.5 92.8,281.5 93.0,281.5 93.2,281.6 93.3,281.6 93.5,281.7 93.6,281.8 93.8,281.9 94.0,282.0 94.1,282.0 94.3,282.1 94.5,282.1 94.6,282.1 94.8,282.1 95.0,282.0 95.1,281.8 95.3,281.6 95.4,281.4 95.6,281.3 95.8,281.3 95.9,281.3 96.1,281.3 96.3,281.4 96.4,281.5 96.6,281.5 96.8,281.6 96.9,281.7 97.1,281.8 97.3,281.9 97.4,281.9 97.6,281.9 97.8,281.9 97.9,281.8 98.1,281.6 98.2,281.4 98.4,281.3 98.6,281.1 98.7,281.1 98.9,281.1 99.1,281.2 99.2,281.2 99.4,281.3 99.6,281.3 99.7,281.4 99.9,281.5 100.1,281.6 100.2,281.7 100.4,281.7 100.5,281.7 100.7,281.7 100.9,281.6 101.0,281.5 101.2,281.3 101.4,281.1 101.5,281.0 101.7,281.0 101.9,281.0 102.0,281.0 102.2,281.0 102.4,281.1 102.5,281.2 102.7,281.3 102.8,281.4 103.0,281.4 103.2,281.5 103.3,281.5 103.5,281.6 103.7,281.6 103.8,281.5 104.0,281.4 104.2,281.2 104.3,281.0 104.5,280.9 104.7,280.8 104.8,280.8 105.0,280.8 105.1,280.9 105.3,280.9 105.5,281.0 105.6,281.1 105.8,281.2 106.0,281.3 106.1,281.4 106.3,281.4 106.5,281.4 106.6,281.4 106.8,281.4 107.0,281.3 107.1,281.1 107.3,280.9 107.4,280.8 107.6,280.7 107.8,280.7 107.9,280.7 108.1,280.8 108.3,280.8 108.4,280.9 108.6,281.0 108.8,281.1 108.9,281.2 109.1,281.2 109.2,281.3 109.4,281.3 109.6,281.3 109.7,281.3 109.9,281.2 110.1,281.0 110.2,280.8 110.4,280.7 110.6,280.6 110.7,280.6 110.9,280.6 111.1,280.7 111.2,280.7 111.4,280.8 111.6,280.9 111.7,281.0 111.9,281.1 112.0,281.1 112.2,281.2 112.4,281.2 112.5,281.2 112.7,281.2 112.9,281.1 113.0,281.0 113.2,280.8 113.4,280.7 113.5,280.6 113.7,280.6 113.8,280.6 114.0,280.6 114.2,280.6 114.3,280.7 114.5,280.8 114.7,280.9 114.8,281.0 115.0,281.1 115.2,281.1 115.3,281.2 115.5,281.2 115.7,281.2 115.8,281.1 116.0,281.0 116.1,280.8 116.3,280.6 116.5,280.5 116.6,280.5 116.8,280.5 117.0,280.5 117.1,280.6 117.3,280.6 117.5,280.7 117.6,280.8 117.8,280.9 118.0,281.0 118.1,281.1 118.3,281.1 118.5,281.1 118.6,281.1 118.8,281.1 118.9,280.9 119.1,280.8 119.3,280.6 119.4,280.5 119.6,280.4 119.8,280.4 119.9,280.5 120.1,280.5 120.3,280.6 120.4,280.6 120.6,280.7 120.8,280.8 120.9,280.9 121.1,281.0 121.2,281.0 121.4,281.0 121.6,281.1 121.7,281.0 121.9,280.9 122.1,280.7 122.2,280.6 122.4,280.4 122.6,280.4 122.7,280.4 122.9,280.4 123.1,280.4 123.2,280.5 123.4,280.6 123.5,280.7 123.7,280.8 123.9,280.9 124.0,280.9 124.2,281.0 124.4,281.0 124.5,281.0 124.7,281.0 124.9,280.9 125.0,280.7 125.2,280.5 125.4,280.4 125.5,280.3 125.7,280.3 125.8,280.4 126.0,280.4 126.2,280.4 126.3,280.5 126.5,280.6 126.7,280.7 126.8,280.8 127.0,280.9 127.2,280.9 127.3,281.0 127.5,281.0 127.7,281.0 127.8,280.9 128.0,280.7 128.1,280.6 128.3,280.4 128.5,280.3 128.6,280.3 128.8,280.3 129.0,280.4 129.1,280.4 129.3,280.5 129.5,280.6 129.6,280.7 129.8,280.8 130.0,280.9 130.1,280.9 130.3,280.9 130.4,280.9 130.6,281.0 130.8,280.9 130.9,280.7 131.1,280.6 131.3,280.4 131.4,280.3 131.6,280.3 131.8,280.3 131.9,280.3 132.1,280.4 132.2,280.5 132.4,280.5 132.6,280.6 132.7,280.7 132.9,280.8 133.1,280.9 133.2,280.9 133.4,280.9 133.6,280.9 133.7,280.9 133.9,280.7 134.1,280.6 134.2,280.4 134.4,280.3 134.6,280.3 134.7,280.3 134.9,280.3 135.0,280.4 135.2,280.4 135.4,280.5 135.5,280.6 135.7,280.7 135.9,280.8 136.0,280.8 136.2,280.9 136.4,280.9 136.5,280.9 136.7,280.9 136.9,280.7 137.0,280.6 137.2,280.4 137.3,280.3 137.5,280.3 137.7,280.3 137.8,280.3 138.0,280.3 138.2,280.4 138.3,280.5 138.5,280.6 138.7,280.7 138.8,280.7 139.0,280.8 139.1,280.8 139.3,280.9 139.5,280.9 139.6,280.8 139.8,280.7 140.0,280.6 140.1,280.4 140.3,280.3 140.5,280.2 140.6,280.2 140.8,280.3 141.0,280.3 141.1,280.3 141.3,280.4 141.4,280.5 141.6,280.6 141.8,280.7 141.9,280.8 142.1,280.8 142.3,280.8 142.4,280.9 142.6,280.8 142.8,280.7 142.9,280.6 143.1,280.4 143.3,280.3 143.4,280.2 143.6,280.2 143.8,280.2 143.9,280.3 144.1,280.3 144.2,280.4 144.4,280.5 144.6,280.6 144.7,280.7 144.9,280.8 145.1,280.8 145.2,280.8 145.4,280.9 145.6,280.9 145.7,280.8 145.9,280.6 146.1,280.5 146.2,280.3 146.4,280.2 146.5,280.2 146.7,280.2 146.9,280.3 147.0,280.3 147.2,280.4 147.4,280.5 147.5,280.6 147.7,280.7 147.9,280.7 148.0,280.8 148.2,280.8 148.4,280.9 148.5,280.9 148.7,280.8 148.8,280.6 149.0,280.5 149.2,280.3 149.3,280.2 149.5,280.2 149.7,280.2 149.8,280.3 150.0,280.3 150.2,280.4 150.3,280.4 150.5,280.6 150.7,280.7 150.8,280.7 151.0,280.8 151.1,278.1 151.3,274.7 151.5,270.7 151.6,266.2 151.8,261.4 152.0,256.6 152.1,251.9 152.3,247.6 152.5,243.7 152.6,240.5 152.8,238.1 152.9,236.5 153.1,236.0 153.3,236.1 153.4,236.2 153.6,236.4 153.8,236.5 153.9,236.0 154.1,234.7 154.3,232.4 154.4,229.6 154.6,226.2 154.8,222.5 154.9,218.6 155.1,214.9 155.2,211.4 155.4,208.3 155.6,205.9 155.7,204.2 155.9,203.3 156.1,203.3 156.2,203.4 156.4,203.7 156.6,203.9 156.7,204.1 156.9,204.2 157.1,203.7 157.2,202.4 157.4,200.4 157.6,197.8 157.7,194.9 157.9,191.8 158.0,188.7 158.2,185.8 158.4,183.3 158.5,181.3 158.7,180.1 158.9,179.7 159.0,179.7 159.2,179.9 159.4,180.1 159.5,180.5 159.7,180.7 159.8,180.9 160.0,180.9 160.2,180.3 160.3,179.0 160.5,177.0 160.7,174.7 160.8,172.1 161.0,169.4 161.2,167.0 161.3,164.9 161.5,163.3 161.7,162.3 161.8,162.2 162.0,162.3 162.2,162.5 162.3,162.8 162.5,163.2 162.6,163.5 162.8,163.7 163.0,163.8 163.1,163.7 163.3,162.9 163.5,161.5 163.6,159.6 163.8,157.4 164.0,155.2 164.1,153.0 164.3,151.2 164.4,149.8 164.6,149.1 164.8,149.1 164.9,149.2 165.1,149.4 165.3,149.7 165.4,150.1 165.6,150.5 165.8,150.7 165.9,150.9 166.1,150.9 166.3,150.5 166.4,149.5 166.6,148.0 166.8,146.1 166.9,144.2 167.1,142.3 167.2,140.6 167.4,139.5 167.6,138.9 167.7,138.9 167.9,139.0 168.1,139.2 168.2,139.5 168.4,139.9 168.6,140.3 168.7,140.6 168.9,140.8 169.1,140.9 169.2,140.9 169.4,140.2 169.5,139.0 169.7,137.4 169.9,135.7 170.0,134.0 170.2,132.5 170.4,131.4 170.5,130.9 170.7,130.9 170.9,131.0 171.0,131.2 171.2,131.5 171.4,132.0 171.5,132.4 171.7,132.7 171.8,133.0 172.0,133.1 172.2,133.1 172.3,132.8 172.5,131.8 172.7,130.5 172.8,128.9 173.0,127.4 173.2,126.0 173.3,125.0 173.5,124.6 173.7,124.6 173.8,124.7 174.0,124.9 174.1,125.2 174.3,125.6 174.5,126.1 174.6,126.4 174.8,126.7 175.0,126.9 175.1,126.9 175.3,126.8 175.5,126.1 175.6,125.0 175.8,123.6 176.0,122.2 176.1,120.9 176.3,120.0 176.4,119.5 176.6,119.6 176.8,119.7 176.9,119.9 177.1,120.2 177.3,120.6 177.4,121.1 177.6,121.5 177.8,121.8 177.9,121.9 178.1,122.0 178.3,122.1 178.4,121.6 178.6,120.6 178.7,119.4 178.9,118.1 179.1,116.9 179.2,115.9 179.4,115.5 179.6,115.5 179.7,115.6 179.9,115.8 180.1,116.1 180.2,116.5 180.4,117.0 180.5,117.4 180.7,117.7 180.9,118.0 181.0,118.1 181.2,118.1 181.4,117.8 181.5,117.0 181.7,115.9 181.9,114.7 182.0,113.6 182.2,112.7 182.4,112.2 182.5,112.2 182.7,112.3 182.8,112.5 183.0,112.8 183.2,113.1 183.3,113.6 183.5,114.1 183.7,114.4 183.8,114.7 184.0,114.8 184.2,114.9 184.3,114.8 184.5,114.2 184.7,113.2 184.8,112.0 185.0,110.9 185.2,110.0 185.3,109.6 185.5,109.6 185.6,109.7 185.8,109.8 186.0,110.1 186.1,110.5 186.3,110.9 186.5,111.4 186.6,111.8 186.8,112.1 187.0,112.2 187.1,112.3 187.3,112.3 187.4,111.8 187.6,111.0 187.8,109.9 187.9,108.8 188.1,107.9 188.3,107.4 188.4,107.4 188.6,107.5 188.8,107.7 188.9,107.9 189.1,108.3 189.3,108.7 189.4,109.2 189.6,109.6 189.8,109.9 189.9,110.1 190.1,110.2 190.2,110.2 190.4,109.9 190.6,109.1 190.7,108.1 190.9,107.1 191.1,106.2 191.2,105.7 191.4,105.6 191.6,105.7 191.7,105.8 191.9,106.1 192.1,106.4 192.2,106.9 192.4,107.4 192.5,107.8 192.7,108.1 192.9,108.4 193.0,108.5 193.2,108.5 193.4,108.3 193.5,107.6 193.7,106.7 193.9,105.7 194.0,104.8 194.2,104.2 194.3,104.1 194.5,104.2 194.7,104.3 194.8,104.6 195.0,104.9 195.2,105.3 195.3,105.8 195.5,106.3 195.7,106.6 195.8,106.9 196.0,107.0 196.2,107.1 196.3,107.0 196.5,106.4 196.7,105.6 196.8,104.6 197.0,103.7 197.1,103.1 197.3,102.9 197.5,103.0 197.6,103.1 197.8,103.3 198.0,103.6 198.1,104.0 198.3,104.5 198.5,105.0 198.6,105.4 198.8,105.6 199.0,105.8 199.1,105.9 199.3,105.9 199.4,105.4 199.6,104.6 199.8,103.7 199.9,102.8 200.1,102.1 200.3,101.9 200.4,101.9 200.6,102.0 200.8,102.2 200.9,102.5 201.1,102.9 201.2,103.4 201.4,103.9 201.6,104.3 201.7,104.6 201.9,104.8 202.1,104.9 202.2,104.9 202.4,104.5 202.6,103.8 202.7,102.9 202.9,102.0 203.1,101.3 203.2,101.0 203.4,101.0 203.6,101.1 203.7,101.3 203.9,101.6 204.0,102.0 204.2,102.5 204.4,103.0 204.5,103.4 204.7,103.7 204.9,103.9 205.0,104.0 205.2,104.0 205.4,103.8 205.5,103.1 205.7,102.3 205.9,101.4 206.0,100.7 206.2,100.3 206.3,100.3 206.5,100.4 206.7,100.6 206.8,100.8 207.0,101.2 207.2,101.7 207.3,102.2 207.5,102.6 207.7,102.9 207.8,103.2 208.0,103.3 208.2,103.3 208.3,103.2 208.5,102.6 208.6,101.8 208.8,100.9 209.0,100.2 209.1,99.7 209.3,99.8 209.5,99.8 209.6,100.0 209.8,100.2 210.0,100.6 210.1,101.0 210.3,101.6 210.4,102.0 210.6,102.4 210.8,102.6 210.9,102.7 211.1,102.8 211.3,102.8 211.4,102.3 211.6,101.5 211.8,100.6 211.9,99.9 212.1,99.4 212.3,99.3 212.4,99.4 212.6,99.5 212.8,99.8 212.9,100.1 213.1,100.5 213.2,101.1 213.4,101.5 213.6,101.9 213.7,102.2 213.9,102.3 214.1,102.4 214.2,102.4 214.4,102.0 214.6,101.3 214.7,100.4 214.9,99.6 215.0,99.0 215.2,98.9 215.4,99.0 215.5,99.1 215.7,99.3 215.9,99.6 216.0,100.0 216.2,100.6 216.4,101.1 216.5,101.4 216.7,101.7 216.9,101.9 217.0,102.0 217.2,102.0 217.3,101.7 217.5,101.0 217.7,100.2 217.8,99.3 218.0,98.7 218.2,98.5 218.3,98.6 218.5,98.7 218.7,98.9 218.8,99.2 219.0,99.6 219.2,100.1 219.3,100.6 219.5,101.0 219.7,101.3 219.8,101.5 220.0,101.6 220.1,101.6 220.3,101.4 220.5,100.8 220.6,100.0 220.8,99.1 221.0,98.5 221.1,98.2 221.3,98.2 221.5,98.3 221.6,98.5 221.8,98.8 222.0,99.2 222.1,99.7 222.3,100.2 222.4,100.6 222.6,100.9 222.8,101.1 222.9,101.3 223.1,101.3 223.3,101.2 223.4,100.6 223.6,99.8 223.8,99.0 223.9,98.3 224.1,98.0 224.2,98.0 224.4,98.1 224.6,98.2 224.7,98.5 224.9,98.9 225.1,99.3 225.2,99.9 225.4,100.3 225.6,100.7 225.7,100.9 225.9,101.0 226.1,101.1 226.2,101.1 226.4,100.6 226.6,99.8 226.7,99.0 226.9,98.3 227.0,97.9 227.2,97.9 227.4,97.9 227.5,98.1 227.7,98.3 227.9,98.7 228.0,99.1 228.2,99.7 228.4,100.1 228.5,100.5 228.7,100.7 228.9,100.9 229.0,101.0 229.2,101.0 229.3,100.5 229.5,99.8 229.7,99.0 229.8,98.2 230.0,97.8 230.2,97.7 230.3,97.8 230.5,97.9 230.7,98.1 230.8,98.5 231.0,98.9 231.2,99.4 231.3,99.9 231.5,100.3 231.6,100.5 231.8,100.7 232.0,100.8 232.1,100.8 232.3,100.5 232.5,99.8 232.6,99.0 232.8,98.2 233.0,97.7 233.1,97.6 233.3,97.6 233.5,97.7 233.6,97.9 233.8,98.2 233.9,98.6 234.1,99.2 234.3,99.7 234.4,100.1 234.6,100.3 234.8,100.5 234.9,100.6 235.1,100.7 235.3,100.4 235.4,99.8 235.6,99.0 235.8,98.2 235.9,97.6 236.1,97.4 236.2,97.4 236.4,97.5 236.6,97.7 236.7,98.0 236.9,98.4 237.1,98.9 237.2,99.4 237.4,99.8 237.6,100.1 237.7,100.3 237.9,100.5 238.1,100.5 238.2,100.4 238.4,99.8 238.5,99.0 238.7,98.2 238.9,97.6 239.0,97.3 239.2,97.3 239.4,97.4 239.5,97.6 239.7,97.8 239.9,98.2 240.0,98.7 240.2,99.2 240.4,99.6 240.5,100.0 240.7,100.2 240.8,100.3 241.0,100.4 241.2,100.3 241.3,99.8 241.5,99.1 241.7,98.3 241.8,97.6 242.0,97.2 242.2,97.2 242.3,97.3 242.5,97.5 242.7,97.7 242.8,98.1 243.0,98.5 243.1,99.1 243.3,99.5 243.5,99.9 243.6,100.1 243.8,100.3 244.0,100.4 244.1,100.4 244.3,99.9 244.5,99.2 244.6,98.4 244.8,97.7 245.0,97.2 245.1,97.2 245.3,97.3 245.4,97.4 245.6,97.7 245.8,98.0 245.9,98.4 246.1,99.0 246.3,99.5 246.4,99.8 246.6,100.1 246.8,100.2 246.9,100.3 247.1,100.3 247.3,100.0 247.4,99.3 247.6,98.5 247.7,97.7 247.9,97.2 248.1,97.2 248.2,97.2 248.4,97.3 248.6,97.6 248.7,97.9 248.9,98.3 249.1,98.8 249.2,99.3 249.4,99.7 249.6,100.0 249.7,100.2 249.9,100.3 250.0,100.3 250.2,100.0 250.4,99.4 250.5,98.6 250.7,97.8 250.9,97.2 251.0,97.1 251.2,97.1 251.4,97.2 251.5,97.4 251.7,97.7 251.8,98.1 252.0,98.6 252.2,99.1 252.3,99.5 252.5,99.8 252.7,100.0 252.8,100.2 253.0,100.2 253.2,100.0 253.3,99.4 253.5,98.6 253.7,97.8 253.8,97.2 254.0,97.0 254.2,97.0 254.3,97.1 254.5,97.3 254.6,97.6 254.8,98.0 255.0,98.4 255.1,99.0 255.3,99.4 255.5,99.7 255.6,99.9 255.8,100.1 256.0,100.1 256.1,100.0 256.3,99.5 256.5,98.7 256.6,97.9 256.8,97.3 256.9,97.0 257.1,97.0 257.3,97.1 257.4,97.2 257.6,97.5 257.8,97.8 257.9,98.3 258.1,98.9 258.3,99.3 258.4,99.6 258.6,99.9 258.8,100.0 258.9,100.1 259.1,100.1 259.2,99.6 259.4,98.9 259.6,98.1 259.7,97.4 259.9,97.0 260.1,97.0 260.2,97.1 260.4,97.2 260.6,97.5 260.7,97.8 260.9,98.2 261.1,98.8 261.2,99.3 261.4,99.6 261.5,99.9 261.7,100.0 261.9,100.1 262.0,100.1 262.2,99.7 262.4,99.0 262.5,98.2 262.7,97.5 262.9,97.0 263.0,97.0 263.2,97.1 263.4,97.2 263.5,97.4 263.7,97.7 263.8,98.2 264.0,98.7 264.2,99.2 264.3,99.6 264.5,99.8 264.7,100.0 264.8,100.1 265.0,100.1 265.2,99.8 265.3,99.2 265.5,98.4 265.6,97.6 265.8,97.1 266.0,97.0 266.1,97.0 266.3,97.1 266.5,97.3 266.6,97.6 266.8,98.0 267.0,98.6 267.1,99.1 267.3,99.5 267.5,99.8 267.6,99.9 267.8,100.0 268.0,100.1 268.1,99.9 268.3,99.2 268.4,98.5 268.6,97.7 268.8,97.1 268.9,96.9 269.1,96.9 269.3,97.0 269.4,97.2 269.6,97.5 269.8,97.9 269.9,98.4 270.1,98.9 270.2,99.3 270.4,99.6 270.6,99.9 270.7,100.0 270.9,100.0 271.1,99.9 271.2,99.3 271.4,98.6 271.6,97.8 271.7,97.1 271.9,96.8 272.1,96.9 272.2,97.0 272.4,97.1 272.6,97.4 272.7,97.8 272.9,98.3 273.0,98.8 273.2,99.2 273.4,99.6 273.5,99.8 273.7,99.9 273.9,100.0 274.0,99.9 274.2,99.4 274.4,98.7 274.5,97.9 274.7,97.2 274.9,96.9 275.0,96.9 275.2,97.0 275.3,97.1 275.5,97.4 275.7,97.7 275.8,98.2 276.0,98.7 276.2,99.2 276.3,99.5 276.5,99.8 276.7,99.9 276.8,100.0 277.0,100.0 277.2,99.6 277.3,98.9 277.5,98.1 277.6,97.4 277.8,96.9 278.0,96.9 278.1,97.0 278.3,97.1 278.5,97.4 278.6,97.7 278.8,98.1 279.0,98.7 279.1,99.2 279.3,99.5 279.5,99.8 279.6,100.0 279.8,100.0 279.9,100.1 280.1,99.7 280.3,99.0 280.4,98.2 280.6,97.5 280.8,97.0 280.9,96.9 281.1,97.0 281.3,97.1 281.4,97.3 281.6,97.6 281.8,98.0 281.9,98.6 282.1,99.1 282.2,99.5 282.4,99.7 282.6,100.2 282.7,100.7 282.9,101.1 283.1,101.6 283.2,102.0 283.4,102.5 283.6,102.9 283.7,103.3 283.9,103.8 284.1,104.2 284.2,104.7 284.4,105.1 284.5,105.6 284.7,106.2 284.9,106.7 285.0,107.2 285.2,107.7 285.4,108.2 285.5,108.7 285.7,109.2 285.9,109.6 286.0,110.0 286.2,110.4 286.4,110.8 286.5,111.2 286.7,111.7 286.8,112.1 287.0,112.5 287.2,112.9 287.3,113.4 287.5,113.9 287.7,114.4 287.8,114.9 288.0,115.4 288.2,115.9 288.3,116.4 288.5,116.8 288.7,117.3 288.8,117.7 289.0,118.1 289.1,118.5 289.3,118.9 289.5,119.2 289.6,119.6 289.8,120.0 290.0,120.4 290.1,120.9 290.3,121.3 290.5,121.7 290.6,122.2 290.8,122.7 291.0,123.2 291.1,123.7 291.3,124.1 291.4,124.6 291.6,125.0 291.8,125.4 291.9,125.8 292.1,126.2 292.3,126.5 292.4,126.9 292.6,127.3 292.8,127.6 292.9,128.0 293.1,128.4 293.2,128.8 293.4,129.3 293.6,129.7 293.7,130.2 293.9,130.7 294.1,131.1 294.2,131.6 294.4,132.0 294.6,132.4 294.7,132.8 294.9,133.1 295.1,133.5 295.2,133.9 295.4,134.2 295.5,134.6 295.7,134.9 295.9,135.3 296.0,135.7 296.2,136.0 296.4,136.4 296.5,136.9 296.7,137.3 296.9,137.8 297.0,138.2 297.2,138.7 297.4,139.1 297.5,139.5 297.7,139.8 297.9,140.2 298.0,140.5 298.2,140.9 298.3,141.2 298.5,141.5 298.7,141.9 298.8,142.2 299.0,142.6 299.2,142.9 299.3,143.3 299.5,143.7 299.7,144.1 299.8,144.6 300.0,145.0 300.1,145.4 300.3,145.8 300.5,146.2 300.6,146.6 300.8,146.9 301.0,147.2 301.1,147.6 301.3,147.9 301.5,148.2 301.6,148.5 301.8,148.8 302.0,149.2 302.1,149.5 302.3,149.9 302.4,150.3 302.6,150.7 302.8,151.1 302.9,151.5 303.1,151.9 303.3,152.3 303.4,152.7 303.6,153.0 303.8,153.3 303.9,153.7 304.1,154.0 304.3,154.3 304.4,154.6 304.6,154.9 304.8,155.2 304.9,155.5 305.1,155.8 305.2,156.2 305.4,156.5 305.6,156.9 305.7,157.3 305.9,157.7 306.1,158.1 306.2,158.5 306.4,158.9 306.6,159.2 306.7,159.5 306.9,159.8 307.1,160.1 307.2,160.4 307.4,160.7 307.5,160.9 307.7,161.2 307.9,161.5 308.0,161.9 308.2,162.2 308.4,162.5 308.5,162.9 308.7,163.3 308.9,163.7 309.0,164.1 309.2,164.4 309.4,164.8 309.5,165.1 309.7,165.4 309.8,165.7 310.0,166.0 310.2,166.2 310.3,166.5 310.5,166.8 310.7,167.0 310.8,167.3 311.0,167.6 311.2,167.9 311.3,168.3 311.5,168.6 311.7,169.0 311.8,169.4 312.0,169.7 312.1,170.1 312.3,170.4 312.5,170.7 312.6,171.0 312.8,171.3 313.0,171.5 313.1,171.8 313.3,172.1 313.5,172.3 313.6,172.6 313.8,172.8 313.9,173.1 314.1,173.4 314.3,173.7 314.4,174.1 314.6,174.4 314.8,174.8 314.9,175.1 315.1,175.5 315.3,175.8 315.4,176.1 315.6,176.4 315.8,176.6 315.9,176.9 316.1,177.1 316.2,177.4 316.4,177.6 316.6,177.9 316.7,178.1 316.9,178.4 317.1,178.7 317.2,179.0 317.4,179.3 317.6,179.6 317.7,180.0 317.9,180.3 318.1,180.6 318.2,181.0 318.4,181.2 318.6,181.5 318.7,181.8 318.9,182.0 319.0,182.2 319.2,182.5 319.4,182.7 319.5,182.9 319.7,183.2 319.9,183.4 320.0,183.7 320.2,184.0 320.4,184.3 320.5,184.6 320.7,184.9 320.9,185.3 321.0,185.6 321.2,185.9 321.3,186.2 321.5,186.4 321.7,186.7 321.8,186.9 322.0,187.1 322.2,187.3 322.3,187.6 322.5,187.8 322.7,188.0 322.8,188.2 323.0,188.5 323.2,188.7 323.3,189.0 323.5,189.3 323.6,189.6 323.8,190.0 324.0,190.3 324.1,190.6 324.3,190.9 324.5,191.1 324.6,191.4 324.8,191.6 325.0,191.8 325.1,192.0 325.3,192.2 325.5,192.4 325.6,192.6 325.8,192.8 325.9,193.1 326.1,193.3 326.3,193.6 326.4,193.9 326.6,194.2 326.8,194.5 326.9,194.8 327.1,195.1 327.3,195.4 327.4,195.6 327.6,195.8 327.8,196.0 327.9,196.3 328.1,196.4 328.2,196.6 328.4,196.8 328.6,197.0 328.7,197.2 328.9,197.5 329.1,197.7 329.2,197.9 329.4,198.2 329.6,198.5 329.7,198.8 329.9,199.1 330.1,199.4 330.2,199.7 330.4,199.9 330.5,200.1 330.7,200.3 330.9,200.5 331.0,200.7 331.2,200.9 331.4,201.1 331.5,201.3 331.7,201.5 331.9,201.7 332.0,201.9 332.2,202.1 332.4,202.4 332.5,202.6 332.7,202.9 332.8,203.2 333.0,203.5 333.2,203.8 333.3,204.0 333.5,204.2 333.7,204.4 333.8,204.6 334.0,204.8 334.2,204.9 334.3,205.1 334.5,205.3 334.7,205.5 334.8,205.7 335.0,205.9 335.1,206.1 335.3,206.3 335.5,206.6 335.6,206.9 335.8,207.2 336.0,207.4 336.1,207.7 336.3,207.9 336.5,208.1 336.6,208.3 336.8,208.5 337.0,208.7 337.1,208.8 337.3,209.0 337.4,209.1 337.6,209.3 337.8,209.5 337.9,209.7 338.1,209.9 338.3,210.1 338.4,210.4 338.6,210.7 338.8,210.9 338.9,211.2 339.1,211.4 339.3,211.7 339.4,211.9 339.6,212.0 339.7,212.2 339.9,212.4 340.1,212.5 340.2,212.7 340.4,212.8 340.6,213.0 340.7,213.2 340.9,213.4 341.1,213.5 341.2,213.8 341.4,214.0 341.6,214.3 341.7,214.5 341.9,214.8 342.0,215.0 342.2,215.2 342.4,215.4 342.5,215.6 342.7,215.8 342.9,215.9 343.0,216.1 343.2,216.2 343.4,216.4 343.5,216.5 343.7,216.7 343.9,216.8 344.0,217.0 344.2,217.2 344.3,217.5 344.5,217.7 344.7,218.0 344.8,218.2 345.0,218.5 345.2,218.7 345.3,218.9 345.5,219.0 345.7,219.2 345.8,219.3 346.0,219.5 346.2,219.6 346.3,219.7 346.5,219.9 346.6,220.0 346.8,220.2 347.0,220.4 347.1,220.6 347.3,220.8 347.5,221.0 347.6,221.3 347.8,221.5 348.0,221.7 348.1,221.9 348.3,222.1 348.5,222.3 348.6,222.4 348.8,222.6 348.9,222.7 349.1,222.8 349.3,223.0 349.4,223.1 349.6,223.2 349.8,223.4 349.9,223.5 350.1,223.7 350.3,223.9 350.4,224.2 350.6,224.4 350.8,224.6 350.9,224.9 351.1,225.1 351.2,225.2 351.4,225.4 351.6,225.5 351.7,225.7 351.9,225.8 352.1,225.9 352.2,226.0 352.4,226.2 352.6,226.3 352.7,226.4 352.9,226.6 353.1,226.8 353.2,227.0 353.4,227.2 353.5,227.4 353.7,227.6 353.9,227.8 354.0,228.0 354.2,228.2 354.4,228.4 354.5,228.5 354.7,228.6 354.9,228.8 355.0,228.9 355.2,229.0 355.4,229.1 355.5,229.2 355.7,229.4 355.8,229.5 356.0,229.7 356.2,229.8 356.3,230.0 356.5,230.3 356.7,230.5 356.8,230.7 357.0,230.9 357.2,231.1 357.3,231.2 357.5,231.4 357.7,231.5 357.8,231.6 358.0,231.7 358.1,231.8 358.3,231.9 358.5,232.0 358.6,232.2 358.8,232.3 359.0,232.4 359.1,232.6 359.3,232.8 359.5,233.0 359.6,233.2 359.8,233.4 360.0,233.6 360.1,233.8 360.3,233.9 360.4,234.1 360.6,234.2 360.8,234.3 360.9,234.4 361.1,234.5 361.3,234.6 361.4,234.7 361.6,234.8 361.8,235.0 361.9,235.1 362.1,235.3 362.3,235.4 362.4,235.6 362.6,235.8 362.7,236.1 362.9,236.2 363.1,236.4 363.2,236.6 363.4,236.7 363.6,236.8 363.7,236.9 363.9,237.0 364.1,237.1 364.2,237.2 364.4,237.3 364.6,237.4 364.7,237.5 364.9,237.6 365.0,237.8 365.2,237.9 365.4,238.1 365.5,238.3 365.7,238.5 365.9,238.7 366.0,238.9 366.2,239.0 366.4,239.2 366.5,239.3 366.7,239.4 366.9,239.5 367.0,239.5 367.2,239.6 367.3,239.7 367.5,239.8 367.7,239.9 367.8,240.1 368.0,240.2 368.2,240.3 368.3,240.5 368.5,240.7 368.7,240.9 368.8,241.1 369.0,241.3 369.2,241.4 369.3,241.5 369.5,241.6 369.6,241.7 369.8,241.8 370.0,241.9 370.1,242.0 370.3,242.1 370.5,242.2 370.6,242.3 370.8,242.4 371.0,242.5 371.1,242.6 371.3,242.8 371.5,243.0 371.6,243.2 371.8,243.4 371.9,243.5 372.1,243.7 372.3,243.8 372.4,243.9 372.6,244.0 372.8,244.1 372.9,244.2 373.1,244.2 373.3,244.3 373.4,244.4 373.6,244.5 373.8,244.6 373.9,244.7 374.1,244.8 374.2,245.0 374.4,245.2 374.6,245.4 374.7,245.6 374.9,245.7 375.1,245.9 375.2,246.0 375.4,246.1 375.6,246.2 375.7,246.2 375.9,246.3 376.1,246.4 376.2,246.5 376.4,246.5 376.5,246.6 376.7,246.7 376.9,246.8 377.0,247.0 377.2,247.1 377.4,247.3 377.5,247.5 377.7,247.6 377.9,247.8 378.0,247.9 378.2,248.0 378.4,248.1 378.5,248.2 378.7,248.3 378.8,248.4 379.0,248.4 379.2,248.5 379.3,248.6 379.5,248.7 379.7,248.7 379.8,248.8 380.0,249.0 380.2,249.1 380.3,249.3 380.5,249.5 380.7,249.6 380.8,249.8 381.0,249.9 381.1,250.0 381.3,250.1 381.5,250.2 381.6,250.3 381.8,250.3 382.0,250.4 382.1,250.5 382.3,250.5 382.5,250.6 382.6,250.7 382.8,250.8 383.0,250.9 383.1,251.0 383.3,251.2 383.4,251.3 383.6,251.5 383.8,251.7 383.9,251.8 384.1,251.9 384.3,252.0 384.4,252.1 384.6,252.2 384.8,252.2 384.9,252.3 385.1,252.3 385.2,252.4 385.4,252.5 385.6,252.5 385.7,252.6 385.9,252.7 386.1,252.8 386.2,253.0 386.4,253.2 386.6,253.3 386.7,253.5 386.9,253.6 387.1,253.7 387.2,253.8 387.4,253.9 387.6,254.0 387.7,254.0 387.9,254.1 388.0,254.1 388.2,254.2 388.4,254.2 388.5,254.3 388.7,254.4 388.9,254.5 389.0,254.6 389.2,254.7 389.4,254.9 389.5,255.1 389.7,255.2 389.9,255.4 390.0,255.5 390.2,255.6 390.3,255.6 390.5,255.7 390.7,255.7 390.8,255.8 391.0,255.8 391.2,255.9 391.3,255.9 391.5,256.0 391.7,256.1 391.8,256.2 392.0,256.3 392.2,256.4 392.3,256.6 392.5,256.7 392.6,256.9 392.8,257.0 393.0,257.1 393.1,257.2 393.3,257.3 393.5,257.3 393.6,257.4 393.8,257.4 394.0,257.5 394.1,257.5 394.3,257.6 394.5,257.6 394.6,257.7 394.8,257.8 394.9,257.9 395.1,258.0 395.3,258.1 395.4,258.3 395.6,258.5 395.8,258.6 395.9,258.7 396.1,258.8 396.3,258.9 396.4,258.9 396.6,259.0 396.8,259.0 396.9,259.0 397.1,259.1 397.2,259.1 397.4,259.2 397.6,259.2 397.7,259.3 397.9,259.4 398.1,259.5 398.2,259.7 398.4,259.8 398.6,260.0 398.7,260.1 398.9,260.2 399.1,260.3 399.2,260.4 399.4,260.4 399.5,260.5 399.7,260.5 399.9,260.5 400.0,260.6 400.2,260.6 400.4,260.7 400.5,260.7 400.7,260.8 400.9,260.9 401.0,261.0 401.2,261.1 401.3,261.2 401.5,261.4 401.7,261.5 401.8,261.6 402.0,261.7 402.2,261.8 402.3,261.9 402.5,261.9 402.7,261.9 402.8,262.0 403.0,262.0 403.2,262.0 403.3,262.1 403.5,262.1 403.7,262.2 403.8,262.3 404.0,262.4 404.1,262.5 404.3,262.6 404.5,262.8 404.6,262.9 404.8,263.0 405.0,263.1 405.1,263.2 405.3,263.2 405.5,263.3 405.6,263.3 405.8,263.3 405.9,263.4 406.1,263.4 406.3,263.4 406.4,263.5 406.6,263.5 406.8,263.6 406.9,263.7 407.1,263.8 407.3,263.9 407.4,264.1 407.6,264.2 407.8,264.3 407.9,264.4 408.1,264.5 408.3,264.6 408.4,264.6 408.6,264.6 408.7,264.7 408.9,264.7 409.1,264.7 409.2,264.7 409.4,264.8 409.6,264.8 409.7,264.9 409.9,265.0 410.1,265.1 410.2,265.2 410.4,265.4 410.6,265.5 410.7,265.6 410.9,265.7 411.0,265.8 411.2,265.8 411.4,265.9 411.5,265.9 411.7,265.9 411.9,265.9 412.0,265.9 412.2,266.0 412.4,266.0 412.5,266.1 412.7,266.1 412.9,266.2 413.0,266.3 413.2,266.4 413.3,266.6 413.5,266.7 413.7,266.8 413.8,266.9 414.0,267.0 414.2,267.0 414.3,267.1 414.5,267.1 414.7,267.1 414.8,267.1 415.0,267.1 415.1,267.2 415.3,267.2 415.5,267.2 415.6,267.3 415.8,267.4 416.0,267.4 416.1,267.6 416.3,267.7 416.5,267.8 416.6,267.9 416.8,268.0 417.0,268.1 417.1,268.2 417.3,268.2 417.5,268.2 417.6,268.2 417.8,268.3 417.9,268.3 418.1,268.3 418.3,268.3 418.4,268.4 418.6,268.4 418.8,268.5 418.9,268.6 419.1,268.7 419.3,268.8 419.4,268.9 419.6,269.0 419.8,269.1 419.9,269.2 420.1,269.3 420.2,269.3 420.4,269.3 420.6,269.3 420.7,269.4 420.9,269.4 421.1,269.4 421.2,269.4 421.4,269.4 421.6,269.5 421.7,269.5 421.9,269.6 422.1,269.7 422.2,269.8 422.4,270.0 422.5,270.1 422.7,270.2 422.9,270.3 423.0,270.3 423.2,270.3 423.4,270.4 423.5,270.4 423.7,270.4 423.9,270.4 424.0,270.4 424.2,270.4 424.4,270.5 424.5,270.5 424.7,270.6 424.8,270.6 425.0,270.7 425.2,270.8 425.3,271.0 425.5,271.1 425.7,271.2 425.8,271.3 426.0,271.3 426.2,271.4 426.3,271.4 426.5,271.4 426.7,271.4 426.8,271.4 427.0,271.4 427.1,271.4 427.3,271.5 427.5,271.5 427.6,271.5 427.8,271.6 428.0,271.7 428.1,271.8 428.3,271.9 428.5,272.0 428.6,272.1 428.8,272.2 428.9,272.3 429.1,272.3 429.3,272.3 429.4,272.3 429.6,272.4 429.8,272.4 429.9,272.4 430.1,272.4 430.3,272.4 430.4,272.4 430.6,272.5 430.8,272.5 430.9,272.6 431.1,272.7 431.3,272.8 431.4,272.9 431.6,273.0 431.7,273.1 431.9,273.2 432.1,273.2 432.2,273.2 432.4,273.3 432.6,273.3 432.7,273.3 432.9,273.3 433.1,273.3 433.2,273.3 433.4,273.3 433.6,273.4 433.7,273.4 433.9,273.5 434.0,273.6 434.2,273.7 434.4,273.8 434.5,273.9 434.7,274.0 434.9,274.1 435.0,274.1 435.2,274.1 435.4,274.1 435.5,274.1 435.7,274.1 435.9,274.1 436.0,274.1 436.2,274.2 436.3,274.2 436.5,274.2 436.7,274.3 436.8,274.3 437.0,274.4 437.2,274.5 437.3,274.6 437.5,274.7 437.7,274.8 437.8,274.9 438.0,274.9 438.2,275.0 438.3,275.0 438.5,275.0 438.6,275.0 438.8,274.9 439.0,274.9 439.1,274.9 439.3,275.0 439.5,275.0 439.6,275.0 439.8,275.1 440.0,275.2 440.1,275.3 440.3,275.4 440.4,275.5 440.6,275.6 440.8,275.7 440.9,275.7 441.1,275.7 441.3,275.7 441.4,275.8 441.6,275.7 441.8,275.7 441.9,275.7 442.1,275.7 442.3,275.7 442.4,275.7 442.6,275.7 442.8,275.8 442.9,275.9 443.1,276.0 443.2,276.1 443.4,276.2 443.6,276.3 443.7,276.3 443.9,276.4 444.1,276.4 444.2,276.4 444.4,276.4 444.6,276.4 444.7,276.4 444.9,276.3 445.0,276.3 445.2,276.3 445.4,276.3 445.5,276.4 445.7,276.4 445.9,276.5 446.0,276.6 446.2,276.7 446.4,276.8 446.5,276.9 446.7,277.0 446.9,277.0 447.0,277.0 447.2,277.1 447.4,277.1 447.5,277.0 447.7,277.0 447.8,276.9 448.0,276.9 448.2,276.9 448.3,276.9 448.5,276.9 448.7,277.0 448.8,277.0 449.0,277.1 449.2,277.2 449.3,277.3 449.5,277.4 449.7,277.5 449.8,277.5 450.0,277.6 450.1,277.6 450.3,277.6 450.5,277.6 450.6,277.5 450.8,277.4 451.0,277.3 451.1,277.3 451.3,277.4 451.5,277.4 451.6,277.4 451.8,277.5 452.0,277.6 452.1,277.7 452.3,277.8 452.4,277.9 452.6,278.0 452.8,278.0 452.9,278.0 453.1,278.1 453.3,278.1 453.4,278.0 453.6,277.9 453.8,277.8 453.9,277.8 454.1,277.8 454.3,277.8 454.4,277.8 454.6,277.8 454.7,277.9 454.9,278.0 455.1,278.1 455.2,278.2 455.4,278.3 455.6,278.4 455.7,278.4 455.9,278.4 456.1,278.5 456.2,278.5 456.4,278.4 456.6,278.3 456.7,278.2 456.9,278.2 457.0,278.1 457.2,278.1 457.4,278.2 457.5,278.2 457.7,278.2 457.9,278.3 458.0,278.4 458.2,278.5 458.4,278.6 458.5,278.7 458.7,278.8 458.9,278.8 459.0,278.8 459.2,278.8 459.3,278.8 459.5,278.7 459.7,278.6 459.8,278.5 460.0,278.4 460.2,278.4 460.3,278.5 460.5,278.5 460.7,278.5 460.8,278.6 461.0,278.7 461.2,278.8 461.3,278.9 461.5,279.0 461.6,279.0 461.8,279.1 462.0,279.1 462.1,279.1 462.3,279.1 462.5,279.0 462.6,278.9 462.8,278.8 463.0,278.7 463.1,278.7 463.3,278.7 463.5,278.7 463.6,278.8 463.8,278.9 463.9,278.9 464.1,279.1 464.3,279.2 464.4,279.2 464.6,279.3 464.8,279.3 464.9,279.4 465.1,279.4 465.3,279.4 465.4,279.3 465.6,279.2 465.8,279.0 465.9,278.9 466.1,278.9 466.2,278.9 466.4,279.0 466.6,279.0 466.7,279.1 466.9,279.2 467.1,279.3 467.2,279.4 467.4,279.5 467.6,279.5 467.7,279.6 467.9,279.6 468.1,279.6 468.2,279.6 468.4,279.5 468.5,279.4 468.7,279.3 468.9,279.2 469.0,279.1 469.2,279.1 469.4,279.2 469.5,279.2 469.7,279.3 469.9,279.3 470.0,279.4 470.2,279.5 470.4,279.6 470.5,279.7 470.7,279.7 470.8,279.8 471.0,279.8 471.2,279.8 471.3,279.7 471.5,279.6 471.7,279.5 471.8,279.3 472.0,279.3 472.2,279.3 472.3,279.3 472.5,279.4 472.7,279.4 472.8,279.5 473.0,279.6 473.1,279.7 473.3,279.8 473.5,279.9 473.6,279.9 473.8,279.9 474.0,280.0 474.1,280.0 474.3,279.9 474.5,279.8 474.6,279.6 474.8,279.5 475.0,279.4 475.1,279.4 475.3,279.5 475.4,279.5 475.6,279.5 475.8,279.6 475.9,279.7 476.1,279.8 476.3,279.9 476.4,280.0 476.6,280.0 476.8,280.1 476.9,280.1 477.1,280.1 477.3,280.0 477.4,279.9 477.6,279.8 477.7,279.6 477.9,279.6 478.1,279.6 478.2,279.6 478.4,279.6 478.6,279.6 478.7,279.7 478.9,279.8 479.1,279.9 479.2,280.0 479.4,280.1 479.6,280.1 479.7,280.2 479.9,280.2 480.0,280.2 480.2,280.2 480.4,280.0 480.5,279.9 480.7,279.8 480.9,279.7 481.0,279.6 481.2,279.7 481.4,279.7 481.5,279.7 481.7,279.8 481.9,279.9 482.0,280.0 482.2,280.1 482.3,280.2 482.5,280.2 482.7,280.3 482.8,280.3 483.0,280.3 483.2,280.3 483.3,280.2 483.5,280.0 483.7,279.9 483.8,279.8 484.0,279.7 484.2,279.7 484.3,279.8 484.5,279.8 484.6,279.8 484.8,279.9 485.0,280.0 485.1,280.1 485.3,280.2 485.5,280.3 485.6,280.3 485.8,280.4 486.0,280.4 486.1,280.4 486.3,280.3 486.5,280.1 486.6,280.0 486.8,279.8 486.9,279.8 487.1,279.8 487.3,279.8 487.4,279.9 487.6,279.9 487.8,280.0 487.9,280.1 488.1,280.2 488.3,280.3 488.4,280.3 488.6,280.4 488.8,280.4 488.9,280.4 489.1,280.4 489.2,280.4 489.4,280.2 489.6,280.1 489.7,279.9 489.9,279.9 490.1,279.9 490.2,279.9 490.4,279.9 490.6,280.0 490.7,280.0 490.9,280.1 491.1,280.2 491.2,280.3 491.4,280.4 491.5,280.4 491.7,280.5 491.9,280.5 492.0,280.5 492.2,280.4 492.4,280.3 492.5,280.1 492.7,280.0 492.9,279.9 493.0,279.9 493.2,279.9 493.4,280.0 493.5,280.0 493.7,280.1 493.8,280.2 494.0,280.3 494.2,280.4 494.3,280.4 494.5,280.5 494.7,280.5 494.8,280.5 495.0,280.6 495.2,280.5 495.3,280.4 495.5,280.2 495.7,280.1 495.8,280.0 496.0,280.0 496.1,280.0 496.3,280.0 496.5,280.0 496.6,280.1 496.8,280.2 497.0,280.3 497.1,280.4 497.3,280.5 497.5,280.5 497.6,280.6 497.8,280.6 498.0,280.6 498.1,280.5 498.3,280.4 498.4,280.3 498.6,280.1 498.8,280.0 498.9,280.0 499.1,280.0 499.3,280.0 499.4,280.0 499.6,280.1 499.8,280.2 499.9,280.3 500.1,280.4 500.3,280.5 500.4,280.5 500.6,280.6 500.7,280.6 500.9,280.6 501.1,280.6 501.2,280.5 501.4,280.3 501.6,280.2 501.7,280.1 501.9,280.0 502.1,280.0 502.2,280.0 502.4,280.1 502.6,280.1 502.7,280.2 502.9,280.3 503.0,280.4 503.2,280.5 503.4,280.6 503.5,280.6 503.7,280.6 503.9,280.6 504.0,280.6 504.2,280.5 504.4,280.4 504.5,280.2 504.7,280.1 504.9,280.0 505.0,280.0 505.2,280.1 505.3,280.1 505.5,280.1 505.7,280.2 505.8,280.3" fill="none" stroke="#378add" stroke-width="2.4"/>
<rect x="60" y="26" width="20" height="9" fill="#888780" fill-opacity="0.35"/>
<text x="86" y="33.5" fill="#888780" font-size="11" font-family="system-ui, sans-serif">input magnitude |x| — what the follower chases</text>
<line x1="60" y1="45" x2="80" y2="45" stroke="#378add" stroke-width="2.4"/>
<text x="86" y="48.5" fill="#888780" font-size="11" font-family="system-ui, sans-serif">envelope — what the follower reports</text>
</svg>
