<svg xmlns="http://www.w3.org/2000/svg" viewBox="0 0 520 300" role="img" aria-label="Reverb: combs plus allpasses">
<title>Reverb: combs plus allpasses</title>
<desc>The same comb bank followed by the two series allpass stages. The decay is unchanged, but each echo is smeared into a cluster and the gaps fill in, which is the density a room has and the comb bank lacks.</desc>
<g stroke="#888780" stroke-opacity="0.25" stroke-width="1">
<line x1="46.0" y1="266" x2="46.0" y2="14"/>
<line x1="161.0" y1="266" x2="161.0" y2="14"/>
<line x1="276.0" y1="266" x2="276.0" y2="14"/>
<line x1="391.0" y1="266" x2="391.0" y2="14"/>
<line x1="506.0" y1="266" x2="506.0" y2="14"/>
<line x1="46" y1="266.0" x2="506" y2="266.0"/>
<line x1="46" y1="203.0" x2="506" y2="203.0"/>
<line x1="46" y1="140.0" x2="506" y2="140.0"/>
<line x1="46" y1="77.0" x2="506" y2="77.0"/>
<line x1="46" y1="14.0" x2="506" y2="14.0"/>
</g>
<g fill="#888780" font-size="11" font-family="system-ui, sans-serif">
<text x="46.0" y="282" text-anchor="middle">0.0</text>
<text x="161.0" y="282" text-anchor="middle">0.1</text>
<text x="276.0" y="282" text-anchor="middle">0.2</text>
<text x="391.0" y="282" text-anchor="middle">0.3</text>
<text x="506.0" y="282" text-anchor="middle">0.4</text>
<text x="40" y="269.0" text-anchor="end">-1.0</text>
<text x="40" y="206.0" text-anchor="end">-0.5</text>
<text x="40" y="143.0" text-anchor="end">0.0</text>
<text x="40" y="80.0" text-anchor="end">0.5</text>
<text x="40" y="17.0" text-anchor="end">1.0</text>
<text x="276.0" y="296" text-anchor="middle">time (s)</text>
<text x="13" y="140.0" text-anchor="middle" transform="rotate(-90 13 140.0)">amplitude (linear)</text>
</g>
<polyline points="46.0,78.3 46.1,140.0 46.3,140.0 46.4,140.0 46.6,140.0 46.7,140.0 46.9,140.0 47.0,140.0 47.1,140.0 47.3,140.0 47.4,140.0 47.6,140.0 47.7,140.0 47.9,185.0 48.0,140.0 48.2,140.0 48.3,140.0 48.4,140.0 48.6,140.0 48.7,140.0 48.9,140.0 49.0,140.0 49.2,140.0 49.3,140.0 49.5,140.0 49.6,140.0 49.7,171.5 49.9,140.0 50.0,140.0 50.2,140.0 50.3,140.0 50.5,140.0 50.6,140.0 50.7,140.0 50.9,140.0 51.0,140.0 51.2,140.0 51.3,140.0 51.5,140.0 51.6,162.0 51.8,185.0 51.9,140.0 52.0,140.0 52.2,140.0 52.3,140.0 52.5,140.0 52.6,140.0 52.8,140.0 52.9,140.0 53.0,140.0 53.2,140.0 53.3,140.0 53.5,155.4 53.6,107.2 53.8,140.0 53.9,140.0 54.0,140.0 54.2,140.0 54.3,140.0 54.5,140.0 54.6,140.0 54.8,140.0 54.9,140.0 55.1,140.0 55.2,140.0 55.3,150.8 55.5,117.1 55.6,140.0 55.8,140.0 55.9,140.0 56.1,140.0 56.2,140.0 56.3,140.0 56.5,140.0 56.6,140.0 56.8,140.0 56.9,140.0 57.1,140.0 57.2,147.6 57.4,123.9 57.5,171.5 57.6,140.0 57.8,140.0 57.9,140.0 58.1,140.0 58.2,140.0 58.4,140.0 58.5,140.0 58.6,140.0 58.8,140.0 58.9,140.0 59.1,145.3 59.2,128.8 59.4,117.1 59.5,140.0 59.7,140.0 59.8,140.0 59.9,140.0 60.1,140.0 60.2,140.0 60.4,140.0 60.5,140.0 60.7,140.0 60.8,140.0 60.9,143.7 61.1,132.1 61.2,123.9 61.4,140.0 61.5,140.0 61.7,140.0 61.8,140.0 62.0,140.0 62.1,140.0 62.2,140.0 62.4,140.0 62.5,140.0 62.7,140.0 62.8,142.6 63.0,134.5 63.1,128.8 63.2,162.0 63.4,140.0 63.5,140.0 63.7,140.0 63.8,140.0 64.0,140.0 64.1,140.0 64.3,140.0 64.4,140.0 64.5,140.0 64.7,141.8 64.8,136.1 65.0,132.1 65.1,123.9 65.3,140.0 65.4,140.0 65.5,140.0 65.7,140.0 65.8,140.0 66.0,140.0 66.1,140.0 66.3,140.0 66.4,140.0 66.6,141.3 66.7,137.3 66.8,134.5 67.0,128.8 67.1,140.0 67.3,140.0 67.4,140.0 67.6,140.0 67.7,140.0 67.8,140.0 68.0,140.0 68.1,140.0 68.3,140.0 68.4,140.9 68.6,138.1 68.7,136.1 68.9,132.1 69.0,155.4 69.1,140.0 69.3,140.0 69.4,140.0 69.6,140.0 69.7,140.0 69.9,140.0 70.0,140.0 70.2,140.0 70.3,140.6 70.4,138.7 70.6,137.3 70.7,134.5 70.9,128.8 71.0,140.0 71.2,140.0 71.3,140.0 71.4,140.0 71.6,140.0 71.7,140.0 71.9,140.0 72.0,140.0 72.2,140.4 72.3,139.1 72.5,138.1 72.6,136.1 72.7,132.1 72.9,140.0 73.0,140.0 73.2,140.0 73.3,140.0 73.5,140.0 73.6,140.0 73.7,140.0 73.9,140.0 74.0,140.3 74.2,139.4 74.3,138.7 74.5,137.3 74.6,134.5 74.8,150.8 74.9,140.0 75.0,140.0 75.2,140.0 75.3,140.0 75.5,140.0 75.6,140.0 75.8,140.0 75.9,140.2 76.0,139.5 76.2,139.1 76.3,138.1 76.5,136.1 76.6,132.1 76.8,140.0 76.9,140.0 77.0,140.0 77.2,140.0 77.3,140.0 77.5,140.0 77.6,140.0 77.8,140.1 77.9,139.7 78.1,139.4 78.2,138.7 78.3,137.3 78.5,134.5 78.6,140.0 78.8,140.0 78.9,140.0 79.1,140.0 79.2,140.0 79.3,140.0 79.5,140.0 79.6,140.1 79.8,139.8 79.9,139.5 80.1,126.1 80.2,138.1 80.4,136.1 80.5,147.6 80.6,140.0 80.8,140.0 80.9,140.0 81.1,140.0 81.2,140.0 81.4,140.0 81.5,140.1 81.7,139.8 81.8,139.7 81.9,148.8 82.1,138.7 82.2,137.3 82.4,134.5 82.5,140.0 82.7,140.0 82.8,140.0 82.9,140.0 83.1,140.0 83.2,140.0 83.4,140.1 83.5,139.9 83.7,139.8 83.8,146.2 84.0,139.1 84.1,138.1 84.2,136.1 84.4,140.0 84.5,140.0 84.7,140.0 84.8,140.0 85.0,140.0 85.1,140.0 85.2,140.0 85.4,139.9 85.5,139.8 85.7,144.3 85.8,148.8 86.0,138.7 86.1,137.3 86.2,145.3 86.4,140.0 86.5,140.0 86.7,140.0 86.8,140.0 87.0,140.0 87.1,140.0 87.3,139.9 87.4,139.9 87.5,143.0 87.7,132.7 87.8,139.1 88.0,138.1 88.1,136.1 88.3,140.0 88.4,140.0 88.5,127.0 88.7,140.0 88.8,140.0 89.0,140.0 89.1,140.0 89.3,139.9 89.4,142.1 89.6,134.9 89.7,139.4 89.8,138.7 90.0,137.3 90.1,140.0 90.3,140.0 90.4,149.4 90.6,140.0 90.7,140.0 90.8,140.0 91.0,140.0 91.1,139.9 91.3,141.5 91.4,136.4 91.6,146.2 91.7,139.1 91.9,138.1 92.0,143.7 92.1,140.0 92.3,146.6 92.4,140.0 92.6,140.0 92.7,140.0 92.9,140.0 93.0,140.0 93.2,128.1 93.3,137.5 93.4,134.9 93.6,139.4 93.7,138.7 93.9,137.3 94.0,140.0 94.2,144.6 94.3,149.4 94.4,140.0 94.6,140.0 94.7,140.0 94.9,140.0 95.0,150.2 95.2,138.2 95.3,136.4 95.4,139.5 95.6,139.1 95.7,138.1 95.9,140.0 96.0,143.2 96.2,120.2 96.3,140.0 96.5,140.0 96.6,140.0 96.7,140.0 96.9,147.1 97.0,138.8 97.2,137.5 97.3,144.3 97.5,139.4 97.6,138.7 97.8,142.6 97.9,142.3 98.0,144.6 98.2,140.0 98.3,140.0 98.5,140.0 98.6,140.0 98.8,145.0 98.9,148.6 99.0,138.2 99.2,136.4 99.3,139.5 99.5,139.1 99.6,138.1 99.8,141.6 99.9,143.2 100.0,146.6 100.2,140.0 100.3,140.0 100.5,140.0 100.6,143.5 100.8,132.5 100.9,138.8 101.1,137.5 101.2,139.7 101.3,139.4 101.5,138.7 101.6,141.1 101.8,142.3 101.9,144.6 102.1,140.0 102.2,140.0 102.3,140.0 102.5,142.4 102.6,134.8 102.8,139.1 102.9,138.2 103.1,143.0 103.2,139.5 103.4,139.1 103.5,142.6 103.6,141.6 103.8,129.7 103.9,140.0 104.1,140.0 104.2,140.0 104.4,141.7 104.5,136.3 104.6,146.0 104.8,138.8 104.9,137.5 105.1,139.7 105.2,139.4 105.4,139.2 105.5,141.1 105.7,132.8 105.8,144.6 105.9,140.0 106.1,140.0 106.2,141.2 106.4,137.4 106.5,134.8 106.7,139.1 106.8,138.2 106.9,139.8 107.1,139.5 107.2,139.5 107.4,140.8 107.5,135.0 107.7,143.2 107.8,140.0 108.0,140.0 108.1,140.8 108.2,138.2 108.4,136.3 108.5,139.4 108.7,138.8 108.8,142.1 109.0,139.7 109.1,139.6 109.2,141.8 109.4,136.5 109.5,132.8 109.7,140.0 109.8,140.0 110.0,140.6 110.1,138.7 110.3,137.4 110.4,144.2 110.5,139.1 110.7,138.2 110.8,139.8 111.0,139.7 111.1,139.5 111.3,137.5 111.4,135.0 111.5,143.2 111.7,140.0 111.8,140.4 112.0,139.1 112.1,138.2 112.3,136.3 112.4,139.4 112.6,138.8 112.7,139.8 112.8,139.8 113.0,139.6 113.1,138.3 113.3,136.5 113.4,142.3 113.6,140.0 113.7,140.3 113.8,139.4 114.0,138.7 114.1,126.5 114.3,139.6 114.4,139.1 114.6,141.5 114.7,139.9 114.9,139.7 115.0,139.7 115.1,137.5 115.3,135.0 115.4,140.0 115.6,140.2 115.7,139.6 115.9,139.1 116.0,146.1 116.1,142.9 116.3,139.4 116.4,138.8 116.6,139.9 116.7,139.8 116.9,138.5 117.0,138.3 117.2,136.5 117.3,142.3 117.4,140.1 117.6,139.7 117.7,139.4 117.9,144.3 118.0,137.4 118.2,139.6 118.3,139.1 118.5,139.9 118.6,139.9 118.7,139.0 118.9,138.8 119.0,137.5 119.2,141.6 119.3,140.1 119.5,139.8 119.6,139.6 119.7,143.0 119.9,146.1 120.0,139.7 120.2,139.4 120.3,141.1 120.5,139.9 120.6,139.3 120.8,139.8 120.9,138.3 121.0,136.5 121.2,140.1 121.3,139.9 121.5,139.7 121.6,142.1 121.8,133.0 121.9,142.1 122.0,139.6 122.2,139.2 122.3,139.9 122.5,139.5 122.6,139.0 122.8,138.8 122.9,137.5 123.1,141.6 123.2,139.9 123.3,139.8 123.5,141.5 123.6,135.1 123.8,138.2 123.9,139.7 124.1,139.4 124.2,140.0 124.3,139.6 124.5,139.3 124.6,139.2 124.8,138.3 124.9,141.1 125.1,139.9 125.2,139.9 125.4,141.0 125.5,136.6 125.6,144.3 125.8,139.8 125.9,139.6 126.1,140.7 126.2,139.7 126.4,139.5 126.5,139.8 126.6,138.8 126.8,137.6 126.9,139.9 127.1,139.9 127.2,140.7 127.4,137.6 127.5,135.1 127.6,141.4 127.8,139.7 127.9,139.4 128.1,139.8 128.2,139.6 128.4,139.3 128.5,139.2 128.7,138.3 128.8,141.1 128.9,139.9 129.1,140.5 129.2,138.3 129.4,136.6 129.5,138.7 129.7,139.8 129.8,139.6 129.9,139.9 130.1,139.7 130.2,139.5 130.4,139.4 130.5,138.8 130.7,140.8 130.8,139.9 131.0,140.4 131.1,127.9 131.2,137.6 131.4,143.0 131.5,139.9 131.7,139.7 131.8,140.5 132.0,139.8 132.1,139.6 132.2,139.9 132.4,139.2 132.5,138.3 132.7,140.0 132.8,140.2 133.0,147.1 133.1,138.3 133.3,136.6 133.4,141.0 133.5,139.8 133.7,139.5 133.8,139.9 134.0,139.7 134.1,139.5 134.3,139.4 134.4,138.8 134.5,140.8 134.7,140.2 134.8,145.0 135.0,138.8 135.1,137.6 135.3,139.1 135.4,139.9 135.6,139.7 135.7,139.9 135.8,139.8 136.0,139.6 136.1,139.6 136.3,139.1 136.4,140.5 136.6,140.1 136.7,143.5 136.8,147.1 137.0,138.3 137.1,142.1 137.3,139.9 137.4,139.8 137.6,140.3 137.7,139.9 137.9,139.7 138.0,139.9 138.1,139.4 138.3,138.8 138.4,140.1 138.6,142.4 138.7,133.6 138.9,138.8 139.0,137.6 139.1,140.7 139.3,139.8 139.4,139.7 139.6,139.9 139.7,139.8 139.9,139.6 140.0,139.6 140.2,139.1 140.3,129.7 140.4,141.7 140.6,135.5 140.7,139.2 140.9,138.3 141.0,139.4 141.2,139.9 141.3,139.8 141.4,139.9 141.6,139.9 141.7,139.8 141.9,139.7 142.0,139.4 142.2,148.4 142.3,141.2 142.5,136.9 142.6,145.0 142.7,138.8 142.9,141.5 143.0,139.9 143.2,139.8 143.3,140.2 143.5,139.9 143.6,139.8 143.8,139.9 143.9,139.6 144.0,144.7 144.2,140.8 144.3,137.8 144.5,135.5 144.6,139.2 144.8,138.3 144.9,140.5 145.0,139.9 145.2,139.8 145.3,139.9 145.5,139.9 145.6,139.7 145.8,139.7 145.9,143.3 146.0,148.9 146.2,138.5 146.3,126.0 146.5,139.4 146.6,138.8 146.8,139.6 146.9,139.9 147.1,139.8 147.2,140.0 147.3,139.9 147.5,139.8 147.6,139.8 147.8,142.3 147.9,134.9 148.1,138.9 148.2,136.6 148.3,143.5 148.5,139.2 148.6,141.0 148.8,139.9 148.9,139.9 149.1,140.2 149.2,139.9 149.4,139.9 149.5,140.0 149.6,141.6 149.8,135.6 149.9,139.3 150.1,150.7 150.2,136.9 150.4,139.4 150.5,138.8 150.6,140.3 150.8,139.9 150.9,139.8 151.1,140.0 151.2,139.9 151.4,139.8 151.5,141.1 151.7,137.0 151.8,145.3 151.9,147.5 152.1,145.8 152.2,139.6 152.4,139.2 152.5,139.7 152.7,139.9 152.8,139.9 152.9,140.0 153.1,139.9 153.2,139.9 153.4,140.8 153.5,137.9 153.7,135.8 153.8,145.2 154.0,139.4 154.1,142.4 154.2,139.4 154.4,140.7 154.5,140.0 154.7,139.9 154.8,140.1 155.0,140.0 155.1,139.9 155.2,140.6 155.4,138.5 155.5,136.5 155.7,143.7 155.8,130.0 156.0,137.8 156.1,139.6 156.3,139.2 156.4,140.2 156.5,139.9 156.7,139.9 156.8,140.0 157.0,139.9 157.1,140.3 157.3,139.0 157.4,137.5 157.6,146.6 157.7,133.0 157.8,144.0 158.0,139.7 158.1,139.4 158.3,139.8 158.4,140.0 158.6,139.9 158.7,140.0 158.8,140.0 159.0,140.2 159.1,139.3 159.3,138.3 159.4,139.1 159.6,135.1 159.7,139.5 159.8,141.7 160.0,139.6 160.1,140.5 160.3,140.0 160.4,139.9 160.6,140.1 160.7,140.0 160.9,140.2 161.0,139.5 161.1,138.8 161.3,139.0 161.4,136.6 161.6,133.0 161.7,138.5 161.9,139.7 162.0,139.4 162.2,140.2 162.3,140.0 162.4,139.9 162.6,140.0 162.7,140.1 162.9,139.6 163.0,139.2 163.2,139.3 163.3,140.5 163.4,135.1 163.6,142.8 163.7,139.8 163.9,139.6 164.0,139.9 164.2,140.0 164.3,139.9 164.4,140.0 164.6,140.1 164.7,139.7 164.9,139.4 165.0,139.5 165.2,136.4 165.3,136.6 165.5,139.7 165.6,141.2 165.7,139.7 165.9,140.4 166.0,140.0 166.2,140.0 166.3,140.1 166.5,140.1 166.6,139.8 166.8,139.6 166.9,139.7 167.0,137.2 167.2,137.6 167.3,135.1 167.5,138.9 167.6,139.8 167.8,139.6 167.9,140.1 168.0,140.0 168.2,139.9 168.3,140.0 168.5,139.9 168.6,139.7 168.8,139.8 168.9,138.1 169.0,140.3 169.2,136.6 169.3,142.0 169.5,139.9 169.6,139.7 169.8,139.9 169.9,140.0 170.1,140.0 170.2,140.0 170.3,139.9 170.5,139.8 170.6,139.8 170.8,138.6 170.9,137.5 171.1,137.6 171.2,139.8 171.3,140.8 171.5,139.8 171.6,140.2 171.8,140.0 171.9,140.0 172.1,140.1 172.2,139.9 172.4,139.8 172.5,139.9 172.6,139.1 172.8,138.1 172.9,138.3 173.1,136.6 173.2,139.3 173.4,139.9 173.5,139.7 173.6,130.9 173.8,140.0 173.9,140.0 174.1,140.0 174.2,139.9 174.4,139.9 174.5,139.3 174.7,138.6 174.8,140.2 174.9,137.6 175.1,141.4 175.2,139.9 175.4,139.8 175.5,146.6 175.7,140.0 175.8,140.0 175.9,140.0 176.1,139.9 176.2,139.9 176.4,139.5 176.5,139.1 176.7,138.3 176.8,138.3 177.0,139.8 177.1,140.6 177.2,139.9 177.4,144.8 177.5,140.0 177.7,140.0 177.8,140.0 178.0,139.9 178.1,140.0 178.2,139.7 178.4,139.3 178.5,138.6 178.7,138.8 178.8,137.6 179.0,139.5 179.1,139.9 179.3,143.1 179.4,146.7 179.5,140.0 179.7,140.0 179.8,140.0 180.0,140.0 180.1,139.8 180.3,139.5 180.4,139.1 180.5,140.2 180.7,138.3 180.8,141.0 181.0,139.9 181.1,142.1 181.3,135.1 181.4,140.0 181.6,140.0 181.7,140.0 181.8,140.0 182.0,139.8 182.1,139.7 182.3,131.7 182.4,138.8 182.6,138.8 182.7,139.9 182.8,140.4 183.0,141.5 183.1,136.7 183.3,140.0 183.4,140.0 183.6,140.0 183.7,140.0 183.9,139.9 184.0,139.8 184.1,145.1 184.3,139.1 184.4,139.2 184.6,138.3 184.7,139.6 184.9,141.1 185.0,137.5 185.2,144.7 185.3,140.0 185.4,140.0 185.6,140.0 185.7,139.9 185.9,139.8 186.0,143.6 186.2,139.3 186.3,140.1 186.4,138.8 186.6,140.7 186.7,140.7 186.9,138.2 187.0,136.6 187.2,140.0 187.3,140.0 187.4,130.8 187.6,139.9 187.7,139.9 187.9,142.5 188.0,145.1 188.2,139.1 188.3,139.2 188.5,139.9 188.6,140.8 188.7,138.8 188.9,137.7 189.0,140.0 189.2,140.0 189.3,146.7 189.5,140.0 189.6,139.9 189.8,141.8 189.9,135.6 190.0,139.3 190.2,139.4 190.3,138.8 190.5,140.1 190.6,139.1 190.8,138.2 190.9,143.3 191.0,140.0 191.2,144.7 191.3,140.0 191.5,139.9 191.6,141.2 191.8,136.9 191.9,139.5 192.1,140.1 192.2,139.2 192.3,140.7 192.5,139.4 192.6,138.8 192.8,137.6 192.9,140.0 193.1,143.3 193.2,146.6 193.3,140.0 193.5,140.9 193.6,137.8 193.8,143.6 193.9,139.4 194.1,139.4 194.2,140.1 194.3,139.8 194.5,139.1 194.6,138.4 194.8,140.0 194.9,142.3 195.1,135.1 195.2,140.0 195.4,140.6 195.5,138.5 195.6,136.9 195.8,139.5 195.9,139.6 196.1,139.3 196.2,139.5 196.4,139.4 196.5,129.6 196.7,142.3 196.8,141.6 196.9,136.6 197.1,140.0 197.2,140.4 197.4,138.9 197.5,137.8 197.7,139.7 197.8,140.1 197.9,139.5 198.1,140.1 198.2,139.6 198.4,145.8 198.5,138.3 198.7,141.1 198.8,137.6 199.0,144.7 199.1,140.3 199.2,139.3 199.4,138.5 199.5,142.5 199.7,139.6 199.8,139.7 200.0,139.8 200.1,139.9 200.2,144.1 200.4,138.9 200.5,140.8 200.7,138.3 200.8,136.6 201.0,140.2 201.1,139.5 201.2,138.9 201.4,137.8 201.5,139.7 201.7,139.8 201.8,139.3 202.0,139.7 202.1,142.8 202.3,145.8 202.4,142.2 202.5,138.8 202.7,137.6 202.8,140.1 203.0,139.6 203.1,139.3 203.3,138.5 203.4,139.8 203.6,140.1 203.7,139.5 203.8,140.1 204.0,142.0 204.1,134.5 204.3,139.2 204.4,139.2 204.6,138.3 204.7,143.4 204.8,139.7 205.0,139.5 205.1,138.9 205.3,141.8 205.4,139.7 205.6,139.7 205.7,139.9 205.9,141.5 206.0,136.2 206.1,139.5 206.3,139.4 206.4,138.8 206.6,137.7 206.7,139.8 206.9,139.6 207.0,139.3 207.1,138.5 207.3,139.8 207.4,139.8 207.6,139.5 207.7,140.9 207.9,137.3 208.0,144.2 208.1,140.7 208.3,139.2 208.4,138.4 208.6,139.9 208.7,139.7 208.9,139.5 209.0,138.9 209.2,139.9 209.3,140.0 209.4,139.7 209.6,140.9 209.7,138.1 209.9,136.3 210.0,138.9 210.2,139.4 210.3,138.9 210.4,142.2 210.6,139.8 210.7,139.6 210.9,139.3 211.0,141.2 211.2,139.8 211.3,139.8 211.5,140.5 211.6,138.8 211.7,137.4 211.9,139.3 212.0,139.6 212.2,139.2 212.3,138.3 212.5,139.9 212.6,139.7 212.7,139.5 212.9,138.9 213.0,139.8 213.2,139.8 213.3,140.1 213.5,139.0 213.6,138.2 213.8,142.7 213.9,140.5 214.0,139.4 214.2,138.8 214.3,139.9 214.5,139.8 214.6,139.6 214.8,139.3 214.9,139.9 215.0,140.0 215.2,140.0 215.3,139.5 215.5,138.7 215.6,137.2 215.8,139.2 215.9,139.6 216.1,139.2 216.2,133.9 216.3,133.4 216.5,139.7 216.6,139.5 216.8,140.9 216.9,139.8 217.1,140.0 217.2,139.5 217.3,139.2 217.5,138.1 217.6,139.5 217.8,139.7 217.9,139.4 218.1,144.4 218.2,144.6 218.4,139.8 218.5,139.6 218.6,139.3 218.8,139.9 218.9,140.0 219.1,139.5 219.2,139.3 219.4,138.6 219.5,141.9 219.6,140.4 219.8,139.6 219.9,143.1 220.1,143.2 220.2,139.9 220.4,139.7 220.5,139.5 220.7,139.9 220.8,140.1 220.9,139.6 221.1,139.6 221.2,139.0 221.4,138.1 221.5,139.5 221.7,139.7 221.8,142.1 221.9,149.0 222.1,144.6 222.2,139.8 222.4,139.6 222.5,140.6 222.7,140.0 222.8,139.8 223.0,139.7 223.1,139.4 223.2,138.6 223.4,139.6 223.5,139.8 223.7,141.5 223.8,136.7 224.0,136.5 224.1,139.9 224.2,139.7 224.4,139.5 224.5,140.0 224.7,139.8 224.8,139.7 225.0,139.5 225.1,139.0 225.3,141.3 225.4,140.2 225.5,141.1 225.7,137.7 225.8,137.6 226.0,139.9 226.1,139.8 226.3,139.6 226.4,140.0 226.5,139.9 226.7,139.8 226.8,139.7 227.0,139.3 227.1,138.6 227.3,139.6 227.4,140.7 227.6,138.4 227.7,143.0 227.8,143.2 228.0,139.9 228.1,139.7 228.3,140.4 228.4,139.9 228.6,139.8 228.7,139.8 228.8,139.6 229.0,139.1 229.1,139.7 229.3,140.5 229.4,138.9 229.6,135.4 229.7,137.6 229.9,139.9 230.0,139.8 230.1,139.7 230.3,139.9 230.4,139.9 230.6,139.7 230.7,139.7 230.9,139.3 231.0,140.9 231.1,140.6 231.3,139.2 231.4,136.8 231.6,138.3 231.7,139.9 231.9,139.9 232.0,139.8 232.2,139.9 232.3,140.0 232.4,139.8 232.6,139.8 232.7,139.5 232.9,139.0 233.0,140.1 233.2,139.4 233.3,137.7 233.4,142.1 233.6,142.3 233.7,139.9 233.9,139.8 234.0,140.3 234.2,139.9 234.3,139.9 234.5,139.8 234.6,132.0 234.7,139.3 234.9,140.0 235.0,139.6 235.2,138.4 235.3,136.8 235.5,138.3 235.6,139.9 235.8,139.9 235.9,139.7 236.0,139.9 236.2,139.9 236.3,139.8 236.5,145.4 236.6,139.5 236.8,140.8 236.9,139.9 237.0,138.9 237.2,137.7 237.3,138.8 237.5,140.0 237.6,139.9 237.8,139.8 237.9,140.0 238.0,140.0 238.2,139.9 238.3,143.8 238.5,139.7 238.6,139.4 238.8,139.7 238.9,139.2 239.1,138.4 239.2,141.5 239.3,141.6 239.5,139.9 239.6,139.9 239.8,140.2 239.9,139.9 240.1,139.9 240.2,142.6 240.3,145.4 240.5,139.6 240.6,139.8 240.8,139.5 240.9,138.9 241.1,137.7 241.2,138.8 241.4,140.0 241.5,139.9 241.6,139.8 241.8,140.0 241.9,139.9 242.1,141.8 242.2,135.8 242.4,139.7 242.5,140.4 242.7,139.8 242.8,139.2 242.9,138.4 243.1,139.2 243.2,140.0 243.4,139.9 243.5,139.9 243.7,140.0 243.8,140.0 243.9,141.3 244.1,137.1 244.2,139.8 244.4,139.5 244.5,139.6 244.7,139.5 244.8,138.9 244.9,141.0 245.1,141.1 245.2,140.0 245.4,139.9 245.5,140.1 245.7,140.0 245.8,140.9 246.0,137.9 246.1,143.8 246.2,139.6 246.4,139.7 246.5,139.6 246.7,131.5 246.8,138.4 247.0,139.2 247.1,140.0 247.2,139.9 247.4,139.9 247.5,140.0 247.7,140.6 247.8,138.5 248.0,137.0 248.1,139.7 248.3,140.2 248.4,139.8 248.5,145.1 248.7,138.9 248.8,139.4 249.0,140.0 249.1,140.0 249.3,139.9 249.4,140.0 249.5,140.4 249.7,139.0 249.8,137.9 250.0,139.8 250.1,139.6 250.3,139.7 250.4,138.1 250.6,139.2 250.7,140.7 250.8,140.8 251.0,140.0 251.1,139.9 251.3,140.1 251.4,140.3 251.6,139.3 251.7,138.6 251.8,142.6 252.0,139.7 252.1,139.8 252.3,146.4 252.4,145.1 252.6,138.9 252.7,139.4 252.9,140.0 253.0,140.0 253.1,139.9 253.3,140.2 253.4,139.5 253.6,139.0 253.7,137.9 253.9,139.8 254.0,140.1 254.1,144.6 254.3,135.5 254.4,139.2 254.6,139.6 254.7,140.0 254.9,140.0 255.0,139.9 255.2,140.1 255.3,139.7 255.4,139.3 255.6,138.5 255.7,139.9 255.9,139.7 256.0,143.1 256.2,140.8 256.3,139.5 256.4,140.5 256.6,140.5 256.7,140.0 256.9,140.0 257.0,140.2 257.2,139.7 257.3,139.5 257.5,139.0 257.6,141.8 257.7,139.8 257.9,142.2 258.0,134.9 258.2,143.5 258.3,139.2 258.5,139.6 258.6,140.0 258.8,133.5 258.9,140.0 259.0,139.8 259.2,139.6 259.3,139.3 259.5,138.5 259.6,139.9 259.8,141.7 259.9,136.5 260.0,136.9 260.2,139.5 260.3,139.7 260.5,140.0 260.6,144.7 260.8,140.0 260.9,139.9 261.0,139.8 261.2,139.5 261.3,139.0 261.5,139.9 261.6,140.9 261.8,137.5 261.9,140.6 262.1,139.6 262.2,140.4 262.3,140.4 262.5,143.3 262.6,140.0 262.8,140.0 262.9,139.8 263.1,139.6 263.2,139.3 263.4,141.3 263.5,140.6 263.6,138.2 263.8,136.5 263.9,142.5 264.1,139.5 264.2,139.7 264.4,142.3 264.5,144.7 264.6,139.9 264.8,139.9 264.9,139.7 265.1,139.5 265.2,139.0 265.4,140.5 265.5,138.9 265.6,137.6 265.8,137.8 265.9,139.6 266.1,139.8 266.2,141.6 266.4,136.6 266.5,139.9 266.7,139.9 266.8,139.8 266.9,139.6 267.1,139.3 267.2,140.3 267.4,139.0 267.5,138.2 267.7,140.4 267.8,139.7 267.9,140.2 268.1,141.4 268.2,137.6 268.4,140.0 268.5,140.0 268.7,139.9 268.8,139.7 269.0,139.5 269.1,141.2 269.2,139.3 269.4,138.8 269.5,137.5 269.7,141.7 269.8,139.6 270.0,140.6 270.1,138.3 270.2,143.3 270.4,139.9 270.5,139.9 270.7,139.8 270.8,139.6 271.0,139.5 271.1,139.5 271.3,139.2 271.4,138.3 271.5,138.5 271.7,139.7 271.8,140.4 272.0,138.8 272.1,137.6 272.3,140.0 272.4,139.9 272.5,139.9 272.7,139.7 272.8,139.6 273.0,139.7 273.1,139.3 273.3,138.8 273.4,140.3 273.6,139.8 273.7,140.6 273.8,139.4 274.0,138.3 274.1,140.0 274.3,140.0 274.4,139.9 274.6,139.8 274.7,139.7 274.9,140.4 275.0,139.5 275.1,139.1 275.3,138.3 275.4,141.2 275.6,140.0 275.7,139.3 275.9,138.8 276.0,142.3 276.1,140.0 276.3,139.9 276.4,139.9 276.6,139.8 276.7,139.4 276.9,139.7 277.0,139.5 277.1,138.8 277.3,138.9 277.4,140.0 277.6,139.5 277.7,139.2 277.9,138.3 278.0,140.0 278.2,140.0 278.3,139.9 278.4,139.9 278.6,139.6 278.7,139.8 278.9,139.5 279.0,139.1 279.2,140.2 279.3,140.0 279.4,139.8 279.6,139.6 279.7,138.8 279.9,140.0 280.0,140.0 280.2,139.9 280.3,139.9 280.5,139.7 280.6,140.3 280.7,139.7 280.9,139.4 281.0,138.8 281.2,140.9 281.3,139.6 281.5,139.5 281.6,139.2 281.8,135.1 281.9,140.0 282.0,140.0 282.2,139.9 282.3,139.8 282.5,139.6 282.6,139.8 282.8,139.6 282.9,139.2 283.0,139.3 283.2,139.7 283.3,139.6 283.5,139.4 283.6,143.5 283.8,140.0 283.9,140.0 284.0,140.0 284.2,139.8 284.3,139.7 284.5,135.3 284.6,139.7 284.8,139.4 284.9,140.2 285.1,139.8 285.2,139.9 285.3,139.7 285.5,142.5 285.6,140.0 285.8,140.0 285.9,140.0 286.1,139.9 286.2,139.8 286.4,143.5 286.5,139.8 286.6,139.6 286.8,139.2 286.9,140.5 287.1,139.7 287.2,139.6 287.4,141.7 287.5,145.8 287.6,140.0 287.8,140.0 287.9,139.9 288.1,139.8 288.2,142.0 288.4,139.8 288.5,139.7 288.6,139.4 288.8,139.4 288.9,139.8 289.1,139.8 289.2,141.2 289.4,135.7 289.5,140.0 289.7,140.0 289.8,139.9 289.9,139.9 290.1,141.4 290.2,143.2 290.4,139.8 290.5,139.6 290.7,140.1 290.8,139.9 290.9,139.9 291.1,140.9 291.2,137.0 291.4,140.0 291.5,140.0 291.7,140.0 291.8,139.9 292.0,141.0 292.1,137.7 292.2,139.8 292.4,139.7 292.5,139.4 292.7,140.4 292.8,139.8 293.0,140.5 293.1,137.9 293.2,144.1 293.4,140.0 293.5,140.0 293.7,139.9 293.8,140.7 294.0,138.1 294.1,139.9 294.3,139.8 294.4,139.6 294.5,139.6 294.7,139.9 294.8,140.4 295.0,138.5 295.1,137.0 295.3,140.0 295.4,140.0 295.5,140.0 295.7,140.5 295.8,138.7 296.0,142.2 296.1,139.8 296.3,139.7 296.4,140.0 296.6,139.9 296.7,140.3 296.8,132.6 297.0,137.9 297.1,140.0 297.3,140.0 297.4,140.0 297.6,140.3 297.7,139.1 297.9,138.4 298.0,139.9 298.1,139.8 298.3,139.6 298.4,140.3 298.6,140.1 298.7,144.0 298.9,138.5 299.0,142.9 299.1,140.0 299.3,140.0 299.4,140.2 299.6,139.3 299.7,138.7 299.9,139.9 300.0,139.9 300.1,139.7 300.3,139.7 300.4,140.1 300.6,142.8 300.7,139.0 300.9,137.9 301.0,140.0 301.2,140.0 301.3,134.7 301.4,139.5 301.6,139.1 301.7,141.6 301.9,139.9 302.0,139.8 302.2,140.0 302.3,140.1 302.4,142.0 302.6,144.0 302.7,138.5 302.9,140.0 303.0,140.0 303.2,144.1 303.3,139.7 303.5,139.3 303.6,138.9 303.7,139.9 303.9,139.8 304.0,139.7 304.2,140.3 304.3,141.3 304.5,136.0 304.6,139.0 304.8,142.0 304.9,140.0 305.0,142.8 305.2,139.8 305.3,139.5 305.5,139.1 305.6,139.9 305.8,139.9 305.9,139.8 306.0,139.9 306.2,140.9 306.3,137.2 306.5,139.3 306.6,138.5 306.8,140.0 306.9,142.0 307.1,143.8 307.2,139.7 307.3,139.3 307.5,141.1 307.6,139.9 307.8,139.8 307.9,140.1 308.1,140.6 308.2,138.1 308.3,142.8 308.5,139.0 308.6,140.0 308.8,141.4 308.9,137.0 309.1,139.8 309.2,139.5 309.4,139.2 309.5,139.9 309.6,139.9 309.8,139.8 309.9,140.6 310.1,138.6 310.2,137.2 310.4,139.3 310.5,141.4 310.6,141.0 310.8,137.9 310.9,139.8 311.1,139.7 311.2,139.3 311.4,140.0 311.5,139.9 311.7,139.9 311.8,140.2 311.9,139.0 312.1,138.1 312.2,139.5 312.4,139.0 312.5,140.7 312.7,138.5 312.8,142.7 312.9,139.8 313.1,139.5 313.2,140.8 313.4,139.9 313.5,139.9 313.7,140.3 313.8,139.3 313.9,138.7 314.1,142.0 314.2,139.3 314.4,140.5 314.5,139.0 314.7,137.9 314.8,139.8 315.0,139.7 315.1,139.5 315.2,140.0 315.4,139.9 315.5,140.0 315.7,139.6 315.8,139.0 316.0,138.1 316.1,139.5 316.2,141.3 316.4,139.3 316.5,138.5 316.7,139.9 316.8,139.8 317.0,139.5 317.1,140.0 317.3,140.0 317.4,140.0 317.5,139.6 317.7,139.3 317.8,138.6 318.0,139.6 318.1,139.5 318.3,139.5 318.4,139.0 318.5,138.0 318.7,139.8 318.8,139.7 319.0,140.5 319.1,140.0 319.3,140.0 319.4,139.8 319.6,139.5 319.7,139.1 319.8,141.4 320.0,139.7 320.1,139.6 320.3,139.3 320.4,141.3 320.6,139.9 320.7,139.8 320.8,139.6 321.0,140.0 321.1,140.0 321.3,139.7 321.4,139.7 321.6,139.3 321.7,138.6 321.9,139.8 322.0,140.4 322.1,139.5 322.3,140.9 322.4,139.9 322.6,139.8 322.7,139.7 322.9,140.0 323.0,140.0 323.1,139.8 323.3,139.7 323.4,139.5 323.6,139.1 323.7,139.8 323.9,139.3 324.0,139.6 324.2,140.6 324.3,144.1 324.4,139.9 324.6,139.8 324.7,140.4 324.9,140.0 325.0,139.9 325.2,139.9 325.3,139.7 325.4,139.3 325.6,141.0 325.7,139.5 325.9,139.8 326.0,140.5 326.2,136.9 326.3,139.9 326.5,139.8 326.6,139.7 326.7,140.0 326.9,139.9 327.0,139.8 327.2,139.8 327.3,139.5 327.5,139.1 327.6,139.7 327.7,140.3 327.9,140.3 328.0,137.9 328.2,139.9 328.3,139.9 328.5,139.8 328.6,140.0 328.8,139.9 328.9,134.5 329.0,139.8 329.2,139.7 329.3,139.4 329.5,139.8 329.6,139.5 329.8,140.2 329.9,138.5 330.0,142.9 330.2,139.9 330.3,139.8 330.5,140.3 330.6,140.0 330.8,143.9 330.9,139.9 331.1,139.8 331.2,139.6 331.3,140.6 331.5,139.7 331.6,140.2 331.8,139.0 331.9,137.9 332.1,139.9 332.2,139.9 332.3,139.8 332.5,140.0 332.6,142.7 332.8,139.9 332.9,139.9 333.1,139.7 333.2,139.3 333.4,139.8 333.5,140.4 333.6,139.3 333.8,138.5 333.9,140.0 334.1,139.9 334.2,139.8 334.4,140.0 334.5,141.9 334.6,143.9 334.8,139.9 334.9,139.8 335.1,139.5 335.2,139.8 335.4,139.8 335.5,139.5 335.7,139.0 335.8,142.0 335.9,139.9 336.1,139.9 336.2,140.2 336.4,141.3 336.5,137.1 336.7,139.9 336.8,139.8 336.9,139.7 337.1,140.4 337.2,139.9 337.4,139.6 337.5,139.3 337.7,138.5 337.8,140.0 338.0,139.9 338.1,139.9 338.2,140.9 338.4,137.9 338.5,139.9 338.7,139.9 338.8,139.8 339.0,139.5 339.1,139.9 339.2,140.0 339.4,139.5 339.5,139.0 339.7,140.0 339.8,139.9 340.0,139.9 340.1,140.6 340.3,138.6 340.4,142.7 340.5,139.9 340.7,139.8 340.8,139.7 341.0,139.9 341.1,139.7 341.3,139.6 341.4,139.3 341.5,141.4 341.7,140.0 341.8,139.9 342.0,140.6 342.1,139.0 342.3,137.9 342.4,140.0 342.6,139.9 342.7,139.8 342.8,140.3 343.0,139.8 343.1,139.7 343.3,139.5 343.4,139.0 343.6,140.0 343.7,139.9 343.8,135.7 344.0,139.3 344.1,138.6 344.3,139.9 344.4,139.9 344.6,139.8 344.7,139.7 344.9,139.8 345.0,140.0 345.1,139.6 345.3,139.3 345.4,140.0 345.6,140.0 345.7,143.5 345.9,139.5 346.0,139.0 346.1,141.9 346.3,139.9 346.4,139.9 346.6,139.8 346.7,139.9 346.9,139.8 347.0,134.3 347.2,139.5 347.3,141.0 347.4,140.0 347.6,142.4 347.7,139.7 347.9,139.3 348.0,138.6 348.2,140.0 348.3,139.9 348.4,139.8 348.6,140.2 348.7,139.8 348.9,143.8 349.0,139.6 349.2,139.3 349.3,140.0 349.5,141.7 349.6,143.0 349.7,139.5 349.9,139.0 350.0,140.0 350.2,140.0 350.3,139.9 350.5,139.7 350.6,139.9 350.8,142.8 350.9,139.7 351.0,139.5 351.2,140.0 351.3,141.2 351.5,137.4 351.6,139.7 351.8,139.3 351.9,141.3 352.0,139.9 352.2,139.9 352.3,139.8 352.5,139.9 352.6,138.6 352.8,143.8 352.9,139.6 353.1,140.7 353.2,140.8 353.3,138.2 353.5,139.8 353.6,139.5 353.8,139.0 353.9,140.0 354.1,139.9 354.2,139.9 354.3,140.1 354.5,143.6 354.6,137.0 354.8,139.7 354.9,139.5 355.1,140.6 355.2,138.7 355.3,142.1 355.5,139.7 355.6,139.3 355.8,140.0 355.9,140.0 356.1,139.9 356.2,139.8 356.4,142.5 356.5,138.0 356.6,139.8 356.8,139.6 356.9,140.4 357.1,139.1 357.2,138.2 357.4,139.8 357.5,139.5 357.6,140.9 357.8,140.0 357.9,139.9 358.1,139.9 358.2,141.8 358.4,140.8 358.5,142.6 358.7,139.7 358.8,140.8 358.9,139.4 359.1,138.7 359.2,139.9 359.4,139.7 359.5,139.3 359.7,140.0 359.8,140.0 359.9,139.9 360.1,141.4 360.2,137.2 360.4,137.9 360.5,139.8 360.7,139.8 360.8,139.6 361.0,139.1 361.1,141.5 361.2,139.8 361.4,139.5 361.5,140.0 361.7,140.0 361.8,139.9 362.0,140.8 362.1,138.1 362.2,138.6 362.4,139.9 362.5,139.9 362.7,139.7 362.8,139.4 363.0,138.7 363.1,139.8 363.3,139.7 363.4,140.6 363.5,140.0 363.7,140.0 363.8,140.5 364.0,138.6 364.1,140.6 364.3,141.8 364.4,139.9 364.6,140.1 364.7,139.6 364.8,139.1 365.0,139.9 365.1,139.8 365.3,139.5 365.4,140.0 365.6,140.0 365.7,140.4 365.8,139.1 366.0,138.1 366.1,138.5 366.3,139.9 366.4,139.6 366.6,139.7 366.7,139.4 366.9,141.0 367.0,139.8 367.1,139.7 367.3,140.0 367.4,140.0 367.6,140.3 367.7,139.3 367.9,138.6 368.0,139.0 368.1,140.0 368.3,139.7 368.4,139.8 368.6,139.6 368.7,139.1 368.9,139.9 369.0,139.8 369.2,140.5 369.3,140.0 369.4,140.2 369.6,139.5 369.7,139.0 369.9,140.4 370.0,141.3 370.2,139.8 370.3,140.1 370.4,139.7 370.6,139.4 370.7,139.9 370.9,139.8 371.0,139.7 371.2,140.0 371.3,140.1 371.4,139.6 371.6,139.4 371.7,138.6 371.9,139.0 372.0,139.9 372.2,139.7 372.3,139.8 372.5,139.6 372.6,140.7 372.7,139.9 372.9,139.8 373.0,140.0 373.2,140.1 373.3,139.7 373.5,139.5 373.6,139.0 373.7,139.3 373.9,139.9 374.0,139.8 374.2,139.8 374.3,139.7 374.5,139.4 374.6,139.9 374.8,139.8 374.9,140.3 375.0,140.1 375.2,139.8 375.3,139.6 375.5,139.3 375.6,140.3 375.8,140.9 375.9,139.9 376.0,135.5 376.2,139.8 376.3,139.6 376.5,140.0 376.6,139.9 376.8,139.8 376.9,140.0 377.1,139.9 377.2,139.7 377.3,139.6 377.5,139.1 377.6,139.3 377.8,139.9 377.9,143.1 378.1,139.8 378.2,139.7 378.3,140.5 378.5,139.9 378.6,139.8 378.8,140.0 378.9,139.9 379.1,139.8 379.2,139.6 379.4,139.3 379.5,139.5 379.6,139.9 379.8,142.2 379.9,139.9 380.1,139.8 380.2,139.6 380.4,139.9 380.5,139.9 380.6,140.2 380.8,139.9 380.9,139.9 381.1,139.7 381.2,139.5 381.4,140.2 381.5,140.6 381.7,141.5 381.8,143.4 381.9,139.8 382.1,139.7 382.2,140.0 382.4,139.9 382.5,139.8 382.7,140.0 382.8,139.9 382.9,139.8 383.1,139.7 383.2,139.3 383.4,139.5 383.5,141.1 383.7,137.4 383.8,139.9 384.0,139.8 384.1,140.4 384.2,139.9 384.4,139.9 384.5,140.0 384.7,139.9 384.8,139.9 385.0,139.7 385.1,139.5 385.2,139.7 385.4,140.7 385.5,138.2 385.7,139.9 385.8,139.8 386.0,139.7 386.1,140.0 386.3,139.9 386.4,136.3 386.5,140.0 386.7,137.2 386.8,139.8 387.0,139.7 387.1,140.1 387.3,141.0 387.4,138.7 387.5,142.4 387.7,139.9 387.8,139.8 388.0,140.0 388.1,139.9 388.3,142.7 388.4,140.0 388.6,141.9 388.7,139.9 388.8,139.8 389.0,139.5 389.1,140.0 389.3,139.1 389.4,138.2 389.6,139.9 389.7,139.8 389.8,140.2 390.0,140.0 390.1,141.9 390.3,140.0 390.4,141.3 390.6,139.9 390.7,139.8 390.9,139.7 391.0,140.0 391.1,139.4 391.3,138.7 391.4,139.9 391.6,139.9 391.7,139.8 391.9,140.0 392.0,141.3 392.1,142.9 392.3,140.9 392.4,141.9 392.6,139.9 392.7,139.8 392.9,140.3 393.0,139.9 393.2,139.1 393.3,141.6 393.4,139.9 393.6,139.8 393.7,140.0 393.9,140.9 394.0,137.9 394.2,140.7 394.3,138.5 394.4,139.9 394.6,139.9 394.7,139.8 394.9,139.5 395.0,139.4 395.2,138.7 395.3,139.9 395.5,139.9 395.6,140.2 395.7,140.6 395.9,138.5 396.0,140.5 396.2,139.0 396.3,139.9 396.5,139.9 396.6,139.9 396.8,139.6 396.9,139.6 397.0,139.1 397.2,135.4 397.3,139.9 397.5,139.8 397.6,140.4 397.8,139.0 397.9,142.3 398.0,139.3 398.2,141.3 398.3,139.9 398.5,139.9 398.6,139.9 398.8,139.9 398.9,139.4 399.0,144.5 399.2,139.9 399.3,139.9 399.5,140.3 399.6,139.3 399.8,138.7 399.9,139.5 400.1,139.0 400.2,139.9 400.3,139.9 400.5,139.7 400.6,139.6 400.8,139.6 400.9,141.4 401.1,140.0 401.2,139.9 401.3,140.4 401.5,139.5 401.6,139.1 401.8,139.6 401.9,139.3 402.1,140.0 402.2,139.9 402.4,139.8 402.5,139.7 402.6,139.7 402.8,141.0 402.9,143.3 403.1,139.9 403.2,140.1 403.4,139.6 403.5,139.4 403.6,141.2 403.8,139.5 403.9,140.9 404.1,140.0 404.2,139.8 404.4,139.9 404.5,139.9 404.7,140.7 404.8,138.4 404.9,140.0 405.1,140.0 405.2,139.8 405.4,139.6 405.5,138.8 405.7,139.6 405.8,139.3 405.9,140.0 406.1,139.9 406.2,139.8 406.4,139.7 406.5,140.5 406.7,137.7 406.8,140.0 407.0,140.0 407.1,139.9 407.2,139.7 407.4,139.2 407.5,139.8 407.7,139.5 407.8,140.0 408.0,139.9 408.1,139.8 408.2,139.8 408.4,140.3 408.5,138.4 408.7,142.3 408.8,140.0 409.0,139.8 409.1,139.8 409.3,139.4 409.4,140.8 409.5,139.6 409.7,140.7 409.8,139.9 410.0,139.9 410.1,140.0 410.3,140.4 410.4,138.9 410.6,138.9 410.7,140.0 410.8,139.9 411.0,139.9 411.1,139.6 411.3,139.2 411.4,139.8 411.6,139.5 411.7,140.0 411.8,139.9 412.0,139.8 412.1,140.1 412.3,139.2 412.4,138.4 412.6,140.0 412.7,139.9 412.8,140.0 413.0,139.7 413.1,139.4 413.3,139.8 413.4,139.6 413.6,140.0 413.7,139.9 413.9,139.9 414.0,140.1 414.1,139.4 414.3,138.9 414.4,141.6 414.6,139.9 414.7,139.9 414.9,139.8 415.0,139.6 415.1,140.6 415.3,139.8 415.4,140.5 415.6,140.0 415.7,139.9 415.9,140.1 416.0,139.7 416.2,139.2 416.3,139.2 416.4,140.0 416.6,139.9 416.7,139.9 416.9,139.7 417.0,139.4 417.2,139.8 417.3,139.6 417.4,140.0 417.6,139.9 417.7,140.0 417.9,139.7 418.0,139.4 418.2,138.9 418.3,140.0 418.5,139.9 418.6,139.9 418.7,139.8 418.9,139.6 419.0,139.9 419.2,139.7 419.3,140.0 419.5,140.0 419.6,140.0 419.8,139.8 419.9,139.6 420.0,139.2 420.2,141.1 420.3,140.0 420.5,139.9 420.6,139.9 420.8,137.4 420.9,140.4 421.0,139.8 421.2,140.3 421.3,140.0 421.5,140.0 421.6,139.9 421.8,139.8 421.9,139.5 422.1,139.4 422.2,140.0 422.3,139.9 422.5,139.9 422.6,141.4 422.8,139.6 422.9,139.9 423.1,139.7 423.2,136.2 423.3,140.0 423.5,139.9 423.6,139.8 423.8,139.6 423.9,139.2 424.1,140.0 424.2,139.9 424.4,140.0 424.5,141.0 424.6,139.7 424.8,139.9 424.9,139.8 425.1,142.8 425.2,140.0 425.4,139.9 425.5,139.8 425.6,139.7 425.8,139.4 425.9,140.8 426.1,140.0 426.2,139.9 426.4,140.7 426.5,141.4 426.7,140.3 426.8,139.9 426.9,142.2 427.1,140.0 427.2,139.9 427.4,139.9 427.5,139.8 427.7,139.6 427.8,139.6 427.9,140.0 428.1,139.9 428.2,140.5 428.4,138.7 428.5,139.7 428.7,139.9 428.8,141.2 428.9,139.6 429.1,140.0 429.2,139.9 429.4,139.8 429.5,139.7 429.7,139.4 429.8,140.0 430.0,140.0 430.1,140.4 430.2,139.1 430.4,139.8 430.5,139.9 430.7,140.8 430.8,140.3 431.0,140.0 431.1,139.9 431.2,139.9 431.4,139.8 431.5,139.6 431.7,140.5 431.8,140.0 432.0,140.2 432.1,139.3 432.3,141.0 432.4,140.2 432.5,140.6 432.7,140.4 432.8,140.0 433.0,139.9 433.1,139.9 433.3,139.9 433.4,139.7 433.6,139.7 433.7,140.0 433.8,140.2 434.0,139.5 434.1,139.1 434.3,139.8 434.4,140.4 434.6,140.0 434.7,144.3 434.8,140.0 435.0,139.9 435.1,139.9 435.3,139.8 435.4,139.6 435.6,140.0 435.7,140.1 435.9,139.7 436.0,139.3 436.1,139.9 436.3,140.3 436.4,140.0 436.6,136.9 436.7,140.0 436.9,139.9 437.0,139.9 437.1,139.9 437.3,139.7 437.4,140.4 437.6,140.1 437.7,139.8 437.9,139.5 438.0,140.7 438.2,140.4 438.3,140.0 438.4,137.9 438.6,140.0 438.7,140.0 438.9,140.0 439.0,139.9 439.2,139.8 439.3,139.8 439.4,140.1 439.6,139.8 439.7,139.7 439.9,139.3 440.0,140.0 440.2,140.0 440.3,138.4 440.5,143.0 440.6,140.0 440.7,139.9 440.9,139.9 441.0,139.9 441.2,139.7 441.3,140.0 441.5,139.9 441.6,139.8 441.7,139.5 441.9,140.0 442.0,140.0 442.2,138.9 442.3,137.8 442.5,140.0 442.6,140.0 442.7,139.9 442.9,139.9 443.0,139.8 443.2,140.3 443.3,139.9 443.5,139.8 443.6,139.7 443.8,140.6 443.9,140.1 444.0,139.2 444.2,138.5 444.3,140.0 444.5,140.0 444.6,140.0 444.8,139.9 444.9,139.9 445.0,139.9 445.2,139.9 445.3,139.9 445.5,139.8 445.6,139.6 445.8,139.9 445.9,139.4 446.1,138.9 446.2,142.1 446.3,140.0 446.5,140.0 446.6,139.9 446.8,139.9 446.9,139.8 447.1,140.0 447.2,139.9 447.3,136.0 447.5,139.7 447.6,139.9 447.8,139.6 447.9,139.2 448.1,138.5 448.2,140.0 448.4,140.0 448.5,140.0 448.6,139.9 448.8,139.9 448.9,140.2 449.1,139.9 449.2,142.7 449.4,139.8 449.5,140.4 449.6,139.8 449.8,139.4 449.9,139.0 450.1,140.0 450.2,140.0 450.4,140.0 450.5,140.0 450.7,139.9 450.8,139.9 450.9,140.0 451.1,141.9 451.2,139.9 451.4,139.7 451.5,139.7 451.7,139.6 451.8,139.2 451.9,141.5 452.1,140.0 452.2,140.0 452.4,140.0 452.5,139.9 452.7,139.9 452.8,140.0 453.0,141.3 453.1,142.7 453.2,139.8 453.4,139.8 453.5,139.7 453.7,139.4 453.8,138.9 454.0,140.0 454.1,140.0 454.2,140.0 454.4,140.0 454.5,139.9 454.7,140.1 454.8,139.0 455.0,137.9 455.1,139.8 455.3,140.2 455.4,139.9 455.5,139.6 455.7,139.3 455.8,140.0 456.0,140.0 456.1,140.0 456.3,140.0 456.4,139.9 456.5,139.9 456.7,142.0 456.8,138.5 457.0,139.9 457.1,139.7 457.3,139.8 457.4,139.7 457.6,139.4 457.7,141.0 457.8,140.0 458.0,140.0 458.1,140.0 458.3,139.9 458.4,139.9 458.6,141.4 458.7,139.0 458.8,141.9 459.0,139.8 459.1,139.9 459.3,139.8 459.4,139.6 459.6,139.2 459.7,140.0 459.9,140.0 460.0,140.0 460.1,140.0 460.3,139.9 460.4,141.1 460.6,140.7 460.7,138.5 460.9,139.9 461.0,140.1 461.1,139.9 461.3,139.7 461.4,139.5 461.6,140.0 461.7,140.0 461.9,140.0 462.0,140.0 462.2,139.9 462.3,140.7 462.4,138.5 462.6,139.0 462.7,139.9 462.9,139.8 463.0,139.9 463.2,139.8 463.3,139.6 463.4,140.7 463.6,140.0 463.7,140.0 463.9,140.0 464.0,140.0 464.2,140.4 464.3,138.9 464.5,139.3 464.6,141.3 464.7,139.9 464.9,139.9 465.0,139.9 465.2,139.7 465.3,139.5 465.5,140.0 465.6,140.0 465.8,140.0 465.9,140.0 466.0,140.3 466.2,139.3 466.3,140.5 466.5,139.0 466.6,139.9 466.8,140.1 466.9,139.9 467.0,139.8 467.2,139.6 467.3,140.0 467.5,140.0 467.6,140.0 467.8,140.0 467.9,140.2 468.1,139.4 468.2,138.9 468.3,139.3 468.5,139.9 468.6,139.9 468.8,139.9 468.9,139.9 469.1,139.7 469.2,140.5 469.3,140.0 469.5,140.0 469.6,140.0 469.8,140.1 469.9,139.6 470.1,139.3 470.2,139.5 470.3,137.7 470.5,139.9 470.6,139.9 470.8,139.9 470.9,139.8 471.1,139.6 471.2,140.0 471.4,140.0 471.5,137.3 471.6,140.1 471.8,139.7 471.9,139.5 472.1,140.3 472.2,141.6 472.4,139.9 472.5,140.1 472.6,140.0 472.8,139.9 472.9,139.8 473.1,140.0 473.2,140.0 473.4,142.0 473.5,140.1 473.7,139.8 473.8,139.6 473.9,139.3 474.1,141.1 474.2,140.0 474.4,139.9 474.5,139.9 474.7,139.9 474.8,139.8 474.9,140.4 475.1,140.0 475.2,141.4 475.4,140.0 475.5,139.9 475.7,139.7 475.8,139.5 476.0,140.8 476.1,143.0 476.2,139.9 476.4,140.0 476.5,139.9 476.7,139.9 476.8,139.7 477.0,140.0 477.1,141.0 477.2,142.0 477.4,139.9 477.5,139.8 477.7,139.7 477.8,141.0 478.0,137.8 478.1,140.0 478.3,140.0 478.4,140.0 478.5,139.9 478.7,139.8 478.8,140.0 479.0,140.7 479.1,138.6 479.3,139.9 479.4,139.9 479.6,139.7 479.7,140.0 479.8,138.4 480.0,140.0 480.1,139.9 480.3,140.0 480.4,139.9 480.6,139.9 480.7,140.2 480.8,140.5 481.0,139.0 481.1,140.0 481.3,139.9 481.4,139.8 481.6,140.0 481.7,138.9 481.9,142.1 482.0,140.0 482.1,140.0 482.3,140.0 482.4,139.9 482.6,139.8 482.7,140.3 482.9,139.3 483.0,141.3 483.1,139.9 483.3,139.9 483.4,140.0 483.6,139.6 483.7,138.4 483.9,140.0 484.0,140.0 484.2,140.0 484.3,139.9 484.4,139.9 484.6,140.2 484.7,139.5 484.9,139.0 485.0,140.0 485.2,139.9 485.3,140.0 485.4,139.2 485.6,138.9 485.7,140.0 485.9,140.0 486.0,140.0 486.2,140.0 486.3,139.9 486.4,140.3 486.6,139.7 486.7,139.3 486.9,140.0 487.0,139.9 487.2,140.0 487.3,139.5 487.5,139.2 487.6,141.5 487.7,140.0 487.9,140.0 488.0,140.0 488.2,139.9 488.3,140.0 488.5,139.8 488.6,139.5 488.8,140.9 488.9,138.4 489.0,140.0 489.2,139.6 489.3,139.7 489.5,138.9 489.6,140.0 489.8,140.0 489.9,140.0 490.0,140.0 490.2,140.0 490.3,139.8 490.5,139.6 490.6,139.3 490.8,141.1 490.9,140.0 491.1,139.7 491.2,139.5 491.3,139.2 491.5,140.0 491.6,140.0 491.8,140.0 491.9,140.0 492.1,140.0 492.2,140.0 492.3,139.8 492.5,139.5 492.6,140.8 492.8,140.0 492.9,139.8 493.1,139.6 493.2,139.5 493.4,141.0 493.5,140.0 493.6,140.0 493.8,140.0 493.9,140.0 494.1,139.8 494.2,139.8 494.4,139.6 494.5,141.2 494.6,141.2 494.8,139.9 494.9,139.7 495.1,139.8 495.2,139.2 495.4,140.0 495.5,140.0 495.7,140.0 495.8,140.0 495.9,139.9 496.1,139.9 496.2,139.8 496.4,139.9 496.5,139.2 496.7,139.9 496.8,139.8 496.9,139.6 497.1,139.5 497.2,140.0 497.4,140.0 497.5,136.8 497.7,140.0 497.8,139.9 498.0,140.0 498.1,139.8 498.2,139.9 498.4,139.4 498.5,139.9 498.7,139.9 498.8,139.7 499.0,139.6 499.1,140.7 499.2,140.0 499.4,142.3 499.5,140.0 499.7,139.9 499.8,139.9 500.0,139.9 500.1,139.9 500.2,140.1 500.4,140.8 500.5,139.9 500.7,139.8 500.8,139.9 501.0,139.5 501.1,140.0 501.3,141.6 501.4,140.0 501.5,140.0 501.7,139.9 501.8,139.9 502.0,140.0 502.1,139.4 502.3,139.4 502.4,139.9 502.6,139.9 502.7,139.7 502.8,139.6 503.0,140.0 503.1,141.1 503.3,142.3 503.4,140.0 503.6,139.9 503.7,140.0 503.8,140.0 504.0,139.6 504.1,139.6 504.3,140.0 504.4,139.9 504.6,139.8 504.7,139.7 504.9,140.5 505.0,140.8 505.1,138.3 505.3,140.0 505.4,140.0 505.6,139.9 505.7,140.0 505.9,139.7" fill="none" stroke="#378add" stroke-width="1.0"/>
<line x1="366" y1="30" x2="386" y2="30" stroke="#378add" stroke-width="1.0"/>
<text x="392" y="33.5" fill="#888780" font-size="11" font-family="system-ui, sans-serif">combs, then allpasses</text>
</svg>
