<svg xmlns="http://www.w3.org/2000/svg" viewBox="0 0 520 300" role="img" aria-label="Vibrato: the resulting pitch offset">
<title>Vibrato: the resulting pitch offset</title>
<desc>The pitch offset produced by the delay sweep above, in percent. Pitch follows the slope of the delay, not its value: the offset is zero at the sweep's turning points and largest where the delay crosses its center.</desc>
<g stroke="#888780" stroke-opacity="0.25" stroke-width="1">
<line x1="46.0" y1="266" x2="46.0" y2="14"/>
<line x1="161.0" y1="266" x2="161.0" y2="14"/>
<line x1="276.0" y1="266" x2="276.0" y2="14"/>
<line x1="391.0" y1="266" x2="391.0" y2="14"/>
<line x1="506.0" y1="266" x2="506.0" y2="14"/>
<line x1="46" y1="266.0" x2="506" y2="266.0"/>
<line x1="46" y1="203.0" x2="506" y2="203.0"/>
<line x1="46" y1="140.0" x2="506" y2="140.0"/>
<line x1="46" y1="77.0" x2="506" y2="77.0"/>
<line x1="46" y1="14.0" x2="506" y2="14.0"/>
</g>
<g fill="#888780" font-size="11" font-family="system-ui, sans-serif">
<text x="46.0" y="282" text-anchor="middle">0.0</text>
<text x="161.0" y="282" text-anchor="middle">0.1</text>
<text x="276.0" y="282" text-anchor="middle">0.2</text>
<text x="391.0" y="282" text-anchor="middle">0.3</text>
<text x="506.0" y="282" text-anchor="middle">0.4</text>
<text x="40" y="269.0" text-anchor="end">-4</text>
<text x="40" y="206.0" text-anchor="end">-2</text>
<text x="40" y="143.0" text-anchor="end">0</text>
<text x="40" y="80.0" text-anchor="end">2</text>
<text x="40" y="17.0" text-anchor="end">4</text>
<text x="276.0" y="296" text-anchor="middle">time (s)</text>
<text x="13" y="140.0" text-anchor="middle" transform="rotate(-90 13 140.0)">pitch offset (%)</text>
</g>
<line x1="46" y1="140.0" x2="506" y2="140.0" stroke="#7f77dd" stroke-width="1.5" stroke-dasharray="5 4"/>
<text x="502" y="135.0" text-anchor="end" fill="#7f77dd" font-size="10" font-family="system-ui, sans-serif">no pitch shift</text>
<line x1="103.5" y1="266" x2="103.5" y2="14" stroke="#7f77dd" stroke-width="1.5" stroke-dasharray="5 4"/>
<text x="108.5" y="24" text-anchor="start" fill="#7f77dd" font-size="10" font-family="system-ui, sans-serif">delay turning point</text>
<polyline points="46.0,239.0 47.1,238.9 48.3,238.8 49.5,238.5 50.6,238.2 51.8,237.7 52.9,237.2 54.0,236.6 55.2,235.9 56.4,235.0 57.5,234.1 58.6,233.1 59.8,232.0 61.0,230.8 62.1,229.5 63.2,228.2 64.4,226.7 65.5,225.2 66.7,223.6 67.9,221.8 69.0,220.1 70.2,218.2 71.3,216.3 72.5,214.2 73.6,212.1 74.8,210.0 75.9,207.7 77.0,205.4 78.2,203.1 79.3,200.7 80.5,198.2 81.7,195.6 82.8,193.0 84.0,190.4 85.1,187.7 86.2,184.9 87.4,182.1 88.6,179.3 89.7,176.4 90.9,173.5 92.0,170.6 93.2,167.6 94.3,164.6 95.4,161.6 96.6,158.5 97.8,155.5 98.9,152.4 100.0,149.3 101.2,146.2 102.3,143.1 103.5,140.0 104.7,136.9 105.8,133.8 107.0,130.7 108.1,127.6 109.2,124.5 110.4,121.5 111.5,118.4 112.7,115.4 113.8,112.4 115.0,109.4 116.1,106.5 117.3,103.6 118.5,100.7 119.6,97.9 120.8,95.1 121.9,92.3 123.1,89.6 124.2,87.0 125.4,84.4 126.5,81.8 127.7,79.3 128.8,76.9 130.0,74.6 131.1,72.3 132.2,70.0 133.4,67.9 134.5,65.8 135.7,63.7 136.8,61.8 138.0,59.9 139.1,58.2 140.3,56.4 141.4,54.8 142.6,53.3 143.8,51.8 144.9,50.5 146.1,49.2 147.2,48.0 148.4,46.9 149.5,45.9 150.6,45.0 151.8,44.1 152.9,43.4 154.1,42.8 155.2,42.3 156.4,41.8 157.6,41.5 158.7,41.2 159.8,41.1 161.0,41.0 162.2,41.1 163.3,41.2 164.4,41.5 165.6,41.8 166.8,42.3 167.9,42.8 169.1,43.4 170.2,44.1 171.3,45.0 172.5,45.9 173.7,46.9 174.8,48.0 175.9,49.2 177.1,50.5 178.2,51.8 179.4,53.3 180.5,54.8 181.7,56.4 182.8,58.2 184.0,59.9 185.2,61.8 186.3,63.7 187.4,65.8 188.6,67.9 189.8,70.0 190.9,72.3 192.1,74.6 193.2,76.9 194.3,79.3 195.5,81.8 196.7,84.4 197.8,87.0 199.0,89.6 200.1,92.3 201.2,95.1 202.4,97.9 203.6,100.7 204.7,103.6 205.9,106.5 207.0,109.4 208.2,112.4 209.3,115.4 210.5,118.4 211.6,121.5 212.7,124.5 213.9,127.6 215.1,130.7 216.2,133.8 217.3,136.9 218.5,140.0 219.7,143.1 220.8,146.2 221.9,149.3 223.1,152.4 224.2,155.5 225.4,158.5 226.5,161.6 227.7,164.6 228.8,167.6 230.0,170.6 231.1,173.5 232.3,176.4 233.4,179.3 234.6,182.1 235.8,184.9 236.9,187.7 238.0,190.4 239.2,193.0 240.3,195.6 241.5,198.2 242.7,200.7 243.8,203.1 244.9,205.4 246.1,207.7 247.2,210.0 248.4,212.1 249.5,214.2 250.7,216.3 251.8,218.2 253.0,220.1 254.2,221.8 255.3,223.6 256.4,225.2 257.6,226.7 258.8,228.2 259.9,229.5 261.0,230.8 262.2,232.0 263.4,233.1 264.5,234.1 265.6,235.0 266.8,235.9 267.9,236.6 269.1,237.2 270.2,237.7 271.4,238.2 272.6,238.5 273.7,238.8 274.9,238.9 276.0,239.0 277.1,238.9 278.3,238.8 279.4,238.5 280.6,238.2 281.8,237.7 282.9,237.2 284.0,236.6 285.2,235.9 286.4,235.0 287.5,234.1 288.6,233.1 289.8,232.0 290.9,230.8 292.1,229.5 293.2,228.2 294.4,226.7 295.5,225.2 296.7,223.6 297.9,221.8 299.0,220.1 300.1,218.2 301.3,216.3 302.4,214.2 303.6,212.1 304.8,210.0 305.9,207.7 307.1,205.4 308.2,203.1 309.4,200.7 310.5,198.2 311.7,195.6 312.8,193.0 313.9,190.4 315.1,187.7 316.2,184.9 317.4,182.1 318.6,179.3 319.7,176.4 320.9,173.5 322.0,170.6 323.2,167.6 324.3,164.6 325.4,161.6 326.6,158.5 327.7,155.5 328.9,152.4 330.1,149.3 331.2,146.2 332.4,143.1 333.5,140.0 334.6,136.9 335.8,133.8 336.9,130.7 338.1,127.6 339.2,124.5 340.4,121.5 341.5,118.4 342.7,115.4 343.8,112.4 345.0,109.4 346.1,106.5 347.3,103.6 348.4,100.7 349.6,97.9 350.8,95.1 351.9,92.3 353.1,89.6 354.2,87.0 355.3,84.4 356.5,81.8 357.6,79.3 358.8,76.9 359.9,74.6 361.1,72.3 362.2,70.0 363.4,67.9 364.6,65.8 365.7,63.7 366.9,61.8 368.0,59.9 369.2,58.2 370.3,56.4 371.4,54.8 372.6,53.3 373.7,51.8 374.9,50.5 376.1,49.2 377.2,48.0 378.4,46.9 379.5,45.9 380.7,45.0 381.8,44.1 382.9,43.4 384.1,42.8 385.2,42.3 386.4,41.8 387.6,41.5 388.7,41.2 389.9,41.1 391.0,41.0 392.1,41.1 393.3,41.2 394.4,41.5 395.6,41.8 396.8,42.3 397.9,42.8 399.1,43.4 400.2,44.1 401.3,45.0 402.5,45.9 403.6,46.9 404.8,48.0 405.9,49.2 407.1,50.5 408.2,51.8 409.4,53.3 410.6,54.8 411.7,56.4 412.8,58.2 414.0,59.9 415.1,61.8 416.3,63.7 417.5,65.8 418.6,67.9 419.8,70.0 420.9,72.3 422.1,74.6 423.2,76.9 424.3,79.3 425.5,81.8 426.7,84.4 427.8,87.0 428.9,89.6 430.1,92.3 431.2,95.1 432.4,97.9 433.6,100.7 434.7,103.6 435.8,106.5 437.0,109.4 438.2,112.4 439.3,115.4 440.5,118.4 441.6,121.5 442.7,124.5 443.9,127.6 445.1,130.7 446.2,133.8 447.3,136.9 448.5,140.0 449.7,143.1 450.8,146.2 452.0,149.3 453.1,152.4 454.2,155.5 455.4,158.5 456.6,161.6 457.7,164.6 458.8,167.6 460.0,170.6 461.1,173.5 462.3,176.4 463.5,179.3 464.6,182.1 465.8,184.9 466.9,187.7 468.1,190.4 469.2,193.0 470.3,195.6 471.5,198.2 472.6,200.7 473.8,203.1 475.0,205.4 476.1,207.7 477.2,210.0 478.4,212.1 479.6,214.2 480.7,216.3 481.9,218.2 483.0,220.1 484.2,221.8 485.3,223.6 486.5,225.2 487.6,226.7 488.8,228.2 489.9,229.5 491.1,230.8 492.2,232.0 493.4,233.1 494.5,234.1 495.7,235.0 496.8,235.9 498.0,236.6 499.1,237.2 500.2,237.7 501.4,238.2 502.6,238.5 503.7,238.8 504.9,238.9 506.0,239.0" fill="none" stroke="#378add" stroke-width="2.4"/>
<line x1="60" y1="30" x2="80" y2="30" stroke="#378add" stroke-width="2.4"/>
<text x="86" y="33.5" fill="#888780" font-size="11" font-family="system-ui, sans-serif">pitch offset = −slope of delay</text>
</svg>
