<svg xmlns="http://www.w3.org/2000/svg" viewBox="0 0 520 300" role="img" aria-label="Vibrato: the delay sweep">
<title>Vibrato: the delay sweep</title>
<desc>The delay the LFO commands, over two cycles at 5 Hz: a sine sweep between 5 and 7 ms. A vertical reference marks a turning point of the sweep, where the delay is momentarily steady.</desc>
<g stroke="#888780" stroke-opacity="0.25" stroke-width="1">
<line x1="46.0" y1="266" x2="46.0" y2="14"/>
<line x1="161.0" y1="266" x2="161.0" y2="14"/>
<line x1="276.0" y1="266" x2="276.0" y2="14"/>
<line x1="391.0" y1="266" x2="391.0" y2="14"/>
<line x1="506.0" y1="266" x2="506.0" y2="14"/>
<line x1="46" y1="266.0" x2="506" y2="266.0"/>
<line x1="46" y1="203.0" x2="506" y2="203.0"/>
<line x1="46" y1="140.0" x2="506" y2="140.0"/>
<line x1="46" y1="77.0" x2="506" y2="77.0"/>
<line x1="46" y1="14.0" x2="506" y2="14.0"/>
</g>
<g fill="#888780" font-size="11" font-family="system-ui, sans-serif">
<text x="46.0" y="282" text-anchor="middle">0.0</text>
<text x="161.0" y="282" text-anchor="middle">0.1</text>
<text x="276.0" y="282" text-anchor="middle">0.2</text>
<text x="391.0" y="282" text-anchor="middle">0.3</text>
<text x="506.0" y="282" text-anchor="middle">0.4</text>
<text x="40" y="269.0" text-anchor="end">4</text>
<text x="40" y="206.0" text-anchor="end">5</text>
<text x="40" y="143.0" text-anchor="end">6</text>
<text x="40" y="80.0" text-anchor="end">7</text>
<text x="40" y="17.0" text-anchor="end">8</text>
<text x="276.0" y="296" text-anchor="middle">time (s)</text>
<text x="13" y="140.0" text-anchor="middle" transform="rotate(-90 13 140.0)">delay (ms)</text>
</g>
<line x1="103.5" y1="266" x2="103.5" y2="14" stroke="#7f77dd" stroke-width="1.5" stroke-dasharray="5 4"/>
<text x="108.5" y="24" text-anchor="start" fill="#7f77dd" font-size="10" font-family="system-ui, sans-serif">delay turning point</text>
<polyline points="46.0,140.0 47.1,138.0 48.3,136.0 49.5,134.1 50.6,132.1 51.8,130.1 52.9,128.2 54.0,126.3 55.2,124.3 56.4,122.4 57.5,120.5 58.6,118.7 59.8,116.8 61.0,115.0 62.1,113.2 63.2,111.4 64.4,109.6 65.5,107.9 66.7,106.2 67.9,104.6 69.0,103.0 70.2,101.4 71.3,99.8 72.5,98.3 73.6,96.9 74.8,95.5 75.9,94.1 77.0,92.7 78.2,91.5 79.3,90.2 80.5,89.0 81.7,87.9 82.8,86.8 84.0,85.8 85.1,84.8 86.2,83.9 87.4,83.0 88.6,82.2 89.7,81.4 90.9,80.7 92.0,80.1 93.2,79.5 94.3,79.0 95.4,78.5 96.6,78.1 97.8,77.8 98.9,77.5 100.0,77.3 101.2,77.1 102.3,77.0 103.5,77.0 104.7,77.0 105.8,77.1 107.0,77.3 108.1,77.5 109.2,77.8 110.4,78.1 111.5,78.5 112.7,79.0 113.8,79.5 115.0,80.1 116.1,80.7 117.3,81.4 118.5,82.2 119.6,83.0 120.8,83.9 121.9,84.8 123.1,85.8 124.2,86.8 125.4,87.9 126.5,89.0 127.7,90.2 128.8,91.5 130.0,92.7 131.1,94.1 132.2,95.5 133.4,96.9 134.5,98.3 135.7,99.8 136.8,101.4 138.0,103.0 139.1,104.6 140.3,106.2 141.4,107.9 142.6,109.6 143.8,111.4 144.9,113.2 146.1,115.0 147.2,116.8 148.4,118.7 149.5,120.5 150.6,122.4 151.8,124.3 152.9,126.3 154.1,128.2 155.2,130.1 156.4,132.1 157.6,134.1 158.7,136.0 159.8,138.0 161.0,140.0 162.2,142.0 163.3,144.0 164.4,145.9 165.6,147.9 166.8,149.9 167.9,151.8 169.1,153.7 170.2,155.7 171.3,157.6 172.5,159.5 173.7,161.3 174.8,163.2 175.9,165.0 177.1,166.8 178.2,168.6 179.4,170.4 180.5,172.1 181.7,173.8 182.8,175.4 184.0,177.0 185.2,178.6 186.3,180.2 187.4,181.7 188.6,183.1 189.8,184.5 190.9,185.9 192.1,187.3 193.2,188.5 194.3,189.8 195.5,191.0 196.7,192.1 197.8,193.2 199.0,194.2 200.1,195.2 201.2,196.1 202.4,197.0 203.6,197.8 204.7,198.6 205.9,199.3 207.0,199.9 208.2,200.5 209.3,201.0 210.5,201.5 211.6,201.9 212.7,202.2 213.9,202.5 215.1,202.7 216.2,202.9 217.3,203.0 218.5,203.0 219.7,203.0 220.8,202.9 221.9,202.7 223.1,202.5 224.2,202.2 225.4,201.9 226.5,201.5 227.7,201.0 228.8,200.5 230.0,199.9 231.1,199.3 232.3,198.6 233.4,197.8 234.6,197.0 235.8,196.1 236.9,195.2 238.0,194.2 239.2,193.2 240.3,192.1 241.5,191.0 242.7,189.8 243.8,188.5 244.9,187.3 246.1,185.9 247.2,184.5 248.4,183.1 249.5,181.7 250.7,180.2 251.8,178.6 253.0,177.0 254.2,175.4 255.3,173.8 256.4,172.1 257.6,170.4 258.8,168.6 259.9,166.8 261.0,165.0 262.2,163.2 263.4,161.3 264.5,159.5 265.6,157.6 266.8,155.7 267.9,153.7 269.1,151.8 270.2,149.9 271.4,147.9 272.6,145.9 273.7,144.0 274.9,142.0 276.0,140.0 277.1,138.0 278.3,136.0 279.4,134.1 280.6,132.1 281.8,130.1 282.9,128.2 284.0,126.3 285.2,124.3 286.4,122.4 287.5,120.5 288.6,118.7 289.8,116.8 290.9,115.0 292.1,113.2 293.2,111.4 294.4,109.6 295.5,107.9 296.7,106.2 297.9,104.6 299.0,103.0 300.1,101.4 301.3,99.8 302.4,98.3 303.6,96.9 304.8,95.5 305.9,94.1 307.1,92.7 308.2,91.5 309.4,90.2 310.5,89.0 311.7,87.9 312.8,86.8 313.9,85.8 315.1,84.8 316.2,83.9 317.4,83.0 318.6,82.2 319.7,81.4 320.9,80.7 322.0,80.1 323.2,79.5 324.3,79.0 325.4,78.5 326.6,78.1 327.7,77.8 328.9,77.5 330.1,77.3 331.2,77.1 332.4,77.0 333.5,77.0 334.6,77.0 335.8,77.1 336.9,77.3 338.1,77.5 339.2,77.8 340.4,78.1 341.5,78.5 342.7,79.0 343.8,79.5 345.0,80.1 346.1,80.7 347.3,81.4 348.4,82.2 349.6,83.0 350.8,83.9 351.9,84.8 353.1,85.8 354.2,86.8 355.3,87.9 356.5,89.0 357.6,90.2 358.8,91.5 359.9,92.7 361.1,94.1 362.2,95.5 363.4,96.9 364.6,98.3 365.7,99.8 366.9,101.4 368.0,103.0 369.2,104.6 370.3,106.2 371.4,107.9 372.6,109.6 373.7,111.4 374.9,113.2 376.1,115.0 377.2,116.8 378.4,118.7 379.5,120.5 380.7,122.4 381.8,124.3 382.9,126.3 384.1,128.2 385.2,130.1 386.4,132.1 387.6,134.1 388.7,136.0 389.9,138.0 391.0,140.0 392.1,142.0 393.3,144.0 394.4,145.9 395.6,147.9 396.8,149.9 397.9,151.8 399.1,153.7 400.2,155.7 401.3,157.6 402.5,159.5 403.6,161.3 404.8,163.2 405.9,165.0 407.1,166.8 408.2,168.6 409.4,170.4 410.6,172.1 411.7,173.8 412.8,175.4 414.0,177.0 415.1,178.6 416.3,180.2 417.5,181.7 418.6,183.1 419.8,184.5 420.9,185.9 422.1,187.3 423.2,188.5 424.3,189.8 425.5,191.0 426.7,192.1 427.8,193.2 428.9,194.2 430.1,195.2 431.2,196.1 432.4,197.0 433.6,197.8 434.7,198.6 435.8,199.3 437.0,199.9 438.2,200.5 439.3,201.0 440.5,201.5 441.6,201.9 442.7,202.2 443.9,202.5 445.1,202.7 446.2,202.9 447.3,203.0 448.5,203.0 449.7,203.0 450.8,202.9 452.0,202.7 453.1,202.5 454.2,202.2 455.4,201.9 456.6,201.5 457.7,201.0 458.8,200.5 460.0,199.9 461.1,199.3 462.3,198.6 463.5,197.8 464.6,197.0 465.8,196.1 466.9,195.2 468.1,194.2 469.2,193.2 470.3,192.1 471.5,191.0 472.6,189.8 473.8,188.5 475.0,187.3 476.1,185.9 477.2,184.5 478.4,183.1 479.6,181.7 480.7,180.2 481.9,178.6 483.0,177.0 484.2,175.4 485.3,173.8 486.5,172.1 487.6,170.4 488.8,168.6 489.9,166.8 491.1,165.0 492.2,163.2 493.4,161.3 494.5,159.5 495.7,157.6 496.8,155.7 498.0,153.7 499.1,151.8 500.2,149.9 501.4,147.9 502.6,145.9 503.7,144.0 504.9,142.0 506.0,140.0" fill="none" stroke="#1baf7a" stroke-width="2.4"/>
<line x1="60" y1="30" x2="80" y2="30" stroke="#1baf7a" stroke-width="2.4"/>
<text x="86" y="33.5" fill="#888780" font-size="11" font-family="system-ui, sans-serif">delay = base + depth · LFO</text>
</svg>
