<svg xmlns="http://www.w3.org/2000/svg" viewBox="0 0 520 360" role="img" aria-label="Volume transfer curves">
<title>Volume transfer curves</title>
<desc>Input sample versus output sample. A gain of 0.5 is a shallower line through the origin; a gain of 2 is steeper and runs into the ±1.0 limits, where it clips.</desc>
<g stroke="#888780" stroke-opacity="0.25" stroke-width="1">
<line x1="46.0" y1="326" x2="46.0" y2="14"/>
<line x1="161.0" y1="326" x2="161.0" y2="14"/>
<line x1="276.0" y1="326" x2="276.0" y2="14"/>
<line x1="391.0" y1="326" x2="391.0" y2="14"/>
<line x1="506.0" y1="326" x2="506.0" y2="14"/>
<line x1="46" y1="326.0" x2="506" y2="326.0"/>
<line x1="46" y1="248.0" x2="506" y2="248.0"/>
<line x1="46" y1="170.0" x2="506" y2="170.0"/>
<line x1="46" y1="92.0" x2="506" y2="92.0"/>
<line x1="46" y1="14.0" x2="506" y2="14.0"/>
</g>
<g fill="#888780" font-size="11" font-family="system-ui, sans-serif">
<text x="46.0" y="342" text-anchor="middle">-1.0</text>
<text x="161.0" y="342" text-anchor="middle">-0.5</text>
<text x="276.0" y="342" text-anchor="middle">0.0</text>
<text x="391.0" y="342" text-anchor="middle">0.5</text>
<text x="506.0" y="342" text-anchor="middle">1.0</text>
<text x="40" y="329.0" text-anchor="end">-1.0</text>
<text x="40" y="251.0" text-anchor="end">-0.5</text>
<text x="40" y="173.0" text-anchor="end">0.0</text>
<text x="40" y="95.0" text-anchor="end">0.5</text>
<text x="40" y="17.0" text-anchor="end">1.0</text>
<text x="276.0" y="356" text-anchor="middle">input sample</text>
<text x="13" y="170.0" text-anchor="middle" transform="rotate(-90 13 170.0)">output sample</text>
</g>
<polyline points="46.0,326.0 47.1,325.2 48.3,324.4 49.5,323.7 50.6,322.9 51.8,322.1 52.9,321.3 54.1,320.5 55.2,319.8 56.4,319.0 57.5,318.2 58.7,317.4 59.8,316.6 60.9,315.9 62.1,315.1 63.2,314.3 64.4,313.5 65.5,312.7 66.7,312.0 67.8,311.2 69.0,310.4 70.1,309.6 71.3,308.8 72.5,308.1 73.6,307.3 74.8,306.5 75.9,305.7 77.0,304.9 78.2,304.2 79.3,303.4 80.5,302.6 81.7,301.8 82.8,301.0 84.0,300.3 85.1,299.5 86.2,298.7 87.4,297.9 88.6,297.1 89.7,296.4 90.8,295.6 92.0,294.8 93.1,294.0 94.3,293.2 95.4,292.5 96.6,291.7 97.8,290.9 98.9,290.1 100.0,289.3 101.2,288.6 102.3,287.8 103.5,287.0 104.7,286.2 105.8,285.4 107.0,284.7 108.1,283.9 109.2,283.1 110.4,282.3 111.6,281.5 112.7,280.8 113.9,280.0 115.0,279.2 116.2,278.4 117.3,277.6 118.4,276.9 119.6,276.1 120.7,275.3 121.9,274.5 123.0,273.7 124.2,273.0 125.3,272.2 126.5,271.4 127.6,270.6 128.8,269.8 129.9,269.1 131.1,268.3 132.2,267.5 133.4,266.7 134.6,265.9 135.7,265.2 136.9,264.4 138.0,263.6 139.2,262.8 140.3,262.0 141.4,261.3 142.6,260.5 143.8,259.7 144.9,258.9 146.1,258.1 147.2,257.4 148.3,256.6 149.5,255.8 150.6,255.0 151.8,254.2 152.9,253.5 154.1,252.7 155.2,251.9 156.4,251.1 157.6,250.3 158.7,249.6 159.8,248.8 161.0,248.0 162.2,247.2 163.3,246.4 164.4,245.7 165.6,244.9 166.8,244.1 167.9,243.3 169.0,242.5 170.2,241.8 171.3,241.0 172.5,240.2 173.6,239.4 174.8,238.6 175.9,237.9 177.1,237.1 178.2,236.3 179.4,235.5 180.5,234.7 181.7,234.0 182.8,233.2 184.0,232.4 185.2,231.6 186.3,230.8 187.4,230.1 188.6,229.3 189.8,228.5 190.9,227.7 192.1,226.9 193.2,226.2 194.3,225.4 195.5,224.6 196.7,223.8 197.8,223.0 199.0,222.3 200.1,221.5 201.2,220.7 202.4,219.9 203.6,219.1 204.7,218.4 205.9,217.6 207.0,216.8 208.2,216.0 209.3,215.2 210.5,214.5 211.6,213.7 212.8,212.9 213.9,212.1 215.0,211.3 216.2,210.6 217.3,209.8 218.5,209.0 219.7,208.2 220.8,207.4 222.0,206.7 223.1,205.9 224.2,205.1 225.4,204.3 226.6,203.5 227.7,202.8 228.9,202.0 230.0,201.2 231.1,200.4 232.3,199.6 233.4,198.9 234.6,198.1 235.8,197.3 236.9,196.5 238.0,195.7 239.2,195.0 240.3,194.2 241.5,193.4 242.7,192.6 243.8,191.8 244.9,191.1 246.1,190.3 247.2,189.5 248.4,188.7 249.6,187.9 250.7,187.2 251.8,186.4 253.0,185.6 254.2,184.8 255.3,184.0 256.5,183.3 257.6,182.5 258.8,181.7 259.9,180.9 261.1,180.1 262.2,179.4 263.4,178.6 264.5,177.8 265.6,177.0 266.8,176.2 267.9,175.5 269.1,174.7 270.2,173.9 271.4,173.1 272.5,172.3 273.7,171.6 274.9,170.8 276.0,170.0 277.1,169.2 278.3,168.4 279.4,167.7 280.6,166.9 281.8,166.1 282.9,165.3 284.0,164.5 285.2,163.8 286.4,163.0 287.5,162.2 288.6,161.4 289.8,160.6 290.9,159.9 292.1,159.1 293.2,158.3 294.4,157.5 295.5,156.7 296.7,156.0 297.9,155.2 299.0,154.4 300.1,153.6 301.3,152.8 302.4,152.1 303.6,151.3 304.8,150.5 305.9,149.7 307.1,148.9 308.2,148.2 309.4,147.4 310.5,146.6 311.7,145.8 312.8,145.0 313.9,144.3 315.1,143.5 316.2,142.7 317.4,141.9 318.6,141.1 319.7,140.4 320.9,139.6 322.0,138.8 323.2,138.0 324.3,137.2 325.5,136.5 326.6,135.7 327.8,134.9 328.9,134.1 330.0,133.3 331.2,132.6 332.4,131.8 333.5,131.0 334.6,130.2 335.8,129.4 337.0,128.7 338.1,127.9 339.2,127.1 340.4,126.3 341.5,125.5 342.7,124.8 343.8,124.0 345.0,123.2 346.1,122.4 347.3,121.6 348.4,120.9 349.6,120.1 350.8,119.3 351.9,118.5 353.1,117.7 354.2,117.0 355.3,116.2 356.5,115.4 357.6,114.6 358.8,113.8 359.9,113.1 361.1,112.3 362.2,111.5 363.4,110.7 364.6,109.9 365.7,109.2 366.9,108.4 368.0,107.6 369.2,106.8 370.3,106.0 371.4,105.3 372.6,104.5 373.8,103.7 374.9,102.9 376.1,102.1 377.2,101.4 378.4,100.6 379.5,99.8 380.7,99.0 381.8,98.2 383.0,97.5 384.1,96.7 385.2,95.9 386.4,95.1 387.5,94.3 388.7,93.6 389.9,92.8 391.0,92.0 392.1,91.2 393.3,90.4 394.5,89.7 395.6,88.9 396.8,88.1 397.9,87.3 399.1,86.5 400.2,85.8 401.3,85.0 402.5,84.2 403.7,83.4 404.8,82.6 405.9,81.9 407.1,81.1 408.2,80.3 409.4,79.5 410.6,78.7 411.7,78.0 412.8,77.2 414.0,76.4 415.1,75.6 416.3,74.8 417.4,74.1 418.6,73.3 419.8,72.5 420.9,71.7 422.1,70.9 423.2,70.2 424.4,69.4 425.5,68.6 426.7,67.8 427.8,67.0 428.9,66.3 430.1,65.5 431.2,64.7 432.4,63.9 433.6,63.1 434.7,62.4 435.8,61.6 437.0,60.8 438.2,60.0 439.3,59.2 440.4,58.5 441.6,57.7 442.8,56.9 443.9,56.1 445.0,55.3 446.2,54.6 447.4,53.8 448.5,53.0 449.6,52.2 450.8,51.4 452.0,50.7 453.1,49.9 454.2,49.1 455.4,48.3 456.6,47.5 457.7,46.8 458.8,46.0 460.0,45.2 461.2,44.4 462.3,43.6 463.4,42.9 464.6,42.1 465.8,41.3 466.9,40.5 468.1,39.7 469.2,39.0 470.3,38.2 471.5,37.4 472.6,36.6 473.8,35.8 474.9,35.1 476.1,34.3 477.2,33.5 478.4,32.7 479.6,31.9 480.7,31.2 481.9,30.4 483.0,29.6 484.2,28.8 485.3,28.0 486.4,27.3 487.6,26.5 488.8,25.7 489.9,24.9 491.1,24.1 492.2,23.4 493.3,22.6 494.5,21.8 495.7,21.0 496.8,20.2 497.9,19.5 499.1,18.7 500.2,17.9 501.4,17.1 502.5,16.3 503.7,15.6 504.9,14.8 506.0,14.0" fill="none" stroke="#888780" stroke-width="1.6" stroke-dasharray="5 4"/>
<polyline points="46.0,248.0 47.1,247.6 48.3,247.2 49.5,246.8 50.6,246.4 51.8,246.1 52.9,245.7 54.1,245.3 55.2,244.9 56.4,244.5 57.5,244.1 58.7,243.7 59.8,243.3 60.9,242.9 62.1,242.5 63.2,242.2 64.4,241.8 65.5,241.4 66.7,241.0 67.8,240.6 69.0,240.2 70.1,239.8 71.3,239.4 72.5,239.0 73.6,238.6 74.8,238.2 75.9,237.9 77.0,237.5 78.2,237.1 79.3,236.7 80.5,236.3 81.7,235.9 82.8,235.5 84.0,235.1 85.1,234.7 86.2,234.3 87.4,234.0 88.6,233.6 89.7,233.2 90.8,232.8 92.0,232.4 93.1,232.0 94.3,231.6 95.4,231.2 96.6,230.8 97.8,230.4 98.9,230.1 100.0,229.7 101.2,229.3 102.3,228.9 103.5,228.5 104.7,228.1 105.8,227.7 107.0,227.3 108.1,226.9 109.2,226.6 110.4,226.2 111.6,225.8 112.7,225.4 113.9,225.0 115.0,224.6 116.2,224.2 117.3,223.8 118.4,223.4 119.6,223.0 120.7,222.7 121.9,222.3 123.0,221.9 124.2,221.5 125.3,221.1 126.5,220.7 127.6,220.3 128.8,219.9 129.9,219.5 131.1,219.1 132.2,218.8 133.4,218.4 134.6,218.0 135.7,217.6 136.9,217.2 138.0,216.8 139.2,216.4 140.3,216.0 141.4,215.6 142.6,215.2 143.8,214.8 144.9,214.5 146.1,214.1 147.2,213.7 148.3,213.3 149.5,212.9 150.6,212.5 151.8,212.1 152.9,211.7 154.1,211.3 155.2,210.9 156.4,210.6 157.6,210.2 158.7,209.8 159.8,209.4 161.0,209.0 162.2,208.6 163.3,208.2 164.4,207.8 165.6,207.4 166.8,207.1 167.9,206.7 169.0,206.3 170.2,205.9 171.3,205.5 172.5,205.1 173.6,204.7 174.8,204.3 175.9,203.9 177.1,203.5 178.2,203.2 179.4,202.8 180.5,202.4 181.7,202.0 182.8,201.6 184.0,201.2 185.2,200.8 186.3,200.4 187.4,200.0 188.6,199.6 189.8,199.2 190.9,198.9 192.1,198.5 193.2,198.1 194.3,197.7 195.5,197.3 196.7,196.9 197.8,196.5 199.0,196.1 200.1,195.7 201.2,195.3 202.4,195.0 203.6,194.6 204.7,194.2 205.9,193.8 207.0,193.4 208.2,193.0 209.3,192.6 210.5,192.2 211.6,191.8 212.8,191.4 213.9,191.1 215.0,190.7 216.2,190.3 217.3,189.9 218.5,189.5 219.7,189.1 220.8,188.7 222.0,188.3 223.1,187.9 224.2,187.6 225.4,187.2 226.6,186.8 227.7,186.4 228.9,186.0 230.0,185.6 231.1,185.2 232.3,184.8 233.4,184.4 234.6,184.0 235.8,183.7 236.9,183.3 238.0,182.9 239.2,182.5 240.3,182.1 241.5,181.7 242.7,181.3 243.8,180.9 244.9,180.5 246.1,180.1 247.2,179.8 248.4,179.4 249.6,179.0 250.7,178.6 251.8,178.2 253.0,177.8 254.2,177.4 255.3,177.0 256.5,176.6 257.6,176.2 258.8,175.8 259.9,175.5 261.1,175.1 262.2,174.7 263.4,174.3 264.5,173.9 265.6,173.5 266.8,173.1 267.9,172.7 269.1,172.3 270.2,171.9 271.4,171.6 272.5,171.2 273.7,170.8 274.9,170.4 276.0,170.0 277.1,169.6 278.3,169.2 279.4,168.8 280.6,168.4 281.8,168.1 282.9,167.7 284.0,167.3 285.2,166.9 286.4,166.5 287.5,166.1 288.6,165.7 289.8,165.3 290.9,164.9 292.1,164.5 293.2,164.1 294.4,163.8 295.5,163.4 296.7,163.0 297.9,162.6 299.0,162.2 300.1,161.8 301.3,161.4 302.4,161.0 303.6,160.6 304.8,160.2 305.9,159.9 307.1,159.5 308.2,159.1 309.4,158.7 310.5,158.3 311.7,157.9 312.8,157.5 313.9,157.1 315.1,156.7 316.2,156.4 317.4,156.0 318.6,155.6 319.7,155.2 320.9,154.8 322.0,154.4 323.2,154.0 324.3,153.6 325.5,153.2 326.6,152.8 327.8,152.4 328.9,152.1 330.0,151.7 331.2,151.3 332.4,150.9 333.5,150.5 334.6,150.1 335.8,149.7 337.0,149.3 338.1,148.9 339.2,148.6 340.4,148.2 341.5,147.8 342.7,147.4 343.8,147.0 345.0,146.6 346.1,146.2 347.3,145.8 348.4,145.4 349.6,145.0 350.8,144.6 351.9,144.3 353.1,143.9 354.2,143.5 355.3,143.1 356.5,142.7 357.6,142.3 358.8,141.9 359.9,141.5 361.1,141.1 362.2,140.8 363.4,140.4 364.6,140.0 365.7,139.6 366.9,139.2 368.0,138.8 369.2,138.4 370.3,138.0 371.4,137.6 372.6,137.2 373.8,136.9 374.9,136.5 376.1,136.1 377.2,135.7 378.4,135.3 379.5,134.9 380.7,134.5 381.8,134.1 383.0,133.7 384.1,133.3 385.2,132.9 386.4,132.6 387.5,132.2 388.7,131.8 389.9,131.4 391.0,131.0 392.1,130.6 393.3,130.2 394.5,129.8 395.6,129.4 396.8,129.1 397.9,128.7 399.1,128.3 400.2,127.9 401.3,127.5 402.5,127.1 403.7,126.7 404.8,126.3 405.9,125.9 407.1,125.5 408.2,125.1 409.4,124.8 410.6,124.4 411.7,124.0 412.8,123.6 414.0,123.2 415.1,122.8 416.3,122.4 417.4,122.0 418.6,121.6 419.8,121.2 420.9,120.9 422.1,120.5 423.2,120.1 424.4,119.7 425.5,119.3 426.7,118.9 427.8,118.5 428.9,118.1 430.1,117.7 431.2,117.4 432.4,117.0 433.6,116.6 434.7,116.2 435.8,115.8 437.0,115.4 438.2,115.0 439.3,114.6 440.4,114.2 441.6,113.8 442.8,113.4 443.9,113.1 445.0,112.7 446.2,112.3 447.4,111.9 448.5,111.5 449.6,111.1 450.8,110.7 452.0,110.3 453.1,109.9 454.2,109.6 455.4,109.2 456.6,108.8 457.7,108.4 458.8,108.0 460.0,107.6 461.2,107.2 462.3,106.8 463.4,106.4 464.6,106.0 465.8,105.6 466.9,105.3 468.1,104.9 469.2,104.5 470.3,104.1 471.5,103.7 472.6,103.3 473.8,102.9 474.9,102.5 476.1,102.1 477.2,101.8 478.4,101.4 479.6,101.0 480.7,100.6 481.9,100.2 483.0,99.8 484.2,99.4 485.3,99.0 486.4,98.6 487.6,98.2 488.8,97.9 489.9,97.5 491.1,97.1 492.2,96.7 493.3,96.3 494.5,95.9 495.7,95.5 496.8,95.1 497.9,94.7 499.1,94.3 500.2,93.9 501.4,93.6 502.5,93.2 503.7,92.8 504.9,92.4 506.0,92.0" fill="none" stroke="#1baf7a" stroke-width="2.2"/>
<polyline points="46.0,326.0 47.1,326.0 48.3,326.0 49.5,326.0 50.6,326.0 51.8,326.0 52.9,326.0 54.1,326.0 55.2,326.0 56.4,326.0 57.5,326.0 58.7,326.0 59.8,326.0 60.9,326.0 62.1,326.0 63.2,326.0 64.4,326.0 65.5,326.0 66.7,326.0 67.8,326.0 69.0,326.0 70.1,326.0 71.3,326.0 72.5,326.0 73.6,326.0 74.8,326.0 75.9,326.0 77.0,326.0 78.2,326.0 79.3,326.0 80.5,326.0 81.7,326.0 82.8,326.0 84.0,326.0 85.1,326.0 86.2,326.0 87.4,326.0 88.6,326.0 89.7,326.0 90.8,326.0 92.0,326.0 93.1,326.0 94.3,326.0 95.4,326.0 96.6,326.0 97.8,326.0 98.9,326.0 100.0,326.0 101.2,326.0 102.3,326.0 103.5,326.0 104.7,326.0 105.8,326.0 107.0,326.0 108.1,326.0 109.2,326.0 110.4,326.0 111.6,326.0 112.7,326.0 113.9,326.0 115.0,326.0 116.2,326.0 117.3,326.0 118.4,326.0 119.6,326.0 120.7,326.0 121.9,326.0 123.0,326.0 124.2,326.0 125.3,326.0 126.5,326.0 127.6,326.0 128.8,326.0 129.9,326.0 131.1,326.0 132.2,326.0 133.4,326.0 134.6,326.0 135.7,326.0 136.9,326.0 138.0,326.0 139.2,326.0 140.3,326.0 141.4,326.0 142.6,326.0 143.8,326.0 144.9,326.0 146.1,326.0 147.2,326.0 148.3,326.0 149.5,326.0 150.6,326.0 151.8,326.0 152.9,326.0 154.1,326.0 155.2,326.0 156.4,326.0 157.6,326.0 158.7,326.0 159.8,326.0 161.0,326.0 162.2,324.4 163.3,322.9 164.4,321.3 165.6,319.8 166.8,318.2 167.9,316.6 169.0,315.1 170.2,313.5 171.3,312.0 172.5,310.4 173.6,308.8 174.8,307.3 175.9,305.7 177.1,304.2 178.2,302.6 179.4,301.0 180.5,299.5 181.7,297.9 182.8,296.4 184.0,294.8 185.2,293.2 186.3,291.7 187.4,290.1 188.6,288.6 189.8,287.0 190.9,285.4 192.1,283.9 193.2,282.3 194.3,280.8 195.5,279.2 196.7,277.6 197.8,276.1 199.0,274.5 200.1,273.0 201.2,271.4 202.4,269.8 203.6,268.3 204.7,266.7 205.9,265.2 207.0,263.6 208.2,262.0 209.3,260.5 210.5,258.9 211.6,257.4 212.8,255.8 213.9,254.2 215.0,252.7 216.2,251.1 217.3,249.6 218.5,248.0 219.7,246.4 220.8,244.9 222.0,243.3 223.1,241.8 224.2,240.2 225.4,238.6 226.6,237.1 227.7,235.5 228.9,234.0 230.0,232.4 231.1,230.8 232.3,229.3 233.4,227.7 234.6,226.2 235.8,224.6 236.9,223.0 238.0,221.5 239.2,219.9 240.3,218.4 241.5,216.8 242.7,215.2 243.8,213.7 244.9,212.1 246.1,210.6 247.2,209.0 248.4,207.4 249.6,205.9 250.7,204.3 251.8,202.8 253.0,201.2 254.2,199.6 255.3,198.1 256.5,196.5 257.6,195.0 258.8,193.4 259.9,191.8 261.1,190.3 262.2,188.7 263.4,187.2 264.5,185.6 265.6,184.0 266.8,182.5 267.9,180.9 269.1,179.4 270.2,177.8 271.4,176.2 272.5,174.7 273.7,173.1 274.9,171.6 276.0,170.0 277.1,168.4 278.3,166.9 279.4,165.3 280.6,163.8 281.8,162.2 282.9,160.6 284.0,159.1 285.2,157.5 286.4,156.0 287.5,154.4 288.6,152.8 289.8,151.3 290.9,149.7 292.1,148.2 293.2,146.6 294.4,145.0 295.5,143.5 296.7,141.9 297.9,140.4 299.0,138.8 300.1,137.2 301.3,135.7 302.4,134.1 303.6,132.6 304.8,131.0 305.9,129.4 307.1,127.9 308.2,126.3 309.4,124.8 310.5,123.2 311.7,121.6 312.8,120.1 313.9,118.5 315.1,117.0 316.2,115.4 317.4,113.8 318.6,112.3 319.7,110.7 320.9,109.2 322.0,107.6 323.2,106.0 324.3,104.5 325.5,102.9 326.6,101.4 327.8,99.8 328.9,98.2 330.0,96.7 331.2,95.1 332.4,93.6 333.5,92.0 334.6,90.4 335.8,88.9 337.0,87.3 338.1,85.8 339.2,84.2 340.4,82.6 341.5,81.1 342.7,79.5 343.8,78.0 345.0,76.4 346.1,74.8 347.3,73.3 348.4,71.7 349.6,70.2 350.8,68.6 351.9,67.0 353.1,65.5 354.2,63.9 355.3,62.4 356.5,60.8 357.6,59.2 358.8,57.7 359.9,56.1 361.1,54.6 362.2,53.0 363.4,51.4 364.6,49.9 365.7,48.3 366.9,46.8 368.0,45.2 369.2,43.6 370.3,42.1 371.4,40.5 372.6,39.0 373.8,37.4 374.9,35.8 376.1,34.3 377.2,32.7 378.4,31.2 379.5,29.6 380.7,28.0 381.8,26.5 383.0,24.9 384.1,23.4 385.2,21.8 386.4,20.2 387.5,18.7 388.7,17.1 389.9,15.6 391.0,14.0 392.1,14.0 393.3,14.0 394.5,14.0 395.6,14.0 396.8,14.0 397.9,14.0 399.1,14.0 400.2,14.0 401.3,14.0 402.5,14.0 403.7,14.0 404.8,14.0 405.9,14.0 407.1,14.0 408.2,14.0 409.4,14.0 410.6,14.0 411.7,14.0 412.8,14.0 414.0,14.0 415.1,14.0 416.3,14.0 417.4,14.0 418.6,14.0 419.8,14.0 420.9,14.0 422.1,14.0 423.2,14.0 424.4,14.0 425.5,14.0 426.7,14.0 427.8,14.0 428.9,14.0 430.1,14.0 431.2,14.0 432.4,14.0 433.6,14.0 434.7,14.0 435.8,14.0 437.0,14.0 438.2,14.0 439.3,14.0 440.4,14.0 441.6,14.0 442.8,14.0 443.9,14.0 445.0,14.0 446.2,14.0 447.4,14.0 448.5,14.0 449.6,14.0 450.8,14.0 452.0,14.0 453.1,14.0 454.2,14.0 455.4,14.0 456.6,14.0 457.7,14.0 458.8,14.0 460.0,14.0 461.2,14.0 462.3,14.0 463.4,14.0 464.6,14.0 465.8,14.0 466.9,14.0 468.1,14.0 469.2,14.0 470.3,14.0 471.5,14.0 472.6,14.0 473.8,14.0 474.9,14.0 476.1,14.0 477.2,14.0 478.4,14.0 479.6,14.0 480.7,14.0 481.9,14.0 483.0,14.0 484.2,14.0 485.3,14.0 486.4,14.0 487.6,14.0 488.8,14.0 489.9,14.0 491.1,14.0 492.2,14.0 493.3,14.0 494.5,14.0 495.7,14.0 496.8,14.0 497.9,14.0 499.1,14.0 500.2,14.0 501.4,14.0 502.5,14.0 503.7,14.0 504.9,14.0 506.0,14.0" fill="none" stroke="#e05252" stroke-width="2.6"/>
<line x1="60" y1="30" x2="80" y2="30" stroke="#888780" stroke-width="1.6" stroke-dasharray="5 4"/>
<text x="86" y="33.5" fill="#888780" font-size="11" font-family="system-ui, sans-serif">unity (gain 1)</text>
<line x1="60" y1="45" x2="80" y2="45" stroke="#1baf7a" stroke-width="2.2"/>
<text x="86" y="48.5" fill="#888780" font-size="11" font-family="system-ui, sans-serif">gain 0.5 (−6 dB)</text>
<line x1="60" y1="60" x2="80" y2="60" stroke="#e05252" stroke-width="2.6"/>
<text x="86" y="63.5" fill="#888780" font-size="11" font-family="system-ui, sans-serif">gain 2 (+6 dB) — clips at full scale</text>
</svg>
