<svg xmlns="http://www.w3.org/2000/svg" viewBox="0 0 520 300" role="img" aria-label="The four standard waveforms">
<title>The four standard waveforms</title>
<desc>Two cycles each of the four standard waveforms at the same amplitude: sine, square, sawtooth, and triangle. The square and sawtooth have jumps, and the triangle has corners; only the sine is smooth everywhere.</desc>
<text x="14" y="22" fill="#888780" font-size="11" font-family="system-ui, sans-serif">sine</text>
<line x1="14" y1="85.0" x2="250" y2="85.0" stroke="#888780" stroke-opacity="0.4" stroke-width="1" stroke-dasharray="5 4"/>
<polyline points="14.0,85.0 14.5,83.8 15.0,82.5 15.5,81.3 16.0,80.0 16.5,78.8 17.0,77.6 17.5,76.3 18.0,75.1 18.5,73.9 19.0,72.7 19.5,71.5 20.0,70.3 20.5,69.1 21.0,68.0 21.5,66.8 22.0,65.7 22.5,64.6 23.0,63.4 23.5,62.3 24.0,61.3 24.5,60.2 25.0,59.2 25.5,58.1 26.0,57.1 26.5,56.1 27.0,55.2 27.5,54.2 28.0,53.3 28.5,52.4 29.0,51.5 29.5,50.6 30.0,49.8 30.5,49.0 31.0,48.2 31.5,47.5 32.0,46.7 32.5,46.0 33.0,45.4 33.5,44.7 34.0,44.1 34.5,43.5 35.0,43.0 35.5,42.4 36.0,41.9 36.5,41.5 37.0,41.0 37.5,40.6 38.0,40.2 38.5,39.9 39.0,39.6 39.5,39.3 40.0,39.1 40.5,38.8 41.0,38.7 41.5,38.5 42.0,38.4 42.5,38.3 43.0,38.3 43.5,38.2 44.0,38.3 44.5,38.3 45.0,38.4 45.5,38.5 46.0,38.7 46.5,38.8 47.0,39.1 47.5,39.3 48.0,39.6 48.5,39.9 49.0,40.2 49.5,40.6 50.0,41.0 50.5,41.5 51.0,41.9 51.5,42.4 52.0,43.0 52.5,43.5 53.0,44.1 53.5,44.7 54.0,45.4 54.5,46.0 55.0,46.7 55.5,47.5 56.0,48.2 56.5,49.0 57.0,49.8 57.5,50.6 58.0,51.5 58.5,52.4 59.0,53.3 59.5,54.2 60.0,55.2 60.5,56.1 61.0,57.1 61.5,58.1 62.0,59.2 62.5,60.2 63.0,61.3 63.5,62.3 64.0,63.4 64.5,64.6 65.0,65.7 65.5,66.8 66.0,68.0 66.5,69.1 67.0,70.3 67.5,71.5 68.0,72.7 68.5,73.9 69.0,75.1 69.5,76.3 70.0,77.6 70.5,78.8 71.0,80.0 71.5,81.3 72.0,82.5 72.5,83.8 73.0,85.0 73.5,86.2 74.0,87.5 74.5,88.7 75.0,90.0 75.5,91.2 76.0,92.4 76.5,93.7 77.0,94.9 77.5,96.1 78.0,97.3 78.5,98.5 79.0,99.7 79.5,100.9 80.0,102.0 80.5,103.2 81.0,104.3 81.5,105.4 82.0,106.6 82.5,107.7 83.0,108.7 83.5,109.8 84.0,110.8 84.5,111.9 85.0,112.9 85.5,113.9 86.0,114.8 86.5,115.8 87.0,116.7 87.5,117.6 88.0,118.5 88.5,119.4 89.0,120.2 89.5,121.0 90.0,121.8 90.5,122.5 91.0,123.3 91.5,124.0 92.0,124.6 92.5,125.3 93.0,125.9 93.5,126.5 94.0,127.0 94.5,127.6 95.0,128.1 95.5,128.5 96.0,129.0 96.5,129.4 97.0,129.8 97.5,130.1 98.0,130.4 98.5,130.7 99.0,130.9 99.5,131.2 100.0,131.3 100.5,131.5 101.0,131.6 101.5,131.7 102.0,131.7 102.5,131.8 103.0,131.7 103.5,131.7 104.0,131.6 104.5,131.5 105.0,131.3 105.5,131.2 106.0,130.9 106.5,130.7 107.0,130.4 107.5,130.1 108.0,129.8 108.5,129.4 109.0,129.0 109.5,128.5 110.0,128.1 110.5,127.6 111.0,127.0 111.5,126.5 112.0,125.9 112.5,125.3 113.0,124.6 113.5,124.0 114.0,123.3 114.5,122.5 115.0,121.8 115.5,121.0 116.0,120.2 116.5,119.4 117.0,118.5 117.5,117.6 118.0,116.7 118.5,115.8 119.0,114.8 119.5,113.9 120.0,112.9 120.5,111.9 121.0,110.8 121.5,109.8 122.0,108.7 122.5,107.7 123.0,106.6 123.5,105.4 124.0,104.3 124.5,103.2 125.0,102.0 125.5,100.9 126.0,99.7 126.5,98.5 127.0,97.3 127.5,96.1 128.0,94.9 128.5,93.7 129.0,92.4 129.5,91.2 130.0,90.0 130.5,88.7 131.0,87.5 131.5,86.2 132.0,85.0 132.5,83.8 133.0,82.5 133.5,81.3 134.0,80.0 134.5,78.8 135.0,77.6 135.5,76.3 136.0,75.1 136.5,73.9 137.0,72.7 137.5,71.5 138.0,70.3 138.5,69.1 139.0,68.0 139.5,66.8 140.0,65.7 140.5,64.6 141.0,63.4 141.5,62.3 142.0,61.3 142.5,60.2 143.0,59.2 143.5,58.1 144.0,57.1 144.5,56.1 145.0,55.2 145.5,54.2 146.0,53.3 146.5,52.4 147.0,51.5 147.5,50.6 148.0,49.8 148.5,49.0 149.0,48.2 149.5,47.5 150.0,46.7 150.5,46.0 151.0,45.4 151.5,44.7 152.0,44.1 152.5,43.5 153.0,43.0 153.5,42.4 154.0,41.9 154.5,41.5 155.0,41.0 155.5,40.6 156.0,40.2 156.5,39.9 157.0,39.6 157.5,39.3 158.0,39.1 158.5,38.8 159.0,38.7 159.5,38.5 160.0,38.4 160.5,38.3 161.0,38.3 161.5,38.2 162.0,38.3 162.5,38.3 163.0,38.4 163.5,38.5 164.0,38.7 164.5,38.8 165.0,39.1 165.5,39.3 166.0,39.6 166.5,39.9 167.0,40.2 167.5,40.6 168.0,41.0 168.5,41.5 169.0,41.9 169.5,42.4 170.0,43.0 170.5,43.5 171.0,44.1 171.5,44.7 172.0,45.4 172.5,46.0 173.0,46.7 173.5,47.5 174.0,48.2 174.5,49.0 175.0,49.8 175.5,50.6 176.0,51.5 176.5,52.4 177.0,53.3 177.5,54.2 178.0,55.2 178.5,56.1 179.0,57.1 179.5,58.1 180.0,59.2 180.5,60.2 181.0,61.3 181.5,62.3 182.0,63.4 182.5,64.6 183.0,65.7 183.5,66.8 184.0,68.0 184.5,69.1 185.0,70.3 185.5,71.5 186.0,72.7 186.5,73.9 187.0,75.1 187.5,76.3 188.0,77.6 188.5,78.8 189.0,80.0 189.5,81.3 190.0,82.5 190.5,83.8 191.0,85.0 191.5,86.2 192.0,87.5 192.5,88.7 193.0,90.0 193.5,91.2 194.0,92.4 194.5,93.7 195.0,94.9 195.5,96.1 196.0,97.3 196.5,98.5 197.0,99.7 197.5,100.9 198.0,102.0 198.5,103.2 199.0,104.3 199.5,105.4 200.0,106.6 200.5,107.7 201.0,108.7 201.5,109.8 202.0,110.8 202.5,111.9 203.0,112.9 203.5,113.9 204.0,114.8 204.5,115.8 205.0,116.7 205.5,117.6 206.0,118.5 206.5,119.4 207.0,120.2 207.5,121.0 208.0,121.8 208.5,122.5 209.0,123.3 209.5,124.0 210.0,124.6 210.5,125.3 211.0,125.9 211.5,126.5 212.0,127.0 212.5,127.6 213.0,128.1 213.5,128.5 214.0,129.0 214.5,129.4 215.0,129.8 215.5,130.1 216.0,130.4 216.5,130.7 217.0,130.9 217.5,131.2 218.0,131.3 218.5,131.5 219.0,131.6 219.5,131.7 220.0,131.7 220.5,131.8 221.0,131.7 221.5,131.7 222.0,131.6 222.5,131.5 223.0,131.3 223.5,131.2 224.0,130.9 224.5,130.7 225.0,130.4 225.5,130.1 226.0,129.8 226.5,129.4 227.0,129.0 227.5,128.5 228.0,128.1 228.5,127.6 229.0,127.0 229.5,126.5 230.0,125.9 230.5,125.3 231.0,124.6 231.5,124.0 232.0,123.3 232.5,122.5 233.0,121.8 233.5,121.0 234.0,120.2 234.5,119.4 235.0,118.5 235.5,117.6 236.0,116.7 236.5,115.8 237.0,114.8 237.5,113.9 238.0,112.9 238.5,111.9 239.0,110.8 239.5,109.8 240.0,108.7 240.5,107.7 241.0,106.6 241.5,105.4 242.0,104.3 242.5,103.2 243.0,102.0 243.5,100.9 244.0,99.7 244.5,98.5 245.0,97.3 245.5,96.1 246.0,94.9 246.5,93.7 247.0,92.4 247.5,91.2 248.0,90.0 248.5,88.7 249.0,87.5 249.5,86.2 250.0,85.0" fill="none" stroke="#378add" stroke-width="2"/>
<text x="270" y="22" fill="#888780" font-size="11" font-family="system-ui, sans-serif">square</text>
<line x1="270" y1="85.0" x2="506" y2="85.0" stroke="#888780" stroke-opacity="0.4" stroke-width="1" stroke-dasharray="5 4"/>
<polyline points="270.0,38.2 270.5,38.2 271.0,38.2 271.5,38.2 272.0,38.2 272.5,38.2 273.0,38.2 273.5,38.2 274.0,38.2 274.5,38.2 275.0,38.2 275.5,38.2 276.0,38.2 276.5,38.2 277.0,38.2 277.5,38.2 278.0,38.2 278.5,38.2 279.0,38.2 279.5,38.2 280.0,38.2 280.5,38.2 281.0,38.2 281.5,38.2 282.0,38.2 282.5,38.2 283.0,38.2 283.5,38.2 284.0,38.2 284.5,38.2 285.0,38.2 285.5,38.2 286.0,38.2 286.5,38.2 287.0,38.2 287.5,38.2 288.0,38.2 288.5,38.2 289.0,38.2 289.5,38.2 290.0,38.2 290.5,38.2 291.0,38.2 291.5,38.2 292.0,38.2 292.5,38.2 293.0,38.2 293.5,38.2 294.0,38.2 294.5,38.2 295.0,38.2 295.5,38.2 296.0,38.2 296.5,38.2 297.0,38.2 297.5,38.2 298.0,38.2 298.5,38.2 299.0,38.2 299.5,38.2 300.0,38.2 300.5,38.2 301.0,38.2 301.5,38.2 302.0,38.2 302.5,38.2 303.0,38.2 303.5,38.2 304.0,38.2 304.5,38.2 305.0,38.2 305.5,38.2 306.0,38.2 306.5,38.2 307.0,38.2 307.5,38.2 308.0,38.2 308.5,38.2 309.0,38.2 309.5,38.2 310.0,38.2 310.5,38.2 311.0,38.2 311.5,38.2 312.0,38.2 312.5,38.2 313.0,38.2 313.5,38.2 314.0,38.2 314.5,38.2 315.0,38.2 315.5,38.2 316.0,38.2 316.5,38.2 317.0,38.2 317.5,38.2 318.0,38.2 318.5,38.2 319.0,38.2 319.5,38.2 320.0,38.2 320.5,38.2 321.0,38.2 321.5,38.2 322.0,38.2 322.5,38.2 323.0,38.2 323.5,38.2 324.0,38.2 324.5,38.2 325.0,38.2 325.5,38.2 326.0,38.2 326.5,38.2 327.0,38.2 327.5,38.2 328.0,38.2 328.5,38.2 329.0,131.8 329.5,131.8 330.0,131.8 330.5,131.8 331.0,131.8 331.5,131.8 332.0,131.8 332.5,131.8 333.0,131.8 333.5,131.8 334.0,131.8 334.5,131.8 335.0,131.8 335.5,131.8 336.0,131.8 336.5,131.8 337.0,131.8 337.5,131.8 338.0,131.8 338.5,131.8 339.0,131.8 339.5,131.8 340.0,131.8 340.5,131.8 341.0,131.8 341.5,131.8 342.0,131.8 342.5,131.8 343.0,131.8 343.5,131.8 344.0,131.8 344.5,131.8 345.0,131.8 345.5,131.8 346.0,131.8 346.5,131.8 347.0,131.8 347.5,131.8 348.0,131.8 348.5,131.8 349.0,131.8 349.5,131.8 350.0,131.8 350.5,131.8 351.0,131.8 351.5,131.8 352.0,131.8 352.5,131.8 353.0,131.8 353.5,131.8 354.0,131.8 354.5,131.8 355.0,131.8 355.5,131.8 356.0,131.8 356.5,131.8 357.0,131.8 357.5,131.8 358.0,131.8 358.5,131.8 359.0,131.8 359.5,131.8 360.0,131.8 360.5,131.8 361.0,131.8 361.5,131.8 362.0,131.8 362.5,131.8 363.0,131.8 363.5,131.8 364.0,131.8 364.5,131.8 365.0,131.8 365.5,131.8 366.0,131.8 366.5,131.8 367.0,131.8 367.5,131.8 368.0,131.8 368.5,131.8 369.0,131.8 369.5,131.8 370.0,131.8 370.5,131.8 371.0,131.8 371.5,131.8 372.0,131.8 372.5,131.8 373.0,131.8 373.5,131.8 374.0,131.8 374.5,131.8 375.0,131.8 375.5,131.8 376.0,131.8 376.5,131.8 377.0,131.8 377.5,131.8 378.0,131.8 378.5,131.8 379.0,131.8 379.5,131.8 380.0,131.8 380.5,131.8 381.0,131.8 381.5,131.8 382.0,131.8 382.5,131.8 383.0,131.8 383.5,131.8 384.0,131.8 384.5,131.8 385.0,131.8 385.5,131.8 386.0,131.8 386.5,131.8 387.0,131.8 387.5,131.8 388.0,38.2 388.5,38.2 389.0,38.2 389.5,38.2 390.0,38.2 390.5,38.2 391.0,38.2 391.5,38.2 392.0,38.2 392.5,38.2 393.0,38.2 393.5,38.2 394.0,38.2 394.5,38.2 395.0,38.2 395.5,38.2 396.0,38.2 396.5,38.2 397.0,38.2 397.5,38.2 398.0,38.2 398.5,38.2 399.0,38.2 399.5,38.2 400.0,38.2 400.5,38.2 401.0,38.2 401.5,38.2 402.0,38.2 402.5,38.2 403.0,38.2 403.5,38.2 404.0,38.2 404.5,38.2 405.0,38.2 405.5,38.2 406.0,38.2 406.5,38.2 407.0,38.2 407.5,38.2 408.0,38.2 408.5,38.2 409.0,38.2 409.5,38.2 410.0,38.2 410.5,38.2 411.0,38.2 411.5,38.2 412.0,38.2 412.5,38.2 413.0,38.2 413.5,38.2 414.0,38.2 414.5,38.2 415.0,38.2 415.5,38.2 416.0,38.2 416.5,38.2 417.0,38.2 417.5,38.2 418.0,38.2 418.5,38.2 419.0,38.2 419.5,38.2 420.0,38.2 420.5,38.2 421.0,38.2 421.5,38.2 422.0,38.2 422.5,38.2 423.0,38.2 423.5,38.2 424.0,38.2 424.5,38.2 425.0,38.2 425.5,38.2 426.0,38.2 426.5,38.2 427.0,38.2 427.5,38.2 428.0,38.2 428.5,38.2 429.0,38.2 429.5,38.2 430.0,38.2 430.5,38.2 431.0,38.2 431.5,38.2 432.0,38.2 432.5,38.2 433.0,38.2 433.5,38.2 434.0,38.2 434.5,38.2 435.0,38.2 435.5,38.2 436.0,38.2 436.5,38.2 437.0,38.2 437.5,38.2 438.0,38.2 438.5,38.2 439.0,38.2 439.5,38.2 440.0,38.2 440.5,38.2 441.0,38.2 441.5,38.2 442.0,38.2 442.5,38.2 443.0,38.2 443.5,38.2 444.0,38.2 444.5,38.2 445.0,38.2 445.5,38.2 446.0,38.2 446.5,38.2 447.0,131.8 447.5,131.8 448.0,131.8 448.5,131.8 449.0,131.8 449.5,131.8 450.0,131.8 450.5,131.8 451.0,131.8 451.5,131.8 452.0,131.8 452.5,131.8 453.0,131.8 453.5,131.8 454.0,131.8 454.5,131.8 455.0,131.8 455.5,131.8 456.0,131.8 456.5,131.8 457.0,131.8 457.5,131.8 458.0,131.8 458.5,131.8 459.0,131.8 459.5,131.8 460.0,131.8 460.5,131.8 461.0,131.8 461.5,131.8 462.0,131.8 462.5,131.8 463.0,131.8 463.5,131.8 464.0,131.8 464.5,131.8 465.0,131.8 465.5,131.8 466.0,131.8 466.5,131.8 467.0,131.8 467.5,131.8 468.0,131.8 468.5,131.8 469.0,131.8 469.5,131.8 470.0,131.8 470.5,131.8 471.0,131.8 471.5,131.8 472.0,131.8 472.5,131.8 473.0,131.8 473.5,131.8 474.0,131.8 474.5,131.8 475.0,131.8 475.5,131.8 476.0,131.8 476.5,131.8 477.0,131.8 477.5,131.8 478.0,131.8 478.5,131.8 479.0,131.8 479.5,131.8 480.0,131.8 480.5,131.8 481.0,131.8 481.5,131.8 482.0,131.8 482.5,131.8 483.0,131.8 483.5,131.8 484.0,131.8 484.5,131.8 485.0,131.8 485.5,131.8 486.0,131.8 486.5,131.8 487.0,131.8 487.5,131.8 488.0,131.8 488.5,131.8 489.0,131.8 489.5,131.8 490.0,131.8 490.5,131.8 491.0,131.8 491.5,131.8 492.0,131.8 492.5,131.8 493.0,131.8 493.5,131.8 494.0,131.8 494.5,131.8 495.0,131.8 495.5,131.8 496.0,131.8 496.5,131.8 497.0,131.8 497.5,131.8 498.0,131.8 498.5,131.8 499.0,131.8 499.5,131.8 500.0,131.8 500.5,131.8 501.0,131.8 501.5,131.8 502.0,131.8 502.5,131.8 503.0,131.8 503.5,131.8 504.0,131.8 504.5,131.8 505.0,131.8 505.5,131.8 506.0,38.2" fill="none" stroke="#378add" stroke-width="2"/>
<text x="14" y="162" fill="#888780" font-size="11" font-family="system-ui, sans-serif">sawtooth</text>
<line x1="14" y1="225.0" x2="250" y2="225.0" stroke="#888780" stroke-opacity="0.4" stroke-width="1" stroke-dasharray="5 4"/>
<polyline points="14.0,271.8 14.5,271.4 15.0,271.0 15.5,270.6 16.0,270.2 16.5,269.8 17.0,269.4 17.5,269.0 18.0,268.6 18.5,268.2 19.0,267.8 19.5,267.4 20.0,267.0 20.5,266.6 21.0,266.2 21.5,265.8 22.0,265.4 22.5,265.0 23.0,264.6 23.5,264.2 24.0,263.8 24.5,263.4 25.0,263.0 25.5,262.6 26.0,262.2 26.5,261.8 27.0,261.4 27.5,261.1 28.0,260.7 28.5,260.3 29.0,259.9 29.5,259.5 30.0,259.1 30.5,258.7 31.0,258.3 31.5,257.9 32.0,257.5 32.5,257.1 33.0,256.7 33.5,256.3 34.0,255.9 34.5,255.5 35.0,255.1 35.5,254.7 36.0,254.3 36.5,253.9 37.0,253.5 37.5,253.1 38.0,252.7 38.5,252.3 39.0,251.9 39.5,251.5 40.0,251.1 40.5,250.8 41.0,250.4 41.5,250.0 42.0,249.6 42.5,249.2 43.0,248.8 43.5,248.4 44.0,248.0 44.5,247.6 45.0,247.2 45.5,246.8 46.0,246.4 46.5,246.0 47.0,245.6 47.5,245.2 48.0,244.8 48.5,244.4 49.0,244.0 49.5,243.6 50.0,243.2 50.5,242.8 51.0,242.4 51.5,242.0 52.0,241.6 52.5,241.2 53.0,240.8 53.5,240.5 54.0,240.1 54.5,239.7 55.0,239.3 55.5,238.9 56.0,238.5 56.5,238.1 57.0,237.7 57.5,237.3 58.0,236.9 58.5,236.5 59.0,236.1 59.5,235.7 60.0,235.3 60.5,234.9 61.0,234.5 61.5,234.1 62.0,233.7 62.5,233.3 63.0,232.9 63.5,232.5 64.0,232.1 64.5,231.7 65.0,231.3 65.5,230.9 66.0,230.5 66.5,230.2 67.0,229.8 67.5,229.4 68.0,229.0 68.5,228.6 69.0,228.2 69.5,227.8 70.0,227.4 70.5,227.0 71.0,226.6 71.5,226.2 72.0,225.8 72.5,225.4 73.0,225.0 73.5,224.6 74.0,224.2 74.5,223.8 75.0,223.4 75.5,223.0 76.0,222.6 76.5,222.2 77.0,221.8 77.5,221.4 78.0,221.0 78.5,220.6 79.0,220.2 79.5,219.8 80.0,219.5 80.5,219.1 81.0,218.7 81.5,218.3 82.0,217.9 82.5,217.5 83.0,217.1 83.5,216.7 84.0,216.3 84.5,215.9 85.0,215.5 85.5,215.1 86.0,214.7 86.5,214.3 87.0,213.9 87.5,213.5 88.0,213.1 88.5,212.7 89.0,212.3 89.5,211.9 90.0,211.5 90.5,211.1 91.0,210.7 91.5,210.3 92.0,209.9 92.5,209.5 93.0,209.2 93.5,208.8 94.0,208.4 94.5,208.0 95.0,207.6 95.5,207.2 96.0,206.8 96.5,206.4 97.0,206.0 97.5,205.6 98.0,205.2 98.5,204.8 99.0,204.4 99.5,204.0 100.0,203.6 100.5,203.2 101.0,202.8 101.5,202.4 102.0,202.0 102.5,201.6 103.0,201.2 103.5,200.8 104.0,200.4 104.5,200.0 105.0,199.6 105.5,199.2 106.0,198.9 106.5,198.5 107.0,198.1 107.5,197.7 108.0,197.3 108.5,196.9 109.0,196.5 109.5,196.1 110.0,195.7 110.5,195.3 111.0,194.9 111.5,194.5 112.0,194.1 112.5,193.7 113.0,193.3 113.5,192.9 114.0,192.5 114.5,192.1 115.0,191.7 115.5,191.3 116.0,190.9 116.5,190.5 117.0,190.1 117.5,189.7 118.0,189.3 118.5,188.9 119.0,188.6 119.5,188.2 120.0,187.8 120.5,187.4 121.0,187.0 121.5,186.6 122.0,186.2 122.5,185.8 123.0,185.4 123.5,185.0 124.0,184.6 124.5,184.2 125.0,183.8 125.5,183.4 126.0,183.0 126.5,182.6 127.0,182.2 127.5,181.8 128.0,181.4 128.5,181.0 129.0,180.6 129.5,180.2 130.0,179.8 130.5,179.4 131.0,179.0 131.5,178.6 132.0,271.8 132.5,271.4 133.0,271.0 133.5,270.6 134.0,270.2 134.5,269.8 135.0,269.4 135.5,269.0 136.0,268.6 136.5,268.2 137.0,267.8 137.5,267.4 138.0,267.0 138.5,266.6 139.0,266.2 139.5,265.8 140.0,265.4 140.5,265.0 141.0,264.6 141.5,264.2 142.0,263.8 142.5,263.4 143.0,263.0 143.5,262.6 144.0,262.2 144.5,261.8 145.0,261.4 145.5,261.1 146.0,260.7 146.5,260.3 147.0,259.9 147.5,259.5 148.0,259.1 148.5,258.7 149.0,258.3 149.5,257.9 150.0,257.5 150.5,257.1 151.0,256.7 151.5,256.3 152.0,255.9 152.5,255.5 153.0,255.1 153.5,254.7 154.0,254.3 154.5,253.9 155.0,253.5 155.5,253.1 156.0,252.7 156.5,252.3 157.0,251.9 157.5,251.5 158.0,251.1 158.5,250.8 159.0,250.4 159.5,250.0 160.0,249.6 160.5,249.2 161.0,248.8 161.5,248.4 162.0,248.0 162.5,247.6 163.0,247.2 163.5,246.8 164.0,246.4 164.5,246.0 165.0,245.6 165.5,245.2 166.0,244.8 166.5,244.4 167.0,244.0 167.5,243.6 168.0,243.2 168.5,242.8 169.0,242.4 169.5,242.0 170.0,241.6 170.5,241.2 171.0,240.8 171.5,240.5 172.0,240.1 172.5,239.7 173.0,239.3 173.5,238.9 174.0,238.5 174.5,238.1 175.0,237.7 175.5,237.3 176.0,236.9 176.5,236.5 177.0,236.1 177.5,235.7 178.0,235.3 178.5,234.9 179.0,234.5 179.5,234.1 180.0,233.7 180.5,233.3 181.0,232.9 181.5,232.5 182.0,232.1 182.5,231.7 183.0,231.3 183.5,230.9 184.0,230.5 184.5,230.2 185.0,229.8 185.5,229.4 186.0,229.0 186.5,228.6 187.0,228.2 187.5,227.8 188.0,227.4 188.5,227.0 189.0,226.6 189.5,226.2 190.0,225.8 190.5,225.4 191.0,225.0 191.5,224.6 192.0,224.2 192.5,223.8 193.0,223.4 193.5,223.0 194.0,222.6 194.5,222.2 195.0,221.8 195.5,221.4 196.0,221.0 196.5,220.6 197.0,220.2 197.5,219.8 198.0,219.5 198.5,219.1 199.0,218.7 199.5,218.3 200.0,217.9 200.5,217.5 201.0,217.1 201.5,216.7 202.0,216.3 202.5,215.9 203.0,215.5 203.5,215.1 204.0,214.7 204.5,214.3 205.0,213.9 205.5,213.5 206.0,213.1 206.5,212.7 207.0,212.3 207.5,211.9 208.0,211.5 208.5,211.1 209.0,210.7 209.5,210.3 210.0,209.9 210.5,209.5 211.0,209.2 211.5,208.8 212.0,208.4 212.5,208.0 213.0,207.6 213.5,207.2 214.0,206.8 214.5,206.4 215.0,206.0 215.5,205.6 216.0,205.2 216.5,204.8 217.0,204.4 217.5,204.0 218.0,203.6 218.5,203.2 219.0,202.8 219.5,202.4 220.0,202.0 220.5,201.6 221.0,201.2 221.5,200.8 222.0,200.4 222.5,200.0 223.0,199.6 223.5,199.2 224.0,198.9 224.5,198.5 225.0,198.1 225.5,197.7 226.0,197.3 226.5,196.9 227.0,196.5 227.5,196.1 228.0,195.7 228.5,195.3 229.0,194.9 229.5,194.5 230.0,194.1 230.5,193.7 231.0,193.3 231.5,192.9 232.0,192.5 232.5,192.1 233.0,191.7 233.5,191.3 234.0,190.9 234.5,190.5 235.0,190.1 235.5,189.7 236.0,189.3 236.5,188.9 237.0,188.6 237.5,188.2 238.0,187.8 238.5,187.4 239.0,187.0 239.5,186.6 240.0,186.2 240.5,185.8 241.0,185.4 241.5,185.0 242.0,184.6 242.5,184.2 243.0,183.8 243.5,183.4 244.0,183.0 244.5,182.6 245.0,182.2 245.5,181.8 246.0,181.4 246.5,181.0 247.0,180.6 247.5,180.2 248.0,179.8 248.5,179.4 249.0,179.0 249.5,178.6 250.0,271.8" fill="none" stroke="#378add" stroke-width="2"/>
<text x="270" y="162" fill="#888780" font-size="11" font-family="system-ui, sans-serif">triangle</text>
<line x1="270" y1="225.0" x2="506" y2="225.0" stroke="#888780" stroke-opacity="0.4" stroke-width="1" stroke-dasharray="5 4"/>
<polyline points="270.0,271.8 270.5,271.0 271.0,270.2 271.5,269.4 272.0,268.6 272.5,267.8 273.0,267.0 273.5,266.2 274.0,265.4 274.5,264.6 275.0,263.8 275.5,263.0 276.0,262.2 276.5,261.4 277.0,260.7 277.5,259.9 278.0,259.1 278.5,258.3 279.0,257.5 279.5,256.7 280.0,255.9 280.5,255.1 281.0,254.3 281.5,253.5 282.0,252.7 282.5,251.9 283.0,251.1 283.5,250.4 284.0,249.6 284.5,248.8 285.0,248.0 285.5,247.2 286.0,246.4 286.5,245.6 287.0,244.8 287.5,244.0 288.0,243.2 288.5,242.4 289.0,241.6 289.5,240.8 290.0,240.1 290.5,239.3 291.0,238.5 291.5,237.7 292.0,236.9 292.5,236.1 293.0,235.3 293.5,234.5 294.0,233.7 294.5,232.9 295.0,232.1 295.5,231.3 296.0,230.5 296.5,229.8 297.0,229.0 297.5,228.2 298.0,227.4 298.5,226.6 299.0,225.8 299.5,225.0 300.0,224.2 300.5,223.4 301.0,222.6 301.5,221.8 302.0,221.0 302.5,220.2 303.0,219.5 303.5,218.7 304.0,217.9 304.5,217.1 305.0,216.3 305.5,215.5 306.0,214.7 306.5,213.9 307.0,213.1 307.5,212.3 308.0,211.5 308.5,210.7 309.0,209.9 309.5,209.2 310.0,208.4 310.5,207.6 311.0,206.8 311.5,206.0 312.0,205.2 312.5,204.4 313.0,203.6 313.5,202.8 314.0,202.0 314.5,201.2 315.0,200.4 315.5,199.6 316.0,198.9 316.5,198.1 317.0,197.3 317.5,196.5 318.0,195.7 318.5,194.9 319.0,194.1 319.5,193.3 320.0,192.5 320.5,191.7 321.0,190.9 321.5,190.1 322.0,189.3 322.5,188.6 323.0,187.8 323.5,187.0 324.0,186.2 324.5,185.4 325.0,184.6 325.5,183.8 326.0,183.0 326.5,182.2 327.0,181.4 327.5,180.6 328.0,179.8 328.5,179.0 329.0,178.2 329.5,179.0 330.0,179.8 330.5,180.6 331.0,181.4 331.5,182.2 332.0,183.0 332.5,183.8 333.0,184.6 333.5,185.4 334.0,186.2 334.5,187.0 335.0,187.8 335.5,188.6 336.0,189.3 336.5,190.1 337.0,190.9 337.5,191.7 338.0,192.5 338.5,193.3 339.0,194.1 339.5,194.9 340.0,195.7 340.5,196.5 341.0,197.3 341.5,198.1 342.0,198.9 342.5,199.6 343.0,200.4 343.5,201.2 344.0,202.0 344.5,202.8 345.0,203.6 345.5,204.4 346.0,205.2 346.5,206.0 347.0,206.8 347.5,207.6 348.0,208.4 348.5,209.2 349.0,209.9 349.5,210.7 350.0,211.5 350.5,212.3 351.0,213.1 351.5,213.9 352.0,214.7 352.5,215.5 353.0,216.3 353.5,217.1 354.0,217.9 354.5,218.7 355.0,219.5 355.5,220.2 356.0,221.0 356.5,221.8 357.0,222.6 357.5,223.4 358.0,224.2 358.5,225.0 359.0,225.8 359.5,226.6 360.0,227.4 360.5,228.2 361.0,229.0 361.5,229.8 362.0,230.5 362.5,231.3 363.0,232.1 363.5,232.9 364.0,233.7 364.5,234.5 365.0,235.3 365.5,236.1 366.0,236.9 366.5,237.7 367.0,238.5 367.5,239.3 368.0,240.1 368.5,240.8 369.0,241.6 369.5,242.4 370.0,243.2 370.5,244.0 371.0,244.8 371.5,245.6 372.0,246.4 372.5,247.2 373.0,248.0 373.5,248.8 374.0,249.6 374.5,250.4 375.0,251.1 375.5,251.9 376.0,252.7 376.5,253.5 377.0,254.3 377.5,255.1 378.0,255.9 378.5,256.7 379.0,257.5 379.5,258.3 380.0,259.1 380.5,259.9 381.0,260.7 381.5,261.4 382.0,262.2 382.5,263.0 383.0,263.8 383.5,264.6 384.0,265.4 384.5,266.2 385.0,267.0 385.5,267.8 386.0,268.6 386.5,269.4 387.0,270.2 387.5,271.0 388.0,271.8 388.5,271.0 389.0,270.2 389.5,269.4 390.0,268.6 390.5,267.8 391.0,267.0 391.5,266.2 392.0,265.4 392.5,264.6 393.0,263.8 393.5,263.0 394.0,262.2 394.5,261.4 395.0,260.7 395.5,259.9 396.0,259.1 396.5,258.3 397.0,257.5 397.5,256.7 398.0,255.9 398.5,255.1 399.0,254.3 399.5,253.5 400.0,252.7 400.5,251.9 401.0,251.1 401.5,250.4 402.0,249.6 402.5,248.8 403.0,248.0 403.5,247.2 404.0,246.4 404.5,245.6 405.0,244.8 405.5,244.0 406.0,243.2 406.5,242.4 407.0,241.6 407.5,240.8 408.0,240.1 408.5,239.3 409.0,238.5 409.5,237.7 410.0,236.9 410.5,236.1 411.0,235.3 411.5,234.5 412.0,233.7 412.5,232.9 413.0,232.1 413.5,231.3 414.0,230.5 414.5,229.8 415.0,229.0 415.5,228.2 416.0,227.4 416.5,226.6 417.0,225.8 417.5,225.0 418.0,224.2 418.5,223.4 419.0,222.6 419.5,221.8 420.0,221.0 420.5,220.2 421.0,219.5 421.5,218.7 422.0,217.9 422.5,217.1 423.0,216.3 423.5,215.5 424.0,214.7 424.5,213.9 425.0,213.1 425.5,212.3 426.0,211.5 426.5,210.7 427.0,209.9 427.5,209.2 428.0,208.4 428.5,207.6 429.0,206.8 429.5,206.0 430.0,205.2 430.5,204.4 431.0,203.6 431.5,202.8 432.0,202.0 432.5,201.2 433.0,200.4 433.5,199.6 434.0,198.9 434.5,198.1 435.0,197.3 435.5,196.5 436.0,195.7 436.5,194.9 437.0,194.1 437.5,193.3 438.0,192.5 438.5,191.7 439.0,190.9 439.5,190.1 440.0,189.3 440.5,188.6 441.0,187.8 441.5,187.0 442.0,186.2 442.5,185.4 443.0,184.6 443.5,183.8 444.0,183.0 444.5,182.2 445.0,181.4 445.5,180.6 446.0,179.8 446.5,179.0 447.0,178.2 447.5,179.0 448.0,179.8 448.5,180.6 449.0,181.4 449.5,182.2 450.0,183.0 450.5,183.8 451.0,184.6 451.5,185.4 452.0,186.2 452.5,187.0 453.0,187.8 453.5,188.6 454.0,189.3 454.5,190.1 455.0,190.9 455.5,191.7 456.0,192.5 456.5,193.3 457.0,194.1 457.5,194.9 458.0,195.7 458.5,196.5 459.0,197.3 459.5,198.1 460.0,198.9 460.5,199.6 461.0,200.4 461.5,201.2 462.0,202.0 462.5,202.8 463.0,203.6 463.5,204.4 464.0,205.2 464.5,206.0 465.0,206.8 465.5,207.6 466.0,208.4 466.5,209.2 467.0,209.9 467.5,210.7 468.0,211.5 468.5,212.3 469.0,213.1 469.5,213.9 470.0,214.7 470.5,215.5 471.0,216.3 471.5,217.1 472.0,217.9 472.5,218.7 473.0,219.5 473.5,220.2 474.0,221.0 474.5,221.8 475.0,222.6 475.5,223.4 476.0,224.2 476.5,225.0 477.0,225.8 477.5,226.6 478.0,227.4 478.5,228.2 479.0,229.0 479.5,229.8 480.0,230.5 480.5,231.3 481.0,232.1 481.5,232.9 482.0,233.7 482.5,234.5 483.0,235.3 483.5,236.1 484.0,236.9 484.5,237.7 485.0,238.5 485.5,239.3 486.0,240.1 486.5,240.8 487.0,241.6 487.5,242.4 488.0,243.2 488.5,244.0 489.0,244.8 489.5,245.6 490.0,246.4 490.5,247.2 491.0,248.0 491.5,248.8 492.0,249.6 492.5,250.4 493.0,251.1 493.5,251.9 494.0,252.7 494.5,253.5 495.0,254.3 495.5,255.1 496.0,255.9 496.5,256.7 497.0,257.5 497.5,258.3 498.0,259.1 498.5,259.9 499.0,260.7 499.5,261.4 500.0,262.2 500.5,263.0 501.0,263.8 501.5,264.6 502.0,265.4 502.5,266.2 503.0,267.0 503.5,267.8 504.0,268.6 504.5,269.4 505.0,270.2 505.5,271.0 506.0,271.8" fill="none" stroke="#378add" stroke-width="2"/>
</svg>
